%TF.GenerationSoftware,KiCad,Pcbnew,(6.0.9)*%
%TF.CreationDate,2022-12-14T18:51:54-08:00*%
%TF.ProjectId,halloween vending machine,68616c6c-6f77-4656-956e-2076656e6469,rev?*%
%TF.SameCoordinates,Original*%
%TF.FileFunction,Drillmap*%
%TF.FilePolarity,Positive*%
%FSLAX45Y45*%
G04 Gerber Fmt 4.5, Leading zero omitted, Abs format (unit mm)*
G04 Created by KiCad (PCBNEW (6.0.9)) date 2022-12-14 18:51:54*
%MOMM*%
%LPD*%
G01*
G04 APERTURE LIST*
%ADD10C,0.100000*%
%ADD11C,0.200000*%
G04 APERTURE END LIST*
D10*
X2108200Y-1981200D02*
X14935200Y-1981200D01*
X14935200Y-1981200D02*
X14935200Y-13716000D01*
X14935200Y-13716000D02*
X2108200Y-13716000D01*
X2108200Y-13716000D02*
X2108200Y-1981200D01*
D11*
X2360819Y-14031476D02*
X2360819Y-13831476D01*
X2408438Y-13831476D01*
X2437010Y-13841000D01*
X2456057Y-13860048D01*
X2465581Y-13879095D01*
X2475105Y-13917190D01*
X2475105Y-13945762D01*
X2465581Y-13983857D01*
X2456057Y-14002905D01*
X2437010Y-14021952D01*
X2408438Y-14031476D01*
X2360819Y-14031476D01*
X2560819Y-14031476D02*
X2560819Y-13898143D01*
X2560819Y-13936238D02*
X2570343Y-13917190D01*
X2579867Y-13907667D01*
X2598914Y-13898143D01*
X2617962Y-13898143D01*
X2684629Y-14031476D02*
X2684629Y-13898143D01*
X2684629Y-13831476D02*
X2675105Y-13841000D01*
X2684629Y-13850524D01*
X2694152Y-13841000D01*
X2684629Y-13831476D01*
X2684629Y-13850524D01*
X2808438Y-14031476D02*
X2789390Y-14021952D01*
X2779867Y-14002905D01*
X2779867Y-13831476D01*
X2913200Y-14031476D02*
X2894152Y-14021952D01*
X2884628Y-14002905D01*
X2884628Y-13831476D01*
X3141771Y-14031476D02*
X3141771Y-13831476D01*
X3208438Y-13974333D01*
X3275105Y-13831476D01*
X3275105Y-14031476D01*
X3456057Y-14031476D02*
X3456057Y-13926714D01*
X3446533Y-13907667D01*
X3427486Y-13898143D01*
X3389390Y-13898143D01*
X3370343Y-13907667D01*
X3456057Y-14021952D02*
X3437009Y-14031476D01*
X3389390Y-14031476D01*
X3370343Y-14021952D01*
X3360819Y-14002905D01*
X3360819Y-13983857D01*
X3370343Y-13964809D01*
X3389390Y-13955286D01*
X3437009Y-13955286D01*
X3456057Y-13945762D01*
X3551295Y-13898143D02*
X3551295Y-14098143D01*
X3551295Y-13907667D02*
X3570343Y-13898143D01*
X3608438Y-13898143D01*
X3627486Y-13907667D01*
X3637009Y-13917190D01*
X3646533Y-13936238D01*
X3646533Y-13993381D01*
X3637009Y-14012428D01*
X3627486Y-14021952D01*
X3608438Y-14031476D01*
X3570343Y-14031476D01*
X3551295Y-14021952D01*
X3732248Y-14012428D02*
X3741771Y-14021952D01*
X3732248Y-14031476D01*
X3722724Y-14021952D01*
X3732248Y-14012428D01*
X3732248Y-14031476D01*
X3732248Y-13907667D02*
X3741771Y-13917190D01*
X3732248Y-13926714D01*
X3722724Y-13917190D01*
X3732248Y-13907667D01*
X3732248Y-13926714D01*
M02*
