%TF.GenerationSoftware,KiCad,Pcbnew,(6.0.9)*%
%TF.CreationDate,2022-12-14T18:51:54-08:00*%
%TF.ProjectId,halloween vending machine,68616c6c-6f77-4656-956e-2076656e6469,rev?*%
%TF.SameCoordinates,Original*%
%TF.FileFunction,Drillmap*%
%TF.FilePolarity,Positive*%
%FSLAX45Y45*%
G04 Gerber Fmt 4.5, Leading zero omitted, Abs format (unit mm)*
G04 Created by KiCad (PCBNEW (6.0.9)) date 2022-12-14 18:51:54*
%MOMM*%
%LPD*%
G01*
G04 APERTURE LIST*
%ADD10C,0.100000*%
%ADD11C,0.200000*%
%ADD12C,0.030000*%
%ADD13C,0.080000*%
%ADD14C,0.102000*%
%ADD15C,0.110000*%
%ADD16C,0.129000*%
%ADD17C,0.130000*%
%ADD18C,0.132000*%
G04 APERTURE END LIST*
D10*
X2108200Y-1981200D02*
X14935200Y-1981200D01*
X14935200Y-1981200D02*
X14935200Y-13716000D01*
X14935200Y-13716000D02*
X2108200Y-13716000D01*
X2108200Y-13716000D02*
X2108200Y-1981200D01*
D11*
D12*
X2753600Y-7274800D02*
X2783600Y-7304800D01*
X2783600Y-7274800D02*
X2753600Y-7304800D01*
X3007600Y-2550400D02*
X3037600Y-2580400D01*
X3037600Y-2550400D02*
X3007600Y-2580400D01*
X3007600Y-4315700D02*
X3037600Y-4345700D01*
X3037600Y-4315700D02*
X3007600Y-4345700D01*
X3007600Y-9484600D02*
X3037600Y-9514600D01*
X3037600Y-9484600D02*
X3007600Y-9514600D01*
X3009900Y-5003800D02*
X3039900Y-5033800D01*
X3039900Y-5003800D02*
X3009900Y-5033800D01*
X3312400Y-8773400D02*
X3342400Y-8803400D01*
X3342400Y-8773400D02*
X3312400Y-8803400D01*
X3388600Y-5954000D02*
X3418600Y-5984000D01*
X3418600Y-5954000D02*
X3388600Y-5984000D01*
X3388600Y-6690600D02*
X3418600Y-6720600D01*
X3418600Y-6690600D02*
X3388600Y-6720600D01*
X3388600Y-8925800D02*
X3418600Y-8955800D01*
X3418600Y-8925800D02*
X3388600Y-8955800D01*
X3464800Y-5954000D02*
X3494800Y-5984000D01*
X3494800Y-5954000D02*
X3464800Y-5984000D01*
X3464800Y-6690600D02*
X3494800Y-6720600D01*
X3494800Y-6690600D02*
X3464800Y-6720600D01*
X3769600Y-2550400D02*
X3799600Y-2580400D01*
X3799600Y-2550400D02*
X3769600Y-2580400D01*
X3769600Y-4315700D02*
X3799600Y-4345700D01*
X3799600Y-4315700D02*
X3769600Y-4345700D01*
X3782300Y-5141200D02*
X3812300Y-5171200D01*
X3812300Y-5141200D02*
X3782300Y-5171200D01*
X3922000Y-5319000D02*
X3952000Y-5349000D01*
X3952000Y-5319000D02*
X3922000Y-5349000D01*
X3922000Y-5954000D02*
X3952000Y-5984000D01*
X3952000Y-5954000D02*
X3922000Y-5984000D01*
X3922000Y-6690600D02*
X3952000Y-6720600D01*
X3952000Y-6690600D02*
X3922000Y-6720600D01*
X4154500Y-4426100D02*
X4184500Y-4456100D01*
X4184500Y-4426100D02*
X4154500Y-4456100D01*
X4226800Y-4353800D02*
X4256800Y-4383800D01*
X4256800Y-4353800D02*
X4226800Y-4383800D01*
X4277600Y-4277600D02*
X4307600Y-4307600D01*
X4307600Y-4277600D02*
X4277600Y-4307600D01*
X4303000Y-8900400D02*
X4333000Y-8930400D01*
X4333000Y-8900400D02*
X4303000Y-8930400D01*
X4353800Y-4201400D02*
X4383800Y-4231400D01*
X4383800Y-4201400D02*
X4353800Y-4231400D01*
X4404600Y-5242800D02*
X4434600Y-5272800D01*
X4434600Y-5242800D02*
X4404600Y-5272800D01*
X4430000Y-5954000D02*
X4460000Y-5984000D01*
X4460000Y-5954000D02*
X4430000Y-5984000D01*
X4430000Y-6690600D02*
X4460000Y-6720600D01*
X4460000Y-6690600D02*
X4430000Y-6720600D01*
X4658600Y-5319000D02*
X4688600Y-5349000D01*
X4688600Y-5319000D02*
X4658600Y-5349000D01*
X4709400Y-5954000D02*
X4739400Y-5984000D01*
X4739400Y-5954000D02*
X4709400Y-5984000D01*
X4912600Y-5954000D02*
X4942600Y-5984000D01*
X4942600Y-5954000D02*
X4912600Y-5984000D01*
X4912600Y-6690600D02*
X4942600Y-6720600D01*
X4942600Y-6690600D02*
X4912600Y-6720600D01*
X5115800Y-5141200D02*
X5145800Y-5171200D01*
X5145800Y-5141200D02*
X5115800Y-5171200D01*
X5192000Y-5217400D02*
X5222000Y-5247400D01*
X5222000Y-5217400D02*
X5192000Y-5247400D01*
X5192000Y-6462000D02*
X5222000Y-6492000D01*
X5222000Y-6462000D02*
X5192000Y-6492000D01*
X5319000Y-8900400D02*
X5349000Y-8930400D01*
X5349000Y-8900400D02*
X5319000Y-8930400D01*
X5471400Y-5014200D02*
X5501400Y-5044200D01*
X5501400Y-5014200D02*
X5471400Y-5044200D01*
X5496800Y-6868400D02*
X5526800Y-6898400D01*
X5526800Y-6868400D02*
X5496800Y-6898400D01*
X5776200Y-5649200D02*
X5806200Y-5679200D01*
X5806200Y-5649200D02*
X5776200Y-5679200D01*
X5954000Y-4938000D02*
X5984000Y-4968000D01*
X5984000Y-4938000D02*
X5954000Y-4968000D01*
X6246100Y-6385800D02*
X6276100Y-6415800D01*
X6276100Y-6385800D02*
X6246100Y-6415800D01*
X6284200Y-5928600D02*
X6314200Y-5958600D01*
X6314200Y-5928600D02*
X6284200Y-5958600D01*
X6309600Y-5496800D02*
X6339600Y-5526800D01*
X6339600Y-5496800D02*
X6309600Y-5526800D01*
X6309600Y-6233400D02*
X6339600Y-6263400D01*
X6339600Y-6233400D02*
X6309600Y-6263400D01*
X6462000Y-9403850D02*
X6492000Y-9433850D01*
X6492000Y-9403850D02*
X6462000Y-9433850D01*
X6741400Y-5141200D02*
X6771400Y-5171200D01*
X6771400Y-5141200D02*
X6741400Y-5171200D01*
X6741400Y-5928600D02*
X6771400Y-5958600D01*
X6771400Y-5928600D02*
X6741400Y-5958600D01*
X6741400Y-9332200D02*
X6771400Y-9362200D01*
X6771400Y-9332200D02*
X6741400Y-9362200D01*
X6817600Y-5014200D02*
X6847600Y-5044200D01*
X6847600Y-5014200D02*
X6817600Y-5044200D01*
X6817600Y-6233400D02*
X6847600Y-6263400D01*
X6847600Y-6233400D02*
X6817600Y-6263400D01*
X6817600Y-9230600D02*
X6847600Y-9260600D01*
X6847600Y-9230600D02*
X6817600Y-9260600D01*
X6957300Y-5522200D02*
X6987300Y-5552200D01*
X6987300Y-5522200D02*
X6957300Y-5552200D01*
X6957300Y-8697200D02*
X6987300Y-8727200D01*
X6987300Y-8697200D02*
X6957300Y-8727200D01*
X6957300Y-9129000D02*
X6987300Y-9159000D01*
X6987300Y-9129000D02*
X6957300Y-9159000D01*
X7020800Y-4430000D02*
X7050800Y-4460000D01*
X7050800Y-4430000D02*
X7020800Y-4460000D01*
X7020800Y-5166600D02*
X7050800Y-5196600D01*
X7050800Y-5166600D02*
X7020800Y-5196600D01*
X7071600Y-4353800D02*
X7101600Y-4383800D01*
X7101600Y-4353800D02*
X7071600Y-4383800D01*
X7097000Y-5090400D02*
X7127000Y-5120400D01*
X7127000Y-5090400D02*
X7097000Y-5120400D01*
X7147800Y-4277600D02*
X7177800Y-4307600D01*
X7177800Y-4277600D02*
X7147800Y-4307600D01*
X7173200Y-5014200D02*
X7203200Y-5044200D01*
X7203200Y-5014200D02*
X7173200Y-5044200D01*
X7224000Y-4201400D02*
X7254000Y-4231400D01*
X7254000Y-4201400D02*
X7224000Y-4231400D01*
X7249400Y-4938000D02*
X7279400Y-4968000D01*
X7279400Y-4938000D02*
X7249400Y-4968000D01*
X7909800Y-3871200D02*
X7939800Y-3901200D01*
X7939800Y-3871200D02*
X7909800Y-3901200D01*
X8087600Y-3007600D02*
X8117600Y-3037600D01*
X8117600Y-3007600D02*
X8087600Y-3037600D01*
X8138400Y-3871200D02*
X8168400Y-3901200D01*
X8168400Y-3871200D02*
X8138400Y-3901200D01*
X8240000Y-10983200D02*
X8270000Y-11013200D01*
X8270000Y-10983200D02*
X8240000Y-11013200D01*
X8316200Y-9332200D02*
X8346200Y-9362200D01*
X8346200Y-9332200D02*
X8316200Y-9362200D01*
X8494000Y-3871200D02*
X8524000Y-3901200D01*
X8524000Y-3871200D02*
X8494000Y-3901200D01*
X8494000Y-9129000D02*
X8524000Y-9159000D01*
X8524000Y-9129000D02*
X8494000Y-9159000D01*
X8621000Y-3871200D02*
X8651000Y-3901200D01*
X8651000Y-3871200D02*
X8621000Y-3901200D01*
X8697200Y-9230600D02*
X8727200Y-9260600D01*
X8727200Y-9230600D02*
X8697200Y-9260600D01*
X8900400Y-9814800D02*
X8930400Y-9844800D01*
X8930400Y-9814800D02*
X8900400Y-9844800D01*
X9002000Y-5598400D02*
X9032000Y-5628400D01*
X9032000Y-5598400D02*
X9002000Y-5628400D01*
X9078200Y-10373600D02*
X9108200Y-10403600D01*
X9108200Y-10373600D02*
X9078200Y-10403600D01*
X9179800Y-10195800D02*
X9209800Y-10225800D01*
X9209800Y-10195800D02*
X9179800Y-10225800D01*
X9281400Y-10983200D02*
X9311400Y-11013200D01*
X9311400Y-10983200D02*
X9281400Y-11013200D01*
X9433800Y-10500600D02*
X9463800Y-10530600D01*
X9463800Y-10500600D02*
X9433800Y-10530600D01*
X9662400Y-9332200D02*
X9692400Y-9362200D01*
X9692400Y-9332200D02*
X9662400Y-9362200D01*
X9735000Y-3385000D02*
X9765000Y-3415000D01*
X9765000Y-3385000D02*
X9735000Y-3415000D01*
X9738600Y-9230600D02*
X9768600Y-9260600D01*
X9768600Y-9230600D02*
X9738600Y-9260600D01*
X9840200Y-10170400D02*
X9870200Y-10200400D01*
X9870200Y-10170400D02*
X9840200Y-10200400D01*
X9941800Y-3871200D02*
X9971800Y-3901200D01*
X9971800Y-3871200D02*
X9941800Y-3901200D01*
X10043400Y-9129000D02*
X10073400Y-9159000D01*
X10073400Y-9129000D02*
X10043400Y-9159000D01*
X10221200Y-10983200D02*
X10251200Y-11013200D01*
X10251200Y-10983200D02*
X10221200Y-11013200D01*
X10373600Y-3871200D02*
X10403600Y-3901200D01*
X10403600Y-3871200D02*
X10373600Y-3901200D01*
X10424400Y-9764000D02*
X10454400Y-9794000D01*
X10454400Y-9764000D02*
X10424400Y-9794000D01*
X10500600Y-9916400D02*
X10530600Y-9946400D01*
X10530600Y-9916400D02*
X10500600Y-9946400D01*
X10500600Y-10348200D02*
X10530600Y-10378200D01*
X10530600Y-10348200D02*
X10500600Y-10378200D01*
X10881600Y-5623800D02*
X10911600Y-5653800D01*
X10911600Y-5623800D02*
X10881600Y-5653800D01*
X11059400Y-3718800D02*
X11089400Y-3748800D01*
X11089400Y-3718800D02*
X11059400Y-3748800D01*
X11211800Y-10983200D02*
X11241800Y-11013200D01*
X11241800Y-10983200D02*
X11211800Y-11013200D01*
X11415000Y-10424400D02*
X11445000Y-10454400D01*
X11445000Y-10424400D02*
X11415000Y-10454400D01*
X11618200Y-3312400D02*
X11648200Y-3342400D01*
X11648200Y-3312400D02*
X11618200Y-3342400D01*
X11643600Y-9230600D02*
X11673600Y-9260600D01*
X11673600Y-9230600D02*
X11643600Y-9260600D01*
X11694400Y-9332200D02*
X11724400Y-9362200D01*
X11724400Y-9332200D02*
X11694400Y-9362200D01*
X11770600Y-3871200D02*
X11800600Y-3901200D01*
X11800600Y-3871200D02*
X11770600Y-3901200D01*
X11846800Y-9129000D02*
X11876800Y-9159000D01*
X11876800Y-9129000D02*
X11846800Y-9159000D01*
X11897600Y-3642600D02*
X11927600Y-3672600D01*
X11927600Y-3642600D02*
X11897600Y-3672600D01*
X11973800Y-10221200D02*
X12003800Y-10251200D01*
X12003800Y-10221200D02*
X11973800Y-10251200D01*
X12177000Y-9230600D02*
X12207000Y-9260600D01*
X12207000Y-9230600D02*
X12177000Y-9260600D01*
X12227800Y-3871200D02*
X12257800Y-3901200D01*
X12257800Y-3871200D02*
X12227800Y-3901200D01*
X12326800Y-9512600D02*
X12356800Y-9542600D01*
X12356800Y-9512600D02*
X12326800Y-9542600D01*
X12329400Y-10246600D02*
X12359400Y-10276600D01*
X12359400Y-10246600D02*
X12329400Y-10276600D01*
X12558000Y-9332200D02*
X12588000Y-9362200D01*
X12588000Y-9332200D02*
X12558000Y-9362200D01*
X12735800Y-5649200D02*
X12765800Y-5679200D01*
X12765800Y-5649200D02*
X12735800Y-5679200D01*
X12989800Y-3642600D02*
X13019800Y-3672600D01*
X13019800Y-3642600D02*
X12989800Y-3672600D01*
X13650200Y-3871200D02*
X13680200Y-3901200D01*
X13680200Y-3871200D02*
X13650200Y-3901200D01*
X14082000Y-3871200D02*
X14112000Y-3901200D01*
X14112000Y-3871200D02*
X14082000Y-3901200D01*
X14615400Y-5649200D02*
X14645400Y-5679200D01*
X14645400Y-5649200D02*
X14615400Y-5679200D01*
D13*
X2854900Y-10153900D02*
G75*
G03*
X2854900Y-10153900I-40000J0D01*
G01*
X2854900Y-10915900D02*
G75*
G03*
X2854900Y-10915900I-40000J0D01*
G01*
X2881300Y-7946100D02*
G75*
G03*
X2881300Y-7946100I-40000J0D01*
G01*
X2881300Y-8708100D02*
G75*
G03*
X2881300Y-8708100I-40000J0D01*
G01*
X3108900Y-10153900D02*
G75*
G03*
X3108900Y-10153900I-40000J0D01*
G01*
X3108900Y-10915900D02*
G75*
G03*
X3108900Y-10915900I-40000J0D01*
G01*
X3135300Y-7946100D02*
G75*
G03*
X3135300Y-7946100I-40000J0D01*
G01*
X3135300Y-8708100D02*
G75*
G03*
X3135300Y-8708100I-40000J0D01*
G01*
X3845500Y-10153900D02*
G75*
G03*
X3845500Y-10153900I-40000J0D01*
G01*
X3845500Y-10915900D02*
G75*
G03*
X3845500Y-10915900I-40000J0D01*
G01*
X3871900Y-7946100D02*
G75*
G03*
X3871900Y-7946100I-40000J0D01*
G01*
X3871900Y-8708100D02*
G75*
G03*
X3871900Y-8708100I-40000J0D01*
G01*
X4099500Y-10153900D02*
G75*
G03*
X4099500Y-10153900I-40000J0D01*
G01*
X4099500Y-10915900D02*
G75*
G03*
X4099500Y-10915900I-40000J0D01*
G01*
X4125900Y-7946100D02*
G75*
G03*
X4125900Y-7946100I-40000J0D01*
G01*
X4125900Y-8708100D02*
G75*
G03*
X4125900Y-8708100I-40000J0D01*
G01*
X4836100Y-10179300D02*
G75*
G03*
X4836100Y-10179300I-40000J0D01*
G01*
X4836100Y-10941300D02*
G75*
G03*
X4836100Y-10941300I-40000J0D01*
G01*
X4862500Y-7946100D02*
G75*
G03*
X4862500Y-7946100I-40000J0D01*
G01*
X4862500Y-8708100D02*
G75*
G03*
X4862500Y-8708100I-40000J0D01*
G01*
X5090100Y-10179300D02*
G75*
G03*
X5090100Y-10179300I-40000J0D01*
G01*
X5090100Y-10941300D02*
G75*
G03*
X5090100Y-10941300I-40000J0D01*
G01*
X5116500Y-7946100D02*
G75*
G03*
X5116500Y-7946100I-40000J0D01*
G01*
X5116500Y-8708100D02*
G75*
G03*
X5116500Y-8708100I-40000J0D01*
G01*
X5852100Y-10179300D02*
G75*
G03*
X5852100Y-10179300I-40000J0D01*
G01*
X5852100Y-10941300D02*
G75*
G03*
X5852100Y-10941300I-40000J0D01*
G01*
X5903900Y-7946100D02*
G75*
G03*
X5903900Y-7946100I-40000J0D01*
G01*
X5903900Y-8708100D02*
G75*
G03*
X5903900Y-8708100I-40000J0D01*
G01*
X6106100Y-10179300D02*
G75*
G03*
X6106100Y-10179300I-40000J0D01*
G01*
X6106100Y-10941300D02*
G75*
G03*
X6106100Y-10941300I-40000J0D01*
G01*
X6157900Y-7946100D02*
G75*
G03*
X6157900Y-7946100I-40000J0D01*
G01*
X6157900Y-8708100D02*
G75*
G03*
X6157900Y-8708100I-40000J0D01*
G01*
X7980600Y-4216000D02*
G75*
G03*
X7980600Y-4216000I-40000J0D01*
G01*
X7980600Y-4470000D02*
G75*
G03*
X7980600Y-4470000I-40000J0D01*
G01*
X8742600Y-4216000D02*
G75*
G03*
X8742600Y-4216000I-40000J0D01*
G01*
X8742600Y-4470000D02*
G75*
G03*
X8742600Y-4470000I-40000J0D01*
G01*
X9843400Y-4216900D02*
G75*
G03*
X9843400Y-4216900I-40000J0D01*
G01*
X9843400Y-4470900D02*
G75*
G03*
X9843400Y-4470900I-40000J0D01*
G01*
X10605400Y-4216900D02*
G75*
G03*
X10605400Y-4216900I-40000J0D01*
G01*
X10605400Y-4470900D02*
G75*
G03*
X10605400Y-4470900I-40000J0D01*
G01*
X11697600Y-4219700D02*
G75*
G03*
X11697600Y-4219700I-40000J0D01*
G01*
X11697600Y-4473700D02*
G75*
G03*
X11697600Y-4473700I-40000J0D01*
G01*
X12459600Y-4219700D02*
G75*
G03*
X12459600Y-4219700I-40000J0D01*
G01*
X12459600Y-4473700D02*
G75*
G03*
X12459600Y-4473700I-40000J0D01*
G01*
X13577200Y-4216900D02*
G75*
G03*
X13577200Y-4216900I-40000J0D01*
G01*
X13577200Y-4470900D02*
G75*
G03*
X13577200Y-4470900I-40000J0D01*
G01*
X14339200Y-4216900D02*
G75*
G03*
X14339200Y-4216900I-40000J0D01*
G01*
X14339200Y-4470900D02*
G75*
G03*
X14339200Y-4470900I-40000J0D01*
G01*
D10*
X13804800Y-3120200D02*
X13804800Y-3220200D01*
X13754800Y-3170200D02*
X13854800Y-3170200D01*
D11*
X13754800Y-3070200D02*
X13754800Y-3270200D01*
X13854800Y-3070200D02*
X13854800Y-3270200D01*
X13754800Y-3270200D02*
G75*
G03*
X13854800Y-3270200I50000J0D01*
G01*
X13854800Y-3070200D02*
G75*
G03*
X13754800Y-3070200I-50000J0D01*
G01*
D10*
X14274800Y-2820200D02*
X14274800Y-2920200D01*
X14224800Y-2870200D02*
X14324800Y-2870200D01*
D11*
X14374800Y-2820200D02*
X14174800Y-2820200D01*
X14374800Y-2920200D02*
X14174800Y-2920200D01*
X14174800Y-2820200D02*
G75*
G03*
X14174800Y-2920200I0J-50000D01*
G01*
X14374800Y-2920200D02*
G75*
G03*
X14374800Y-2820200I0J50000D01*
G01*
D10*
X14274800Y-3420200D02*
X14274800Y-3520200D01*
X14224800Y-3470200D02*
X14324800Y-3470200D01*
D11*
X14374800Y-3420200D02*
X14174800Y-3420200D01*
X14374800Y-3520200D02*
X14174800Y-3520200D01*
X14174800Y-3420200D02*
G75*
G03*
X14174800Y-3520200I0J-50000D01*
G01*
X14374800Y-3520200D02*
G75*
G03*
X14374800Y-3420200I0J50000D01*
G01*
D14*
X2681563Y-2216063D02*
X2681563Y-2143937D01*
X2609437Y-2143937D01*
X2609437Y-2216063D01*
X2681563Y-2216063D01*
X2681563Y-4756063D02*
X2681563Y-4683937D01*
X2609437Y-4683937D01*
X2609437Y-4756063D01*
X2681563Y-4756063D01*
X2935563Y-2216063D02*
X2935563Y-2143937D01*
X2863437Y-2143937D01*
X2863437Y-2216063D01*
X2935563Y-2216063D01*
X2935563Y-4756063D02*
X2935563Y-4683937D01*
X2863437Y-4683937D01*
X2863437Y-4756063D01*
X2935563Y-4756063D01*
X3189563Y-2216063D02*
X3189563Y-2143937D01*
X3117437Y-2143937D01*
X3117437Y-2216063D01*
X3189563Y-2216063D01*
X3189563Y-4756063D02*
X3189563Y-4683937D01*
X3117437Y-4683937D01*
X3117437Y-4756063D01*
X3189563Y-4756063D01*
X3443563Y-2216063D02*
X3443563Y-2143937D01*
X3371437Y-2143937D01*
X3371437Y-2216063D01*
X3443563Y-2216063D01*
X3443563Y-4756063D02*
X3443563Y-4683937D01*
X3371437Y-4683937D01*
X3371437Y-4756063D01*
X3443563Y-4756063D01*
X3697563Y-2216063D02*
X3697563Y-2143937D01*
X3625437Y-2143937D01*
X3625437Y-2216063D01*
X3697563Y-2216063D01*
X3697563Y-4756063D02*
X3697563Y-4683937D01*
X3625437Y-4683937D01*
X3625437Y-4756063D01*
X3697563Y-4756063D01*
X3951563Y-2216063D02*
X3951563Y-2143937D01*
X3879437Y-2143937D01*
X3879437Y-2216063D01*
X3951563Y-2216063D01*
X3951563Y-4756063D02*
X3951563Y-4683937D01*
X3879437Y-4683937D01*
X3879437Y-4756063D01*
X3951563Y-4756063D01*
X4205563Y-2216063D02*
X4205563Y-2143937D01*
X4133437Y-2143937D01*
X4133437Y-2216063D01*
X4205563Y-2216063D01*
X4205563Y-4756063D02*
X4205563Y-4683937D01*
X4133437Y-4683937D01*
X4133437Y-4756063D01*
X4205563Y-4756063D01*
X4459563Y-2216063D02*
X4459563Y-2143937D01*
X4387437Y-2143937D01*
X4387437Y-2216063D01*
X4459563Y-2216063D01*
X4459563Y-4756063D02*
X4459563Y-4683937D01*
X4387437Y-4683937D01*
X4387437Y-4756063D01*
X4459563Y-4756063D01*
X4713563Y-2216063D02*
X4713563Y-2143937D01*
X4641437Y-2143937D01*
X4641437Y-2216063D01*
X4713563Y-2216063D01*
X4713563Y-4756063D02*
X4713563Y-4683937D01*
X4641437Y-4683937D01*
X4641437Y-4756063D01*
X4713563Y-4756063D01*
X4967563Y-2216063D02*
X4967563Y-2143937D01*
X4895437Y-2143937D01*
X4895437Y-2216063D01*
X4967563Y-2216063D01*
X4967563Y-4756063D02*
X4967563Y-4683937D01*
X4895437Y-4683937D01*
X4895437Y-4756063D01*
X4967563Y-4756063D01*
X5221563Y-2216063D02*
X5221563Y-2143937D01*
X5149437Y-2143937D01*
X5149437Y-2216063D01*
X5221563Y-2216063D01*
X5221563Y-4756063D02*
X5221563Y-4683937D01*
X5149437Y-4683937D01*
X5149437Y-4756063D01*
X5221563Y-4756063D01*
X5475563Y-2216063D02*
X5475563Y-2143937D01*
X5403437Y-2143937D01*
X5403437Y-2216063D01*
X5475563Y-2216063D01*
X5475563Y-4756063D02*
X5475563Y-4683937D01*
X5403437Y-4683937D01*
X5403437Y-4756063D01*
X5475563Y-4756063D01*
X5729563Y-2216063D02*
X5729563Y-2143937D01*
X5657437Y-2143937D01*
X5657437Y-2216063D01*
X5729563Y-2216063D01*
X5729563Y-4756063D02*
X5729563Y-4683937D01*
X5657437Y-4683937D01*
X5657437Y-4756063D01*
X5729563Y-4756063D01*
X5983563Y-2216063D02*
X5983563Y-2143937D01*
X5911437Y-2143937D01*
X5911437Y-2216063D01*
X5983563Y-2216063D01*
X5983563Y-4756063D02*
X5983563Y-4683937D01*
X5911437Y-4683937D01*
X5911437Y-4756063D01*
X5983563Y-4756063D01*
X6237563Y-2216063D02*
X6237563Y-2143937D01*
X6165437Y-2143937D01*
X6165437Y-2216063D01*
X6237563Y-2216063D01*
X6237563Y-4756063D02*
X6237563Y-4683937D01*
X6165437Y-4683937D01*
X6165437Y-4756063D01*
X6237563Y-4756063D01*
D15*
X7686600Y-5515600D02*
X7741600Y-5460600D01*
X7686600Y-5405600D01*
X7631600Y-5460600D01*
X7686600Y-5515600D01*
X8280400Y-8818000D02*
X8335400Y-8763000D01*
X8280400Y-8708000D01*
X8225400Y-8763000D01*
X8280400Y-8818000D01*
X8534400Y-8818000D02*
X8589400Y-8763000D01*
X8534400Y-8708000D01*
X8479400Y-8763000D01*
X8534400Y-8818000D01*
X8702600Y-5515600D02*
X8757600Y-5460600D01*
X8702600Y-5405600D01*
X8647600Y-5460600D01*
X8702600Y-5515600D01*
X8788400Y-8818000D02*
X8843400Y-8763000D01*
X8788400Y-8708000D01*
X8733400Y-8763000D01*
X8788400Y-8818000D01*
X9448800Y-2468000D02*
X9503800Y-2413000D01*
X9448800Y-2358000D01*
X9393800Y-2413000D01*
X9448800Y-2468000D01*
X9550400Y-5516000D02*
X9605400Y-5461000D01*
X9550400Y-5406000D01*
X9495400Y-5461000D01*
X9550400Y-5516000D01*
X9550400Y-8818000D02*
X9605400Y-8763000D01*
X9550400Y-8708000D01*
X9495400Y-8763000D01*
X9550400Y-8818000D01*
X9804400Y-8818000D02*
X9859400Y-8763000D01*
X9804400Y-8708000D01*
X9749400Y-8763000D01*
X9804400Y-8818000D01*
X10058400Y-8818000D02*
X10113400Y-8763000D01*
X10058400Y-8708000D01*
X10003400Y-8763000D01*
X10058400Y-8818000D01*
X10464800Y-2468000D02*
X10519800Y-2413000D01*
X10464800Y-2358000D01*
X10409800Y-2413000D01*
X10464800Y-2468000D01*
X10566400Y-5516000D02*
X10621400Y-5461000D01*
X10566400Y-5406000D01*
X10511400Y-5461000D01*
X10566400Y-5516000D01*
X10795000Y-8818000D02*
X10850000Y-8763000D01*
X10795000Y-8708000D01*
X10740000Y-8763000D01*
X10795000Y-8818000D01*
X11049000Y-8818000D02*
X11104000Y-8763000D01*
X11049000Y-8708000D01*
X10994000Y-8763000D01*
X11049000Y-8818000D01*
X11303000Y-8818000D02*
X11358000Y-8763000D01*
X11303000Y-8708000D01*
X11248000Y-8763000D01*
X11303000Y-8818000D01*
X11404600Y-5541400D02*
X11459600Y-5486400D01*
X11404600Y-5431400D01*
X11349600Y-5486400D01*
X11404600Y-5541400D01*
X12065000Y-8818000D02*
X12120000Y-8763000D01*
X12065000Y-8708000D01*
X12010000Y-8763000D01*
X12065000Y-8818000D01*
X12319000Y-8818000D02*
X12374000Y-8763000D01*
X12319000Y-8708000D01*
X12264000Y-8763000D01*
X12319000Y-8818000D01*
X12420600Y-5541400D02*
X12475600Y-5486400D01*
X12420600Y-5431400D01*
X12365600Y-5486400D01*
X12420600Y-5541400D01*
X12573000Y-8818000D02*
X12628000Y-8763000D01*
X12573000Y-8708000D01*
X12518000Y-8763000D01*
X12573000Y-8818000D01*
X13284200Y-5544200D02*
X13339200Y-5489200D01*
X13284200Y-5434200D01*
X13229200Y-5489200D01*
X13284200Y-5544200D01*
X14300200Y-5544200D02*
X14355200Y-5489200D01*
X14300200Y-5434200D01*
X14245200Y-5489200D01*
X14300200Y-5544200D01*
D16*
X8139700Y-5856500D02*
X8268700Y-5985500D01*
X8268700Y-5856500D02*
X8139700Y-5985500D01*
X8268700Y-5921000D02*
G75*
G03*
X8268700Y-5921000I-64500J0D01*
G01*
X10019300Y-5856500D02*
X10148300Y-5985500D01*
X10148300Y-5856500D02*
X10019300Y-5985500D01*
X10148300Y-5921000D02*
G75*
G03*
X10148300Y-5921000I-64500J0D01*
G01*
X11873500Y-5856500D02*
X12002500Y-5985500D01*
X12002500Y-5856500D02*
X11873500Y-5985500D01*
X12002500Y-5921000D02*
G75*
G03*
X12002500Y-5921000I-64500J0D01*
G01*
X13753100Y-5856500D02*
X13882100Y-5985500D01*
X13882100Y-5856500D02*
X13753100Y-5985500D01*
X13882100Y-5921000D02*
G75*
G03*
X13882100Y-5921000I-64500J0D01*
G01*
D17*
X2753000Y-12431800D02*
X2883000Y-12561800D01*
X2883000Y-12431800D02*
X2753000Y-12561800D01*
X2818000Y-12431800D02*
X2818000Y-12561800D01*
X2753000Y-12496800D02*
X2883000Y-12496800D01*
X3253000Y-12431800D02*
X3383000Y-12561800D01*
X3383000Y-12431800D02*
X3253000Y-12561800D01*
X3318000Y-12431800D02*
X3318000Y-12561800D01*
X3253000Y-12496800D02*
X3383000Y-12496800D01*
X3753000Y-12431800D02*
X3883000Y-12561800D01*
X3883000Y-12431800D02*
X3753000Y-12561800D01*
X3818000Y-12431800D02*
X3818000Y-12561800D01*
X3753000Y-12496800D02*
X3883000Y-12496800D01*
X4253000Y-12431800D02*
X4383000Y-12561800D01*
X4383000Y-12431800D02*
X4253000Y-12561800D01*
X4318000Y-12431800D02*
X4318000Y-12561800D01*
X4253000Y-12496800D02*
X4383000Y-12496800D01*
X4753000Y-12431800D02*
X4883000Y-12561800D01*
X4883000Y-12431800D02*
X4753000Y-12561800D01*
X4818000Y-12431800D02*
X4818000Y-12561800D01*
X4753000Y-12496800D02*
X4883000Y-12496800D01*
X5253000Y-12431800D02*
X5383000Y-12561800D01*
X5383000Y-12431800D02*
X5253000Y-12561800D01*
X5318000Y-12431800D02*
X5318000Y-12561800D01*
X5253000Y-12496800D02*
X5383000Y-12496800D01*
X5753000Y-12431800D02*
X5883000Y-12561800D01*
X5883000Y-12431800D02*
X5753000Y-12561800D01*
X5818000Y-12431800D02*
X5818000Y-12561800D01*
X5753000Y-12496800D02*
X5883000Y-12496800D01*
X6253000Y-12431800D02*
X6383000Y-12561800D01*
X6383000Y-12431800D02*
X6253000Y-12561800D01*
X6318000Y-12431800D02*
X6318000Y-12561800D01*
X6253000Y-12496800D02*
X6383000Y-12496800D01*
X8776800Y-12462300D02*
X8906800Y-12592300D01*
X8906800Y-12462300D02*
X8776800Y-12592300D01*
X8841800Y-12462300D02*
X8841800Y-12592300D01*
X8776800Y-12527300D02*
X8906800Y-12527300D01*
X9276800Y-12462300D02*
X9406800Y-12592300D01*
X9406800Y-12462300D02*
X9276800Y-12592300D01*
X9341800Y-12462300D02*
X9341800Y-12592300D01*
X9276800Y-12527300D02*
X9406800Y-12527300D01*
X9776800Y-12462300D02*
X9906800Y-12592300D01*
X9906800Y-12462300D02*
X9776800Y-12592300D01*
X9841800Y-12462300D02*
X9841800Y-12592300D01*
X9776800Y-12527300D02*
X9906800Y-12527300D01*
X10276800Y-12462300D02*
X10406800Y-12592300D01*
X10406800Y-12462300D02*
X10276800Y-12592300D01*
X10341800Y-12462300D02*
X10341800Y-12592300D01*
X10276800Y-12527300D02*
X10406800Y-12527300D01*
X10776800Y-12462300D02*
X10906800Y-12592300D01*
X10906800Y-12462300D02*
X10776800Y-12592300D01*
X10841800Y-12462300D02*
X10841800Y-12592300D01*
X10776800Y-12527300D02*
X10906800Y-12527300D01*
X11276800Y-12462300D02*
X11406800Y-12592300D01*
X11406800Y-12462300D02*
X11276800Y-12592300D01*
X11341800Y-12462300D02*
X11341800Y-12592300D01*
X11276800Y-12527300D02*
X11406800Y-12527300D01*
X11776800Y-12462300D02*
X11906800Y-12592300D01*
X11906800Y-12462300D02*
X11776800Y-12592300D01*
X11841800Y-12462300D02*
X11841800Y-12592300D01*
X11776800Y-12527300D02*
X11906800Y-12527300D01*
X12276800Y-12462300D02*
X12406800Y-12592300D01*
X12406800Y-12462300D02*
X12276800Y-12592300D01*
X12341800Y-12462300D02*
X12341800Y-12592300D01*
X12276800Y-12527300D02*
X12406800Y-12527300D01*
D18*
X7538200Y-6055000D02*
X7670200Y-6187000D01*
X7670200Y-6055000D02*
X7538200Y-6187000D01*
X7650869Y-6167669D02*
X7650869Y-6074330D01*
X7557530Y-6074330D01*
X7557530Y-6167669D01*
X7650869Y-6167669D01*
X7538200Y-7275000D02*
X7670200Y-7407000D01*
X7670200Y-7275000D02*
X7538200Y-7407000D01*
X7650869Y-7387669D02*
X7650869Y-7294330D01*
X7557530Y-7294330D01*
X7557530Y-7387669D01*
X7650869Y-7387669D01*
X8738200Y-6055000D02*
X8870200Y-6187000D01*
X8870200Y-6055000D02*
X8738200Y-6187000D01*
X8850870Y-6167669D02*
X8850870Y-6074330D01*
X8757531Y-6074330D01*
X8757531Y-6167669D01*
X8850870Y-6167669D01*
X8738200Y-7275000D02*
X8870200Y-7407000D01*
X8870200Y-7275000D02*
X8738200Y-7407000D01*
X8850870Y-7387669D02*
X8850870Y-7294330D01*
X8757531Y-7294330D01*
X8757531Y-7387669D01*
X8850870Y-7387669D01*
X9417800Y-6055000D02*
X9549800Y-6187000D01*
X9549800Y-6055000D02*
X9417800Y-6187000D01*
X9530470Y-6167669D02*
X9530470Y-6074330D01*
X9437131Y-6074330D01*
X9437131Y-6167669D01*
X9530470Y-6167669D01*
X9417800Y-7275000D02*
X9549800Y-7407000D01*
X9549800Y-7275000D02*
X9417800Y-7407000D01*
X9530470Y-7387669D02*
X9530470Y-7294330D01*
X9437131Y-7294330D01*
X9437131Y-7387669D01*
X9530470Y-7387669D01*
X10617800Y-6055000D02*
X10749800Y-6187000D01*
X10749800Y-6055000D02*
X10617800Y-6187000D01*
X10730470Y-6167669D02*
X10730470Y-6074330D01*
X10637131Y-6074330D01*
X10637131Y-6167669D01*
X10730470Y-6167669D01*
X10617800Y-7275000D02*
X10749800Y-7407000D01*
X10749800Y-7275000D02*
X10617800Y-7407000D01*
X10730470Y-7387669D02*
X10730470Y-7294330D01*
X10637131Y-7294330D01*
X10637131Y-7387669D01*
X10730470Y-7387669D01*
X11272000Y-6055000D02*
X11404000Y-6187000D01*
X11404000Y-6055000D02*
X11272000Y-6187000D01*
X11384669Y-6167669D02*
X11384669Y-6074330D01*
X11291330Y-6074330D01*
X11291330Y-6167669D01*
X11384669Y-6167669D01*
X11272000Y-7275000D02*
X11404000Y-7407000D01*
X11404000Y-7275000D02*
X11272000Y-7407000D01*
X11384669Y-7387669D02*
X11384669Y-7294330D01*
X11291330Y-7294330D01*
X11291330Y-7387669D01*
X11384669Y-7387669D01*
X12472000Y-6055000D02*
X12604000Y-6187000D01*
X12604000Y-6055000D02*
X12472000Y-6187000D01*
X12584669Y-6167669D02*
X12584669Y-6074330D01*
X12491330Y-6074330D01*
X12491330Y-6167669D01*
X12584669Y-6167669D01*
X12472000Y-7275000D02*
X12604000Y-7407000D01*
X12604000Y-7275000D02*
X12472000Y-7407000D01*
X12584669Y-7387669D02*
X12584669Y-7294330D01*
X12491330Y-7294330D01*
X12491330Y-7387669D01*
X12584669Y-7387669D01*
X13151600Y-6055000D02*
X13283600Y-6187000D01*
X13283600Y-6055000D02*
X13151600Y-6187000D01*
X13264269Y-6167669D02*
X13264269Y-6074330D01*
X13170930Y-6074330D01*
X13170930Y-6167669D01*
X13264269Y-6167669D01*
X13151600Y-7275000D02*
X13283600Y-7407000D01*
X13283600Y-7275000D02*
X13151600Y-7407000D01*
X13264269Y-7387669D02*
X13264269Y-7294330D01*
X13170930Y-7294330D01*
X13170930Y-7387669D01*
X13264269Y-7387669D01*
X14351600Y-6055000D02*
X14483600Y-6187000D01*
X14483600Y-6055000D02*
X14351600Y-6187000D01*
X14464269Y-6167669D02*
X14464269Y-6074330D01*
X14370930Y-6074330D01*
X14370930Y-6167669D01*
X14464269Y-6167669D01*
X14351600Y-7275000D02*
X14483600Y-7407000D01*
X14483600Y-7275000D02*
X14351600Y-7407000D01*
X14464269Y-7387669D02*
X14464269Y-7294330D01*
X14370930Y-7294330D01*
X14370930Y-7387669D01*
X14464269Y-7387669D01*
D11*
X2360819Y-14031476D02*
X2360819Y-13831476D01*
X2408438Y-13831476D01*
X2437010Y-13841000D01*
X2456057Y-13860048D01*
X2465581Y-13879095D01*
X2475105Y-13917190D01*
X2475105Y-13945762D01*
X2465581Y-13983857D01*
X2456057Y-14002905D01*
X2437010Y-14021952D01*
X2408438Y-14031476D01*
X2360819Y-14031476D01*
X2560819Y-14031476D02*
X2560819Y-13898143D01*
X2560819Y-13936238D02*
X2570343Y-13917190D01*
X2579867Y-13907667D01*
X2598914Y-13898143D01*
X2617962Y-13898143D01*
X2684629Y-14031476D02*
X2684629Y-13898143D01*
X2684629Y-13831476D02*
X2675105Y-13841000D01*
X2684629Y-13850524D01*
X2694152Y-13841000D01*
X2684629Y-13831476D01*
X2684629Y-13850524D01*
X2808438Y-14031476D02*
X2789390Y-14021952D01*
X2779867Y-14002905D01*
X2779867Y-13831476D01*
X2913200Y-14031476D02*
X2894152Y-14021952D01*
X2884628Y-14002905D01*
X2884628Y-13831476D01*
X3141771Y-14031476D02*
X3141771Y-13831476D01*
X3208438Y-13974333D01*
X3275105Y-13831476D01*
X3275105Y-14031476D01*
X3456057Y-14031476D02*
X3456057Y-13926714D01*
X3446533Y-13907667D01*
X3427486Y-13898143D01*
X3389390Y-13898143D01*
X3370343Y-13907667D01*
X3456057Y-14021952D02*
X3437009Y-14031476D01*
X3389390Y-14031476D01*
X3370343Y-14021952D01*
X3360819Y-14002905D01*
X3360819Y-13983857D01*
X3370343Y-13964809D01*
X3389390Y-13955286D01*
X3437009Y-13955286D01*
X3456057Y-13945762D01*
X3551295Y-13898143D02*
X3551295Y-14098143D01*
X3551295Y-13907667D02*
X3570343Y-13898143D01*
X3608438Y-13898143D01*
X3627486Y-13907667D01*
X3637009Y-13917190D01*
X3646533Y-13936238D01*
X3646533Y-13993381D01*
X3637009Y-14012428D01*
X3627486Y-14021952D01*
X3608438Y-14031476D01*
X3570343Y-14031476D01*
X3551295Y-14021952D01*
X3732248Y-14012428D02*
X3741771Y-14021952D01*
X3732248Y-14031476D01*
X3722724Y-14021952D01*
X3732248Y-14012428D01*
X3732248Y-14031476D01*
X3732248Y-13907667D02*
X3741771Y-13917190D01*
X3732248Y-13926714D01*
X3722724Y-13917190D01*
X3732248Y-13907667D01*
X3732248Y-13926714D01*
D12*
X2073200Y-14346000D02*
X2103200Y-14376000D01*
X2103200Y-14346000D02*
X2073200Y-14376000D01*
D11*
X2398914Y-14251476D02*
X2417962Y-14251476D01*
X2437010Y-14261000D01*
X2446533Y-14270524D01*
X2456057Y-14289571D01*
X2465581Y-14327667D01*
X2465581Y-14375286D01*
X2456057Y-14413381D01*
X2446533Y-14432428D01*
X2437010Y-14441952D01*
X2417962Y-14451476D01*
X2398914Y-14451476D01*
X2379867Y-14441952D01*
X2370343Y-14432428D01*
X2360819Y-14413381D01*
X2351295Y-14375286D01*
X2351295Y-14327667D01*
X2360819Y-14289571D01*
X2370343Y-14270524D01*
X2379867Y-14261000D01*
X2398914Y-14251476D01*
X2551295Y-14432428D02*
X2560819Y-14441952D01*
X2551295Y-14451476D01*
X2541771Y-14441952D01*
X2551295Y-14432428D01*
X2551295Y-14451476D01*
X2627486Y-14251476D02*
X2751295Y-14251476D01*
X2684629Y-14327667D01*
X2713200Y-14327667D01*
X2732248Y-14337190D01*
X2741771Y-14346714D01*
X2751295Y-14365762D01*
X2751295Y-14413381D01*
X2741771Y-14432428D01*
X2732248Y-14441952D01*
X2713200Y-14451476D01*
X2656057Y-14451476D01*
X2637010Y-14441952D01*
X2627486Y-14432428D01*
X2875105Y-14251476D02*
X2894152Y-14251476D01*
X2913200Y-14261000D01*
X2922724Y-14270524D01*
X2932248Y-14289571D01*
X2941771Y-14327667D01*
X2941771Y-14375286D01*
X2932248Y-14413381D01*
X2922724Y-14432428D01*
X2913200Y-14441952D01*
X2894152Y-14451476D01*
X2875105Y-14451476D01*
X2856057Y-14441952D01*
X2846533Y-14432428D01*
X2837009Y-14413381D01*
X2827486Y-14375286D01*
X2827486Y-14327667D01*
X2837009Y-14289571D01*
X2846533Y-14270524D01*
X2856057Y-14261000D01*
X2875105Y-14251476D01*
X3065581Y-14251476D02*
X3084628Y-14251476D01*
X3103676Y-14261000D01*
X3113200Y-14270524D01*
X3122724Y-14289571D01*
X3132248Y-14327667D01*
X3132248Y-14375286D01*
X3122724Y-14413381D01*
X3113200Y-14432428D01*
X3103676Y-14441952D01*
X3084628Y-14451476D01*
X3065581Y-14451476D01*
X3046533Y-14441952D01*
X3037009Y-14432428D01*
X3027486Y-14413381D01*
X3017962Y-14375286D01*
X3017962Y-14327667D01*
X3027486Y-14289571D01*
X3037009Y-14270524D01*
X3046533Y-14261000D01*
X3065581Y-14251476D01*
X3217962Y-14451476D02*
X3217962Y-14318143D01*
X3217962Y-14337190D02*
X3227486Y-14327667D01*
X3246533Y-14318143D01*
X3275105Y-14318143D01*
X3294152Y-14327667D01*
X3303676Y-14346714D01*
X3303676Y-14451476D01*
X3303676Y-14346714D02*
X3313200Y-14327667D01*
X3332248Y-14318143D01*
X3360819Y-14318143D01*
X3379867Y-14327667D01*
X3389390Y-14346714D01*
X3389390Y-14451476D01*
X3484628Y-14451476D02*
X3484628Y-14318143D01*
X3484628Y-14337190D02*
X3494152Y-14327667D01*
X3513200Y-14318143D01*
X3541771Y-14318143D01*
X3560819Y-14327667D01*
X3570343Y-14346714D01*
X3570343Y-14451476D01*
X3570343Y-14346714D02*
X3579867Y-14327667D01*
X3598914Y-14318143D01*
X3627486Y-14318143D01*
X3646533Y-14327667D01*
X3656057Y-14346714D01*
X3656057Y-14451476D01*
X4046533Y-14241952D02*
X3875105Y-14499095D01*
X4303676Y-14251476D02*
X4322724Y-14251476D01*
X4341771Y-14261000D01*
X4351295Y-14270524D01*
X4360819Y-14289571D01*
X4370343Y-14327667D01*
X4370343Y-14375286D01*
X4360819Y-14413381D01*
X4351295Y-14432428D01*
X4341771Y-14441952D01*
X4322724Y-14451476D01*
X4303676Y-14451476D01*
X4284629Y-14441952D01*
X4275105Y-14432428D01*
X4265581Y-14413381D01*
X4256057Y-14375286D01*
X4256057Y-14327667D01*
X4265581Y-14289571D01*
X4275105Y-14270524D01*
X4284629Y-14261000D01*
X4303676Y-14251476D01*
X4456057Y-14432428D02*
X4465581Y-14441952D01*
X4456057Y-14451476D01*
X4446533Y-14441952D01*
X4456057Y-14432428D01*
X4456057Y-14451476D01*
X4589390Y-14251476D02*
X4608438Y-14251476D01*
X4627486Y-14261000D01*
X4637010Y-14270524D01*
X4646533Y-14289571D01*
X4656057Y-14327667D01*
X4656057Y-14375286D01*
X4646533Y-14413381D01*
X4637010Y-14432428D01*
X4627486Y-14441952D01*
X4608438Y-14451476D01*
X4589390Y-14451476D01*
X4570343Y-14441952D01*
X4560819Y-14432428D01*
X4551295Y-14413381D01*
X4541771Y-14375286D01*
X4541771Y-14327667D01*
X4551295Y-14289571D01*
X4560819Y-14270524D01*
X4570343Y-14261000D01*
X4589390Y-14251476D01*
X4846533Y-14451476D02*
X4732248Y-14451476D01*
X4789390Y-14451476D02*
X4789390Y-14251476D01*
X4770343Y-14280048D01*
X4751295Y-14299095D01*
X4732248Y-14308619D01*
X5037010Y-14451476D02*
X4922724Y-14451476D01*
X4979867Y-14451476D02*
X4979867Y-14251476D01*
X4960819Y-14280048D01*
X4941771Y-14299095D01*
X4922724Y-14308619D01*
X5151295Y-14337190D02*
X5132248Y-14327667D01*
X5122724Y-14318143D01*
X5113200Y-14299095D01*
X5113200Y-14289571D01*
X5122724Y-14270524D01*
X5132248Y-14261000D01*
X5151295Y-14251476D01*
X5189390Y-14251476D01*
X5208438Y-14261000D01*
X5217962Y-14270524D01*
X5227486Y-14289571D01*
X5227486Y-14299095D01*
X5217962Y-14318143D01*
X5208438Y-14327667D01*
X5189390Y-14337190D01*
X5151295Y-14337190D01*
X5132248Y-14346714D01*
X5122724Y-14356238D01*
X5113200Y-14375286D01*
X5113200Y-14413381D01*
X5122724Y-14432428D01*
X5132248Y-14441952D01*
X5151295Y-14451476D01*
X5189390Y-14451476D01*
X5208438Y-14441952D01*
X5217962Y-14432428D01*
X5227486Y-14413381D01*
X5227486Y-14375286D01*
X5217962Y-14356238D01*
X5208438Y-14346714D01*
X5189390Y-14337190D01*
X5303676Y-14251476D02*
X5303676Y-14289571D01*
X5379867Y-14251476D02*
X5379867Y-14289571D01*
X5675105Y-14527667D02*
X5665581Y-14518143D01*
X5646533Y-14489571D01*
X5637009Y-14470524D01*
X5627486Y-14441952D01*
X5617962Y-14394333D01*
X5617962Y-14356238D01*
X5627486Y-14308619D01*
X5637009Y-14280048D01*
X5646533Y-14261000D01*
X5665581Y-14232428D01*
X5675105Y-14222905D01*
X5856057Y-14451476D02*
X5741771Y-14451476D01*
X5798914Y-14451476D02*
X5798914Y-14251476D01*
X5779867Y-14280048D01*
X5760819Y-14299095D01*
X5741771Y-14308619D01*
X5979867Y-14251476D02*
X5998914Y-14251476D01*
X6017962Y-14261000D01*
X6027486Y-14270524D01*
X6037009Y-14289571D01*
X6046533Y-14327667D01*
X6046533Y-14375286D01*
X6037009Y-14413381D01*
X6027486Y-14432428D01*
X6017962Y-14441952D01*
X5998914Y-14451476D01*
X5979867Y-14451476D01*
X5960819Y-14441952D01*
X5951295Y-14432428D01*
X5941771Y-14413381D01*
X5932248Y-14375286D01*
X5932248Y-14327667D01*
X5941771Y-14289571D01*
X5951295Y-14270524D01*
X5960819Y-14261000D01*
X5979867Y-14251476D01*
X6217962Y-14251476D02*
X6179867Y-14251476D01*
X6160819Y-14261000D01*
X6151295Y-14270524D01*
X6132248Y-14299095D01*
X6122724Y-14337190D01*
X6122724Y-14413381D01*
X6132248Y-14432428D01*
X6141771Y-14441952D01*
X6160819Y-14451476D01*
X6198914Y-14451476D01*
X6217962Y-14441952D01*
X6227486Y-14432428D01*
X6237009Y-14413381D01*
X6237009Y-14365762D01*
X6227486Y-14346714D01*
X6217962Y-14337190D01*
X6198914Y-14327667D01*
X6160819Y-14327667D01*
X6141771Y-14337190D01*
X6132248Y-14346714D01*
X6122724Y-14365762D01*
X6475105Y-14451476D02*
X6475105Y-14251476D01*
X6560819Y-14451476D02*
X6560819Y-14346714D01*
X6551295Y-14327667D01*
X6532248Y-14318143D01*
X6503676Y-14318143D01*
X6484628Y-14327667D01*
X6475105Y-14337190D01*
X6684628Y-14451476D02*
X6665581Y-14441952D01*
X6656057Y-14432428D01*
X6646533Y-14413381D01*
X6646533Y-14356238D01*
X6656057Y-14337190D01*
X6665581Y-14327667D01*
X6684628Y-14318143D01*
X6713200Y-14318143D01*
X6732248Y-14327667D01*
X6741771Y-14337190D01*
X6751295Y-14356238D01*
X6751295Y-14413381D01*
X6741771Y-14432428D01*
X6732248Y-14441952D01*
X6713200Y-14451476D01*
X6684628Y-14451476D01*
X6865581Y-14451476D02*
X6846533Y-14441952D01*
X6837009Y-14422905D01*
X6837009Y-14251476D01*
X7017962Y-14441952D02*
X6998914Y-14451476D01*
X6960819Y-14451476D01*
X6941771Y-14441952D01*
X6932248Y-14422905D01*
X6932248Y-14346714D01*
X6941771Y-14327667D01*
X6960819Y-14318143D01*
X6998914Y-14318143D01*
X7017962Y-14327667D01*
X7027486Y-14346714D01*
X7027486Y-14365762D01*
X6932248Y-14384809D01*
X7103676Y-14441952D02*
X7122724Y-14451476D01*
X7160819Y-14451476D01*
X7179867Y-14441952D01*
X7189390Y-14422905D01*
X7189390Y-14413381D01*
X7179867Y-14394333D01*
X7160819Y-14384809D01*
X7132248Y-14384809D01*
X7113200Y-14375286D01*
X7103676Y-14356238D01*
X7103676Y-14346714D01*
X7113200Y-14327667D01*
X7132248Y-14318143D01*
X7160819Y-14318143D01*
X7179867Y-14327667D01*
X7256057Y-14527667D02*
X7265581Y-14518143D01*
X7284628Y-14489571D01*
X7294152Y-14470524D01*
X7303676Y-14441952D01*
X7313200Y-14394333D01*
X7313200Y-14356238D01*
X7303676Y-14308619D01*
X7294152Y-14280048D01*
X7284628Y-14261000D01*
X7265581Y-14232428D01*
X7256057Y-14222905D01*
D13*
X2103200Y-14625000D02*
G75*
G03*
X2103200Y-14625000I-40000J0D01*
G01*
D11*
X2398914Y-14515476D02*
X2417962Y-14515476D01*
X2437010Y-14525000D01*
X2446533Y-14534524D01*
X2456057Y-14553571D01*
X2465581Y-14591667D01*
X2465581Y-14639286D01*
X2456057Y-14677381D01*
X2446533Y-14696428D01*
X2437010Y-14705952D01*
X2417962Y-14715476D01*
X2398914Y-14715476D01*
X2379867Y-14705952D01*
X2370343Y-14696428D01*
X2360819Y-14677381D01*
X2351295Y-14639286D01*
X2351295Y-14591667D01*
X2360819Y-14553571D01*
X2370343Y-14534524D01*
X2379867Y-14525000D01*
X2398914Y-14515476D01*
X2551295Y-14696428D02*
X2560819Y-14705952D01*
X2551295Y-14715476D01*
X2541771Y-14705952D01*
X2551295Y-14696428D01*
X2551295Y-14715476D01*
X2675105Y-14601190D02*
X2656057Y-14591667D01*
X2646533Y-14582143D01*
X2637010Y-14563095D01*
X2637010Y-14553571D01*
X2646533Y-14534524D01*
X2656057Y-14525000D01*
X2675105Y-14515476D01*
X2713200Y-14515476D01*
X2732248Y-14525000D01*
X2741771Y-14534524D01*
X2751295Y-14553571D01*
X2751295Y-14563095D01*
X2741771Y-14582143D01*
X2732248Y-14591667D01*
X2713200Y-14601190D01*
X2675105Y-14601190D01*
X2656057Y-14610714D01*
X2646533Y-14620238D01*
X2637010Y-14639286D01*
X2637010Y-14677381D01*
X2646533Y-14696428D01*
X2656057Y-14705952D01*
X2675105Y-14715476D01*
X2713200Y-14715476D01*
X2732248Y-14705952D01*
X2741771Y-14696428D01*
X2751295Y-14677381D01*
X2751295Y-14639286D01*
X2741771Y-14620238D01*
X2732248Y-14610714D01*
X2713200Y-14601190D01*
X2875105Y-14515476D02*
X2894152Y-14515476D01*
X2913200Y-14525000D01*
X2922724Y-14534524D01*
X2932248Y-14553571D01*
X2941771Y-14591667D01*
X2941771Y-14639286D01*
X2932248Y-14677381D01*
X2922724Y-14696428D01*
X2913200Y-14705952D01*
X2894152Y-14715476D01*
X2875105Y-14715476D01*
X2856057Y-14705952D01*
X2846533Y-14696428D01*
X2837009Y-14677381D01*
X2827486Y-14639286D01*
X2827486Y-14591667D01*
X2837009Y-14553571D01*
X2846533Y-14534524D01*
X2856057Y-14525000D01*
X2875105Y-14515476D01*
X3065581Y-14515476D02*
X3084628Y-14515476D01*
X3103676Y-14525000D01*
X3113200Y-14534524D01*
X3122724Y-14553571D01*
X3132248Y-14591667D01*
X3132248Y-14639286D01*
X3122724Y-14677381D01*
X3113200Y-14696428D01*
X3103676Y-14705952D01*
X3084628Y-14715476D01*
X3065581Y-14715476D01*
X3046533Y-14705952D01*
X3037009Y-14696428D01*
X3027486Y-14677381D01*
X3017962Y-14639286D01*
X3017962Y-14591667D01*
X3027486Y-14553571D01*
X3037009Y-14534524D01*
X3046533Y-14525000D01*
X3065581Y-14515476D01*
X3217962Y-14715476D02*
X3217962Y-14582143D01*
X3217962Y-14601190D02*
X3227486Y-14591667D01*
X3246533Y-14582143D01*
X3275105Y-14582143D01*
X3294152Y-14591667D01*
X3303676Y-14610714D01*
X3303676Y-14715476D01*
X3303676Y-14610714D02*
X3313200Y-14591667D01*
X3332248Y-14582143D01*
X3360819Y-14582143D01*
X3379867Y-14591667D01*
X3389390Y-14610714D01*
X3389390Y-14715476D01*
X3484628Y-14715476D02*
X3484628Y-14582143D01*
X3484628Y-14601190D02*
X3494152Y-14591667D01*
X3513200Y-14582143D01*
X3541771Y-14582143D01*
X3560819Y-14591667D01*
X3570343Y-14610714D01*
X3570343Y-14715476D01*
X3570343Y-14610714D02*
X3579867Y-14591667D01*
X3598914Y-14582143D01*
X3627486Y-14582143D01*
X3646533Y-14591667D01*
X3656057Y-14610714D01*
X3656057Y-14715476D01*
X4046533Y-14505952D02*
X3875105Y-14763095D01*
X4303676Y-14515476D02*
X4322724Y-14515476D01*
X4341771Y-14525000D01*
X4351295Y-14534524D01*
X4360819Y-14553571D01*
X4370343Y-14591667D01*
X4370343Y-14639286D01*
X4360819Y-14677381D01*
X4351295Y-14696428D01*
X4341771Y-14705952D01*
X4322724Y-14715476D01*
X4303676Y-14715476D01*
X4284629Y-14705952D01*
X4275105Y-14696428D01*
X4265581Y-14677381D01*
X4256057Y-14639286D01*
X4256057Y-14591667D01*
X4265581Y-14553571D01*
X4275105Y-14534524D01*
X4284629Y-14525000D01*
X4303676Y-14515476D01*
X4456057Y-14696428D02*
X4465581Y-14705952D01*
X4456057Y-14715476D01*
X4446533Y-14705952D01*
X4456057Y-14696428D01*
X4456057Y-14715476D01*
X4589390Y-14515476D02*
X4608438Y-14515476D01*
X4627486Y-14525000D01*
X4637010Y-14534524D01*
X4646533Y-14553571D01*
X4656057Y-14591667D01*
X4656057Y-14639286D01*
X4646533Y-14677381D01*
X4637010Y-14696428D01*
X4627486Y-14705952D01*
X4608438Y-14715476D01*
X4589390Y-14715476D01*
X4570343Y-14705952D01*
X4560819Y-14696428D01*
X4551295Y-14677381D01*
X4541771Y-14639286D01*
X4541771Y-14591667D01*
X4551295Y-14553571D01*
X4560819Y-14534524D01*
X4570343Y-14525000D01*
X4589390Y-14515476D01*
X4722724Y-14515476D02*
X4846533Y-14515476D01*
X4779867Y-14591667D01*
X4808438Y-14591667D01*
X4827486Y-14601190D01*
X4837010Y-14610714D01*
X4846533Y-14629762D01*
X4846533Y-14677381D01*
X4837010Y-14696428D01*
X4827486Y-14705952D01*
X4808438Y-14715476D01*
X4751295Y-14715476D01*
X4732248Y-14705952D01*
X4722724Y-14696428D01*
X5037010Y-14715476D02*
X4922724Y-14715476D01*
X4979867Y-14715476D02*
X4979867Y-14515476D01*
X4960819Y-14544048D01*
X4941771Y-14563095D01*
X4922724Y-14572619D01*
X5217962Y-14515476D02*
X5122724Y-14515476D01*
X5113200Y-14610714D01*
X5122724Y-14601190D01*
X5141771Y-14591667D01*
X5189390Y-14591667D01*
X5208438Y-14601190D01*
X5217962Y-14610714D01*
X5227486Y-14629762D01*
X5227486Y-14677381D01*
X5217962Y-14696428D01*
X5208438Y-14705952D01*
X5189390Y-14715476D01*
X5141771Y-14715476D01*
X5122724Y-14705952D01*
X5113200Y-14696428D01*
X5303676Y-14515476D02*
X5303676Y-14553571D01*
X5379867Y-14515476D02*
X5379867Y-14553571D01*
X5675105Y-14791667D02*
X5665581Y-14782143D01*
X5646533Y-14753571D01*
X5637009Y-14734524D01*
X5627486Y-14705952D01*
X5617962Y-14658333D01*
X5617962Y-14620238D01*
X5627486Y-14572619D01*
X5637009Y-14544048D01*
X5646533Y-14525000D01*
X5665581Y-14496428D01*
X5675105Y-14486905D01*
X5837009Y-14582143D02*
X5837009Y-14715476D01*
X5789390Y-14505952D02*
X5741771Y-14648809D01*
X5865581Y-14648809D01*
X5970343Y-14601190D02*
X5951295Y-14591667D01*
X5941771Y-14582143D01*
X5932248Y-14563095D01*
X5932248Y-14553571D01*
X5941771Y-14534524D01*
X5951295Y-14525000D01*
X5970343Y-14515476D01*
X6008438Y-14515476D01*
X6027486Y-14525000D01*
X6037009Y-14534524D01*
X6046533Y-14553571D01*
X6046533Y-14563095D01*
X6037009Y-14582143D01*
X6027486Y-14591667D01*
X6008438Y-14601190D01*
X5970343Y-14601190D01*
X5951295Y-14610714D01*
X5941771Y-14620238D01*
X5932248Y-14639286D01*
X5932248Y-14677381D01*
X5941771Y-14696428D01*
X5951295Y-14705952D01*
X5970343Y-14715476D01*
X6008438Y-14715476D01*
X6027486Y-14705952D01*
X6037009Y-14696428D01*
X6046533Y-14677381D01*
X6046533Y-14639286D01*
X6037009Y-14620238D01*
X6027486Y-14610714D01*
X6008438Y-14601190D01*
X6284628Y-14715476D02*
X6284628Y-14515476D01*
X6370343Y-14715476D02*
X6370343Y-14610714D01*
X6360819Y-14591667D01*
X6341771Y-14582143D01*
X6313200Y-14582143D01*
X6294152Y-14591667D01*
X6284628Y-14601190D01*
X6494152Y-14715476D02*
X6475105Y-14705952D01*
X6465581Y-14696428D01*
X6456057Y-14677381D01*
X6456057Y-14620238D01*
X6465581Y-14601190D01*
X6475105Y-14591667D01*
X6494152Y-14582143D01*
X6522724Y-14582143D01*
X6541771Y-14591667D01*
X6551295Y-14601190D01*
X6560819Y-14620238D01*
X6560819Y-14677381D01*
X6551295Y-14696428D01*
X6541771Y-14705952D01*
X6522724Y-14715476D01*
X6494152Y-14715476D01*
X6675105Y-14715476D02*
X6656057Y-14705952D01*
X6646533Y-14686905D01*
X6646533Y-14515476D01*
X6827486Y-14705952D02*
X6808438Y-14715476D01*
X6770343Y-14715476D01*
X6751295Y-14705952D01*
X6741771Y-14686905D01*
X6741771Y-14610714D01*
X6751295Y-14591667D01*
X6770343Y-14582143D01*
X6808438Y-14582143D01*
X6827486Y-14591667D01*
X6837009Y-14610714D01*
X6837009Y-14629762D01*
X6741771Y-14648809D01*
X6913200Y-14705952D02*
X6932248Y-14715476D01*
X6970343Y-14715476D01*
X6989390Y-14705952D01*
X6998914Y-14686905D01*
X6998914Y-14677381D01*
X6989390Y-14658333D01*
X6970343Y-14648809D01*
X6941771Y-14648809D01*
X6922724Y-14639286D01*
X6913200Y-14620238D01*
X6913200Y-14610714D01*
X6922724Y-14591667D01*
X6941771Y-14582143D01*
X6970343Y-14582143D01*
X6989390Y-14591667D01*
X7065581Y-14791667D02*
X7075105Y-14782143D01*
X7094152Y-14753571D01*
X7103676Y-14734524D01*
X7113200Y-14705952D01*
X7122724Y-14658333D01*
X7122724Y-14620238D01*
X7113200Y-14572619D01*
X7103676Y-14544048D01*
X7094152Y-14525000D01*
X7075105Y-14496428D01*
X7065581Y-14486905D01*
D10*
X2053200Y-14839000D02*
X2053200Y-14939000D01*
X2003200Y-14889000D02*
X2103200Y-14889000D01*
D11*
X2465581Y-14979476D02*
X2351295Y-14979476D01*
X2408438Y-14979476D02*
X2408438Y-14779476D01*
X2389390Y-14808048D01*
X2370343Y-14827095D01*
X2351295Y-14836619D01*
X2551295Y-14960428D02*
X2560819Y-14969952D01*
X2551295Y-14979476D01*
X2541771Y-14969952D01*
X2551295Y-14960428D01*
X2551295Y-14979476D01*
X2684629Y-14779476D02*
X2703676Y-14779476D01*
X2722724Y-14789000D01*
X2732248Y-14798524D01*
X2741771Y-14817571D01*
X2751295Y-14855667D01*
X2751295Y-14903286D01*
X2741771Y-14941381D01*
X2732248Y-14960428D01*
X2722724Y-14969952D01*
X2703676Y-14979476D01*
X2684629Y-14979476D01*
X2665581Y-14969952D01*
X2656057Y-14960428D01*
X2646533Y-14941381D01*
X2637010Y-14903286D01*
X2637010Y-14855667D01*
X2646533Y-14817571D01*
X2656057Y-14798524D01*
X2665581Y-14789000D01*
X2684629Y-14779476D01*
X2875105Y-14779476D02*
X2894152Y-14779476D01*
X2913200Y-14789000D01*
X2922724Y-14798524D01*
X2932248Y-14817571D01*
X2941771Y-14855667D01*
X2941771Y-14903286D01*
X2932248Y-14941381D01*
X2922724Y-14960428D01*
X2913200Y-14969952D01*
X2894152Y-14979476D01*
X2875105Y-14979476D01*
X2856057Y-14969952D01*
X2846533Y-14960428D01*
X2837009Y-14941381D01*
X2827486Y-14903286D01*
X2827486Y-14855667D01*
X2837009Y-14817571D01*
X2846533Y-14798524D01*
X2856057Y-14789000D01*
X2875105Y-14779476D01*
X3065581Y-14779476D02*
X3084628Y-14779476D01*
X3103676Y-14789000D01*
X3113200Y-14798524D01*
X3122724Y-14817571D01*
X3132248Y-14855667D01*
X3132248Y-14903286D01*
X3122724Y-14941381D01*
X3113200Y-14960428D01*
X3103676Y-14969952D01*
X3084628Y-14979476D01*
X3065581Y-14979476D01*
X3046533Y-14969952D01*
X3037009Y-14960428D01*
X3027486Y-14941381D01*
X3017962Y-14903286D01*
X3017962Y-14855667D01*
X3027486Y-14817571D01*
X3037009Y-14798524D01*
X3046533Y-14789000D01*
X3065581Y-14779476D01*
X3217962Y-14979476D02*
X3217962Y-14846143D01*
X3217962Y-14865190D02*
X3227486Y-14855667D01*
X3246533Y-14846143D01*
X3275105Y-14846143D01*
X3294152Y-14855667D01*
X3303676Y-14874714D01*
X3303676Y-14979476D01*
X3303676Y-14874714D02*
X3313200Y-14855667D01*
X3332248Y-14846143D01*
X3360819Y-14846143D01*
X3379867Y-14855667D01*
X3389390Y-14874714D01*
X3389390Y-14979476D01*
X3484628Y-14979476D02*
X3484628Y-14846143D01*
X3484628Y-14865190D02*
X3494152Y-14855667D01*
X3513200Y-14846143D01*
X3541771Y-14846143D01*
X3560819Y-14855667D01*
X3570343Y-14874714D01*
X3570343Y-14979476D01*
X3570343Y-14874714D02*
X3579867Y-14855667D01*
X3598914Y-14846143D01*
X3627486Y-14846143D01*
X3646533Y-14855667D01*
X3656057Y-14874714D01*
X3656057Y-14979476D01*
X4046533Y-14769952D02*
X3875105Y-15027095D01*
X4303676Y-14779476D02*
X4322724Y-14779476D01*
X4341771Y-14789000D01*
X4351295Y-14798524D01*
X4360819Y-14817571D01*
X4370343Y-14855667D01*
X4370343Y-14903286D01*
X4360819Y-14941381D01*
X4351295Y-14960428D01*
X4341771Y-14969952D01*
X4322724Y-14979476D01*
X4303676Y-14979476D01*
X4284629Y-14969952D01*
X4275105Y-14960428D01*
X4265581Y-14941381D01*
X4256057Y-14903286D01*
X4256057Y-14855667D01*
X4265581Y-14817571D01*
X4275105Y-14798524D01*
X4284629Y-14789000D01*
X4303676Y-14779476D01*
X4456057Y-14960428D02*
X4465581Y-14969952D01*
X4456057Y-14979476D01*
X4446533Y-14969952D01*
X4456057Y-14960428D01*
X4456057Y-14979476D01*
X4589390Y-14779476D02*
X4608438Y-14779476D01*
X4627486Y-14789000D01*
X4637010Y-14798524D01*
X4646533Y-14817571D01*
X4656057Y-14855667D01*
X4656057Y-14903286D01*
X4646533Y-14941381D01*
X4637010Y-14960428D01*
X4627486Y-14969952D01*
X4608438Y-14979476D01*
X4589390Y-14979476D01*
X4570343Y-14969952D01*
X4560819Y-14960428D01*
X4551295Y-14941381D01*
X4541771Y-14903286D01*
X4541771Y-14855667D01*
X4551295Y-14817571D01*
X4560819Y-14798524D01*
X4570343Y-14789000D01*
X4589390Y-14779476D01*
X4722724Y-14779476D02*
X4846533Y-14779476D01*
X4779867Y-14855667D01*
X4808438Y-14855667D01*
X4827486Y-14865190D01*
X4837010Y-14874714D01*
X4846533Y-14893762D01*
X4846533Y-14941381D01*
X4837010Y-14960428D01*
X4827486Y-14969952D01*
X4808438Y-14979476D01*
X4751295Y-14979476D01*
X4732248Y-14969952D01*
X4722724Y-14960428D01*
X4941771Y-14979476D02*
X4979867Y-14979476D01*
X4998914Y-14969952D01*
X5008438Y-14960428D01*
X5027486Y-14931857D01*
X5037010Y-14893762D01*
X5037010Y-14817571D01*
X5027486Y-14798524D01*
X5017962Y-14789000D01*
X4998914Y-14779476D01*
X4960819Y-14779476D01*
X4941771Y-14789000D01*
X4932248Y-14798524D01*
X4922724Y-14817571D01*
X4922724Y-14865190D01*
X4932248Y-14884238D01*
X4941771Y-14893762D01*
X4960819Y-14903286D01*
X4998914Y-14903286D01*
X5017962Y-14893762D01*
X5027486Y-14884238D01*
X5037010Y-14865190D01*
X5208438Y-14846143D02*
X5208438Y-14979476D01*
X5160819Y-14769952D02*
X5113200Y-14912809D01*
X5237010Y-14912809D01*
X5303676Y-14779476D02*
X5303676Y-14817571D01*
X5379867Y-14779476D02*
X5379867Y-14817571D01*
X5675105Y-15055667D02*
X5665581Y-15046143D01*
X5646533Y-15017571D01*
X5637009Y-14998524D01*
X5627486Y-14969952D01*
X5617962Y-14922333D01*
X5617962Y-14884238D01*
X5627486Y-14836619D01*
X5637009Y-14808048D01*
X5646533Y-14789000D01*
X5665581Y-14760428D01*
X5675105Y-14750905D01*
X5789390Y-14779476D02*
X5808438Y-14779476D01*
X5827486Y-14789000D01*
X5837009Y-14798524D01*
X5846533Y-14817571D01*
X5856057Y-14855667D01*
X5856057Y-14903286D01*
X5846533Y-14941381D01*
X5837009Y-14960428D01*
X5827486Y-14969952D01*
X5808438Y-14979476D01*
X5789390Y-14979476D01*
X5770343Y-14969952D01*
X5760819Y-14960428D01*
X5751295Y-14941381D01*
X5741771Y-14903286D01*
X5741771Y-14855667D01*
X5751295Y-14817571D01*
X5760819Y-14798524D01*
X5770343Y-14789000D01*
X5789390Y-14779476D01*
X6094152Y-14979476D02*
X6094152Y-14779476D01*
X6179867Y-14979476D02*
X6179867Y-14874714D01*
X6170343Y-14855667D01*
X6151295Y-14846143D01*
X6122724Y-14846143D01*
X6103676Y-14855667D01*
X6094152Y-14865190D01*
X6303676Y-14979476D02*
X6284628Y-14969952D01*
X6275105Y-14960428D01*
X6265581Y-14941381D01*
X6265581Y-14884238D01*
X6275105Y-14865190D01*
X6284628Y-14855667D01*
X6303676Y-14846143D01*
X6332248Y-14846143D01*
X6351295Y-14855667D01*
X6360819Y-14865190D01*
X6370343Y-14884238D01*
X6370343Y-14941381D01*
X6360819Y-14960428D01*
X6351295Y-14969952D01*
X6332248Y-14979476D01*
X6303676Y-14979476D01*
X6484628Y-14979476D02*
X6465581Y-14969952D01*
X6456057Y-14950905D01*
X6456057Y-14779476D01*
X6637009Y-14969952D02*
X6617962Y-14979476D01*
X6579867Y-14979476D01*
X6560819Y-14969952D01*
X6551295Y-14950905D01*
X6551295Y-14874714D01*
X6560819Y-14855667D01*
X6579867Y-14846143D01*
X6617962Y-14846143D01*
X6637009Y-14855667D01*
X6646533Y-14874714D01*
X6646533Y-14893762D01*
X6551295Y-14912809D01*
X6722724Y-14969952D02*
X6741771Y-14979476D01*
X6779867Y-14979476D01*
X6798914Y-14969952D01*
X6808438Y-14950905D01*
X6808438Y-14941381D01*
X6798914Y-14922333D01*
X6779867Y-14912809D01*
X6751295Y-14912809D01*
X6732248Y-14903286D01*
X6722724Y-14884238D01*
X6722724Y-14874714D01*
X6732248Y-14855667D01*
X6751295Y-14846143D01*
X6779867Y-14846143D01*
X6798914Y-14855667D01*
X7046533Y-14903286D02*
X7198914Y-14903286D01*
X7122724Y-14979476D02*
X7122724Y-14827095D01*
X7427486Y-14779476D02*
X7551295Y-14779476D01*
X7484628Y-14855667D01*
X7513200Y-14855667D01*
X7532248Y-14865190D01*
X7541771Y-14874714D01*
X7551295Y-14893762D01*
X7551295Y-14941381D01*
X7541771Y-14960428D01*
X7532248Y-14969952D01*
X7513200Y-14979476D01*
X7456057Y-14979476D01*
X7437009Y-14969952D01*
X7427486Y-14960428D01*
X7779867Y-14969952D02*
X7798914Y-14979476D01*
X7837009Y-14979476D01*
X7856057Y-14969952D01*
X7865581Y-14950905D01*
X7865581Y-14941381D01*
X7856057Y-14922333D01*
X7837009Y-14912809D01*
X7808438Y-14912809D01*
X7789390Y-14903286D01*
X7779867Y-14884238D01*
X7779867Y-14874714D01*
X7789390Y-14855667D01*
X7808438Y-14846143D01*
X7837009Y-14846143D01*
X7856057Y-14855667D01*
X7979867Y-14979476D02*
X7960819Y-14969952D01*
X7951295Y-14950905D01*
X7951295Y-14779476D01*
X8084628Y-14979476D02*
X8065581Y-14969952D01*
X8056057Y-14960428D01*
X8046533Y-14941381D01*
X8046533Y-14884238D01*
X8056057Y-14865190D01*
X8065581Y-14855667D01*
X8084628Y-14846143D01*
X8113200Y-14846143D01*
X8132248Y-14855667D01*
X8141771Y-14865190D01*
X8151295Y-14884238D01*
X8151295Y-14941381D01*
X8141771Y-14960428D01*
X8132248Y-14969952D01*
X8113200Y-14979476D01*
X8084628Y-14979476D01*
X8208438Y-14846143D02*
X8284628Y-14846143D01*
X8237009Y-14779476D02*
X8237009Y-14950905D01*
X8246533Y-14969952D01*
X8265581Y-14979476D01*
X8284628Y-14979476D01*
X8341771Y-14969952D02*
X8360819Y-14979476D01*
X8398914Y-14979476D01*
X8417962Y-14969952D01*
X8427486Y-14950905D01*
X8427486Y-14941381D01*
X8417962Y-14922333D01*
X8398914Y-14912809D01*
X8370343Y-14912809D01*
X8351295Y-14903286D01*
X8341771Y-14884238D01*
X8341771Y-14874714D01*
X8351295Y-14855667D01*
X8370343Y-14846143D01*
X8398914Y-14846143D01*
X8417962Y-14855667D01*
X8494152Y-15055667D02*
X8503676Y-15046143D01*
X8522724Y-15017571D01*
X8532248Y-14998524D01*
X8541771Y-14969952D01*
X8551295Y-14922333D01*
X8551295Y-14884238D01*
X8541771Y-14836619D01*
X8532248Y-14808048D01*
X8522724Y-14789000D01*
X8503676Y-14760428D01*
X8494152Y-14750905D01*
D14*
X2088263Y-15189063D02*
X2088263Y-15116937D01*
X2016137Y-15116937D01*
X2016137Y-15189063D01*
X2088263Y-15189063D01*
D11*
X2465581Y-15243476D02*
X2351295Y-15243476D01*
X2408438Y-15243476D02*
X2408438Y-15043476D01*
X2389390Y-15072048D01*
X2370343Y-15091095D01*
X2351295Y-15100619D01*
X2551295Y-15224428D02*
X2560819Y-15233952D01*
X2551295Y-15243476D01*
X2541771Y-15233952D01*
X2551295Y-15224428D01*
X2551295Y-15243476D01*
X2684629Y-15043476D02*
X2703676Y-15043476D01*
X2722724Y-15053000D01*
X2732248Y-15062524D01*
X2741771Y-15081571D01*
X2751295Y-15119667D01*
X2751295Y-15167286D01*
X2741771Y-15205381D01*
X2732248Y-15224428D01*
X2722724Y-15233952D01*
X2703676Y-15243476D01*
X2684629Y-15243476D01*
X2665581Y-15233952D01*
X2656057Y-15224428D01*
X2646533Y-15205381D01*
X2637010Y-15167286D01*
X2637010Y-15119667D01*
X2646533Y-15081571D01*
X2656057Y-15062524D01*
X2665581Y-15053000D01*
X2684629Y-15043476D01*
X2827486Y-15062524D02*
X2837009Y-15053000D01*
X2856057Y-15043476D01*
X2903676Y-15043476D01*
X2922724Y-15053000D01*
X2932248Y-15062524D01*
X2941771Y-15081571D01*
X2941771Y-15100619D01*
X2932248Y-15129190D01*
X2817962Y-15243476D01*
X2941771Y-15243476D01*
X3065581Y-15043476D02*
X3084628Y-15043476D01*
X3103676Y-15053000D01*
X3113200Y-15062524D01*
X3122724Y-15081571D01*
X3132248Y-15119667D01*
X3132248Y-15167286D01*
X3122724Y-15205381D01*
X3113200Y-15224428D01*
X3103676Y-15233952D01*
X3084628Y-15243476D01*
X3065581Y-15243476D01*
X3046533Y-15233952D01*
X3037009Y-15224428D01*
X3027486Y-15205381D01*
X3017962Y-15167286D01*
X3017962Y-15119667D01*
X3027486Y-15081571D01*
X3037009Y-15062524D01*
X3046533Y-15053000D01*
X3065581Y-15043476D01*
X3217962Y-15243476D02*
X3217962Y-15110143D01*
X3217962Y-15129190D02*
X3227486Y-15119667D01*
X3246533Y-15110143D01*
X3275105Y-15110143D01*
X3294152Y-15119667D01*
X3303676Y-15138714D01*
X3303676Y-15243476D01*
X3303676Y-15138714D02*
X3313200Y-15119667D01*
X3332248Y-15110143D01*
X3360819Y-15110143D01*
X3379867Y-15119667D01*
X3389390Y-15138714D01*
X3389390Y-15243476D01*
X3484628Y-15243476D02*
X3484628Y-15110143D01*
X3484628Y-15129190D02*
X3494152Y-15119667D01*
X3513200Y-15110143D01*
X3541771Y-15110143D01*
X3560819Y-15119667D01*
X3570343Y-15138714D01*
X3570343Y-15243476D01*
X3570343Y-15138714D02*
X3579867Y-15119667D01*
X3598914Y-15110143D01*
X3627486Y-15110143D01*
X3646533Y-15119667D01*
X3656057Y-15138714D01*
X3656057Y-15243476D01*
X4046533Y-15033952D02*
X3875105Y-15291095D01*
X4303676Y-15043476D02*
X4322724Y-15043476D01*
X4341771Y-15053000D01*
X4351295Y-15062524D01*
X4360819Y-15081571D01*
X4370343Y-15119667D01*
X4370343Y-15167286D01*
X4360819Y-15205381D01*
X4351295Y-15224428D01*
X4341771Y-15233952D01*
X4322724Y-15243476D01*
X4303676Y-15243476D01*
X4284629Y-15233952D01*
X4275105Y-15224428D01*
X4265581Y-15205381D01*
X4256057Y-15167286D01*
X4256057Y-15119667D01*
X4265581Y-15081571D01*
X4275105Y-15062524D01*
X4284629Y-15053000D01*
X4303676Y-15043476D01*
X4456057Y-15224428D02*
X4465581Y-15233952D01*
X4456057Y-15243476D01*
X4446533Y-15233952D01*
X4456057Y-15224428D01*
X4456057Y-15243476D01*
X4589390Y-15043476D02*
X4608438Y-15043476D01*
X4627486Y-15053000D01*
X4637010Y-15062524D01*
X4646533Y-15081571D01*
X4656057Y-15119667D01*
X4656057Y-15167286D01*
X4646533Y-15205381D01*
X4637010Y-15224428D01*
X4627486Y-15233952D01*
X4608438Y-15243476D01*
X4589390Y-15243476D01*
X4570343Y-15233952D01*
X4560819Y-15224428D01*
X4551295Y-15205381D01*
X4541771Y-15167286D01*
X4541771Y-15119667D01*
X4551295Y-15081571D01*
X4560819Y-15062524D01*
X4570343Y-15053000D01*
X4589390Y-15043476D01*
X4827486Y-15110143D02*
X4827486Y-15243476D01*
X4779867Y-15033952D02*
X4732248Y-15176809D01*
X4856057Y-15176809D01*
X4970343Y-15043476D02*
X4989390Y-15043476D01*
X5008438Y-15053000D01*
X5017962Y-15062524D01*
X5027486Y-15081571D01*
X5037010Y-15119667D01*
X5037010Y-15167286D01*
X5027486Y-15205381D01*
X5017962Y-15224428D01*
X5008438Y-15233952D01*
X4989390Y-15243476D01*
X4970343Y-15243476D01*
X4951295Y-15233952D01*
X4941771Y-15224428D01*
X4932248Y-15205381D01*
X4922724Y-15167286D01*
X4922724Y-15119667D01*
X4932248Y-15081571D01*
X4941771Y-15062524D01*
X4951295Y-15053000D01*
X4970343Y-15043476D01*
X5113200Y-15062524D02*
X5122724Y-15053000D01*
X5141771Y-15043476D01*
X5189390Y-15043476D01*
X5208438Y-15053000D01*
X5217962Y-15062524D01*
X5227486Y-15081571D01*
X5227486Y-15100619D01*
X5217962Y-15129190D01*
X5103676Y-15243476D01*
X5227486Y-15243476D01*
X5303676Y-15043476D02*
X5303676Y-15081571D01*
X5379867Y-15043476D02*
X5379867Y-15081571D01*
X5675105Y-15319667D02*
X5665581Y-15310143D01*
X5646533Y-15281571D01*
X5637009Y-15262524D01*
X5627486Y-15233952D01*
X5617962Y-15186333D01*
X5617962Y-15148238D01*
X5627486Y-15100619D01*
X5637009Y-15072048D01*
X5646533Y-15053000D01*
X5665581Y-15024428D01*
X5675105Y-15014905D01*
X5732248Y-15043476D02*
X5856057Y-15043476D01*
X5789390Y-15119667D01*
X5817962Y-15119667D01*
X5837009Y-15129190D01*
X5846533Y-15138714D01*
X5856057Y-15157762D01*
X5856057Y-15205381D01*
X5846533Y-15224428D01*
X5837009Y-15233952D01*
X5817962Y-15243476D01*
X5760819Y-15243476D01*
X5741771Y-15233952D01*
X5732248Y-15224428D01*
X5979867Y-15043476D02*
X5998914Y-15043476D01*
X6017962Y-15053000D01*
X6027486Y-15062524D01*
X6037009Y-15081571D01*
X6046533Y-15119667D01*
X6046533Y-15167286D01*
X6037009Y-15205381D01*
X6027486Y-15224428D01*
X6017962Y-15233952D01*
X5998914Y-15243476D01*
X5979867Y-15243476D01*
X5960819Y-15233952D01*
X5951295Y-15224428D01*
X5941771Y-15205381D01*
X5932248Y-15167286D01*
X5932248Y-15119667D01*
X5941771Y-15081571D01*
X5951295Y-15062524D01*
X5960819Y-15053000D01*
X5979867Y-15043476D01*
X6284628Y-15243476D02*
X6284628Y-15043476D01*
X6370343Y-15243476D02*
X6370343Y-15138714D01*
X6360819Y-15119667D01*
X6341771Y-15110143D01*
X6313200Y-15110143D01*
X6294152Y-15119667D01*
X6284628Y-15129190D01*
X6494152Y-15243476D02*
X6475105Y-15233952D01*
X6465581Y-15224428D01*
X6456057Y-15205381D01*
X6456057Y-15148238D01*
X6465581Y-15129190D01*
X6475105Y-15119667D01*
X6494152Y-15110143D01*
X6522724Y-15110143D01*
X6541771Y-15119667D01*
X6551295Y-15129190D01*
X6560819Y-15148238D01*
X6560819Y-15205381D01*
X6551295Y-15224428D01*
X6541771Y-15233952D01*
X6522724Y-15243476D01*
X6494152Y-15243476D01*
X6675105Y-15243476D02*
X6656057Y-15233952D01*
X6646533Y-15214905D01*
X6646533Y-15043476D01*
X6827486Y-15233952D02*
X6808438Y-15243476D01*
X6770343Y-15243476D01*
X6751295Y-15233952D01*
X6741771Y-15214905D01*
X6741771Y-15138714D01*
X6751295Y-15119667D01*
X6770343Y-15110143D01*
X6808438Y-15110143D01*
X6827486Y-15119667D01*
X6837009Y-15138714D01*
X6837009Y-15157762D01*
X6741771Y-15176809D01*
X6913200Y-15233952D02*
X6932248Y-15243476D01*
X6970343Y-15243476D01*
X6989390Y-15233952D01*
X6998914Y-15214905D01*
X6998914Y-15205381D01*
X6989390Y-15186333D01*
X6970343Y-15176809D01*
X6941771Y-15176809D01*
X6922724Y-15167286D01*
X6913200Y-15148238D01*
X6913200Y-15138714D01*
X6922724Y-15119667D01*
X6941771Y-15110143D01*
X6970343Y-15110143D01*
X6989390Y-15119667D01*
X7065581Y-15319667D02*
X7075105Y-15310143D01*
X7094152Y-15281571D01*
X7103676Y-15262524D01*
X7113200Y-15233952D01*
X7122724Y-15186333D01*
X7122724Y-15148238D01*
X7113200Y-15100619D01*
X7103676Y-15072048D01*
X7094152Y-15053000D01*
X7075105Y-15024428D01*
X7065581Y-15014905D01*
D15*
X2048200Y-15472000D02*
X2103200Y-15417000D01*
X2048200Y-15362000D01*
X1993200Y-15417000D01*
X2048200Y-15472000D01*
D11*
X2465581Y-15507476D02*
X2351295Y-15507476D01*
X2408438Y-15507476D02*
X2408438Y-15307476D01*
X2389390Y-15336048D01*
X2370343Y-15355095D01*
X2351295Y-15364619D01*
X2551295Y-15488428D02*
X2560819Y-15497952D01*
X2551295Y-15507476D01*
X2541771Y-15497952D01*
X2551295Y-15488428D01*
X2551295Y-15507476D01*
X2751295Y-15507476D02*
X2637010Y-15507476D01*
X2694152Y-15507476D02*
X2694152Y-15307476D01*
X2675105Y-15336048D01*
X2656057Y-15355095D01*
X2637010Y-15364619D01*
X2875105Y-15307476D02*
X2894152Y-15307476D01*
X2913200Y-15317000D01*
X2922724Y-15326524D01*
X2932248Y-15345571D01*
X2941771Y-15383667D01*
X2941771Y-15431286D01*
X2932248Y-15469381D01*
X2922724Y-15488428D01*
X2913200Y-15497952D01*
X2894152Y-15507476D01*
X2875105Y-15507476D01*
X2856057Y-15497952D01*
X2846533Y-15488428D01*
X2837009Y-15469381D01*
X2827486Y-15431286D01*
X2827486Y-15383667D01*
X2837009Y-15345571D01*
X2846533Y-15326524D01*
X2856057Y-15317000D01*
X2875105Y-15307476D01*
X3065581Y-15307476D02*
X3084628Y-15307476D01*
X3103676Y-15317000D01*
X3113200Y-15326524D01*
X3122724Y-15345571D01*
X3132248Y-15383667D01*
X3132248Y-15431286D01*
X3122724Y-15469381D01*
X3113200Y-15488428D01*
X3103676Y-15497952D01*
X3084628Y-15507476D01*
X3065581Y-15507476D01*
X3046533Y-15497952D01*
X3037009Y-15488428D01*
X3027486Y-15469381D01*
X3017962Y-15431286D01*
X3017962Y-15383667D01*
X3027486Y-15345571D01*
X3037009Y-15326524D01*
X3046533Y-15317000D01*
X3065581Y-15307476D01*
X3217962Y-15507476D02*
X3217962Y-15374143D01*
X3217962Y-15393190D02*
X3227486Y-15383667D01*
X3246533Y-15374143D01*
X3275105Y-15374143D01*
X3294152Y-15383667D01*
X3303676Y-15402714D01*
X3303676Y-15507476D01*
X3303676Y-15402714D02*
X3313200Y-15383667D01*
X3332248Y-15374143D01*
X3360819Y-15374143D01*
X3379867Y-15383667D01*
X3389390Y-15402714D01*
X3389390Y-15507476D01*
X3484628Y-15507476D02*
X3484628Y-15374143D01*
X3484628Y-15393190D02*
X3494152Y-15383667D01*
X3513200Y-15374143D01*
X3541771Y-15374143D01*
X3560819Y-15383667D01*
X3570343Y-15402714D01*
X3570343Y-15507476D01*
X3570343Y-15402714D02*
X3579867Y-15383667D01*
X3598914Y-15374143D01*
X3627486Y-15374143D01*
X3646533Y-15383667D01*
X3656057Y-15402714D01*
X3656057Y-15507476D01*
X4046533Y-15297952D02*
X3875105Y-15555095D01*
X4303676Y-15307476D02*
X4322724Y-15307476D01*
X4341771Y-15317000D01*
X4351295Y-15326524D01*
X4360819Y-15345571D01*
X4370343Y-15383667D01*
X4370343Y-15431286D01*
X4360819Y-15469381D01*
X4351295Y-15488428D01*
X4341771Y-15497952D01*
X4322724Y-15507476D01*
X4303676Y-15507476D01*
X4284629Y-15497952D01*
X4275105Y-15488428D01*
X4265581Y-15469381D01*
X4256057Y-15431286D01*
X4256057Y-15383667D01*
X4265581Y-15345571D01*
X4275105Y-15326524D01*
X4284629Y-15317000D01*
X4303676Y-15307476D01*
X4456057Y-15488428D02*
X4465581Y-15497952D01*
X4456057Y-15507476D01*
X4446533Y-15497952D01*
X4456057Y-15488428D01*
X4456057Y-15507476D01*
X4589390Y-15307476D02*
X4608438Y-15307476D01*
X4627486Y-15317000D01*
X4637010Y-15326524D01*
X4646533Y-15345571D01*
X4656057Y-15383667D01*
X4656057Y-15431286D01*
X4646533Y-15469381D01*
X4637010Y-15488428D01*
X4627486Y-15497952D01*
X4608438Y-15507476D01*
X4589390Y-15507476D01*
X4570343Y-15497952D01*
X4560819Y-15488428D01*
X4551295Y-15469381D01*
X4541771Y-15431286D01*
X4541771Y-15383667D01*
X4551295Y-15345571D01*
X4560819Y-15326524D01*
X4570343Y-15317000D01*
X4589390Y-15307476D01*
X4827486Y-15374143D02*
X4827486Y-15507476D01*
X4779867Y-15297952D02*
X4732248Y-15440809D01*
X4856057Y-15440809D01*
X4913200Y-15307476D02*
X5037010Y-15307476D01*
X4970343Y-15383667D01*
X4998914Y-15383667D01*
X5017962Y-15393190D01*
X5027486Y-15402714D01*
X5037010Y-15421762D01*
X5037010Y-15469381D01*
X5027486Y-15488428D01*
X5017962Y-15497952D01*
X4998914Y-15507476D01*
X4941771Y-15507476D01*
X4922724Y-15497952D01*
X4913200Y-15488428D01*
X5103676Y-15307476D02*
X5227486Y-15307476D01*
X5160819Y-15383667D01*
X5189390Y-15383667D01*
X5208438Y-15393190D01*
X5217962Y-15402714D01*
X5227486Y-15421762D01*
X5227486Y-15469381D01*
X5217962Y-15488428D01*
X5208438Y-15497952D01*
X5189390Y-15507476D01*
X5132248Y-15507476D01*
X5113200Y-15497952D01*
X5103676Y-15488428D01*
X5303676Y-15307476D02*
X5303676Y-15345571D01*
X5379867Y-15307476D02*
X5379867Y-15345571D01*
X5675105Y-15583667D02*
X5665581Y-15574143D01*
X5646533Y-15545571D01*
X5637009Y-15526524D01*
X5627486Y-15497952D01*
X5617962Y-15450333D01*
X5617962Y-15412238D01*
X5627486Y-15364619D01*
X5637009Y-15336048D01*
X5646533Y-15317000D01*
X5665581Y-15288428D01*
X5675105Y-15278905D01*
X5741771Y-15326524D02*
X5751295Y-15317000D01*
X5770343Y-15307476D01*
X5817962Y-15307476D01*
X5837009Y-15317000D01*
X5846533Y-15326524D01*
X5856057Y-15345571D01*
X5856057Y-15364619D01*
X5846533Y-15393190D01*
X5732248Y-15507476D01*
X5856057Y-15507476D01*
X5932248Y-15326524D02*
X5941771Y-15317000D01*
X5960819Y-15307476D01*
X6008438Y-15307476D01*
X6027486Y-15317000D01*
X6037009Y-15326524D01*
X6046533Y-15345571D01*
X6046533Y-15364619D01*
X6037009Y-15393190D01*
X5922724Y-15507476D01*
X6046533Y-15507476D01*
X6284628Y-15507476D02*
X6284628Y-15307476D01*
X6370343Y-15507476D02*
X6370343Y-15402714D01*
X6360819Y-15383667D01*
X6341771Y-15374143D01*
X6313200Y-15374143D01*
X6294152Y-15383667D01*
X6284628Y-15393190D01*
X6494152Y-15507476D02*
X6475105Y-15497952D01*
X6465581Y-15488428D01*
X6456057Y-15469381D01*
X6456057Y-15412238D01*
X6465581Y-15393190D01*
X6475105Y-15383667D01*
X6494152Y-15374143D01*
X6522724Y-15374143D01*
X6541771Y-15383667D01*
X6551295Y-15393190D01*
X6560819Y-15412238D01*
X6560819Y-15469381D01*
X6551295Y-15488428D01*
X6541771Y-15497952D01*
X6522724Y-15507476D01*
X6494152Y-15507476D01*
X6675105Y-15507476D02*
X6656057Y-15497952D01*
X6646533Y-15478905D01*
X6646533Y-15307476D01*
X6827486Y-15497952D02*
X6808438Y-15507476D01*
X6770343Y-15507476D01*
X6751295Y-15497952D01*
X6741771Y-15478905D01*
X6741771Y-15402714D01*
X6751295Y-15383667D01*
X6770343Y-15374143D01*
X6808438Y-15374143D01*
X6827486Y-15383667D01*
X6837009Y-15402714D01*
X6837009Y-15421762D01*
X6741771Y-15440809D01*
X6913200Y-15497952D02*
X6932248Y-15507476D01*
X6970343Y-15507476D01*
X6989390Y-15497952D01*
X6998914Y-15478905D01*
X6998914Y-15469381D01*
X6989390Y-15450333D01*
X6970343Y-15440809D01*
X6941771Y-15440809D01*
X6922724Y-15431286D01*
X6913200Y-15412238D01*
X6913200Y-15402714D01*
X6922724Y-15383667D01*
X6941771Y-15374143D01*
X6970343Y-15374143D01*
X6989390Y-15383667D01*
X7065581Y-15583667D02*
X7075105Y-15574143D01*
X7094152Y-15545571D01*
X7103676Y-15526524D01*
X7113200Y-15497952D01*
X7122724Y-15450333D01*
X7122724Y-15412238D01*
X7113200Y-15364619D01*
X7103676Y-15336048D01*
X7094152Y-15317000D01*
X7075105Y-15288428D01*
X7065581Y-15278905D01*
D16*
X1974200Y-15616500D02*
X2103200Y-15745500D01*
X2103200Y-15616500D02*
X1974200Y-15745500D01*
X2103200Y-15681000D02*
G75*
G03*
X2103200Y-15681000I-64500J0D01*
G01*
D11*
X2465581Y-15771476D02*
X2351295Y-15771476D01*
X2408438Y-15771476D02*
X2408438Y-15571476D01*
X2389390Y-15600048D01*
X2370343Y-15619095D01*
X2351295Y-15628619D01*
X2551295Y-15752428D02*
X2560819Y-15761952D01*
X2551295Y-15771476D01*
X2541771Y-15761952D01*
X2551295Y-15752428D01*
X2551295Y-15771476D01*
X2637010Y-15590524D02*
X2646533Y-15581000D01*
X2665581Y-15571476D01*
X2713200Y-15571476D01*
X2732248Y-15581000D01*
X2741771Y-15590524D01*
X2751295Y-15609571D01*
X2751295Y-15628619D01*
X2741771Y-15657190D01*
X2627486Y-15771476D01*
X2751295Y-15771476D01*
X2846533Y-15771476D02*
X2884628Y-15771476D01*
X2903676Y-15761952D01*
X2913200Y-15752428D01*
X2932248Y-15723857D01*
X2941771Y-15685762D01*
X2941771Y-15609571D01*
X2932248Y-15590524D01*
X2922724Y-15581000D01*
X2903676Y-15571476D01*
X2865581Y-15571476D01*
X2846533Y-15581000D01*
X2837009Y-15590524D01*
X2827486Y-15609571D01*
X2827486Y-15657190D01*
X2837009Y-15676238D01*
X2846533Y-15685762D01*
X2865581Y-15695286D01*
X2903676Y-15695286D01*
X2922724Y-15685762D01*
X2932248Y-15676238D01*
X2941771Y-15657190D01*
X3065581Y-15571476D02*
X3084628Y-15571476D01*
X3103676Y-15581000D01*
X3113200Y-15590524D01*
X3122724Y-15609571D01*
X3132248Y-15647667D01*
X3132248Y-15695286D01*
X3122724Y-15733381D01*
X3113200Y-15752428D01*
X3103676Y-15761952D01*
X3084628Y-15771476D01*
X3065581Y-15771476D01*
X3046533Y-15761952D01*
X3037009Y-15752428D01*
X3027486Y-15733381D01*
X3017962Y-15695286D01*
X3017962Y-15647667D01*
X3027486Y-15609571D01*
X3037009Y-15590524D01*
X3046533Y-15581000D01*
X3065581Y-15571476D01*
X3217962Y-15771476D02*
X3217962Y-15638143D01*
X3217962Y-15657190D02*
X3227486Y-15647667D01*
X3246533Y-15638143D01*
X3275105Y-15638143D01*
X3294152Y-15647667D01*
X3303676Y-15666714D01*
X3303676Y-15771476D01*
X3303676Y-15666714D02*
X3313200Y-15647667D01*
X3332248Y-15638143D01*
X3360819Y-15638143D01*
X3379867Y-15647667D01*
X3389390Y-15666714D01*
X3389390Y-15771476D01*
X3484628Y-15771476D02*
X3484628Y-15638143D01*
X3484628Y-15657190D02*
X3494152Y-15647667D01*
X3513200Y-15638143D01*
X3541771Y-15638143D01*
X3560819Y-15647667D01*
X3570343Y-15666714D01*
X3570343Y-15771476D01*
X3570343Y-15666714D02*
X3579867Y-15647667D01*
X3598914Y-15638143D01*
X3627486Y-15638143D01*
X3646533Y-15647667D01*
X3656057Y-15666714D01*
X3656057Y-15771476D01*
X4046533Y-15561952D02*
X3875105Y-15819095D01*
X4303676Y-15571476D02*
X4322724Y-15571476D01*
X4341771Y-15581000D01*
X4351295Y-15590524D01*
X4360819Y-15609571D01*
X4370343Y-15647667D01*
X4370343Y-15695286D01*
X4360819Y-15733381D01*
X4351295Y-15752428D01*
X4341771Y-15761952D01*
X4322724Y-15771476D01*
X4303676Y-15771476D01*
X4284629Y-15761952D01*
X4275105Y-15752428D01*
X4265581Y-15733381D01*
X4256057Y-15695286D01*
X4256057Y-15647667D01*
X4265581Y-15609571D01*
X4275105Y-15590524D01*
X4284629Y-15581000D01*
X4303676Y-15571476D01*
X4456057Y-15752428D02*
X4465581Y-15761952D01*
X4456057Y-15771476D01*
X4446533Y-15761952D01*
X4456057Y-15752428D01*
X4456057Y-15771476D01*
X4589390Y-15571476D02*
X4608438Y-15571476D01*
X4627486Y-15581000D01*
X4637010Y-15590524D01*
X4646533Y-15609571D01*
X4656057Y-15647667D01*
X4656057Y-15695286D01*
X4646533Y-15733381D01*
X4637010Y-15752428D01*
X4627486Y-15761952D01*
X4608438Y-15771476D01*
X4589390Y-15771476D01*
X4570343Y-15761952D01*
X4560819Y-15752428D01*
X4551295Y-15733381D01*
X4541771Y-15695286D01*
X4541771Y-15647667D01*
X4551295Y-15609571D01*
X4560819Y-15590524D01*
X4570343Y-15581000D01*
X4589390Y-15571476D01*
X4837010Y-15571476D02*
X4741771Y-15571476D01*
X4732248Y-15666714D01*
X4741771Y-15657190D01*
X4760819Y-15647667D01*
X4808438Y-15647667D01*
X4827486Y-15657190D01*
X4837010Y-15666714D01*
X4846533Y-15685762D01*
X4846533Y-15733381D01*
X4837010Y-15752428D01*
X4827486Y-15761952D01*
X4808438Y-15771476D01*
X4760819Y-15771476D01*
X4741771Y-15761952D01*
X4732248Y-15752428D01*
X4970343Y-15571476D02*
X4989390Y-15571476D01*
X5008438Y-15581000D01*
X5017962Y-15590524D01*
X5027486Y-15609571D01*
X5037010Y-15647667D01*
X5037010Y-15695286D01*
X5027486Y-15733381D01*
X5017962Y-15752428D01*
X5008438Y-15761952D01*
X4989390Y-15771476D01*
X4970343Y-15771476D01*
X4951295Y-15761952D01*
X4941771Y-15752428D01*
X4932248Y-15733381D01*
X4922724Y-15695286D01*
X4922724Y-15647667D01*
X4932248Y-15609571D01*
X4941771Y-15590524D01*
X4951295Y-15581000D01*
X4970343Y-15571476D01*
X5151295Y-15657190D02*
X5132248Y-15647667D01*
X5122724Y-15638143D01*
X5113200Y-15619095D01*
X5113200Y-15609571D01*
X5122724Y-15590524D01*
X5132248Y-15581000D01*
X5151295Y-15571476D01*
X5189390Y-15571476D01*
X5208438Y-15581000D01*
X5217962Y-15590524D01*
X5227486Y-15609571D01*
X5227486Y-15619095D01*
X5217962Y-15638143D01*
X5208438Y-15647667D01*
X5189390Y-15657190D01*
X5151295Y-15657190D01*
X5132248Y-15666714D01*
X5122724Y-15676238D01*
X5113200Y-15695286D01*
X5113200Y-15733381D01*
X5122724Y-15752428D01*
X5132248Y-15761952D01*
X5151295Y-15771476D01*
X5189390Y-15771476D01*
X5208438Y-15761952D01*
X5217962Y-15752428D01*
X5227486Y-15733381D01*
X5227486Y-15695286D01*
X5217962Y-15676238D01*
X5208438Y-15666714D01*
X5189390Y-15657190D01*
X5303676Y-15571476D02*
X5303676Y-15609571D01*
X5379867Y-15571476D02*
X5379867Y-15609571D01*
X5675105Y-15847667D02*
X5665581Y-15838143D01*
X5646533Y-15809571D01*
X5637009Y-15790524D01*
X5627486Y-15761952D01*
X5617962Y-15714333D01*
X5617962Y-15676238D01*
X5627486Y-15628619D01*
X5637009Y-15600048D01*
X5646533Y-15581000D01*
X5665581Y-15552428D01*
X5675105Y-15542905D01*
X5837009Y-15638143D02*
X5837009Y-15771476D01*
X5789390Y-15561952D02*
X5741771Y-15704809D01*
X5865581Y-15704809D01*
X6094152Y-15771476D02*
X6094152Y-15571476D01*
X6179867Y-15771476D02*
X6179867Y-15666714D01*
X6170343Y-15647667D01*
X6151295Y-15638143D01*
X6122724Y-15638143D01*
X6103676Y-15647667D01*
X6094152Y-15657190D01*
X6303676Y-15771476D02*
X6284628Y-15761952D01*
X6275105Y-15752428D01*
X6265581Y-15733381D01*
X6265581Y-15676238D01*
X6275105Y-15657190D01*
X6284628Y-15647667D01*
X6303676Y-15638143D01*
X6332248Y-15638143D01*
X6351295Y-15647667D01*
X6360819Y-15657190D01*
X6370343Y-15676238D01*
X6370343Y-15733381D01*
X6360819Y-15752428D01*
X6351295Y-15761952D01*
X6332248Y-15771476D01*
X6303676Y-15771476D01*
X6484628Y-15771476D02*
X6465581Y-15761952D01*
X6456057Y-15742905D01*
X6456057Y-15571476D01*
X6637009Y-15761952D02*
X6617962Y-15771476D01*
X6579867Y-15771476D01*
X6560819Y-15761952D01*
X6551295Y-15742905D01*
X6551295Y-15666714D01*
X6560819Y-15647667D01*
X6579867Y-15638143D01*
X6617962Y-15638143D01*
X6637009Y-15647667D01*
X6646533Y-15666714D01*
X6646533Y-15685762D01*
X6551295Y-15704809D01*
X6722724Y-15761952D02*
X6741771Y-15771476D01*
X6779867Y-15771476D01*
X6798914Y-15761952D01*
X6808438Y-15742905D01*
X6808438Y-15733381D01*
X6798914Y-15714333D01*
X6779867Y-15704809D01*
X6751295Y-15704809D01*
X6732248Y-15695286D01*
X6722724Y-15676238D01*
X6722724Y-15666714D01*
X6732248Y-15647667D01*
X6751295Y-15638143D01*
X6779867Y-15638143D01*
X6798914Y-15647667D01*
X6875105Y-15847667D02*
X6884628Y-15838143D01*
X6903676Y-15809571D01*
X6913200Y-15790524D01*
X6922724Y-15761952D01*
X6932248Y-15714333D01*
X6932248Y-15676238D01*
X6922724Y-15628619D01*
X6913200Y-15600048D01*
X6903676Y-15581000D01*
X6884628Y-15552428D01*
X6875105Y-15542905D01*
D17*
X1973200Y-15880000D02*
X2103200Y-16010000D01*
X2103200Y-15880000D02*
X1973200Y-16010000D01*
X2038200Y-15880000D02*
X2038200Y-16010000D01*
X1973200Y-15945000D02*
X2103200Y-15945000D01*
D11*
X2465581Y-16035476D02*
X2351295Y-16035476D01*
X2408438Y-16035476D02*
X2408438Y-15835476D01*
X2389390Y-15864048D01*
X2370343Y-15883095D01*
X2351295Y-15892619D01*
X2551295Y-16016428D02*
X2560819Y-16025952D01*
X2551295Y-16035476D01*
X2541771Y-16025952D01*
X2551295Y-16016428D01*
X2551295Y-16035476D01*
X2627486Y-15835476D02*
X2751295Y-15835476D01*
X2684629Y-15911667D01*
X2713200Y-15911667D01*
X2732248Y-15921190D01*
X2741771Y-15930714D01*
X2751295Y-15949762D01*
X2751295Y-15997381D01*
X2741771Y-16016428D01*
X2732248Y-16025952D01*
X2713200Y-16035476D01*
X2656057Y-16035476D01*
X2637010Y-16025952D01*
X2627486Y-16016428D01*
X2875105Y-15835476D02*
X2894152Y-15835476D01*
X2913200Y-15845000D01*
X2922724Y-15854524D01*
X2932248Y-15873571D01*
X2941771Y-15911667D01*
X2941771Y-15959286D01*
X2932248Y-15997381D01*
X2922724Y-16016428D01*
X2913200Y-16025952D01*
X2894152Y-16035476D01*
X2875105Y-16035476D01*
X2856057Y-16025952D01*
X2846533Y-16016428D01*
X2837009Y-15997381D01*
X2827486Y-15959286D01*
X2827486Y-15911667D01*
X2837009Y-15873571D01*
X2846533Y-15854524D01*
X2856057Y-15845000D01*
X2875105Y-15835476D01*
X3065581Y-15835476D02*
X3084628Y-15835476D01*
X3103676Y-15845000D01*
X3113200Y-15854524D01*
X3122724Y-15873571D01*
X3132248Y-15911667D01*
X3132248Y-15959286D01*
X3122724Y-15997381D01*
X3113200Y-16016428D01*
X3103676Y-16025952D01*
X3084628Y-16035476D01*
X3065581Y-16035476D01*
X3046533Y-16025952D01*
X3037009Y-16016428D01*
X3027486Y-15997381D01*
X3017962Y-15959286D01*
X3017962Y-15911667D01*
X3027486Y-15873571D01*
X3037009Y-15854524D01*
X3046533Y-15845000D01*
X3065581Y-15835476D01*
X3217962Y-16035476D02*
X3217962Y-15902143D01*
X3217962Y-15921190D02*
X3227486Y-15911667D01*
X3246533Y-15902143D01*
X3275105Y-15902143D01*
X3294152Y-15911667D01*
X3303676Y-15930714D01*
X3303676Y-16035476D01*
X3303676Y-15930714D02*
X3313200Y-15911667D01*
X3332248Y-15902143D01*
X3360819Y-15902143D01*
X3379867Y-15911667D01*
X3389390Y-15930714D01*
X3389390Y-16035476D01*
X3484628Y-16035476D02*
X3484628Y-15902143D01*
X3484628Y-15921190D02*
X3494152Y-15911667D01*
X3513200Y-15902143D01*
X3541771Y-15902143D01*
X3560819Y-15911667D01*
X3570343Y-15930714D01*
X3570343Y-16035476D01*
X3570343Y-15930714D02*
X3579867Y-15911667D01*
X3598914Y-15902143D01*
X3627486Y-15902143D01*
X3646533Y-15911667D01*
X3656057Y-15930714D01*
X3656057Y-16035476D01*
X4046533Y-15825952D02*
X3875105Y-16083095D01*
X4303676Y-15835476D02*
X4322724Y-15835476D01*
X4341771Y-15845000D01*
X4351295Y-15854524D01*
X4360819Y-15873571D01*
X4370343Y-15911667D01*
X4370343Y-15959286D01*
X4360819Y-15997381D01*
X4351295Y-16016428D01*
X4341771Y-16025952D01*
X4322724Y-16035476D01*
X4303676Y-16035476D01*
X4284629Y-16025952D01*
X4275105Y-16016428D01*
X4265581Y-15997381D01*
X4256057Y-15959286D01*
X4256057Y-15911667D01*
X4265581Y-15873571D01*
X4275105Y-15854524D01*
X4284629Y-15845000D01*
X4303676Y-15835476D01*
X4456057Y-16016428D02*
X4465581Y-16025952D01*
X4456057Y-16035476D01*
X4446533Y-16025952D01*
X4456057Y-16016428D01*
X4456057Y-16035476D01*
X4589390Y-15835476D02*
X4608438Y-15835476D01*
X4627486Y-15845000D01*
X4637010Y-15854524D01*
X4646533Y-15873571D01*
X4656057Y-15911667D01*
X4656057Y-15959286D01*
X4646533Y-15997381D01*
X4637010Y-16016428D01*
X4627486Y-16025952D01*
X4608438Y-16035476D01*
X4589390Y-16035476D01*
X4570343Y-16025952D01*
X4560819Y-16016428D01*
X4551295Y-15997381D01*
X4541771Y-15959286D01*
X4541771Y-15911667D01*
X4551295Y-15873571D01*
X4560819Y-15854524D01*
X4570343Y-15845000D01*
X4589390Y-15835476D01*
X4837010Y-15835476D02*
X4741771Y-15835476D01*
X4732248Y-15930714D01*
X4741771Y-15921190D01*
X4760819Y-15911667D01*
X4808438Y-15911667D01*
X4827486Y-15921190D01*
X4837010Y-15930714D01*
X4846533Y-15949762D01*
X4846533Y-15997381D01*
X4837010Y-16016428D01*
X4827486Y-16025952D01*
X4808438Y-16035476D01*
X4760819Y-16035476D01*
X4741771Y-16025952D01*
X4732248Y-16016428D01*
X5037010Y-16035476D02*
X4922724Y-16035476D01*
X4979867Y-16035476D02*
X4979867Y-15835476D01*
X4960819Y-15864048D01*
X4941771Y-15883095D01*
X4922724Y-15892619D01*
X5113200Y-15854524D02*
X5122724Y-15845000D01*
X5141771Y-15835476D01*
X5189390Y-15835476D01*
X5208438Y-15845000D01*
X5217962Y-15854524D01*
X5227486Y-15873571D01*
X5227486Y-15892619D01*
X5217962Y-15921190D01*
X5103676Y-16035476D01*
X5227486Y-16035476D01*
X5303676Y-15835476D02*
X5303676Y-15873571D01*
X5379867Y-15835476D02*
X5379867Y-15873571D01*
X5675105Y-16111667D02*
X5665581Y-16102143D01*
X5646533Y-16073571D01*
X5637009Y-16054524D01*
X5627486Y-16025952D01*
X5617962Y-15978333D01*
X5617962Y-15940238D01*
X5627486Y-15892619D01*
X5637009Y-15864048D01*
X5646533Y-15845000D01*
X5665581Y-15816428D01*
X5675105Y-15806905D01*
X5856057Y-16035476D02*
X5741771Y-16035476D01*
X5798914Y-16035476D02*
X5798914Y-15835476D01*
X5779867Y-15864048D01*
X5760819Y-15883095D01*
X5741771Y-15892619D01*
X6027486Y-15835476D02*
X5989390Y-15835476D01*
X5970343Y-15845000D01*
X5960819Y-15854524D01*
X5941771Y-15883095D01*
X5932248Y-15921190D01*
X5932248Y-15997381D01*
X5941771Y-16016428D01*
X5951295Y-16025952D01*
X5970343Y-16035476D01*
X6008438Y-16035476D01*
X6027486Y-16025952D01*
X6037009Y-16016428D01*
X6046533Y-15997381D01*
X6046533Y-15949762D01*
X6037009Y-15930714D01*
X6027486Y-15921190D01*
X6008438Y-15911667D01*
X5970343Y-15911667D01*
X5951295Y-15921190D01*
X5941771Y-15930714D01*
X5932248Y-15949762D01*
X6284628Y-16035476D02*
X6284628Y-15835476D01*
X6370343Y-16035476D02*
X6370343Y-15930714D01*
X6360819Y-15911667D01*
X6341771Y-15902143D01*
X6313200Y-15902143D01*
X6294152Y-15911667D01*
X6284628Y-15921190D01*
X6494152Y-16035476D02*
X6475105Y-16025952D01*
X6465581Y-16016428D01*
X6456057Y-15997381D01*
X6456057Y-15940238D01*
X6465581Y-15921190D01*
X6475105Y-15911667D01*
X6494152Y-15902143D01*
X6522724Y-15902143D01*
X6541771Y-15911667D01*
X6551295Y-15921190D01*
X6560819Y-15940238D01*
X6560819Y-15997381D01*
X6551295Y-16016428D01*
X6541771Y-16025952D01*
X6522724Y-16035476D01*
X6494152Y-16035476D01*
X6675105Y-16035476D02*
X6656057Y-16025952D01*
X6646533Y-16006905D01*
X6646533Y-15835476D01*
X6827486Y-16025952D02*
X6808438Y-16035476D01*
X6770343Y-16035476D01*
X6751295Y-16025952D01*
X6741771Y-16006905D01*
X6741771Y-15930714D01*
X6751295Y-15911667D01*
X6770343Y-15902143D01*
X6808438Y-15902143D01*
X6827486Y-15911667D01*
X6837009Y-15930714D01*
X6837009Y-15949762D01*
X6741771Y-15968809D01*
X6913200Y-16025952D02*
X6932248Y-16035476D01*
X6970343Y-16035476D01*
X6989390Y-16025952D01*
X6998914Y-16006905D01*
X6998914Y-15997381D01*
X6989390Y-15978333D01*
X6970343Y-15968809D01*
X6941771Y-15968809D01*
X6922724Y-15959286D01*
X6913200Y-15940238D01*
X6913200Y-15930714D01*
X6922724Y-15911667D01*
X6941771Y-15902143D01*
X6970343Y-15902143D01*
X6989390Y-15911667D01*
X7065581Y-16111667D02*
X7075105Y-16102143D01*
X7094152Y-16073571D01*
X7103676Y-16054524D01*
X7113200Y-16025952D01*
X7122724Y-15978333D01*
X7122724Y-15940238D01*
X7113200Y-15892619D01*
X7103676Y-15864048D01*
X7094152Y-15845000D01*
X7075105Y-15816428D01*
X7065581Y-15806905D01*
D18*
X1971200Y-16143000D02*
X2103200Y-16275000D01*
X2103200Y-16143000D02*
X1971200Y-16275000D01*
X2083869Y-16255669D02*
X2083869Y-16162330D01*
X1990530Y-16162330D01*
X1990530Y-16255669D01*
X2083869Y-16255669D01*
D11*
X2465581Y-16299476D02*
X2351295Y-16299476D01*
X2408438Y-16299476D02*
X2408438Y-16099476D01*
X2389390Y-16128048D01*
X2370343Y-16147095D01*
X2351295Y-16156619D01*
X2551295Y-16280428D02*
X2560819Y-16289952D01*
X2551295Y-16299476D01*
X2541771Y-16289952D01*
X2551295Y-16280428D01*
X2551295Y-16299476D01*
X2627486Y-16099476D02*
X2751295Y-16099476D01*
X2684629Y-16175667D01*
X2713200Y-16175667D01*
X2732248Y-16185190D01*
X2741771Y-16194714D01*
X2751295Y-16213762D01*
X2751295Y-16261381D01*
X2741771Y-16280428D01*
X2732248Y-16289952D01*
X2713200Y-16299476D01*
X2656057Y-16299476D01*
X2637010Y-16289952D01*
X2627486Y-16280428D01*
X2827486Y-16118524D02*
X2837009Y-16109000D01*
X2856057Y-16099476D01*
X2903676Y-16099476D01*
X2922724Y-16109000D01*
X2932248Y-16118524D01*
X2941771Y-16137571D01*
X2941771Y-16156619D01*
X2932248Y-16185190D01*
X2817962Y-16299476D01*
X2941771Y-16299476D01*
X3065581Y-16099476D02*
X3084628Y-16099476D01*
X3103676Y-16109000D01*
X3113200Y-16118524D01*
X3122724Y-16137571D01*
X3132248Y-16175667D01*
X3132248Y-16223286D01*
X3122724Y-16261381D01*
X3113200Y-16280428D01*
X3103676Y-16289952D01*
X3084628Y-16299476D01*
X3065581Y-16299476D01*
X3046533Y-16289952D01*
X3037009Y-16280428D01*
X3027486Y-16261381D01*
X3017962Y-16223286D01*
X3017962Y-16175667D01*
X3027486Y-16137571D01*
X3037009Y-16118524D01*
X3046533Y-16109000D01*
X3065581Y-16099476D01*
X3217962Y-16299476D02*
X3217962Y-16166143D01*
X3217962Y-16185190D02*
X3227486Y-16175667D01*
X3246533Y-16166143D01*
X3275105Y-16166143D01*
X3294152Y-16175667D01*
X3303676Y-16194714D01*
X3303676Y-16299476D01*
X3303676Y-16194714D02*
X3313200Y-16175667D01*
X3332248Y-16166143D01*
X3360819Y-16166143D01*
X3379867Y-16175667D01*
X3389390Y-16194714D01*
X3389390Y-16299476D01*
X3484628Y-16299476D02*
X3484628Y-16166143D01*
X3484628Y-16185190D02*
X3494152Y-16175667D01*
X3513200Y-16166143D01*
X3541771Y-16166143D01*
X3560819Y-16175667D01*
X3570343Y-16194714D01*
X3570343Y-16299476D01*
X3570343Y-16194714D02*
X3579867Y-16175667D01*
X3598914Y-16166143D01*
X3627486Y-16166143D01*
X3646533Y-16175667D01*
X3656057Y-16194714D01*
X3656057Y-16299476D01*
X4046533Y-16089952D02*
X3875105Y-16347095D01*
X4303676Y-16099476D02*
X4322724Y-16099476D01*
X4341771Y-16109000D01*
X4351295Y-16118524D01*
X4360819Y-16137571D01*
X4370343Y-16175667D01*
X4370343Y-16223286D01*
X4360819Y-16261381D01*
X4351295Y-16280428D01*
X4341771Y-16289952D01*
X4322724Y-16299476D01*
X4303676Y-16299476D01*
X4284629Y-16289952D01*
X4275105Y-16280428D01*
X4265581Y-16261381D01*
X4256057Y-16223286D01*
X4256057Y-16175667D01*
X4265581Y-16137571D01*
X4275105Y-16118524D01*
X4284629Y-16109000D01*
X4303676Y-16099476D01*
X4456057Y-16280428D02*
X4465581Y-16289952D01*
X4456057Y-16299476D01*
X4446533Y-16289952D01*
X4456057Y-16280428D01*
X4456057Y-16299476D01*
X4589390Y-16099476D02*
X4608438Y-16099476D01*
X4627486Y-16109000D01*
X4637010Y-16118524D01*
X4646533Y-16137571D01*
X4656057Y-16175667D01*
X4656057Y-16223286D01*
X4646533Y-16261381D01*
X4637010Y-16280428D01*
X4627486Y-16289952D01*
X4608438Y-16299476D01*
X4589390Y-16299476D01*
X4570343Y-16289952D01*
X4560819Y-16280428D01*
X4551295Y-16261381D01*
X4541771Y-16223286D01*
X4541771Y-16175667D01*
X4551295Y-16137571D01*
X4560819Y-16118524D01*
X4570343Y-16109000D01*
X4589390Y-16099476D01*
X4837010Y-16099476D02*
X4741771Y-16099476D01*
X4732248Y-16194714D01*
X4741771Y-16185190D01*
X4760819Y-16175667D01*
X4808438Y-16175667D01*
X4827486Y-16185190D01*
X4837010Y-16194714D01*
X4846533Y-16213762D01*
X4846533Y-16261381D01*
X4837010Y-16280428D01*
X4827486Y-16289952D01*
X4808438Y-16299476D01*
X4760819Y-16299476D01*
X4741771Y-16289952D01*
X4732248Y-16280428D01*
X4922724Y-16118524D02*
X4932248Y-16109000D01*
X4951295Y-16099476D01*
X4998914Y-16099476D01*
X5017962Y-16109000D01*
X5027486Y-16118524D01*
X5037010Y-16137571D01*
X5037010Y-16156619D01*
X5027486Y-16185190D01*
X4913200Y-16299476D01*
X5037010Y-16299476D01*
X5160819Y-16099476D02*
X5179867Y-16099476D01*
X5198914Y-16109000D01*
X5208438Y-16118524D01*
X5217962Y-16137571D01*
X5227486Y-16175667D01*
X5227486Y-16223286D01*
X5217962Y-16261381D01*
X5208438Y-16280428D01*
X5198914Y-16289952D01*
X5179867Y-16299476D01*
X5160819Y-16299476D01*
X5141771Y-16289952D01*
X5132248Y-16280428D01*
X5122724Y-16261381D01*
X5113200Y-16223286D01*
X5113200Y-16175667D01*
X5122724Y-16137571D01*
X5132248Y-16118524D01*
X5141771Y-16109000D01*
X5160819Y-16099476D01*
X5303676Y-16099476D02*
X5303676Y-16137571D01*
X5379867Y-16099476D02*
X5379867Y-16137571D01*
X5675105Y-16375667D02*
X5665581Y-16366143D01*
X5646533Y-16337571D01*
X5637009Y-16318524D01*
X5627486Y-16289952D01*
X5617962Y-16242333D01*
X5617962Y-16204238D01*
X5627486Y-16156619D01*
X5637009Y-16128048D01*
X5646533Y-16109000D01*
X5665581Y-16080428D01*
X5675105Y-16070905D01*
X5856057Y-16299476D02*
X5741771Y-16299476D01*
X5798914Y-16299476D02*
X5798914Y-16099476D01*
X5779867Y-16128048D01*
X5760819Y-16147095D01*
X5741771Y-16156619D01*
X6027486Y-16099476D02*
X5989390Y-16099476D01*
X5970343Y-16109000D01*
X5960819Y-16118524D01*
X5941771Y-16147095D01*
X5932248Y-16185190D01*
X5932248Y-16261381D01*
X5941771Y-16280428D01*
X5951295Y-16289952D01*
X5970343Y-16299476D01*
X6008438Y-16299476D01*
X6027486Y-16289952D01*
X6037009Y-16280428D01*
X6046533Y-16261381D01*
X6046533Y-16213762D01*
X6037009Y-16194714D01*
X6027486Y-16185190D01*
X6008438Y-16175667D01*
X5970343Y-16175667D01*
X5951295Y-16185190D01*
X5941771Y-16194714D01*
X5932248Y-16213762D01*
X6284628Y-16299476D02*
X6284628Y-16099476D01*
X6370343Y-16299476D02*
X6370343Y-16194714D01*
X6360819Y-16175667D01*
X6341771Y-16166143D01*
X6313200Y-16166143D01*
X6294152Y-16175667D01*
X6284628Y-16185190D01*
X6494152Y-16299476D02*
X6475105Y-16289952D01*
X6465581Y-16280428D01*
X6456057Y-16261381D01*
X6456057Y-16204238D01*
X6465581Y-16185190D01*
X6475105Y-16175667D01*
X6494152Y-16166143D01*
X6522724Y-16166143D01*
X6541771Y-16175667D01*
X6551295Y-16185190D01*
X6560819Y-16204238D01*
X6560819Y-16261381D01*
X6551295Y-16280428D01*
X6541771Y-16289952D01*
X6522724Y-16299476D01*
X6494152Y-16299476D01*
X6675105Y-16299476D02*
X6656057Y-16289952D01*
X6646533Y-16270905D01*
X6646533Y-16099476D01*
X6827486Y-16289952D02*
X6808438Y-16299476D01*
X6770343Y-16299476D01*
X6751295Y-16289952D01*
X6741771Y-16270905D01*
X6741771Y-16194714D01*
X6751295Y-16175667D01*
X6770343Y-16166143D01*
X6808438Y-16166143D01*
X6827486Y-16175667D01*
X6837009Y-16194714D01*
X6837009Y-16213762D01*
X6741771Y-16232809D01*
X6913200Y-16289952D02*
X6932248Y-16299476D01*
X6970343Y-16299476D01*
X6989390Y-16289952D01*
X6998914Y-16270905D01*
X6998914Y-16261381D01*
X6989390Y-16242333D01*
X6970343Y-16232809D01*
X6941771Y-16232809D01*
X6922724Y-16223286D01*
X6913200Y-16204238D01*
X6913200Y-16194714D01*
X6922724Y-16175667D01*
X6941771Y-16166143D01*
X6970343Y-16166143D01*
X6989390Y-16175667D01*
X7065581Y-16375667D02*
X7075105Y-16366143D01*
X7094152Y-16337571D01*
X7103676Y-16318524D01*
X7113200Y-16289952D01*
X7122724Y-16242333D01*
X7122724Y-16204238D01*
X7113200Y-16156619D01*
X7103676Y-16128048D01*
X7094152Y-16109000D01*
X7075105Y-16080428D01*
X7065581Y-16070905D01*
M02*
