M48
; DRILL file {KiCad (6.0.9)} date Wed Dec 14 18:51:53 2022
; FORMAT={-:-/ absolute / metric / decimal}
; #@! TF.CreationDate,2022-12-14T18:51:53-08:00
; #@! TF.GenerationSoftware,Kicad,Pcbnew,(6.0.9)
; #@! TF.FileFunction,Plated,1,4,PTH
FMAT,2
METRIC
; #@! TA.AperFunction,Plated,PTH,ViaDrill
T1C0.300
; #@! TA.AperFunction,Plated,PTH,ComponentDrill
T2C0.800
; #@! TA.AperFunction,Plated,PTH,ComponentDrill
T3C1.000
; #@! TA.AperFunction,Plated,PTH,ComponentDrill
T4C1.020
; #@! TA.AperFunction,Plated,PTH,ComponentDrill
T5C1.100
; #@! TA.AperFunction,Plated,PTH,ComponentDrill
T6C1.290
; #@! TA.AperFunction,Plated,PTH,ComponentDrill
T7C1.300
; #@! TA.AperFunction,Plated,PTH,ComponentDrill
T8C1.320
%
G90
G05
T1
X27.686Y-72.898
X30.226Y-25.654
X30.226Y-43.307
X30.226Y-94.996
X30.249Y-50.188
X33.274Y-87.884
X34.036Y-59.69
X34.036Y-67.056
X34.036Y-89.408
X34.798Y-59.69
X34.798Y-67.056
X37.846Y-25.654
X37.846Y-43.307
X37.973Y-51.562
X39.37Y-53.34
X39.37Y-59.69
X39.37Y-67.056
X41.695Y-44.411
X42.418Y-43.688
X42.926Y-42.926
X43.18Y-89.154
X43.688Y-42.164
X44.196Y-52.578
X44.45Y-59.69
X44.45Y-67.056
X46.736Y-53.34
X47.244Y-59.69
X49.276Y-59.69
X49.276Y-67.056
X51.308Y-51.562
X52.07Y-52.324
X52.07Y-64.77
X53.34Y-89.154
X54.864Y-50.292
X55.118Y-68.834
X57.912Y-56.642
X59.69Y-49.53
X62.611Y-64.008
X62.992Y-59.436
X63.246Y-55.118
X63.246Y-62.484
X64.77Y-94.188
X67.564Y-51.562
X67.564Y-59.436
X67.564Y-93.472
X68.326Y-50.292
X68.326Y-62.484
X68.326Y-92.456
X69.723Y-55.372
X69.723Y-87.122
X69.723Y-91.44
X70.358Y-44.45
X70.358Y-51.816
X70.866Y-43.688
X71.12Y-51.054
X71.628Y-42.926
X71.882Y-50.292
X72.39Y-42.164
X72.644Y-49.53
X79.248Y-38.862
X81.026Y-30.226
X81.534Y-38.862
X82.55Y-109.982
X83.312Y-93.472
X85.09Y-38.862
X85.09Y-91.44
X86.36Y-38.862
X87.122Y-92.456
X89.154Y-98.298
X90.17Y-56.134
X90.932Y-103.886
X91.948Y-102.108
X92.964Y-109.982
X94.488Y-105.156
X96.774Y-93.472
X97.5Y-34.0
X97.536Y-92.456
X98.552Y-101.854
X99.568Y-38.862
X100.584Y-91.44
X102.362Y-109.982
X103.886Y-38.862
X104.394Y-97.79
X105.156Y-99.314
X105.156Y-103.632
X108.966Y-56.388
X110.744Y-37.338
X112.268Y-109.982
X114.3Y-104.394
X116.332Y-33.274
X116.586Y-92.456
X117.094Y-93.472
X117.856Y-38.862
X118.618Y-91.44
X119.126Y-36.576
X119.888Y-102.362
X121.92Y-92.456
X122.428Y-38.862
X123.418Y-95.276
X123.444Y-102.616
X125.73Y-93.472
X127.508Y-56.642
X130.048Y-36.576
X136.652Y-38.862
X140.97Y-38.862
X146.304Y-56.642
T2
X28.149Y-101.539
X28.149Y-109.159
X28.413Y-79.461
X28.413Y-87.081
X30.689Y-101.539
X30.689Y-109.159
X30.953Y-79.461
X30.953Y-87.081
X38.055Y-101.539
X38.055Y-109.159
X38.319Y-79.461
X38.319Y-87.081
X40.595Y-101.539
X40.595Y-109.159
X40.859Y-79.461
X40.859Y-87.081
X47.961Y-101.793
X47.961Y-109.413
X48.225Y-79.461
X48.225Y-87.081
X50.501Y-101.793
X50.501Y-109.413
X50.765Y-79.461
X50.765Y-87.081
X58.121Y-101.793
X58.121Y-109.413
X58.639Y-79.461
X58.639Y-87.081
X60.661Y-101.793
X60.661Y-109.413
X61.179Y-79.461
X61.179Y-87.081
X79.406Y-42.16
X79.406Y-44.7
X87.026Y-42.16
X87.026Y-44.7
X98.034Y-42.169
X98.034Y-44.709
X105.654Y-42.169
X105.654Y-44.709
X116.576Y-42.197
X116.576Y-44.737
X124.196Y-42.197
X124.196Y-44.737
X135.372Y-42.169
X135.372Y-44.709
X142.992Y-42.169
X142.992Y-44.709
T4
X26.455Y-21.8
X26.455Y-47.2
X28.995Y-21.8
X28.995Y-47.2
X31.535Y-21.8
X31.535Y-47.2
X34.075Y-21.8
X34.075Y-47.2
X36.615Y-21.8
X36.615Y-47.2
X39.155Y-21.8
X39.155Y-47.2
X41.695Y-21.8
X41.695Y-47.2
X44.235Y-21.8
X44.235Y-47.2
X46.775Y-21.8
X46.775Y-47.2
X49.315Y-21.8
X49.315Y-47.2
X51.855Y-21.8
X51.855Y-47.2
X54.395Y-21.8
X54.395Y-47.2
X56.935Y-21.8
X56.935Y-47.2
X59.475Y-21.8
X59.475Y-47.2
X62.015Y-21.8
X62.015Y-47.2
T5
X76.866Y-54.606
X82.804Y-87.63
X85.344Y-87.63
X87.026Y-54.606
X87.884Y-87.63
X94.488Y-24.13
X95.504Y-54.61
X95.504Y-87.63
X98.044Y-87.63
X100.584Y-87.63
X104.648Y-24.13
X105.664Y-54.61
X107.95Y-87.63
X110.49Y-87.63
X113.03Y-87.63
X114.046Y-54.864
X120.65Y-87.63
X123.19Y-87.63
X124.206Y-54.864
X125.73Y-87.63
X132.842Y-54.892
X143.002Y-54.892
T6
X82.042Y-59.21
X100.838Y-59.21
X119.38Y-59.21
X138.176Y-59.21
T7
X28.18Y-124.968
X33.18Y-124.968
X38.18Y-124.968
X43.18Y-124.968
X48.18Y-124.968
X53.18Y-124.968
X58.18Y-124.968
X63.18Y-124.968
X88.418Y-125.273
X93.418Y-125.273
X98.418Y-125.273
X103.418Y-125.273
X108.418Y-125.273
X113.418Y-125.273
X118.418Y-125.273
X123.418Y-125.273
T8
X76.042Y-61.21
X76.042Y-73.41
X88.042Y-61.21
X88.042Y-73.41
X94.838Y-61.21
X94.838Y-73.41
X106.838Y-61.21
X106.838Y-73.41
X113.38Y-61.21
X113.38Y-73.41
X125.38Y-61.21
X125.38Y-73.41
X132.176Y-61.21
X132.176Y-73.41
X144.176Y-61.21
X144.176Y-73.41
T3
X138.048Y-30.702G85X138.048Y-32.702
G05
X143.748Y-28.702G85X141.748Y-28.702
G05
X143.748Y-34.702G85X141.748Y-34.702
G05
T0
M30
