%TF.GenerationSoftware,KiCad,Pcbnew,(6.0.9)*%
%TF.CreationDate,2022-12-14T18:51:27-08:00*%
%TF.ProjectId,halloween vending machine,68616c6c-6f77-4656-956e-2076656e6469,rev?*%
%TF.SameCoordinates,Original*%
%TF.FileFunction,Paste,Top*%
%TF.FilePolarity,Positive*%
%FSLAX46Y46*%
G04 Gerber Fmt 4.6, Leading zero omitted, Abs format (unit mm)*
G04 Created by KiCad (PCBNEW (6.0.9)) date 2022-12-14 18:51:27*
%MOMM*%
%LPD*%
G01*
G04 APERTURE LIST*
G04 Aperture macros list*
%AMRoundRect*
0 Rectangle with rounded corners*
0 $1 Rounding radius*
0 $2 $3 $4 $5 $6 $7 $8 $9 X,Y pos of 4 corners*
0 Add a 4 corners polygon primitive as box body*
4,1,4,$2,$3,$4,$5,$6,$7,$8,$9,$2,$3,0*
0 Add four circle primitives for the rounded corners*
1,1,$1+$1,$2,$3*
1,1,$1+$1,$4,$5*
1,1,$1+$1,$6,$7*
1,1,$1+$1,$8,$9*
0 Add four rect primitives between the rounded corners*
20,1,$1+$1,$2,$3,$4,$5,0*
20,1,$1+$1,$4,$5,$6,$7,0*
20,1,$1+$1,$6,$7,$8,$9,0*
20,1,$1+$1,$8,$9,$2,$3,0*%
G04 Aperture macros list end*
%ADD10RoundRect,0.250000X-0.625000X0.312500X-0.625000X-0.312500X0.625000X-0.312500X0.625000X0.312500X0*%
%ADD11RoundRect,0.079500X0.079500X0.100500X-0.079500X0.100500X-0.079500X-0.100500X0.079500X-0.100500X0*%
%ADD12RoundRect,0.250000X-0.312500X-0.625000X0.312500X-0.625000X0.312500X0.625000X-0.312500X0.625000X0*%
%ADD13RoundRect,0.079500X0.100500X-0.079500X0.100500X0.079500X-0.100500X0.079500X-0.100500X-0.079500X0*%
%ADD14RoundRect,0.250000X0.650000X-0.325000X0.650000X0.325000X-0.650000X0.325000X-0.650000X-0.325000X0*%
%ADD15RoundRect,0.250000X0.625000X-0.312500X0.625000X0.312500X-0.625000X0.312500X-0.625000X-0.312500X0*%
%ADD16RoundRect,0.075000X0.075000X-0.650000X0.075000X0.650000X-0.075000X0.650000X-0.075000X-0.650000X0*%
%ADD17RoundRect,0.150000X-0.150000X0.587500X-0.150000X-0.587500X0.150000X-0.587500X0.150000X0.587500X0*%
%ADD18RoundRect,0.212500X0.212500X0.212500X-0.212500X0.212500X-0.212500X-0.212500X0.212500X-0.212500X0*%
%ADD19RoundRect,0.087500X0.425000X0.087500X-0.425000X0.087500X-0.425000X-0.087500X0.425000X-0.087500X0*%
%ADD20RoundRect,0.087500X0.087500X0.425000X-0.087500X0.425000X-0.087500X-0.425000X0.087500X-0.425000X0*%
%ADD21RoundRect,0.079500X-0.100500X0.079500X-0.100500X-0.079500X0.100500X-0.079500X0.100500X0.079500X0*%
%ADD22RoundRect,0.150000X-0.825000X-0.150000X0.825000X-0.150000X0.825000X0.150000X-0.825000X0.150000X0*%
%ADD23RoundRect,0.250000X0.312500X0.625000X-0.312500X0.625000X-0.312500X-0.625000X0.312500X-0.625000X0*%
%ADD24RoundRect,0.250001X0.799999X-1.999999X0.799999X1.999999X-0.799999X1.999999X-0.799999X-1.999999X0*%
%ADD25RoundRect,0.250000X0.325000X0.650000X-0.325000X0.650000X-0.325000X-0.650000X0.325000X-0.650000X0*%
%ADD26RoundRect,0.079500X-0.079500X-0.100500X0.079500X-0.100500X0.079500X0.100500X-0.079500X0.100500X0*%
%ADD27RoundRect,0.250000X-0.312500X-1.450000X0.312500X-1.450000X0.312500X1.450000X-0.312500X1.450000X0*%
%ADD28RoundRect,0.075000X-0.075000X0.650000X-0.075000X-0.650000X0.075000X-0.650000X0.075000X0.650000X0*%
G04 APERTURE END LIST*
D10*
%TO.C,R24*%
X87026000Y-48063500D03*
X87026000Y-50988500D03*
%TD*%
D11*
%TO.C,D19*%
X96749000Y-113030000D03*
X97439000Y-113030000D03*
%TD*%
D12*
%TO.C,R21*%
X40915500Y-92151000D03*
X43840500Y-92151000D03*
%TD*%
D13*
%TO.C,D13*%
X127508000Y-55491000D03*
X127508000Y-54801000D03*
%TD*%
D14*
%TO.C,C4*%
X113030000Y-102313000D03*
X113030000Y-99363000D03*
%TD*%
D15*
%TO.C,R50*%
X47458000Y-74055500D03*
X47458000Y-71130500D03*
%TD*%
D16*
%TO.C,U17*%
X60976000Y-60874000D03*
X61476000Y-60874000D03*
X61976000Y-60874000D03*
X62476000Y-60874000D03*
X62976000Y-60874000D03*
X62976000Y-56474000D03*
X62476000Y-56474000D03*
X61976000Y-56474000D03*
X61476000Y-56474000D03*
X60976000Y-56474000D03*
%TD*%
D11*
%TO.C,D18*%
X87213000Y-113030000D03*
X86523000Y-113030000D03*
%TD*%
D12*
%TO.C,R17*%
X40661500Y-97231000D03*
X43586500Y-97231000D03*
%TD*%
D17*
%TO.C,Q1*%
X77816000Y-48159000D03*
X75916000Y-48159000D03*
X76866000Y-50034000D03*
%TD*%
D10*
%TO.C,R27*%
X124206000Y-48095500D03*
X124206000Y-51020500D03*
%TD*%
D12*
%TO.C,R18*%
X50567500Y-97231000D03*
X53492500Y-97231000D03*
%TD*%
D13*
%TO.C,D10*%
X90170000Y-55205000D03*
X90170000Y-54515000D03*
%TD*%
D10*
%TO.C,R31*%
X131572000Y-42225500D03*
X131572000Y-45150500D03*
%TD*%
D12*
%TO.C,R20*%
X30755500Y-92151000D03*
X33680500Y-92151000D03*
%TD*%
D18*
%TO.C,U3*%
X96757000Y-99077000D03*
X97807000Y-98027000D03*
X97807000Y-99077000D03*
X96757000Y-98027000D03*
D19*
X99144500Y-99527000D03*
X99144500Y-98877000D03*
X99144500Y-98227000D03*
X99144500Y-97577000D03*
D20*
X98257000Y-96689500D03*
X97607000Y-96689500D03*
X96957000Y-96689500D03*
X96307000Y-96689500D03*
D19*
X95419500Y-97577000D03*
X95419500Y-98227000D03*
X95419500Y-98877000D03*
X95419500Y-99527000D03*
D20*
X96307000Y-100414500D03*
X96957000Y-100414500D03*
X97607000Y-100414500D03*
X98257000Y-100414500D03*
%TD*%
D21*
%TO.C,D6*%
X27646000Y-96632000D03*
X27646000Y-97322000D03*
%TD*%
D22*
%TO.C,U2*%
X109539000Y-30861000D03*
X109539000Y-32131000D03*
X109539000Y-33401000D03*
X109539000Y-34671000D03*
X114489000Y-34671000D03*
X114489000Y-33401000D03*
X114489000Y-32131000D03*
X114489000Y-30861000D03*
%TD*%
D23*
%TO.C,R44*%
X108396500Y-109982000D03*
X105471500Y-109982000D03*
%TD*%
D24*
%TO.C,C3*%
X86360000Y-32092000D03*
X86360000Y-24892000D03*
%TD*%
D15*
%TO.C,R51*%
X57872000Y-74055500D03*
X57872000Y-71130500D03*
%TD*%
D21*
%TO.C,D8*%
X47458000Y-97485000D03*
X47458000Y-96795000D03*
%TD*%
D11*
%TO.C,D23*%
X40223000Y-76657000D03*
X39533000Y-76657000D03*
%TD*%
D15*
%TO.C,R8*%
X28154000Y-117489500D03*
X28154000Y-114564500D03*
%TD*%
%TO.C,R5*%
X91948000Y-100715000D03*
X91948000Y-97790000D03*
%TD*%
%TO.C,R13*%
X53046000Y-117489500D03*
X53046000Y-114564500D03*
%TD*%
D10*
%TO.C,R26*%
X105664000Y-48067500D03*
X105664000Y-50992500D03*
%TD*%
D15*
%TO.C,R59*%
X51308000Y-57404000D03*
X51308000Y-54479000D03*
%TD*%
D10*
%TO.C,R30*%
X112776000Y-42253500D03*
X112776000Y-45178500D03*
%TD*%
D21*
%TO.C,D4*%
X53046000Y-112399000D03*
X53046000Y-111709000D03*
%TD*%
D15*
%TO.C,R12*%
X47966000Y-117489500D03*
X47966000Y-114564500D03*
%TD*%
D12*
%TO.C,R23*%
X60727500Y-92151000D03*
X63652500Y-92151000D03*
%TD*%
D21*
%TO.C,D7*%
X37552000Y-96632000D03*
X37552000Y-97322000D03*
%TD*%
D10*
%TO.C,R35*%
X100584000Y-80071500D03*
X100584000Y-82996500D03*
%TD*%
D23*
%TO.C,R42*%
X98744500Y-109982000D03*
X95819500Y-109982000D03*
%TD*%
D10*
%TO.C,R33*%
X125730000Y-80071500D03*
X125730000Y-82996500D03*
%TD*%
D13*
%TO.C,D14*%
X146304000Y-55397000D03*
X146304000Y-54707000D03*
%TD*%
D15*
%TO.C,R60*%
X125730000Y-100776500D03*
X125730000Y-97851500D03*
%TD*%
D23*
%TO.C,R46*%
X118302500Y-109982000D03*
X115377500Y-109982000D03*
%TD*%
D21*
%TO.C,D2*%
X32980000Y-112054000D03*
X32980000Y-111364000D03*
%TD*%
D10*
%TO.C,R2*%
X79248000Y-22921500D03*
X79248000Y-25846500D03*
%TD*%
D21*
%TO.C,D9*%
X57618000Y-97576000D03*
X57618000Y-96886000D03*
%TD*%
D11*
%TO.C,D25*%
X59853000Y-76657000D03*
X60543000Y-76657000D03*
%TD*%
D25*
%TO.C,C5*%
X61419000Y-64008000D03*
X58469000Y-64008000D03*
%TD*%
D15*
%TO.C,R39*%
X95504000Y-82996500D03*
X95504000Y-80071500D03*
%TD*%
%TO.C,R49*%
X37552000Y-74055500D03*
X37552000Y-71130500D03*
%TD*%
D23*
%TO.C,R57*%
X118302500Y-106172000D03*
X115377500Y-106172000D03*
%TD*%
D15*
%TO.C,R11*%
X42886000Y-117489500D03*
X42886000Y-114564500D03*
%TD*%
D21*
%TO.C,D3*%
X42886000Y-111618000D03*
X42886000Y-112308000D03*
%TD*%
D23*
%TO.C,R43*%
X98490500Y-117094000D03*
X95565500Y-117094000D03*
%TD*%
D12*
%TO.C,R19*%
X60727500Y-97231000D03*
X63652500Y-97231000D03*
%TD*%
D15*
%TO.C,R62*%
X54864000Y-57404000D03*
X54864000Y-54479000D03*
%TD*%
D10*
%TO.C,R25*%
X75596000Y-42221500D03*
X75596000Y-45146500D03*
%TD*%
D26*
%TO.C,D26*%
X95500000Y-34500000D03*
X96190000Y-34500000D03*
%TD*%
D23*
%TO.C,R40*%
X88330500Y-109982000D03*
X85405500Y-109982000D03*
%TD*%
D15*
%TO.C,R6*%
X87122000Y-100715000D03*
X87122000Y-97790000D03*
%TD*%
D21*
%TO.C,D5*%
X63206000Y-112399000D03*
X63206000Y-111709000D03*
%TD*%
D11*
%TO.C,D22*%
X29668000Y-76667000D03*
X30358000Y-76667000D03*
%TD*%
D23*
%TO.C,R41*%
X88330500Y-117094000D03*
X85405500Y-117094000D03*
%TD*%
D12*
%TO.C,R63*%
X94382500Y-31480000D03*
X97307500Y-31480000D03*
%TD*%
%TO.C,R56*%
X95881000Y-105156000D03*
X98806000Y-105156000D03*
%TD*%
D17*
%TO.C,Q3*%
X114996000Y-48163000D03*
X113096000Y-48163000D03*
X114046000Y-50038000D03*
%TD*%
D11*
%TO.C,D24*%
X49439000Y-76657000D03*
X50129000Y-76657000D03*
%TD*%
D10*
%TO.C,R32*%
X113030000Y-80071500D03*
X113030000Y-82996500D03*
%TD*%
D17*
%TO.C,Q4*%
X133792000Y-48699000D03*
X131892000Y-48699000D03*
X132842000Y-50574000D03*
%TD*%
D10*
%TO.C,R29*%
X94234000Y-42225500D03*
X94234000Y-45150500D03*
%TD*%
%TO.C,R34*%
X87884000Y-80071500D03*
X87884000Y-82996500D03*
%TD*%
D27*
%TO.C,L1*%
X109728000Y-24130000D03*
X114003000Y-24130000D03*
%TD*%
D13*
%TO.C,D12*%
X108966000Y-54519000D03*
X108966000Y-55209000D03*
%TD*%
D10*
%TO.C,R7*%
X102616000Y-97790000D03*
X102616000Y-100715000D03*
%TD*%
D15*
%TO.C,R48*%
X27646000Y-74117000D03*
X27646000Y-71192000D03*
%TD*%
D25*
%TO.C,C2*%
X105107000Y-33528000D03*
X102157000Y-33528000D03*
%TD*%
D15*
%TO.C,R38*%
X82804000Y-82996500D03*
X82804000Y-80071500D03*
%TD*%
D10*
%TO.C,R28*%
X143002000Y-48067500D03*
X143002000Y-50992500D03*
%TD*%
D11*
%TO.C,D21*%
X116495000Y-113030000D03*
X117185000Y-113030000D03*
%TD*%
D15*
%TO.C,R52*%
X31202000Y-74117000D03*
X31202000Y-71192000D03*
%TD*%
D23*
%TO.C,R45*%
X108396500Y-117094000D03*
X105471500Y-117094000D03*
%TD*%
D11*
%TO.C,D20*%
X106655000Y-113030000D03*
X107345000Y-113030000D03*
%TD*%
D15*
%TO.C,R54*%
X51014000Y-74117000D03*
X51014000Y-71192000D03*
%TD*%
%TO.C,R61*%
X121920000Y-100776500D03*
X121920000Y-97851500D03*
%TD*%
%TO.C,R36*%
X107950000Y-82996500D03*
X107950000Y-80071500D03*
%TD*%
%TO.C,R37*%
X120650000Y-82996500D03*
X120650000Y-80071500D03*
%TD*%
D23*
%TO.C,R58*%
X62676500Y-52578000D03*
X59751500Y-52578000D03*
%TD*%
D24*
%TO.C,C1*%
X127762000Y-34842000D03*
X127762000Y-27642000D03*
%TD*%
D15*
%TO.C,R55*%
X61428000Y-74055500D03*
X61428000Y-71130500D03*
%TD*%
%TO.C,R9*%
X32980000Y-117489500D03*
X32980000Y-114564500D03*
%TD*%
D17*
%TO.C,Q2*%
X96454000Y-48163000D03*
X94554000Y-48163000D03*
X95504000Y-50038000D03*
%TD*%
D15*
%TO.C,R15*%
X63206000Y-117489500D03*
X63206000Y-114564500D03*
%TD*%
%TO.C,R1*%
X119126000Y-34736500D03*
X119126000Y-31811500D03*
%TD*%
D28*
%TO.C,U4*%
X118602000Y-97876000D03*
X118102000Y-97876000D03*
X117602000Y-97876000D03*
X117102000Y-97876000D03*
X116602000Y-97876000D03*
X116602000Y-102276000D03*
X117102000Y-102276000D03*
X117602000Y-102276000D03*
X118102000Y-102276000D03*
X118602000Y-102276000D03*
%TD*%
D12*
%TO.C,R16*%
X30755500Y-97231000D03*
X33680500Y-97231000D03*
%TD*%
D10*
%TO.C,R3*%
X79248000Y-29271500D03*
X79248000Y-32196500D03*
%TD*%
D15*
%TO.C,R4*%
X83312000Y-100715000D03*
X83312000Y-97790000D03*
%TD*%
D12*
%TO.C,R22*%
X50567500Y-92151000D03*
X53492500Y-92151000D03*
%TD*%
D23*
%TO.C,R47*%
X118302500Y-117094000D03*
X115377500Y-117094000D03*
%TD*%
D15*
%TO.C,R10*%
X38060000Y-117489500D03*
X38060000Y-114564500D03*
%TD*%
%TO.C,R53*%
X41108000Y-74055500D03*
X41108000Y-71130500D03*
%TD*%
%TO.C,R14*%
X58126000Y-117489500D03*
X58126000Y-114564500D03*
%TD*%
M02*
