<?xml version="1.0" encoding="UTF-8" standalone="no"?>
<svg
   version="1.1"
   id="Layer_1"
   x="0px"
   y="0px"
   viewBox="0 0 1779.3885 865.3684"
   enable-background="new 0 0 1779.3885 865.3684"
   xml:space="preserve"
   xmlns="http://www.w3.org/2000/svg"
   xmlns:svg="http://www.w3.org/2000/svg"><defs
   id="defs9" />
<g
   id="g4">
	<path
   d="M866.7337,855.5616c-2.3235-17.2285-7.3017-33.141-17.2998-47.1777c-15.0071-21.0688-36.0712-32.8763-61.085-36.0155   c-59.3891-7.4528-109.8367,11.5579-151.418,54.3921c-4.2972,4.4266-7.79,9.5414-11.1042,14.7567   c-3.3058,5.2023-5.9026,10.7711-8.8391,17.243c-0.6655-1.7637-1.1368-2.8324-1.4775-3.9412   c-22.1324-72.0164-81.1307-114.1396-156.7993-112.1027c-35.3339,0.9511-68.2758,10.4631-99.2107,27.2482   c-18.3504,9.9569-32.5197,24.7209-45.765,40.5002c-8.8893,10.5898-17.1091,21.7446-26.7381,31.71   c-0.4543,0.4702-0.9865,0.8649-2.1018,1.8319c-0.6034-2.3806-1.1001-4.3473-1.6003-6.313   c-10.3589-40.7068-29.6785-76.0435-63.5029-101.9066c-43.6786-33.3978-92.6783-40.5912-145.2749-27.1962   c-19.9906,5.0911-38.5853,13.564-56.1722,24.2915c-1.1356,0.6926-2.2624,1.4016-3.4238,2.0481   c-0.2378,0.1324-0.6125,0.0192-1.3333,0.0192c2.723-9.3115,6.4512-18.1271,10.3954-26.8526   c11.2154-24.8113,25.3037-48.0064,40.2118-70.7092c18.2843-27.8441,36.1008-55.9916,54.9572-83.4661   c38.0008-55.3686,89.92-90.6868,154.1852-108.9534c32.5409-9.2494,65.3987-13.9641,99.2091-10.865   c31.5781,2.8945,61.7939,11.3155,91.3531,22.4238c33.5244,12.5985,65.775,28.1638,98.6241,42.3351   c52.7612,22.7618,107.0339,40.5158,163.9211,49.7001c36.4862,5.8905,73.1879,7.7025,110.0871,6.4385   c3.4063-0.1167,4.0462-0.7082,3.0013-4.3458c-3.1702-11.0362-10.1221-19.3093-18.0358-27.0919   c-6.6505-6.5403-13.4056-12.9874-19.2852-20.2718c-6.6649-8.2574-11.6724-17.3589-14.8676-27.5151   c-1.2656-4.0225-0.8101-5.1346,3.7603-4.3932c16.3663,2.655,32.8278,2.7385,49.3192,1.0177   c2.5469-0.2657,4.1027-1.1571,5.5715-3.3437c22.3147-33.2219,58.6182-47.078,97.0756-37.025   c2.7935,0.7303,4.6909,0.1016,6.8528-1.417c13.127-9.2207,25.3928-19.4487,36.5569-30.9745   c1.1172-1.1533,1.9132-2.6174,3.5385-4.8867c3.6002,10.7986,4.7594,20.1448,5.2333,29.6024   c0.635,12.6757-0.7527,25.3098-0.9142,37.9726c-0.0673,5.2735,0.298,10.2396,3.4178,14.7448   c1.12,1.6172,1.7758,3.5707,2.5498,5.4103c3.1443,7.4734,3.1469,7.511,10.6732,3.7382   c28.4449-14.2596,51.6037-35.1267,73.2094-58.0706c33.8632-35.9605,58.2936-78.0385,80.1012-121.8937   c19.7145-39.6459,37.6956-80.1487,58.8765-119.0695c19.5026-35.8366,41.0472-70.3102,70.6818-98.7871   c44.441-42.7051,96.6604-70.4003,158.1725-79.0196c41.2655-5.7823,82.0878-2.0908,122.5403,7.0705   c49.5776,11.2279,96.481,30.1416,143.1101,49.8397c15.6071,6.593,31.2156,13.1824,48.1295,20.3251   c-11.2677,2.0317-21.2858,3.7232-31.0581,6.4819c-40.4214,11.4107-75.1979,31.723-100.3833,65.9885   c-31.847,43.3287-37.7811,91.3258-23.5367,142.4443c4.5288,16.2529,11.4187,31.5506,19.704,46.6552   c-0.86,0-1.3513,0.1393-1.7107-0.0198c-41.0432-18.1606-82.8763-17.7911-124.8802-4.3768   c-47.8525,15.2821-87.1018,42.7144-114.832,85.181c-15.6782,24.0101-23.9547,50.4137-22.7299,79.3741   c0.8828,20.872,7.1415,40.1916,17.241,58.3592c0.5634,1.0135,1.1086,2.0374,1.6438,3.066   c0.0684,0.1313,0.0248,0.3208,0.0334,0.4844c-0.2614,0.1135-0.6088,0.3966-0.7726,0.3143   c-22.9664-11.5436-47.4351-14.1246-72.5249-11.2733c-37.0974,4.216-70.7026,17.3662-99.4174,41.6335   c-19.771,16.7089-34.0582,36.9824-37.6837,63.3489c-2.9113,21.1715,2.6012,40.6147,13.0245,58.8859   c2.3778,4.1682,5.04,8.1741,7.7693,12.5737c-3.0303,0.6008-5.5056-0.4666-7.8416-1.4045   c-5.0901-2.0438-10.2405-4.064-15.0327-6.6999c-16.9773-9.3383-34.395-10.0762-52.589-3.997   c-21.0151,7.0219-39.3824,18.502-56.5297,32.2245c-1.7949,1.4363-2.6206,3.3668-3.4768,5.3651   c-4.7416,11.067-5.4607,22.9348-6.85,34.6522c-2.0088,16.9417-8.8922,25.8938-23.1222,29.5406   c-7.6523,1.9611-14.8284,0.6078-21.6426-3.2638c-6.8719-3.9043-12.625-9.234-18.5333-14.3643   c-7.4442-6.4639-15.0665-12.6295-24.3773-16.3093c-3.1823-1.2577-6.2572-1.5936-9.7191-0.8506   c-37.7653,8.1058-66.3212,28.99-86.3785,61.8081C868.9467,853.4989,868.7603,854.9858,866.7337,855.5616z"
   id="path2" />
</g>
</svg>
