<?xml version="1.0" encoding="UTF-8" standalone="no"?>
<svg
   version="1.1"
   id="Layer_1"
   x="0px"
   y="0px"
   viewBox="0 0 1215.975 1659.012"
   enable-background="new 0 0 1215.975 1659.012"
   xml:space="preserve"
   xmlns="http://www.w3.org/2000/svg"
   xmlns:svg="http://www.w3.org/2000/svg"><defs
   id="defs944" />
<g
   id="g939">
	<path
   d="M306.802,1346.799c-0.282,9.098-17.997,33.414-21.862,39.846c-14.338,23.865-17.427,21.296-9.44,24.872   c5.887,2.636,9.561,7.162,9.806,13.725c0.365,9.775,0.891,10.93,10.268,13.506c7.213,1.981,13.23,6.705,20.482,8.48   c1.981,0.484,1.558,3.99-0.838,4.11c-35.325,1.774-24.616,2.554,13.039,34.153c4.541,3.811,10.059,6.678,12.252,12.787   c0.55,1.532,4.142,2.31,1.969,4.301c-3.226,2.955-17.924-7.525-23.636-9.456c-1.583-0.536-1.496-4.662-3.734-2.084   c-1.778,2.048,1.451,2.91,2.212,4.389c2.851,5.541,7.206,10.039,10.776,14.983c2.496,3.457,4.101,7.673,7.614,10.686   c3.547,3.042,3.887,10.162,6.567,12.136c2.912,2.144,0.163,7.385-3.78,4.289c-6.668-5.235-13.759-9.88-20.081-15.635   c-3.712-3.38-6.951-7.815-12.263-9.218c-14.175-3.745,7.968,12.824,27.376,40.777c2.22,3.198-1.874,5.189-4.893,2.723   c-5.278-4.311-11.382-7.324-17.011-11.075c-3.893-2.595-4.467,1.852-2.104,2.599c2.347,0.742,1.814,3.119,2.323,4.528   c1.832,5.072,8.573,11.683,6.314,14.058c-3.47,3.648-19.601-9.04-26.589-22.781c-1.064-2.092-0.44-0.388-3.757-3.987   c-0.725,1.837-0.583,3.083,0.364,4.645c9.405,15.518,19.572,38.108,23.879,44.726c3.203,4.921-0.075,10.467-5.961,3.346   c-2.618-3.168-11.676-12.943-11.707-12.968c-1.579,3.522,3.936,21.453,0.089,21.234c-7.81-0.443-28.063-55.112-36.315-72.565   c-1.731,0.349-1.436,1.712-1.233,2.568c1.187,4.989,0.908,10.296,3.992,14.897c1.62,2.416,1.525,5.825,2.011,8.637   c1.215,7.035,17.175,59.943,10.066,60.622c-2.225,0.213-2.803-1.135-3.349-3.278c-1.756-6.886-6.795-12.421-8.409-19.432   c-0.151-0.657-0.816-0.793-1.482-0.686c-1.68,0.269-0.402,2.532-0.78,9.584c-0.05,0.942,2.432,1.781,0.063,2.799   c-1.589,0.682-2.703,0.21-3.493-1.085c-1.775-2.911-4.657-5.028-6.09-8.516c0.062,5.856-3.636,10.69-3.373,16.538   c0.074,1.653,2.988,2.127,1.196,3.93c-0.686,0.69-2.164,1.771-2.296,1.645c-4.128-3.954-19.283-44.534-23.768-52.183   c-4.351-7.421-0.704-5.796-5.427-21.464c-1.893,0.127-1.67,1.512-1.768,2.406c-0.921,8.43-2.547,16.825-1.875,25.356   c0.617,7.833-2.273,15.331-2.015,23.1c0.095,2.846-3.196,1.771-3.344,4.292c-1.866-2.589-2.244-6.502-4.413-6.339   c-2.299,0.173-1.08,3.807-1.53,5.88c-1.73,7.968-5.152,15.311-8.088,22.839c-0.578,1.481-1.662,0.989-2.636,1.075   c-2.351,0.208-1.83-0.499-1.83-14.399c-4.113,1.09-2.885,5.401-5.8,7.16c-2.299,1.387-4.368,2.11-4.074-3.584   c0.833-16.148-4.249-31.898-3.246-48.059c0.022-0.355-0.279-0.731-0.611-1.541c-5.008,8.266-6.758,16.901-7.728,25.964   c-0.497,4.642-2.895,9.069-2.692,13.968c0.061,1.466-3.428,1.771-3.27,0.139c0.314-3.251-3.342-4.114-3.913-6.936   c-1.168,4.454-2.86,8.627-2.684,13.222c0.044,1.142,0.785,2.969-1.479,3.163c-1.554,0.133-2.248-0.517-3.427-1.835   c-6.458-7.215-6.01-16.126-6.895-24.745c-0.097-0.944,0.879-2.258-0.926-2.462c-0.996-0.113-1.886-0.248-2.748,0.921   c-0.737,1-14.757,17.812-16.8,23.481c-0.33,0.917-1.539,1.058-1.815,0.567c-0.745-1.328-3.183-2.317-2.028-4.018   c1.837-2.707,1.309-5.615,1.357-8.404c0.067-3.852,2.599-6.766,3.448-10.389c8.634-36.843,38.835-93.952,55.586-126.748   c10.732-21.01,14.107-15.161,9.276-24.165c-4.033-7.517-14.405-15.372-1.368-23.498c6.178-3.85-25.622-25.337-18.776-30.141   c1.116-0.783,2.117,0.039,3.23,1.261c1.333,1.464,3.738,1.979,5.72,2.806c1.813,0.756,1.917-2.812,0.917-3.725   c-4.291-3.916-6.892-9.013-9.581-13.95c-1.166-2.141-3.552-3.373-3.936-6.072c-0.162-1.134-2.252-2.228-0.735-3.425   c5.002-3.949,18.708,12.475,21.072,9.574c1.082-1.328-0.618-2.181-1.615-3.338c-0.872-1.011-9.173-11.669-6.812-12.584   c0.93-0.36,2.485-0.708,3.016-0.228c2.573,2.323,6.894,1.934,8.355,5.971c1.664-2.063,1.344-4.16,0.996-5.964   c-0.557-2.888,2.017-3.202,3.335-4.018c2.218-1.371,8.624,16.37,13.546,21.223c0.968-4.656,0.026-8.223-2.999-10.761   c-1.617-1.356-1.371-3.174-2.156-4.651c-12.062-22.682-14.47-24.888-13.164-30.242c7.663,5.168,14.915,10.343,20.294,17.682   c0.637,0.87,0.86,2.063,2.263,1.501c1.109-0.444,0.769-1.56,0.763-2.392c-0.054-7.482,1.273-15.343-0.581-22.359   c-3.067-11.606-3.594-97.909-8.126-102.606c-4.477-4.641-8.354-9.806-6.916-16.983c0.149-0.745,0.017-1.591,0.316-2.254   c3.631-8.066-8.272,1.615-19.127-10.5c-3.471-3.874-2.368-8.868-2.344-13.501c0.017-3.287,0.584-6.435,4.576-8.111   c-16.419-3.603-20.17-20.225-8.243-29.077c1.5-1.114,0.209-1.276-0.27-2.185c-2.248-4.275-6.633-7.975-4.937-13.542   c8.219-26.98,33.334-7.062,32.989-19.064c-0.733-25.44-12.804-297.694-17.27-316.417c-1.308-5.485-14.478-10.378-19.336-17.003   c-0.734-1-26.204-18.99-42.191-48.181c-11.666-21.301-19.918-50.239-12.402-74.541c11.7-37.833,43.056-62.607,51.896-72.819   c3.133-3.62,11.253-5.158,10.724-11.644c-2.012-24.654-0.907-56.005-5.8-68.635c-2.186-5.644,2.302-14.374,7.892-16.716   c8.283-3.471,16.523-7.044,24.774-10.592c2.508-1.079,9.125,1.536,11.117,4.621c8.324,12.893,3.59,21.489,6.364,44.075   c0.732,5.958-2.964,20.638,0.023,21.802c1.031,0.402,20.587-10.196,21.559-10.716c24.026-12.858,138.174-46.831,155.161-49.677   c4.656-0.78,9.703-0.568,14.204-3.422c3.197-2.027,7.677-1.478,11.487-2.014c5.366-0.755,10.632-2.311,16.109-2.488   c5.386-0.174,10.249-2.878,15.727-3.349c5.179-0.445,31.855-56.98,32.408-57.98c19.989-36.168,9.716-25.651-9.233-32.868   c-4.621-1.76-1.62-3.691-6.786-3.228c-1.809,0.162-0.887,2.203-0.975,3.452c-2.73,38.586-27.35,36.077-46.028,42.482   c-7.033,2.412-13.628,1.649-20.403,1.938c-5.512,0.235-10.497-2.926-16.02-3.655c-8.614-1.138-12.761-5.146-18.587-6.963   c-4.435-1.384-6.217-3.078-20.131-18.17c-3.749-4.066-5.664-11.21-15.688-8.648c-6.549,1.674-10.499,7.188-16.403,9.679   c-2.33,0.983-0.235,2.192,0.573,3.044c25.641,27.046,53.181,35.481,87.736,41.524c6.167,1.079,6.171,11.76,1.306,13.247   c-9.828,3.003-19.202,7.295-28.733,10.933c-7.358,2.808-15.456,3.709-22.351,8.114c-7.379,4.714-67.31,6.548-84.393,0.292   c-1.71-0.626-28.706-7.256-37.301-12.929c-10.721-7.076-53.592-26.716-78.533-68.65c-4.595-7.726-5.074-5.667-16.234-6.253   c-4.143-0.218-26.84-5.002-30.531-6.312c-82.629-29.333-94.326-101.421-64.908-123.41c18.517-13.841,33.468,11.251,31.833-22.788   c-1.592-33.151,34.883-23.565,34.798-33.148c-0.235-26.429-0.591-33.234,4.115-40.606c5.473-8.575,21.282-20.33,42.31-17.903   c3.425,0.395,5.435-0.553,4.815-4.735c-2.347-15.831,15.114-46.519,32.546-49.571c11.218-1.964,24.605-16.11,49.735,5.848   c13.977,12.213,5.218,20.923,15.614,17.337c6.673-2.302,13.024-5.199,20.19-6.399c3.636-0.609,8.524,0.205,11.455-3.735   c0.745-1.001,57.448-7.491,83.595,0.006c25.993,7.452,32.499,5.419,75.613,35.251c4.056,2.806,7.151,6.965,11.062,10.027   c4.148,3.247,5.028,8.523,8.488,12.183c2.395,2.534-1.286,8.425-5.051,9.141c-4.605,0.876-7.498-2.96-11.636-3.629   c-9.426-1.525-14.834-5.672-42.603-0.687c-9.242,1.659-18.112,5.298-27.298,7.401c-5.369,1.229-9.587,4.921-15.259,5.619   c-4.498,0.554-5.987,3.927-4.409,8.805c1.204,3.721,1.314,7.402,1.618,11.152c0.706,8.713,8.17-0.9,19.013-6.869   c9.773-5.38,29.094-7.958,34.599-9.829c8.911-3.029,15.731,1.2,23.489,2.127c4.48,0.535,7.794,3.133,11.451,5.118   c5.127,2.783,6.986,7.924,7.39,13.218c0.284,3.721,3.335,6.196,3.256,10.094c-0.029,1.466,3.931,0.676,4.683-0.202   c2.851-3.328,7.112-2.978,10.344-3.422c27.347-3.759,26.602-0.542,37.156,4.215c33.217,14.972,44.388,59.716,26.645,71.158   c-2.441,1.574-3.185,5.068-6.512,6.011c-2.561,0.726,7.742,6.847,9.536,10.135c0.383,0.702,2.258,0.51,2.336-0.203   c0.173-1.586,97.598-141.233,199.077-203.372c74.618-45.691,164.28-67.221,249.234-44.544   c18.839,5.028,65.434,26.073,79.893,39.752c1,0.946,54.015,43.824,59.928,49.949c19.089,19.773,32.217,32.715,27.868,89.65   c-0.447,5.851-1.605,12.051-3.757,17.489c-2.982,7.537-3.102,15.912-6.382,22.939c-13.255,28.403,2.774,99.417,6.972,85.48   c1.076-3.571,4.858-4.587,7.014-7.239c2.001-2.461,7.121,0.944,7.377,5.221c2.088,34.944,1.907,16.192,24.038,34.275   c2.537,2.073,2.429,5.846-0.361,7.2c-4.242,2.057-7.896,5.428-12.569,6.382c-3.805,0.777-6.347,3.451-9.54,5.109   c-0.753,0.391-1.094,1.111-1.075,1.89c0.128,5.207-1.539,10.187-1.918,15.293c-0.676,9.105-7.379,11.33-11.077,6.795   c-20.485-25.122-9.559-13.498-34.687-14.211c-1.623-0.046-2.185,1.733-4.052,1.134c-4.422-1.417-6.229-4.98-3.408-8.861   c2.183-3.001,8.459-14.743,8.998-15.269c5.129-5.004-21.554-35.067-0.383-30.687c4.424,0.915,9.053,0.607,13.436,2.113   c2.234,0.767,3.307-0.552,2.541-2.653c-2.327-6.383-2.015-13.52-5.634-19.526c-0.299-0.497-0.454-1.175-0.429-1.759   c0.29-6.747-2.79-13.2-2.051-19.896c0.718-6.5-3.596-12.669-2.073-18.582c2.045-7.941,1.338-16.028,3.183-23.943   c11.921-51.136,17.72-46.818,11.099-94.047c-0.794-5.665-5.999-0.794-27.265-1.932c-16.124-0.863-69.181,26.97-81.557,37.644   c-29.998,25.873-30.597,27.862-42.558,42.768c-61.36,76.465-91.012,180.035-95.074,186.79c-4.595,7.64-2.773,13.686,2.48,32.646   c0.266,0.961,1.577,2.281,2.456,2.322c2.548,0.117,79.944,12.826,172.917,62.524c39.33,21.023,77.264,60.647,84.255,73.266   c15.391,27.784,8.121,14.686,12.244,26.032c13.465,37.055-1.756,79.178-29.6,108.797c-24.782,26.363-67.3,51.346-99.879,67.593   c-67.535,33.678-97.28,27.438-103.706,43.482c-0.526,1.314-8.554,17.966-8.302,20.042c0.878,7.223-2.982,13.635-3.307,20.789   c-2.413,53.139-11.74,39.921-0.233,100.802c1.351,7.148,4.532,13.739,5.414,21.029c0.599,4.949,3.503,9.433,5.114,14.236   c9.423,28.101,12.017,32.281,23.037,46.001c6.243,7.773,36.44-1.054,52.378,9.552c5.212,3.467,0.076,8.981,3.604,10.38   c2.938,1.165,5.98,2.749,9.401,2.732c7.788-0.038,15.597,0.427,23.357-0.021c7.098-0.41,13.837,2.12,20.9,1.714   c3.083-0.177,6.02-1.038,9.33-0.424c18.526,3.438,17.083,22.533,14.893,24.002c-11.875,7.971,9.095,12.44,1.199,26.256   c-1.877,3.284,0.735,6.463,2.466,8.463c4.945,5.714,7.839,12.548,11.821,18.753c4.163,6.487,4.451,14.344,8.626,20.765   c1.349,2.074,1.561,5.229,1.874,7.758c2.958,23.912,4.352,4.664,4.94,47.069c0.066,4.744,9.582,1.291,4.148,7.8   c-4.274,5.12-2.942,7.344,3.853,9.263c4.683,1.322,10.52,8.903,3.014,9.139c-11.737,0.37-17.191-1.49-17.015,2.922   c0.205,5.155-3.785,8.815-4.379,13.438c-1.1,8.571-10.257,16.685-7.322,20.833c11.754,16.615,14.187,22.415,14.651,29.291   c0.607,8.995,4.076,17.541,3.26,26.789c-0.722,8.187,0.657,16.615-0.554,24.687c-8.568,57.099-7.027,35.497-11.149,54.985   c-5.89,27.838-41.561,78.595-87.323,97.874c-39.309,16.56-54.396,12.219-95.245,11.464c-11.418-0.211-22.183-5.77-19.888,1.876   c6.772,22.562-12.124,27.936-33.217,45.775c-8.181,6.918-33.928,10.859-39.163,13.033c-26.721,11.102-124.461,8.845-163.54-23.435   c-23.42-19.345-13.591-13.227-10.688-35.739c4.243-32.901,39.553-60.427,43.132-61.787c0.479-0.182,0.378-0.669,0.068-1.132   c-2.547-3.815-1.629-8.457-2.646-12.654c-8.348-34.464-5.697-40.401-12.833-38.517c-7.662,2.023-15.471,1.447-23.208,1.502   c-68.92,0.498-66.562-2.452-66.964,4.278c-0.278,4.661-7.391,43.608-6.911,56.904c0.16,4.43,5.501,6.522,13.747,18.793   c12.139,18.062,12.057,37.015,15.663,46.402c2.053,5.345-1.755,9.409-10.285,16.589c-29.884,25.154-59.312,23.365-81.389,29.045   c-43.997,11.32-113.274-4.05-129.664-18.824c-2.333-2.103-36.156-22.681-31.105-35.807c2.409-6.259,3.395-13.087,7.744-18.66   c1.973-2.528,2.478-6.146,4.084-9.027c13.837-24.832,14.067-27.836,35.826-42.207c6.951-4.591,14.524-8.079,21.336-12.92   c3.246-2.307,7.919-2.495,11.628-4.296c9.737-4.729,14.02-1.572,13.254-7.513c-2.876-22.304,0.389-43.034-2.527-43.694   c-104.896-23.76-136.681-64.934-147.503-75.026C311.897,1353.107,310.547,1349.211,306.802,1346.799z M999.255,1226.245   c-1.237,3.041,1.913,2.125,9.074,8.791c1.952,1.817,4.476,5.287,8.775,3.539c1.552-0.631,3.296,0.94,3.058,3.365   c-0.425,4.33-0.857,0.612,15.177,15.06c1.225,1.104,1.983,1.632,3.381,0.935c2.118-1.055,1.612-3.101,1.661-4.849   c0.031-1.122,0.127-2.27-1.581-2.807c-8.248-2.592-14.271-8.831-18.009-15.693c-13.96-25.626-0.71-33.393-10.594-34.953   c0,17.557,2.128,31.845-7.953,27.167c-0.917-0.426-1.962-0.938-3.079-0.461c0.145-2.193-1.68-3.806-2.935-4.265   c-9.669-3.535-17.807-9.903-27.059-14.226c-7.404-3.459-42.698-19.514-51.212-21.488c-0.931,5.428-1.925,11.048-5.453,15.482   c-3.067,3.854-1.246,7.366,1.191,9.333c6.575,5.308,11.792,11.89,18.394,18.031c0.203-3.992,0.382-7.565-0.487-11.069   c-1.559-6.29,4.045-8.966,7.914-4.636c4.475,5.01,1.879,10.017,5.453,10.66c3.7,0.665,7.851,1.178,11.485-0.869   c2.608-1.469,7.434,3.71,1.646,9.504c-0.584,0.584-1.809,0.6-1.405,1.847c0.932,2.871,9.633,4.859,12.387,3.32   c4.36-2.437,5.694-7.614,10.326-10.045C991.512,1221.562,990.912,1226.428,999.255,1226.245z M553.044,462.395   c-9.653,1.836-50.904,2.357-69.593,6.483c-6.548,1.446-13.547,1.54-20.327,2.021c-7.274,0.516-14.322,2.867-21.676,2.36   c-0.444-0.031-0.99-0.002-1.339,0.227c-5.725,3.745-12.505,3.099-18.749,3.86c-16.786,2.045-114.468,27.422-162.009,47.426   c-53.133,22.357-99.132,47.497-129.618,96.983c-13.904,22.569-15.936,39.641-11.803,57.566   c4.704,20.404,18.763,45.652,38.459,64.045c42.337,39.537,85.076,56.579,88.231,58.352c6.243,3.509,57.008,20.308,68.587,22.336   c6.052,1.06,16.821,7.792,17.071,0.631c0.081-2.335-2.237-3.234-2.405-5.18c-0.467-5.421-19.473-79.488,29.535-158.595   c74.337-119.994,235.248-153.445,305.068-140.823c9.356,1.691,19.298,2.105,28.981,2.258c6.482,0.103,12.247,2.647,18.401,3.72   c61.961,10.805,150.138,51.737,192.627,111.076c39.563,55.253,32.742,62.016,37.089,69.385   c9.336,15.826,18.167,71.654,10.526,97.461c-2.18,7.362-2.336,15.42-3.938,23.07c-1.518,7.25,0.931,6.081,43.355-8.696   c61.968-21.583,164.482-75.556,172.43-142.103c11.33-94.852-143.672-164.604-236.096-185.113c-6.805-1.51-13.568-3.039-20.3-4.936   c-9.842-2.773-20.216-2.972-30.154-6.157c-8.082-2.591-16.882-3.249-25.43-3.989c-7.788-0.675-15.154-3.294-23.022-3.845   c-5.235-0.366-10.813,0.052-15.814-1.549c-7.38-2.363-15.118-0.727-22.624-3.502c-5.857-2.166-12.874-1.233-19.386-1.964   c-15.704-1.763-31.561-1.542-47.232-4.592c-9.001-1.752-18.493-1.447-27.686-1.728   C693.202,458.849,604.119,452.681,553.044,462.395z M513.035,1012.369c-1.316,9.231-2.274,104.401-30.526,133.349   c-0.976,1-30.991,41.589-83.332,58.99c-14.117,4.693-21.691,4.517-41.803,4.019c-5.978-0.148-4.386,2.978-20.75,16.775   c-2.5,2.107-4.283,5.081-7.191,6.529c-3.782,1.883-6.628,4.949-9.921,7.392c-21.183,15.714-24.209,15.65-24.199,21.244   c0.005,2.844,2.522,3.87,2.794,6.376c1.731,15.967,19.622,50.323,54.101,75.923c110.466,82.019,363.306,77.242,363.899,62.26   c0.371-9.39-3.985-5.347-0.336-43.116c1.553-16.074,13.685-54.861,15.701-57.605c3.823-5.204,18.09-33.34,27.528-41.632   c3.114-2.736,2.05-6.297,1.441-9.388c-0.718-3.647-11.104,1.919-8.194-5.212c1.837-4.502,2.842-8.828-1.013-13.43   c-2.499-2.983-0.287-5.661,3.863-5.877c1.412-0.073,3.551,1.175,4.081-1.498c2.993-15.094,4.225-54.995,45.367-95.757   c4.89-4.845-3.728-8.85-6.483-14.005c-3.568-6.678-18.661-20.28-30.479-59.839c-1.365-4.568-6.773-32.591-6.565-40.188   c0.089-3.258,0.344-3.74-2.948-4.063c-2.717-0.267-3.418,2.615-5.794,2.82c-9.633,0.833-18.391,5.185-27.822,7.122   c-79.069,16.243-145.944,7.974-155.824,3.384c-7.325-3.403-21.921-1.998-25.474-4.869c-3.261-2.636-7.004-2.674-10.329-3.478   C526.124,1016.977,519.905,1014.077,513.035,1012.369z M884.924,428.985c1.467-4.686,3.195-8.227,4.885-11.803   c2.538-5.372,4.012-11.211,6.191-16.774c50.094-127.891,95.435-168.773,95.966-169.9c10.872-23.055,95.732-75.279,122.747-72.708   c6.129,0.583,12.061-1.491,18.166-1.431c13.664,0.135-63.84-66.53-96.679-84.339c-78.307-42.467-171.814-37.077-250.922,2.158   c-45.057,22.347-43.995,24.649-53.716,30.082c-48.943,27.354-150.544,142.348-182.778,192.996   c-16.232,25.504-60.524,107.19-46.99,96.557c4.037-3.172,35.84-5.241,46.448-8.273c9.626-2.752,59.508-1.771,60.108-5.644   c1.007-6.497,4.806-11.94,6.616-18.047c7.942-26.806,33.302-9.242,71.165-9.175c11.437,0.02,22.297,4.275,33.719,3.422   c0.68-0.051,24.689,3.816,30.551,5.957c7.12,2.601,15.622,10.129,15.158,18.485c-1.297,23.409-0.195,11.734,21.367,18.103   c11.831,3.494,23.272,3.462,42.228,9.274c2.543,0.78,5.047,0.706,7.526,1.316c7.588,1.867,14.786,5.046,22.579,6.323   c2.552,0.418,5.578,0.769,7.709,2.073C872.889,421.26,879.849,423.078,884.924,428.985z M704.086,1014.215   c7.027-2.201,14.723-3.182,22.19-3.857c36.126-3.269,179.569-65.31,205.168-180.754c1.116-5.032,4.486-9.501,3.791-14.983   c-0.532-4.195,3.891-6.32-1.381-6.325c-147.704-0.16-146.623-6.674-241.381-22.763c-2.791-0.474-6.255,0.241-8.332-1.446   c-4.268-3.469-9.503-2.914-14.111-3.689c-59.751-10.053-132.893-47.493-140.738-51.094c-8.95-4.109-26.269-17.368-28.012-14.447   c-1.179,1.978-3.367,2.753-4.581,4.985c-28.872,53.084-78.264,65.694-102.464,75.899c-4.5,1.898-41.912,9.042-52.914,8.104   c-2.832-0.242-3.358,1.762-2.423,3.405c5.24,9.201,9.314,115.562,156.321,184.459c36.542,17.125,80.47,25.602,117.976,28.137   C630.909,1021.042,687.144,1019.521,704.086,1014.215z M955.646,1550.513c0,0.051,0,0.103,0,0.154   c38.079,0,14.39,3.877,51.56-22.978c37.341-26.979,59.539-85.709,60.297-108.431c1.025-30.732,4.158-39.512-10.027-77.806   c-2.735-7.382-6.399-14.358-8.87-21.816c-1.563-4.716-20.754-6.333-26.128-6.912c-7.173-0.773-13.831-3.734-21.211-3.768   c0,0-117.281-19.074-135.238-21.233c-8.951-1.076-20.233-6.704-25.551-1.995c-1.447,1.281-17.264,18.037-27.928,34.254   c-22.417,34.088-26.122,72.688-21.525,112.725c1.559,13.576,10.477,35.259,10.757,36.259c3.77,13.464,18.6,35.867,26.565,47.378   c2.991,4.323,7.817,8.038,8.188,14.081c0.181,2.952,37.357,11.491,38.357,11.812c18.432,5.907,50.758,5.316,60.234,7.952   C941.503,1551.962,948.776,1550.513,955.646,1550.513z M372.462,440.018c-4.961-4.042-59.029-15.867-89.974-64.414   c-23.026-36.125-20.461-58.153-23.091-68.02c-2.224-8.343-0.504-12.819,4.124-43.324c0.54-3.556,0.803-7.532,2.295-10.497   c4.482-8.907,21.479-86.815,126.522-112.739c23.628-5.831,30.29-3.758,39.583-4.164c0.965-0.042,2.227,0.451,2.755-0.936   c0.939-2.468-4.74-3.5-7.188-5.752c-6.882-6.332-15.594-9.826-23.22-15.015c-7.59-5.166-36.647-12.431-37.649-12.705   c-62.044-17.005-172.338,15.526-215.297,98.839c-18.047,34.999-22.686,85.303-16.763,107.207   c2.403,8.886,2.649,18.321,6.613,27.017c2.497,5.477,3.624,11.474,6.306,17.064c15.238,31.756,23.632,46.674,73.645,79.726   c37.35,24.683,103.049,26.286,127.321,15.775C355.953,444.828,364.313,443.208,372.462,440.018z M293.462,369.146   c5.511,11.334,15.886-9.765,42.939-5.822c21.352,3.112,16.86,25.427,40.168,31.897c37.69,10.461,30.203,3.954,53.508,0.04   c13.991-2.35,20.781-16.859,20.045-28.648c-0.319-5.11-0.128-13.265,4.771-14.852c5.227-1.693,11.127-1.662,15.643,1.767   c2.785,2.115,5.891,2.76,8.659,4.326c4.158,2.352,9.206,0.438,13.246,3.676c1.378,1.104,5.84,2.402,6.989-1.111   c2.793-8.547,18.456-35.215,19.013-36.216c13.834-24.882,15.162-23.436,12.459-27.339c-3.342-4.826-8.062-7.532-13.179-9.892   c-2.442-1.126-5.324-7.444-4.797-9.752c2.716-11.907,18.898-12.476,18.949-26.381c0.007-1.796-3.96-26.154-23.864-37.42   c-3.585-2.029-6.58-5.424-10.847-5.897c-15.774-1.75-31.034-0.95-43.894,10.12c-0.709,0.611-1.713,0.811-2.536,0.249   c-4.369-2.978-8.559-6.042-7.036-12.435c6.921-29.07-31.994-29.101-58.099-17.314c-16.799,7.585-18.227,16.55-28.761,14.151   c-17.242-3.928-8.185-30.769-15.788-26.757c-19.316,10.19-54.133,44.253-64.32,89.705   C263.256,325.347,288.557,359.057,293.462,369.146z M357.84,971.305c-1.715-14.651-1.469-29.403-3.95-44.133   c-2.271-13.483-3.048-27.381-4.065-41.115c-0.422-5.696-3.056-10.424-4.174-15.737c-2.335-11.096-3.06-2.223-8.867-22.68   c-1.966-6.926-3.919-4.484-25.071-10.538c-1-0.286-44.946-11.583-58.041-18.513c-4.121-2.181-9.669-2.047-13.272-4.714   c-3.58-2.65-7.739-3.145-11.341-5.248c-6.763-3.948-0.272,16.063,0.269,28.966c3.186,76.032,12.01,207.569,12.132,208.572   c4.554,37.465-1.708,57.885,9.731,55.082c1.87-0.458,1.437-9.913,0.7-12.231c-5.077-15.955,17.497-9.018,22.065-8.43   c14.399,1.851,28.539-1.559,42.816-2.178c3.247-0.141,6.245-2.492,9.837-2.719c4.662-0.293,3.516-8.276,8.174-13.187   C341.325,1055.607,360.352,999.531,357.84,971.305z M160.659,142.095c-9.097,7.411-17.285-5.872-36.857,7.607   c-18.851,12.983,2.707,50.163-16.2,56.212c-4.176,1.336-8.454,0.816-12.656,1.403c-20.315,2.84-10.641,16.603-15.779,36.17   c-0.901,3.433-2.959,7.128-6.366,8.283c-3.176,1.076-6.536,2.34-10.168,2.167c-1.002-0.048-17.033-0.555-18.077,0.651   c-5.181,5.983-10.195,12.347-9.989,20.695c0.639,25.82,11.184,48.045,36.16,63.781c20.838,13.129,34.271,17.763,40.257,18.916   c4.004,0.771,8.582,0.169,11.858,2.041c3.668,2.095,7.156,1.866,10.827,2.122c6.82,0.476,0.813-4.508-1.163-11.315   c-0.29-1-14.858-38.829-12.904-67.545c0.524-7.7-0.706-18.046,0.37-19.561c3.747-5.274,1.314-11.319,2.785-17.635   c0.764-3.28,7.234-30.834,10.296-35.576c7.458-11.55,14.286-59.425,101.288-104.072c0.945-0.485,1.931-1.015,0.605-1.681   c-1.829-0.918-1.443-2.481-1.804-3.865c-3.824-14.641-15.928-13.409-20.478-16.901c-2.24-1.719-4.774-1.713-6.28-0.793   c-5.837,3.564-23.78,5.628-27.557,13.141c-1.686,3.354-4.082,6.309-5.95,9.408C159.654,127.685,174.834,130.548,160.659,142.095z    M732.804,1422.024c0.348,1.042,15.285,60.915,39.247,79.666c1.4,1.096,3.347,0.865,4.391,2.733   c2.121,3.797,6.316,5.883,9.77,7.414c6.545,2.902,11.962,7.973,19.193,9.548c2.358,0.514,5.035,1.025,6.956,3.264   c1.469,1.713,7.337,0.4,3.706-4.079c-2.554-3.15-13.309-19.111-23.913-40.856c-26.753-54.862-20.004-130.6,21.16-182.631   c10.174-12.86,15.291-16.279,9.647-16.707c-4.583-0.348-8.429-3.125-12.957-3.894c-5.154-0.875-10.05-2.638-14.821-5.067   c-28.971-14.747-35.343,12.772-51.426,37.84C734.037,1324.406,719.337,1381.679,732.804,1422.024z M308.587,1105.523   c4.302-3.265,5.894-8.37,9.238-12.156c4.494-5.088-17.011,2.013-47.58-0.535c-7.38-0.615-5.111-10.967-5.101,113.163   c0,4.867-0.027,5.287,0.973,5.466c2.823,0.503,1.019-1.323,3.721-2.518c8.389-3.713,16.231-8.545,24.451-12.51   c31.977-15.423,53.521-21.383,55.571-26.775c3.597-9.461,8.492-14.904,16.554-35.357c11.611-29.457,17.946-52.625,17.946-52.625   c0.453-0.835,2.224-1.139,1.365-2.443c-0.617-0.936-1.968-0.424-3.001-0.484c-19.207-1.117-14.93,15.26-63.678,26.816   C315.904,1106.311,312.041,1109.627,308.587,1105.523z M291.278,1352.113c5.845-2.625,8.277-7.419,12.798-9.514   c0.916-0.424,0.669-1.87-0.422-3.026c-6.502-6.893-12.093-28.733-12.526-29.906c-5.71-15.465-2.477-27.756-5.429-36.735   c-1.841-5.598-6.453-17.503-0.821-23.166c10.198-10.257,40.085-26.26,48.073-42.581c1.223-2.499,3.726-5.404,6.2-6.074   c8.722-2.362,12.877-10.106,19.361-15.028c0.929-0.705,1.216-1.376,0.877-2.233c-0.437-1.105-1.556-0.501-2.388-0.663   c-2.565-0.5-3.299,2.25-5.349,2.863c-13.817,4.131-32.218,14.845-47.308,20.51c-8.118,3.048-36.63,16.81-40.807,22.896   c-1.887,2.749-4.809,1.777-7.015,1.233c-5.461-1.345-4.078-3.287-4.221-28.625c-0.011-1.87,0.244-3.808-0.581-5.472   c-4.387,2.587-3.035,5.577-1.771,27.046c1.186,20.144,2.447,121.54,6.45,122.325c4.197-23.052,1.524-14.119,2.166-24.157   c0.062-0.975,0.016-2.322,1.319-2.604c1.148-0.249,2.456-0.436,3.259,0.894c1.562,2.587,3.905,4.988,4.558,7.785   c2.369,10.155,4.164,20.432,0.434,30.743c-0.361,0.998-0.773,2.357,0.575,3.215c3.23-2.598,5.111-5.955,6.837-9.612   c3.032-6.424,7.927-11.853,10.241-18.723c0.371-1.101,2.075-2.824,2.934-0.797C291.166,1338.481,295.517,1344.03,291.278,1352.113z    M1012.419,1541.359c5.84,0.791,17.686-7.068,27.58-13.205c10.448-6.479,23.124-19.396,24.125-20.093   c13.99-9.744,24.338-33.978,25.338-34.835c9.978-8.549,29.229-82.461,19.319-117.94c-1.972-7.059-2.25-14.526-6.987-20.621   c-2.568-3.304-3.176-8.546-8.241-9.384c-8.238-1.363-16.053-4.87-24.565-4.802c-2.323,0.019-4.031-2.636-5.332-0.406   c-0.704,1.207-0.739,3.564,0.081,3.854c3.266,1.153,2.325,4.318,3.368,6.391c7.989,15.89,7.088,23.446,9.757,29.714   c5,11.744,4.201,32.663,4.129,44.729c-0.125,20.717-1.03,20.037-5.036,36.328c-1.211,4.925-1.626,10.301-3.957,14.638   c-1.277,2.377-13.495,38.58-34.348,60.111c-6.117,6.317-11.393,13.39-18.805,18.452   C1016.303,1536.025,1014.565,1538.937,1012.419,1541.359z M979.798,1100.142c3.659,4.011,6.507,7.989,9.045,12.246   c0.817,1.371,2.506,2.14,1.133,3.713c-3.332,3.816-5.592-2.903-8.589-1.128c-5.897,3.493-22.126,4.036-31.699-3.767   c-12.586-10.258-12.553-14.813-17.687-15.875c-4.733-0.98-8.418,2.892-13.09,2.516c-4.228-0.34,0.353,6.175,28.572,50.055   c3.614,5.619,6.323,11.949,12.132,15.842c3.371,2.259,0.066,6.959-4.158,5.927c-8.905-2.176-18.42-0.824-27.009-5.452   c-3.319-1.788-7.651-1.966-11.315-3.642c-4.552-2.082-5.641,1.991-2.88,3.867c2.144,1.457,0.823,7.444,5.826,8.653   c5.931,1.433,40.286,17.097,43.719,18.71c31.869,14.979,33.705,19.578,33.694,11.689c-0.134-94.472-0.299-88.477,0.269-90.185   c1.443-4.347,3.275-7.74-3.529-9.928C989.628,1101.903,985.478,1099.474,979.798,1100.142z M520.079,1478.661   c4.983,0.651,9.375,2.677,14.092,3.766c3.412,0.788,7.226,0.526,10.379,2.538c7.446,4.752,22.245,7.526,37.46,20.407   c0.489,0.414,2.956,2.598,2.84-0.202c0,0,5.86-31.091,6.892-51.943c0.078-1.571,0.035-3.336-2.206-3.157   c-2.807,0.224-65.273-6.434-66.887-7.237c-6.281-3.124-12.967-2.62-19.363-3.601c-33.383-5.121-31.119-9.903-31.818-1.911   c-0.96,10.968,2.564,21.561,2.34,32.444c-0.13,6.317,0.278,7.591,2.419,6.877C484.668,1473.825,511.265,1477.51,520.079,1478.661z    M667.509,384.889c6.595,1.045,13.205,0.082,20,2.285c12.482,4.046,41.709-0.274,43.363,19.315   c0.575,6.811-1.701,13.203-2.317,19.829c-0.427,4.594-0.498,9.605-2.294,13.787c-2.951,6.871-1.949,9.457,5.61,9.811   c2.239,0.105,4.206,0.809,5.833-2.843c1.396-3.133,6.454-24.985,8.139-29.543c8.329-22.537,7.041-30.598,6.666-38.013   c-0.568-11.216-90.832-16.75-101.895-17.399c-20.226-1.188-19.006-16.218-33.839,32.925c-1.199,3.972-1.523,7.976-2.169,11.937   c-1.028,6.298-3.921,12.168-3.97,18.673c-0.079,10.552-4.89,19.538,1.415,18.439c3.84-0.669,10.128,1.811,11.043-1.785   c1.175-4.612,3.656-9.249,3.153-14.365c-0.176-1.786,0-3.707,0.477-5.44c3.531-12.844,3.858-31.269,17.592-37.991   C650.976,381.254,666.509,384.731,667.509,384.889z M1009.808,1166.478c0,23.215-3.126,12.979,19.564,29.432   c8.317,6.031,20.519,5.472,21.1,3.849c0.61-1.706,0.756-3.882-0.893-5.06c-2.153-1.539-3.215-3.93-5.42-5.54   c-7.233-5.281-1.657-16.883,12.902-13.353c18.569,4.503,17.078-6.445,14.48-7.021c-4.016-0.891-4.967-4.625-7.539-6.782   c-1.962-1.645-0.465-8.913,1.377-10.933c4.057-4.452,9.327-3.279,14.313-3.627c0.944-0.066,2.239,0.508,2.715-0.925   c0.526-1.583-3.055-5.29-4.69-5.267c-3.255,0.045-4.628-3.111-7.553-3.933c-2.792-0.785-4.075-8.17-2.317-10.825   c6.542-9.881,13.824-2.273,12.815-9.828c-0.381-2.855-2.521-2.458-4.108-2.362c-12.937,0.778-25.705-2.341-38.645-1.529   c-39.294,2.467-23.212-6.297-30.066,29.754C1006.211,1151.113,1011.615,1159.403,1009.808,1166.478z M873.245,1275.978   c0.529-0.186,1.059-0.372,1.588-0.558c-7.486-44.933-9.209-39.765-8.614-47.096c0.106-1.303-0.572-1.902-1.862-2.041   c-12.714-1.372-31.12-10.247-38.852-26.139c-8.879-18.25-1.414-36.212,1.711-38.93c7.397-6.432-0.637-11.815-10.419-21.983   c-0.445-0.462-1.009-1.059-1.346-0.339c-1.454,3.107-4.656,4.478-6.756,6.993c-27.393,32.802-28.386,44.032-34.445,65.404   c-4.561,16.091,1.524,24.324,5.283,21.28c12.461-10.091,17.911,0.86,16.055-15.46c-0.318-2.799,0.691-4.693,3.916-2.763   c2.227,1.333,5.266,0.422,7.172,3.176c0.655,0.947,4.379,1.641,5.314-0.11c1.447-2.71,4.567-3.948,5.329-7.281   c0.976-4.271,8.626-3.919,7.829,1.737c-0.33,2.341,0.141,4.66-1.224,7.022c-1.371,2.373-2.025,5.292-2.428,8.054   c-1.369,9.383,9.438-4.273,18.663,4.31c3.038,2.826,5.94,6.052,9,8.925c2.702,2.537,3.665,6.075,6.206,8.57   C862.405,1255.662,862.895,1259.501,873.245,1275.978z M898.708,1163.726c-33.629-42.864-99.404,19.633-43.526,47.399   C882.37,1224.634,921.03,1192.177,898.708,1163.726z M1062.826,1243.551c18.26,3.968,43.956-20.642,32.292-44.47   c-1.782-3.641-9.647-15.702-15.828-12.773c-13.366,6.335-16.873,0.492-16.055,6.534c3.477,25.696-14.876,19.983-21.832,20.615   c-4.069,0.37-8.667-0.182-11.349-2.38c-4.674-3.83-2.855,0.645-3.194,1.948c-0.293,1.127-0.409,2.753,0.191,3.585   c5.228,7.25,1.489,14.736,21.21,24.711C1052.45,1243.44,1057.659,1244.721,1062.826,1243.551z M990.419,1237.593   c-5.157-1.526-6.583,5.026-13.318,11.623c-1,0.98-29.908,34.917-29.169,37.426c0.508,1.726,1.907,1.712,3.294,1.799   c21.963,1.37,22.753,4.662,33.282,4.761c3.016,0.029,6.555,3.466,8.499,0.926c1.734-2.265-2.037-5.508-2.146-8.642   c-0.055-1.587-5.793-6.095-0.841-10.501c1.532-1.364,1.721-3.964,4.164-4.835c0.639-0.228,1.122-2.564-0.213-2.471   c-3.596,0.25-5.776-3.33-9.298-2.925c-3.1,0.356-5.272-1.424-7.596-3.192c-1.883-1.433-2.158-1.952-0.083-3.488   c6.772-5.012,15.318-1.531,15.527-4.919C992.996,1245.486,997.831,1239.787,990.419,1237.593z M719.023,1447.094   c-4.449-1.493-8.589,2.96-13.643,2.805c-3.473-0.107,4.847,18.585,6.448,37.813c0.21,2.518,2.659,4.716,2.609,7.77   c-0.071,4.367,10.48-4.169,23.26-7.698c9.119-2.518,0.683-8.143-0.208-12.327c-1.727-8.113-7.491-14.542-8.898-22.771   C727.194,1444.509,721.227,1447.094,719.023,1447.094z M1101.401,1267.664c1.962-11.497-2.559-22.095,2.902-23.011   c4.756-0.798,3.061,3.618,5.348,3.595c2.5-0.025,0.931-20.051,0.76-22.173c-1.69,1.576-2.733,2.129-3.126,2.981   c-8.409,18.206-29.493,28.671-41.927,27.507c-0.906-0.085-2.043,0.029-1.955,1.285c0.23,3.281-1.788,5.995-2.023,9.248   c-0.319,4.427-0.831,9.174-2.729,13.067c-2.296,4.708-1.848,9.567-3.164,14.245c7.726-5.351-0.001-1.851,15.587-16.826   c4.449-4.275,9.528-7.891,14.014-12.132C1089.544,1261.236,1097.139,1261.729,1101.401,1267.664z M189.182,1114.244   c-2.582-0.224-5.159-0.405-7.741,0.081c-3.594,0.677-4.097,6.587-0.189,6.36c5.207-0.301,17.42,7.947,7.715,16.119   c-2.494,2.1-13.813,7.036-13.142,9.588c0.433,1.647,3.485,0.444,10.081,1.28c14.926,1.892,9.989,17.405,2.76,20.453   c-3.372,1.422-3.906,7.805,1.189,8.435c6.456,0.799,12.501,0.778,10.68-5.436c-1.543-5.264-0.765-9.205-1.614-46.525   C198.703,1114.98,198.415,1114.774,189.182,1114.244z M810.455,1263.038c-3.976-9.074-12.889-11.49-4.631-20.261   c0.73-0.776,3.421-1.174,2.016-2.722c-0.872-0.96-2.531-2.931-4.06-2.227c-6.465,2.978-19.102-5.781-21.327,3.575   c-0.239,1.004-6.732-1.121-6.403,10.412c0.057,1.996,0.454,3.233,2.795,3.035c4.308-0.366,8.35,1.393,12.467,2.142   C804.529,1259.395,795.429,1260.49,810.455,1263.038z M239.887,1427.723c0,0.046,0,0.091,0,0.137   c30.556,0,34.551,0.938,32.272-2.699c-3.222-5.142-4.942-5.846-71.392-4.114c-1.375,0.036-3.329-0.524-3.299,1.957   c0.021,1.79,1.004,2.836,2.757,3.073C214.477,1428.009,204.75,1427.723,239.887,1427.723z M914.845,1231.65   c-2.987-5.005-7.311-8.731-11.174-12.862c-1.417-1.515-3.083-1.339-4.623-0.857c-7.915,2.479-9.473,4.387-8.89,7.373   c3.386,17.356,3.922,25.69,5.836,22.108c2.32-4.343,7.16-5.513,10.419-8.717C908.931,1236.22,911.219,1233.16,914.845,1231.65z    M247.895,1113.982c-3.718,0.09-3.958,2.408-3.373,4.926c2.302,9.906,0.567,64.024,5.359,63.285   c2.965-0.457,2.493-2.405,2.494-5.896C252.4,1111.277,254.022,1113.833,247.895,1113.982z M828.668,1270.505   c5.767-3.455,10.593-8.052,18.507-13.323c7.443-4.957,1.761-5.425-0.063-9.07c-5.16-10.317-9.458,1.729-22.233,8.557   c-7.318,3.91-1.65,6.078,0.658,11.806C825.989,1269.598,828.004,1269.234,828.668,1270.505z M1081.998,1274.776   c-4.936,3.385-11.446,7.86-7.126,11.392c6.971,5.699,14.765,20.179,17.715,16.809c1.789-2.043,4.549-2.743,6.09-5.245   c3.486-5.663-3.821-7.163-5.762-11.434c-1.702-3.745-5.737-5.702-7.414-9.387C1084.709,1275.17,1082.91,1276.255,1081.998,1274.776   z M912.49,1239.667c-2.349,3.762-12.166,7.138-7.3,12.116c3.882,3.972,7.346,8.356,11.278,12.275   c1.687,1.681,1.807,4.785,4.905,5.189c3.347,0.437,3.855-2.437,5.416-4.187c0.469-0.526,1.448-0.585,2.185-1.248   c5.263-4.738-2.431-6.586-4.283-9.867c-2.331-4.128-6.084-7.006-8.724-10.768C914.932,1241.702,912.434,1242.554,912.49,1239.667z    M1028.81,1289.692c0.844-0.358,1.139-2.226-0.188-3.075c-4.606-2.95-0.149-10.903-10.874-6.251   c-17.868,7.75-19.183,7.509-18.722,10.335C1001.398,1305.242,1027.199,1290.375,1028.81,1289.692z M877.629,1226.248   c-2.729-0.75-3.074,0.801-3.122,3.503c-0.051,2.858,2.448,4.301,2.755,7.021c4.984,44.119,8.037,41.446,12.297,40.814   c3.333-0.494,0.753-2.463,0.817-3.737c0.218-4.376-1.705-8.281-2.668-12.402C884.514,1247.781,884.298,1224.968,877.629,1226.248z    M1043.439,1301.653c6.75-18.29,3.266-12.469,5.831-21.426c8.761-30.589,5.516-21.715,1.395-24.589   c-2.537-1.771-1.648,1.095-2.191,1.861c-0.864,1.22-1.472,2.604-1.469,4.194c0.012,5.729-3.591,10.613-3.986,16.179   C1042.467,1285.662,1037.249,1293.495,1043.439,1301.653z M932.556,1282.825c5.451-4.813,8.586-11.662,14.602-15.974   c1.134-0.813,1.364-3.066-0.486-4.759c-3.925-3.59-6.444-0.08-22.687,14.922c-1.584,1.463-4.462,4.055-4.133,4.626   C921.899,1285.203,931.004,1284.195,932.556,1282.825z M871.266,1126.532c-0.041,9.504,3.177,11.91,11.54,11.035   C879.13,1134.052,875.115,1130.213,871.266,1126.532z M1013.978,1262.858c2.171,0.073,4.063-0.781,4.408-2.857   c0.562-3.375-6.669-5.236-6.428,0.324C1012.015,1261.635,1011.787,1263.264,1013.978,1262.858z M960.716,1248.91   c-1.71-1.24-3.405-0.716-4.969-0.808c-1.037-0.061-2.788-0.868-3.006,0.78c-0.191,1.447,1.344,2.526,2.604,3.014   C958.208,1253.004,959.352,1250.846,960.716,1248.91z M914.037,1075.848c-1.161,0.183-2.76-0.442-2.811,1.426   c-0.066,2.433,1.962,1.797,3.279,1.856c1.223,0.056,3.13,0.42,2.999-1.631C917.359,1075.239,915.233,1076.25,914.037,1075.848z"
   id="path885" />
	<path
   d="M517.146,1187.83c2.425,0.219,5.054-0.085,7.231,0.767c4.437,1.737,7.359-0.871,8.555-3.841   c1.354-3.361,4.393-4.805,6.133-7.622c1.602-2.593,6.637-0.408,7.455,2.724c2.108,8.07,2.934,15.193,9.434,15.831   c4.093,0.402,6.893,3.258,10.461,4.422c2.949,0.963,3.619,5.163-0.346,7.137c-4.086,2.035-7.355,5.545-12.066,6.625   c-2.99,0.686,1.143,17.761-2.917,18.821c-1.78,0.465-3.466,2.027-5.447,0.034c-2.394-2.408-5.613-3.656-8.127-6.191   c-5.563-5.609-13.668-0.37-19.743-0.149c-4.976,0.181-6.564-1.601-4.899-6.213c0.754-2.088,1.038-4.45,2.171-6.258   c5.397-8.607-4.653-15.877-5.087-16.877C506.452,1188.965,507.373,1187.755,517.146,1187.83z"
   id="path887" />
	<path
   d="M709.44,1234.421c-2.113,3.192-6.327,3.973-9.405,6.174c-0.959,0.686-3.883-2.076-4.673-4.44   c-0.278-0.831-0.096-1.816-0.125-2.731c-0.435-13.604-0.382-13.71-12.53-19.71c-2.155-1.064-3.531-1.751-3.394-4.428   c0.15-2.913,2.865-3.347,4.279-3.672c4.375-1.004,7.757-4.24,12.17-4.898c1.253-0.187,2.338-1.295,2.28-1.945   c-0.382-4.276,3.573-7.134,3.444-11.287c-0.08-2.569,1.083-4.381,3.797-4.885c2.33-0.433,3.177,0.893,4.739,2.552   c10.296,10.94,8.125,11.74,12.134,10.322c4.295-1.52,8.751-0.937,13.136-1.194c6.011-0.353,5.633,6.039,3.149,8.06   c-3.307,2.691-4.439,7.141-7.492,10.234c-1.126,1.141-0.845,4.009,0.579,5.48c2.544,2.627,3.134,6.025,3.755,9.217   C738.083,1241.638,716.694,1223.462,709.44,1234.421z"
   id="path889" />
	<path
   d="M608.331,1077.924c1.482-3.676,4.873-5.618,6.837-8.76c1.245-1.992,2.767-2.667,5.242-1.931   c2.327,0.693,2.476,2.187,3.275,4.087c6.365,15.143,1.36,12.868,11.461,15.749c12.61,3.595,11.895,9.091,8.016,10.928   c-4.285,2.029-7.918,5.207-12.393,6.953c-2.948,1.15,2.105,17.728-3.829,19.172c-6.726,1.636-12.218-13.481-23.34-9.413   c-5.935,2.171-15.46,6.092-13.977-2.604c0.493-2.889,1.262-5.647,3.448-7.903c2.193-2.264,1.91-7.488-0.414-9.719   c-3.044-2.923-4.089-7.197-7.344-10.103c-1.791-1.599,0.964-5.167,4.253-5.549C601.164,1077.486,606.125,1083.396,608.331,1077.924   z"
   id="path891" />
	<path
   d="M667.74,1140.89c-3.282,2.75-4.456,6.212-1.777,10.237c0.967,1.453,0.766,3.273,0.574,4.885   c-0.778,6.539-10.112-3.497-15.651,4.21c-1.331,1.853-4.265,3.006-6.848,1.513c-2.33-1.347-1.442-3.954-1.179-5.816   c1.513-10.697-14.729-8.085-5.022-15.459c4.855-3.689,7.698-1.955,7.788-9.007c0.074-5.812,5.039-8.053,8.122-1.568   c2.302,4.842,5.956,3.745,12.169,3.848C671.193,1133.82,669.085,1139.763,667.74,1140.89z"
   id="path893" />
	<path
   d="M498.784,1224.488c-6.291,6.424,3.805,7.468,0.7,13.855c-2.287,4.706-11.488-4.332-16.559,3.858   c-1.344,2.172-3.343,1.728-5.244,1.337c-2.124-0.438-1.712-2.327-1.647-3.738c0.664-14.477-9.49-7.672-8.145-16.207   c0.902-5.723,9.803-0.507,9.926-9.201c0.13-9.174,7.661-7.192,8.458-4.22c1.688,6.296,6.472,5.153,10.865,5.066   C504.06,1215.101,501.724,1221.487,498.784,1224.488z"
   id="path895" />
	<path
   d="M514.562,1257.056c-2.162-5.068-0.805-7.577,4.945-7.072c1.614,0.142,4.46-8.802,7.342-0.613   c0.653,1.855,1.553,2.435,3.111,3.222c2.686,1.357,2.544,3.828,0.129,5.801c-1.607,1.313-2.451,3.061-2.723,5.219   c-1.067,8.485-4.461-0.881-8.022,0.467C511.808,1266.935,515.324,1258.841,514.562,1257.056z"
   id="path897" />
	<path
   d="M715.928,1257.363c-1.131-3.657-0.484-5.846,3.903-5.431c1.523,0.144,2.283-0.823,3.289-1.775   c2.512-2.377,4.853-1.717,5.513,1.76c0.373,1.965,1.062,2.634,2.822,3.364c2.998,1.244,2.872,3.898,0.059,5.875   c-1.486,1.045-2.532,2.293-2.542,4.393c-0.017,3.408-1.437,4.389-4.595,2.338c-1.306-0.848-2.415-1.634-4.857-0.881   C713.666,1268.812,717.457,1262.307,715.928,1257.363z"
   id="path899" />
	<path
   d="M587.452,1141.391c-1.405-2.774-0.527-4.567,2.61-4.9c1.828-0.194,3.58,0.331,4.504-2.418   c0.736-2.19,5.121-1.376,5.662,1.134c0.417,1.937,1.099,3.066,2.801,4.061c3.691,2.158-0.373,4.007-3.198,13.43   c-0.438,1.46-2.258,1.051-3.284-0.3c-1.565-2.059-3.145-2.898-5.955-1.624C585.857,1152.921,588.955,1144.356,587.452,1141.391z"
   id="path901" />
	<path
   d="M671.538,287.08c-3.096,1.363-5.213-1.933-8.115-2.814c-7.911-2.402-12.024,4.009-17.077,7.547   c-6.638,4.648-9.596-0.959-9.725-3.767c-0.495-10.779,2.051-12.376-5.851-16.591c-2.455-1.31-4.673-3.03-7.41-3.875   c-3.4-1.05-1.573-8.237,2.417-8.779c4.737-0.644,8.7-3.301,13.036-4.982c1.056-0.409,2.068-1.551,1.92-2.87   c-0.407-3.616,2.106-6.507,2.206-10.084c0.1-3.54,5.986-5.477,8.712-2.878c3.203,3.054,6.722,6.071,8.56,10.131   c1.182,2.611,2.776,2.35,4.233,1.446c4.515-2.802,9.44-1.471,14.183-1.792c4.327-0.293,4.699,7.13,2.095,8.775   c-3.537,2.236-3.903,6.919-7.433,9.345c-1.049,0.721-1.099,3.932,0.355,5.488c2.583,2.764,3.291,6.276,3.871,9.635   C678.533,286.909,677.868,287.373,671.538,287.08z"
   id="path903" />
	<path
   d="M942.175,119.403c-6.17,1.689-12.237-8.095-22.981,3.386c-3.605,3.852-7.717,4.224-11.055,1.279   c-1.832-1.617-1.143-3.337-1.203-4.98c-0.454-12.553-0.333-12.701-10.728-18.238c-2.392-1.275-4.889-1.698-4.217-5.165   c0.614-3.168,3.44-2.94,5.602-4.046c9.279-4.748,13.223-4.069,13.275-6.712c0.07-3.529,1.703-6.719,2.069-10.105   c0.784-7.266,8.982-6.473,10.385-2.957c1.598,4.006,6.32,5.187,7.506,9.454c0.513,1.845,2.685,1.226,4.004,0.753   c4.3-1.543,8.749-0.877,13.128-1.15c5.928-0.369,5.537,6.019,3.032,8.091c-3.261,2.698-4.496,7.094-7.466,10.237   c-1.095,1.159-0.91,4.132,0.639,5.437c2.835,2.389,2.744,5.898,3.608,8.826C949.291,118.649,948.084,119.606,942.175,119.403z"
   id="path905" />
	<path
   d="M765.034,128.496c1.339-3.138,4.259-4.504,6.076-7.071c1.812-2.56,6.317-0.201,7.318,3.009   c4.913,15.766,1.069,11.96,17.676,18.818c5.158,2.13,4.285,7.441,0.942,8.632c-3.906,1.391-6.342,5.417-10.719,6.143   c-4.041,0.67,0.945,17.283-3.331,19.035c-2.15,0.882-4.323,1.582-6.206-0.347c-2.198-2.251-5.111-3.417-7.4-5.761   c-6.675-6.833-23.734,3.6-25.564-1.459c-0.722-1.997-1.009-4.46,0.497-6.114c3.813-4.187,6.547-13.933,0.198-18.429   c-2.348-1.663-8.703-11.958-0.804-12.722C756.584,130.984,761.236,137.396,765.034,128.496z"
   id="path907" />
	<path
   d="M856.454,239.542c2.357,0.165,5.526,0.12,8.676,1.025c3.507,1.007,6.116-1.826,6.82-4.132   c1.096-3.593,4.72-4.567,6.089-7.73c0.643-1.485,3.266-0.905,5.079-0.592c3.967,0.685,3.301,15.908,8.614,17.839   c13.578,4.934,15.052,5.569,15.067,8.297c0.009,1.735,0.139,3.161-1.801,4.617c-15.96,11.982-12.325-1.093-13.105,21.955   c-0.122,3.593-4.078,5.608-6.961,3.445c-2.714-2.036-5.708-3.523-8.243-6.053c-5.686-5.676-13.497-0.54-19.728-0.258   c-5.11,0.231-7.049-1.951-4.896-6.472c1.085-2.279,1.395-4.747,2.681-6.988c2.309-4.026,0.145-10.96-3.956-14.096   c-0.678-0.519-1.334-0.68-1.776-1.665C845.469,240.823,846.499,239.333,856.454,239.542z"
   id="path909" />
	<path
   d="M753.47,218.226c-7.058-2.895-8.475,5.499-14.983,3.326c-3.868-1.291,2.818-11.734-7.124-14.426   c-2.402-0.65-4.453-5.005,0.344-6.597c13.889-4.611,4.522-11.852,11.597-13.802c6.289-1.734,1.136,8.743,14.699,7.75   c2.283-0.167,5.279-0.186,5.508,1.741c0.19,1.604,0.532,3.13-1.279,4.413C751.567,208.183,770.924,219.907,753.47,218.226z"
   id="path911" />
	<path
   d="M980.1,122.38c1.432-4.256,6.271-2.82,6.463,0.905c0.113,2.178,1.858,4.016,1.702,6.447   c-0.109,1.706,1.49,2.266,2.891,2.26c1.944-0.008,3.379,1.129,4.958,1.874c2.456,1.159,2.898,5.195,0.569,6.231   c-10.664,4.744-2.492,10.817-9.534,15.65c-4.231,2.904-4.492-5.956-12.131-4.55c-5.639,1.038-11.386,0.9-8.475-4.037   c2.476-4.198,2.121-8.214,0.113-12.392C959.932,120.779,976.086,134.311,980.1,122.38z"
   id="path913" />
	<path
   d="M716.192,272.523c1.318-3.856,6.24-2.798,6.376,0.724c0.087,2.25,2.083,3.967,1.755,6.448   c-0.215,1.629,1.077,2.521,2.613,2.509c2.083-0.016,3.679,1.189,5.397,1.976c2.43,1.113,2.687,5.212,0.318,6.25   c-10.443,4.58-2.596,11.437-9.512,15.638c-4.274,2.596-4.503-5.604-11.257-4.696c-19.435,2.612-2.97-4.407-8.954-16.069   C695.545,270.918,712.033,284.694,716.192,272.523z"
   id="path915" />
	<path
   d="M827.865,324.022c0.28-7.069,0.122-8.761-2.46-9.237c-3.003-0.554-3.654-3.982-6.32-5.067   c-0.805-0.328-0.496-2.749,0.096-2.769c2.809-0.098,3.686-3.427,6.357-3.483c7.176-0.151,1.496-9.144,7.361-12.186   c4.315-2.238,4.187,10.128,14.867,8.673c1.819-0.248,4.528-1.304,5.5,1.574c0.866,2.564-0.461,5.049-2.216,6.445   c-7.262,5.78,3.413,7.671,0.313,14.026c-2.333,4.781-11.86-4.451-16.484,3.788C833.682,327.917,827.671,328.904,827.865,324.022z"
   id="path917" />
	<path
   d="M799.188,194.656c-0.583-2.705-0.472-5.266,3.303-4.689c2.314,0.354,3.58-1.28,4.984-2.207   c5.127-3.389,3.361,4.194,7.193,5.242c2.999,0.82,3.13,3.933,0.699,6.271c-1.528,1.469-3.706,2.538-3.056,5.353   c0.959,4.152-5.192-0.808-11.861,0.213C798.607,205.119,800.063,198.714,799.188,194.656z"
   id="path919" />
	<path
   d="M898.172,297.573c-2.354-7.264,5.885-1.305,7.053-6.555c0.793-3.565,5.794-1.485,5.757,1.421   c-0.026,2.024,0.979,2.677,2.764,3.409c3.09,1.268,3.051,3.982,0.217,5.867c-1.528,1.016-2.603,2.215-2.622,4.298   c-0.072,7.605-5.617,0.464-7.734,1.301C895.444,310.543,899.641,302.107,898.172,297.573z"
   id="path921" />
	<path
   d="M893.738,154.889c-2.524-8.502,5.004-3.082,6.613-7.026c0.47-1.151,2.407-1.704,3.691-2.524   c0.706,1.215,2.548,1.6,2.427,3.436c-0.116,1.76,0.564,2.616,2.523,2.906c1.863,0.275,2.936,2.06,2.278,3.81   c-1.314,3.496-5.25,5.552-5.543,9.758c-0.035,0.505-1.353,0.389-2.016-0.103c-1.994-1.478-4.081-1.54-6.538-1.18   C891.311,164.823,895.064,159.358,893.738,154.889z"
   id="path923" />
	<path
   d="M669.021,316.795c-3.089-6.241,5.343-1.929,7.355-6.725c0.951-2.266,5.641-0.668,5.599,2.158   c-0.046,3.106,5.676,3.202,3.812,7.175c-1.124,2.395-3.947,3.695-3.683,7.129c0.183,2.38-1.94,2.883-3.922,1.623   c-1.99-1.265-3.651-1.672-6.324-1.282C666.562,327.648,671.392,321.585,669.021,316.795z"
   id="path925" />
	<path
   d="M751.102,845.925c0.411-12.729,10.099-23.302,22.51-22.741c6.699,0.303,15.844,7.633,17.576,13.548   C803.212,877.796,750.005,879.904,751.102,845.925z"
   id="path927" />
	<path
   d="M522.409,863.903c-9.512,3.808-15.688,2.808-22.962-6.125c-13.847-17.005-0.674-35.365,8.228-36.708   c2.103-0.317,3.153-2.689,5.898-2.546c5.899,0.308,10.906,2.585,14.885,6.474C539.053,835.349,538.721,857.373,522.409,863.903z"
   id="path929" />
	<path
   d="M614.327,968.566c16.313,16.069,42.06,10.404,49.223,0.84c2.433-3.249,6.352-2.795,10.083-2.35   c3.219,0.384,2.853,3.443,2.998,4.838c0.529,5.078-4.119,6.882-7.181,9.788c-4.943,4.69-11.497,6.277-17.403,8.361   c-17.057,6.019-42.708-4.331-49.02-15.101C599.038,968.137,610.05,964.353,614.327,968.566z"
   id="path931" />
	<path
   d="M1010.227,1447.055c-1.462,4.136-3.964,7.948-7.007,10.992c-13.422,13.427-25.893,36.946-36.356,47.074   c-7.584,7.341-18.901-42.66-29.709-31.316c-4.356,4.571-9.662,7.995-14.789,11.469c-3.589,2.432-5.493,6.389-9.472,8.368   c-8.931,4.441-4.833-2.234-18.17-17.991c-5.163-6.1-7.546-15.842-15.589-10.071c-45.986,32.997-20.229,27.935-51.63-33.597   c-4.211-8.251-5.612-10.484-2.647-12.991c4.018-3.399,17.433,5.249,27.783,18.018c5.518,6.809,5.501,6.824,12.623,2.324   c7.62-4.815,14.496-10.559,20.898-16.876c9.446-9.321,12.284,6.517,20.728,19.335c6.532,9.915,5.391,13.037,9.712,11.443   c17.443-6.437,29.022-31.72,37.691-18.757c0.669,1,15.226,22.069,17.639,26.65c1.336,2.536,4.421,2.962,6.151,0.469   c2.759-3.977,7.225-5.968,10.694-9.093c4.157-3.744,8.456-7.956,14.139-10.013c1.172-0.424,2.715-2.452,3.606-1.379   C1007.934,1442.81,1011.465,1443.483,1010.227,1447.055z"
   id="path933" />
	<path
   d="M846.229,1348.874c19.149-16.036,46.54,1.859,40.082,23.593c-2.551,8.585-3.388,12.307-7.464,9.668   c-28.187-18.245-41.919,4.996-42.474-12.186C836.187,1364.164,838.856,1355.049,846.229,1348.874z"
   id="path935" />
	<path
   d="M979.049,1358.778c5.816,2.281,11.696,3.629,16.652,8.955c12.863,13.821,6.503,22.981,2.763,31.768   c-0.549,1.289-2.979,1.535-3.615,0.549c-3.295-5.113-27.406-11.859-32.59-7.673c-10.019,8.087-14.026-10.732-3.224-23.529   C964.325,1362.582,971.251,1360.633,979.049,1358.778z"
   id="path937" />
</g>
</svg>
