<?xml version="1.0" encoding="UTF-8" standalone="no"?>
<svg
   version="1.1"
   id="Layer_1"
   x="0px"
   y="0px"
   viewBox="0 0 1920 1920"
   enable-background="new 0 0 1920 1920"
   xml:space="preserve"
   xmlns="http://www.w3.org/2000/svg"
   xmlns:svg="http://www.w3.org/2000/svg"><defs
   id="defs1368" />
<g
   id="g1363">
	<path
   d="M1370.74,342.22c0.3,0.17,0.91,0.5,1.21,0.67c12.096-9.348,19.843-22.32,31.17-24.88c3.38-1.16,7.97-0.25,10.07-3.8   c13.61-22.328,12.724-45.76,35.13-57.89c12.409-2.591,24.965,8.137,30.19,7.54c1.96-4.48,4.45-8.94,8.55-11.82   c4.335-3.855,56.51-4.856,94.69,12.24c0.33,2.47,1.3,4.91,1.13,7.43c-2.55,4.74-8.39,7.74-8.98,13.36c3.55,0.73,5.61-2.03,6.9-4.89   c0.77,2.28,1.45,4.6,2.28,6.88c2.39-1.39,4.72-2.88,7.06-4.38c1.48,1.61,3.03,3.17,4.8,4.51c0.02-2.11-0.03-4.22-0.06-6.33   c1.32,0.8,2.7,1.55,4.1,2.26c-0.15-4.75-1.14-9.42-2.02-14.07c2.012-1.404,38.983,4.75,48.29,9.64c3.3,1.51,6.17,4.13,9.93,4.47   c-0.717-3.9-4.373-4.858-13.21-13.32c7.738-18.543,9.184-33.732,18.45-41.45c10.128-3.234,16.02,9.228,19.41-2.58   c0.9-3.74-1.99-6.93-4.02-9.74c-9.35-0.75-18.5,2.12-27.84,1.94c-7.966-22.601,23.558-50.279,58.62-37.27   c13.323-38.276,49.772-42.985,89.19-32.2c11.636-10.954,19.922-15.907,36.16-16.02c2.07,0.83,4.07,1.88,6.2,2.62   c-0.12-0.68-0.36-2.04-0.48-2.73c-44.249-42.355-137.505-38.238-197.63-26.16c0.25,0.9,0.61,1.77,1.08,2.6   c1.68-0.4,3.37-0.73,5.1-1.08c0.403,2.879-29.546,53.138-67.79,62.71c-22.693,6.381-17.856-5.507-23.35-9.57   c-2.63,2.1-4.77,4.7-6.73,7.41c-6.705,9.323-25.859,11.176-28.23,11.91c0.02,0.62,0.05,1.85,0.07,2.46c1.9,0.8,3.9,1.33,5.96,1.69   c-0.81,2.61-1.94,5.11-3.27,7.49c-14.508,0.258-14.953,3.724-18.9,4.4c-1.958-0.487-46.166-24.528-49.64-26.52   c-0.39-1.93-0.73-3.9-1.57-5.69c-3.303-0.944-65.137,68.787-77.11,125.6C1368.964,316.193,1371.031,331.265,1370.74,342.22z"
   id="path1333" />
	<path
   d="M724.85,158.03c5.42-3.65,9.67-9.51,16.31-11c4.73-0.97,6.93,4.24,9.66,7.05c1.66-0.75,3.22-2,5.11-2.1   c6.145,2.284,20.754,11.771,25.15,19.88c-1.84,1.55-4.07,2.51-6.02,3.89c0.58,0.14,1.72,0.42,2.3,0.56   c-0.17,2.18,2.38,2.03,3.87,2.57c2.55,0.86,3.08-2.25,4-3.85c2.808,2.258,11.837,10.61,13.73,11.29c-0.27-1.19-0.55-2.36-0.84-3.53   c16.472-16.263,11.142-4.696,17.64-5.66c0.42-1.3,0.84-2.61,1.26-3.92c-2.51-2.16-6.41-2.72-8.32-5.33   c0.759-8.057,17.062-8.43,22.34-0.79c14.169-9.126,17.143-4.231,31.33,4.61c2.78,0.65,5.7,0.03,8.52,0.47   c2.08,0.54,4.04,1.43,6.12,2.01c1.657-19.04-49.678-38.651-50.68-39.07c-4.888,3.868-21.856,13.202-35.66,6.3   c-0.32-1.48-0.67-2.96-0.94-4.45c-3.65,1.13-7.44,1.19-11.13,0.29c-0.86,0.95-1.63,2.06-2.81,2.63   c-4.844-0.743-7.16,0.298-16.43-18.5c-1.121-1.535-37.602,8.38-53.46,38.7c2.53-0.32,4.96-1.07,7.43-1.72   C717.11,157.42,721.02,158.49,724.85,158.03z"
   id="path1335" />
	<path
   d="M1118.42,144.34c12.855,0.758,6.548-3.739,17.27,6c2.265,0.686,14.79-1.922,18.45,4.42c-0.85,1.32-1.7,2.62-2.32,4.05   c6.977,0.292,13.573,3.509,14.76,4.29c1.743-11.978,13.414-13.402,24.67-6.21c2.61,0.34,3.76-3.1,6.28-3.55   c3.3-2.04,6.7,0.15,9.86,1.29c2.11,1.07,4.07-0.81,6.03-1.44c4.49-2.07,9.21,0.22,13.72,0.92c-0.1-4.25-4.34-6.5-7.08-9.15   c-19.482-12.37-3.098-3.154-22.72-9.3c-0.61-1.18-1.21-2.36-1.75-3.56c-8.1-1.51-14.55,5.46-22.42,5.28   c-0.14-1.54-0.26-3.08-0.39-4.61c-3.07,0.48-5.36,3.49-8.66,2.48c-0.78-1.39-1.7-2.68-2.49-4.04c-1.15-0.13-2.29-0.19-3.42-0.2   c-0.15,2.09-0.25,4.18-0.38,6.27c-7.161-2.781-12.147-10.837-21.53-10.31c-0.16,0.73-0.47,2.21-0.63,2.94   c-3.9,0.15-7.79,0.11-11.67,0.05c-11.506-0.42-22.948,7.47-23.25,9.95C1114.331,140.595,1109.206,138.438,1118.42,144.34z"
   id="path1337" />
	<path
   d="M201.89,203.05c3.66,2.188,38.93,10.473,47.86,42.27c0.6,2.19-0.54,4.57,0.32,6.7c0,0,7.543,7.214,18.58,22.38   c0.788,1.002,14.738,30.557,8.61,45.45c2.497,4.712,69.05,28.498,65.77,87.09c-4.01-0.39-9.08,1.53-12.17-1.83   c-1.1-0.86-2.06-2.31-3.64-2.11c-0.94,1.1-0.34,2.51-0.26,3.79c-0.97-0.3-1.95-0.6-2.92-0.88c0.96,2.6,0.6,5.31-0.04,7.93   c8.981,5.909,11.889-2.733,18.62-0.47c7.754,1.444-1.888,10.141,23.16,6.67c2.45,2.27,5.79,1.8,8.83,2.3   c8.521,5.286-0.76,1.493,14.94,8.17c2.42,2.29,4.25,5.12,6.56,7.53c1.19-0.22,1.93-1.3,2.82-2.01c0.52,0.95,1.02,1.91,1.5,2.89   c1.4-0.12,2.8-0.71,4.21-0.46c1.71,0.93,3.24,2.16,4.89,3.19c10.068-6.224,22.839,4.92,41.17-26.89c1.23-1.14,2.68-2.01,4.03-3   c0.33-1.6,0.05-3.49,1.1-4.84c3.54-1.63,5.38-5.28,8.06-7.95c3.163-7.425,31.184-32.843,45.79-39.29c3.69-1.98,7.86-3.2,11.17-5.84   c1.887-1.65,5.426-16.358,14.48-20.54c0,0,19.266-22.213,47.29-37.71c4.1-2.78,5.45-7.87,8.24-11.73   c29.445-34.771,17.634-20.014,60.56-51.46c4.18-2.95,9.83-3.94,12.88-8.37c-13.868-0.245-64.75,28.876-65.75,29.47   c-53.397,29.817-93.406,75.132-139.71,125.78c0.725-4.535,7.203-10.159,2.84-12.21c-9.143-1.079-16.58,16.251-30.39,14.94   c-4.292-7.949-20.989-21.953-24.24-12.96c2.799,17.15,0.699,4.394,1.83,15.21c-7.884-6.212-28.233-37.079-33.42-42.74   c-1.253-6.587-16.987-16.488-11.3-21.61c2.58-0.11,5.39,1.27,7.8-0.02c-0.02-0.41-0.06-1.24-0.08-1.65   c-5.08-1.59-10.37-2.27-15.68-2.32c-13.632-16.721-68.502-109.067-160.52-118.77C196.69,199.98,199.66,201.3,201.89,203.05z"
   id="path1339" />
	<path
   d="M1077.29,295.75c1.5,0.1,3,0.27,4.53,0.38c4.28,6.04,7.93,13.1,8.24,20.61c-1.4,0.17-2.79,0.34-4.17,0.51   c0.16,1.05,0.41,2.07,0.76,3.09c1.83,0.54,4.04,0.26,5.63,1.42c1.68,2.55,2.63,5.48,3.87,8.26c3.58-1.01,7.15-2.15,10.84-2.71   c1.83,0.83,2.48,2.9,3.43,4.52c0.87-0.31,1.74-0.67,2.61-1.06c0.23-2.47-1.66-4.19-3.12-5.88c0.06-0.66,0.17-1.96,0.22-2.61   c6.3-1.75,12.14,2.81,14.26,8.52c13.918,0.069,12.388,4.895,17.98,14.79c3.93-0.11,6.43,2.78,8.64,5.61   c3.38-18.027-18.467-41.963-19.23-43.03c-6.977,1.514-17.695-0.503-23.6-5.44c-0.12-1.8-0.33-3.58-0.41-5.38   c-3.04-0.4-5.46-2.25-7.58-4.32c-0.67,0.63-1.33,1.26-1.98,1.89c-2.502-3.434-4.085-1.673-4.33-18.71   c-1.001,0.024-45.211-4.345-44.97,8.47c3.44,0.66,6.96,1.43,9.6,3.9C1065.819,290.74,1074.664,280.453,1077.29,295.75z"
   id="path1341" />
	<path
   d="M970.04,323.95c11.873,2.581,10.31,3.408,15.91,6.23c-0.32,1.26-0.66,2.53-0.95,3.81c3.27-0.45,6.63-0.25,9.17,2.11   c0-3.44,2.93-5.2,6.04-5.57c-0.84-1.02-2.1-2.02-2.21-3.37c1.4-1.83,3.88-0.93,5.85-1.03c3.64,0.5,7.15-2.43,10.74-0.74   c2.99,1.61,6.36,1.72,9.69,1.49c-3.83-7.93-13.53-9.99-21.25-12.27c-8.515,3.988-9.394,6.706-15.18,2.74   c-2.81,0.4-5.75,1.32-8.54,0.51c-1.84-1.56-2.78-3.83-3.78-5.94c-7.55,4.16-16.72,8.9-18.72,18.08c1.91-0.08,3.87-0.03,5.76-0.48   C965.18,327.84,966.9,324.78,970.04,323.95z"
   id="path1343" />
	<path
   d="M1806.85,345.02c11.899-9.43,12.883,0.413,18.51-2.67c4.95-2.61,10.59-1.6,15.76-0.28   c-2.431-14.59-26.981-16.921-29.6-18.53c-0.31-1.17-0.59-2.34-0.85-3.5c-8.23-1.16-14.84,5.08-22.7,6.1   c-0.05-1.78-0.14-3.55-0.15-5.32c-3.61-0.09-5.71,4.1-9.44,3.14c-0.83-1.66-1.71-3.29-2.61-4.89c-0.65-0.03-1.97-0.1-2.62-0.13   c-1.36,1.87-1.13,4.25-1.35,6.43c-5.992-2.017-12.281-11.708-21.32-10.25c-0.2,0.7-0.58,2.1-0.77,2.8   c-6.76,0.61-13.85-1.12-20.32,1.49c-3.373,1.172-13.636,5.11-14.67,8.5c11.354,0.571,9.899-1.624,18.32,4.99   c17.182-4.192,12.993,8.082,20.94,5.93c4.83-1.32,10.3-0.11,14.04,3.25c-0.43,1.53-0.72,3.09-1.08,4.64   c5.24,0.03,9.81,3.08,14.8,4.39c-0.09-1.27-0.15-2.53-0.21-3.8C1793.125,333.967,1802.2,344.021,1806.85,345.02z"
   id="path1345" />
	<path
   d="M1906.59,1532.82c-3.17,0.01-5.26,2.6-7.28,4.69c-2.17,4.269,11.086,39.729,11.47,40.73   c3.425,12.079,5.639,4.205-0.62,26.9c-1.48,5.3-3.65,10.41-6.43,15.16c-2.283-2.181-10.393-26.369-10.61-27.37   c-1.17-16.083,2.101-7.762,1.86-21.03c-1.55,0.05-3.06,0.21-4.54,0.5c-0.68,4.64-0.17,9.76-2.85,13.87   c-1.34-4.9-3.41-9.51-6.52-13.52c-0.768-12.195,7.853-15.668,7.9-29.8c-1.25,0.01-2.46,0.07-3.66,0.17   c-2.03,5.27-4.88,10.21-6.61,15.61c-0.74,2.43-3.07,3.79-4.82,5.44c0.43,3.19,1.86,6.67,0,9.7c-4.42,9.32-3.96,20.18-8.54,29.4   c-7.202-30.454-8.101-68.116-11.44-79.29c-1.63-0.06-3.25-0.05-4.83,0.04c-0.289,4.604,9.85,81.38,9.93,82.38   c0,0-22.364-76.392-24.08-79.41c-1.66-0.06-3.31-0.05-4.93,0.03c-1.57,7.976,8.62,17.745,2.89,26.09   c4.106,4.494,5.408,17.57,4.96,26.38c-1.53,0.61-3.01,1.29-4.47,1.98c-0.782,10.833,4.243,14.232,1.39,35.76   c-7.152-11.426-14.113-31.393-15.19-40.61c-5.206-3.596-6.42-8.59-16.8-9.8c1.55,6.52,6,12.16,11.02,16.49   c0.588,12.885,2.826,10.727,3.65,16.96c1.579,32.929,4.884,13.323,4.51,36.97c-1.02-0.81-1.93-1.67-2.8-2.54   c-0.21-2.91-0.13-5.83-0.29-8.72c-1.26-0.04-2.5-0.03-3.71,0.03c-9.007,14.77,0.188,15.994-1.2,29.38   c-2.79-3.31-3.1-7.63-3.27-11.74c-5.21-1.67-2.73-8.18-5.6-11.71c-3.02-3.24-1.7-7.74-2.32-11.68c-1.63-3.12-3.65-6.03-5.04-9.26   c-1.12-0.03-2.23-0.02-3.31,0.03c-0.23,0.81-0.7,2.43-0.94,3.24c-1.56-2.81-3.06-5.63-4.5-8.47c1.86,2.14,4.17,3.71,7.18,3.34   c0.02-3.41-1.52-6.45-3.35-9.2c-1.11-0.03-2.17,0.14-3.18,0.5c-0.37,1.46-0.71,2.94-0.98,4.45c-2.44-0.48-4.98-1.01-7.28,0.25   c-0.69,5.107-5.474,15.966-11.01,19.24c-0.67-5.32-0.82-11.1-4.55-15.34c-1.33-0.06-2.64-0.07-3.93-0.04   c0.18,3.03,0.8,6.03,1.81,8.91c-3.11,4.18-6.07,8.45-7.66,13.47c-1.077-18.051,16.201-50.721,15.91-54.09   c-6.008-8.881-12.41,15.299-26.81,33.87c-1.19,2.25-4.01,0.74-5.96,0.92c-1.61,5.14-0.05,11.56-4.64,15.44   c-3.63,2.89-3.35,8.42-7.58,10.78c0.43-3.44,1.01-6.86,1.15-10.32c-0.77,0-2.29,0-3.06,0c-1.21,2.3-2.03,4.76-2.64,7.3   c-2.68-2.91-1.86-6.77-1.44-10.28c0.49-3.13-3.33-4.89-3.03-8c-0.04-4.05,1.11-7.98,1.16-12.01c-1.32-0.03-2.61-0.01-3.89,0.06   c-6.146,7.45-3.642,31.812-15.32,38.19c6.2-14.307-5.097-9.955-1.28-20.65c2.05-6.44,1.47-13.26,1.27-19.9   c-7.66,1.024-1.976,5.551-8,24.17c-2.448,6.764,2.556,11.129-7.89,25.51c1.51-7.19,5.9-13.77,5.08-21.37   c-2.29-0.03-4.56-0.01-6.82,0.01c-1.09,2.09-1.97,4.29-3.14,6.35c-0.8-15.893,3.254-14.482,4.27-23.09   c1.843-10.325,10.582-12.772,7.44-21.51c-9.833,1.84-9.061,10.231-15.35,16.65c-0.41-4.34-1.57-8.55-3.78-12.31   c-0.64-0.03-1.93-0.1-2.57-0.13c-2.37,6.36,1.8,12.65,2.65,18.9c0.1,6.04-5.97,8.93-7.95,14.14c-4.2-6.37-8.1-13.04-10.58-20.28   c-7.376-17.596-12.787-18.982-12.45-30.84c-10.394,0.043-6.772,9.321-5.36,10.72c2.59,2.57,0.73,6.96,3.46,9.49   c8.762,8.18,7.496,14.402,10.87,22.89c-1.42,2.03-2.81,4.08-4.12,6.2c-4.56-3.87-5.51-9.86-6.81-15.34   c-1.63,0.25-3.75-0.26-4.7,1.46c-0.31,4.16,0.49,9.08,4.29,11.51c1.38,2.7,0.39,6.16,0.57,9.17c-0.47,0-1.41,0.01-1.88,0.02   c-0.12-2.69-0.09-5.36-0.21-8.02c-1.55-0.05-3.09-0.01-4.6,0.12c-1.03,5.98-1.79,12.16-4.5,17.68c-1.88,0.09-3.74,0.29-5.6,0.41   c-2.03,4.53-2.33,9.55-3.89,14.22c-3.264-27.01,5.744-29.535-0.24-39.09c1.65-6.38,4.44-12.76,9.01-17.59   c-1.155,13.916-7.316,26.49-3.93,38.27c1.18-0.02,2.38-0.02,3.6-0.01c2.148-24.393,9.488-36.272,9.34-46.04   c-1.2-0.01-2.37,0.06-3.51,0.22c-0.88,1.57-1.87,3.1-3.26,4.27c-0.23-2.27-0.41-4.52-0.53-6.75   c-9.033,1.112-20.657,32.2-24.58,34.76c-0.935-13.969,1.813-25.25,1.81-25.3c0.05-2.48-3.91-3.15-4.75-0.88   c-0.58,3.78,0.35,7.88-1.59,11.39c-2.36,4.57-2.43,9.81-3.88,14.67c-0.394-1-11.539-31.41-16.06-38.58   c-2.28,0.69-4.45,1.68-6.61,2.63c-1.322,16.486,5.784,22.458,8.61,34.02c1.27,3.64-2.67,6.73-1.6,10.39   c0.59,2.38,1.47,4.7,2.11,7.1c2.43,2.89,2.53,6.87,2.74,10.48c-2.28-2.99-2.86-6.84-2.74-10.48   c-8.569-2.697-9.951-22.52-11.32-24.76c-3.99-2.36-6.96-6.07-8.74-10.31c0.46-4.2,0.11-9.11,3.37-12.3c2-2.16,3.91-4.56,3.62-7.69   c-10.04-0.769-30.878,35.433-35.84,39.54c-2.366-12.765-2.505-36.961-6.03-47.77c-1.27-0.78-2.82-0.57-4.19-0.78   c-0.65,5.55,0.19,11.06,1.66,16.42c0.17,5.79-1.27,11.54-1.73,17.32c1.26,0.92,2.55,1.85,3.86,2.8c0.08,6.66,0.06,13.34,1.15,19.94   c-1-0.89-2.02-1.71-2.86-2.68c-0.7-4.86-0.01-9.78-0.2-14.65c-1.87,0.34-3.75,0.59-5.59,0.98c-0.26-1.012-8.832-32.359-10.16-35.29   c-1.61-1.45-4.08-0.38-5.99-0.36c0,0,9.032,33.062,8.63,59.07c-4.439-9.417-8.621-29.853-12.13-35.61   c-2.63,0.45-5.15,1.43-7.42,2.82c-3.432,12.659,14.359,33.584,13.61,57.76c-6.48-11.59-12.33-24.39-12.07-37.93   c-4.5-0.13-6.99-4.3-10.93-5.82c0.44-4.2,1.28-8.38,1.11-12.61c-1.9-0.03-3.77,0-5.64,0.06c-1.41,6.87-4.44,13.26-6.34,20   c-0.52,2.6-3.14,3.73-4.84,5.47c-0.55,2.91,1.34,5.94,0.09,8.77c-4.035,9.179-5.995,25.599-9.02,28.94   c-6.183-21.544-7.56-57.425-11.65-77.16c-1.54-0.11-3.08-0.14-4.59-0.06c-0.06,1.455,6.966,65.872,6.97,67.33   c-2.84-3.44-2.98-7.81-3.41-12c-6.26-13.34-10.41-27.58-14.12-41.81c-1.22-3.97-1.66-8.4-4.7-11.51c-1.21-0.01-2.4,0.05-3.58,0.17   c-0.023,0.417,7.674,41.793,7.74,42.8c0.39,6.13-0.45,12.33,0.69,18.43c-0.01,1.76,1.23,4.21-0.71,5.38   c-3.95,2.75-6.16,7.15-9.63,10.38c-10.198-19.889-5.063-17.918-8.93-26.51c-11.144-12.001-26.402-15.98-5.8,6.81   c4.455,14.863-0.35,15.33-1.29,18.79c-1.77,7.32-2.48,15.03-5.53,21.96c-6.148-13.365-10.12-19.83-10.12-19.83   c-1.49-4.88-2-10.12-4.77-14.51c-2.64-0.05-5.29,0.16-7.71,1.27c-1.29,3.44-1.08,7.08-0.24,10.61c-1.12,0.34-2.25,0.58-3.39,0.72   c-2.98-2.69-5.35-7.58-10.08-6.48c-2.6,5.34-5.61,10.53-7.2,16.3c-0.2-2.84-0.49-5.66-1.36-8.35c-1.14,0.01-2.26,0.05-3.36,0.12   c-0.49,1.89-1.04,3.85-2.36,5.37c-1.957-15.028,9.182-26.889,8.97-35.67c-1.2,0.11-2.32,0.41-3.37,0.89   c-0.69,1.5-1.02,3.13-1.44,4.75c-0.6,0.2-1.81,0.6-2.41,0.8c5.226-16.905,8.301-13.942,8.25-20.4   c-2.522,0.541-4.98-2.102-13.86,16.44c-0.42-2.1-1.03-4.14-1.15-6.25c0.77-2.53,1.91-4.97,2.04-7.64c-1.46-0.26-2.9-0.5-4.33-0.72   c-0.23-3.02,0.7-5.86,2.17-8.44c-5.268-5.377-2.199,0.164-2.09-30.27c-0.05-7.66,5.99-14.15,4.85-21.9   c-1.01-6.63-0.89-13.36-1.17-20.04c8.401-88.566-1.94,0.73-1.94-135.06c0.047-5.257-3.351-34.05-3.45-35.05   c23.125-182.106,10.162-113.171,48.03-169.93c13.15,1.36,26.85,0.31,39.38,5.34c6.79,2.68,8.22,11.16,14.42,14.62   c29.178,16.222,20.907,17.889,109.68,1.72c0.09-0.64,0.26-1.92,0.35-2.55c-37.397-0.318-62.162,15.075-80.69,6.51   c-19.742-9.656-3.655-13.771-3.17-22.83c-9.573,0.361-10.51,15.523-17.83,8.82c-24.331-20.156-4.982-7.767-55.57-16.81   c-0.253-5.977,23.427-38.847,43.67-56.23c24.729-17.617,25.445-9.086,25.65-21.31c13.03-11.32,28.15-20.03,43.68-27.45   c109.466-50.824,132.936,8.81,155.21,13.61c0.001,0.029,0.132,105.327,0.31,120.58c-1.833,29.031,2.489,2.722-12.55,35.87   c-15.656,1.299-19.214,1.479-28.34,7.57c-11.829,7.581-65.156,13.731-73.95,73.06c-13.628,88.374,47.147,79.706,50.5,82.57   c9.757,10.721,26.63,13.192,31.97,12.99c29.228-0.42,6.989-4.102,27.87,1.02c6.167,2.135,19.565,1.809,34.64-8.65   c6.07-1.59,13.07,1.46,18.63-2.29c80.429-40.836,55.174-141.762-1.9-155.28c-5.37-1.13-10.61-3.96-16.23-2.71   c-3,0.24-6.05,2.61-8.98,0.97c-13.051-7.206-2.746-12.349-5.14-20.71c-1.37-1.52-3.73-1.32-5.55-1.87   c-2.923-67.029-1.615-142.263-1.44-144.34c6.933-2.055,9.817-1.752,31.93,1.95c16.091,2.917,20.684-5.31,50.19-6.13   c7.37-0.09,14.76,0.21,22.14-0.18c-0.74-2.91-1.76-5.73-2.78-8.52c1.77-2.64,3.22-5.47,4.56-8.35c-0.9-0.79-1.88-1.46-2.88-2.02   c-10.139,6.816-8.946,9.972-17.01,10.43c-31.642,0.143-54.82,10.776-92.45,3.04c-30.796-7.678-7.155-23.22-69.8-28.63   c7.595-5.398,11.7-2.281,25.85-0.8c2.25-3.21,5.12-6.55,4.45-10.77c-5.84-1.36-11.92-1.6-17.84-0.75   c-29.662,4.499-28.992-0.92-44.98,2.81c-8.03,1.73-16.21,3.77-24.48,2.67c-2.176-11.549,28.555-22.836,36.76-28.36   c4.89-3.17,9.01-8.06,15.02-9.05c54.009-12.022,36.169-17.687,55.71-14.93c23.282,5.061,31.392-3.577,43.83-5.54   c9.662-0.581,14.689,5.713,36.45-5.51c14.301-7.591,7.572-19.363,30.06-30.99c41.971-21.58,15.8-17.27,40.57-19.8   c-2.597-11.855-4.421-7.14-0.13-13.76c16.114-19.603,58.585-45.421,61.27-54.18c-10.71,1.419-28.776,20.142-43.1,30.49   c-66.412,50.789-51.088,37.788-76,50.95c-10.444,4.358-25.836,20.218-34.71,25.23c-6.86,2.57-13.51-2.84-20.43-1.35   c-78.678,19.539-13.557-4.802-72.17,18.79c-6.277,1.94-43.373,3.602-86.39,38.57c-8.187,6.152-19.539,26.713-24.92,31.22   c-1.003,0.653-24.073,14.378-27.01,12.93c-4.377-1.143-3.617-33.153-3.49-37.69c4.15-38.663,3.886-38.512,23.41-49.52   c4.55-2.22,8.38-5.68,13.07-7.64c3.655,6.092,3.012,6.595,8.13,5.34c-0.34-2.68-0.74-5.35-0.8-8.04   c20.924-17.57,48.984-9.299,54.66-10.38c15.178-21.801,35.626-19.454,34.53-27.49c-2.22-1.78-5.1-2.81-7.91-2.98   c-9.27,5.79-16.65,16.44-28.48,16.85c0.713-3.117,15.223-21.27,16.03-22.27c8.88-11.112,21.077,0.145,28.91-36.2   c1.93-9.71,3.25-19.71,1.73-29.57c4.4-5.2,11.07-8.22,14.41-14.35c4.52-7.62,8.33-15.89,14.92-22.03   c18.45-18.015,34.584,7.389,44.46,11.27c19.906-3.25,11.183-17.051,52.59,5.2c9.61,5.4,19.57,10.96,26.43,19.85   c12.766,0.593,63.463-14.539,66-23.8c-17.033-2.424-40.167,16.762-60.16,19.6c-6.323-3.992-27.273-24.149-53.42-31.43   c-1.86-0.35-2.94-1.86-3.93-3.29c16.847-9.52,29.647-4.015,35.56-3.99c-0.24-4.38-4.71-6.75-8.43-7.83   c-9.55-1.71-18.54,2.77-26.98,6.59c-24.689,10.393-16.945-1.966-31.85-3.76c-3.95-0.38-7.24-2.38-10.25-4.78   c-9.61-1.15-19.24,1.39-28.89,0.62c2.45-20.945,23.207-18.312,9.16-37.18c-1.902-14.957,18.483-25.836,25.08-35.65   c8.891-12.98,14.221-39.601,14.86-45.14c0.65-6.55-5.62-10.63-7.53-16.35c-8.856-43.743,7.72-78.203,6.47-89.3   c-0.96-0.54-1.9-1.06-2.83-1.57c-14.069,17.09-13.85,32.028-15.45,36.93c-2.01,3.81-7.18,5.63-7.5,10.38   c-1.457,9.063,19.469,61.702,2.4,89.52c-14.586,23.443-13.934,5.984-32.18,51.97c-5.52-4.22-10.78-8.78-16.57-12.64   c4.5,0.76,9.01,1.47,13.55,2.09c-1.17-13.509-39.355-14.326-48.11-29.07c2.94-1.31,6.14-1.77,9.24-2.58   c4.13-1.98,7.59-5.08,11.46-7.51c8.36-6.15,18.64-8.62,27.88-13.05c7.153-3.62,4.662-8.546,17.95-17.14   c0.22-1.57,0.38-3.15,0.5-4.72c-23.169-0.31-46.274,31.512-71.91,27.42c-1-0.499-29.275-15.773-33.55-16.94   c-20.456-5.82-15.883-9.948-28.88-15.22c-38.859-16.647-30.835-17.889-40.41-24.66c-23.229-19.783-29.488-3.385-38.31-0.35   c-5.22,2-10.91,4.97-12.48,10.81c6.088,1.031,15.753-4.819,26.83,6.5c1.86,3.51,1.22,7.72,2.64,11.4   c22.212,58.697,41.443,34.577,46.75,72.31c0.14,1.14,0.1,2.28-0.13,3.42c-13.618,10.978-24.857,7.811-30.72,8.54   c-2.92,0.74-5.17,3.2-8.24,3.51c-59.934,5.495-81.963,40.978-102.87,45.86c-5.709-9.632,8.118-26.952,11.9-38.72   c0.36-8.36-4.49-16.23-3.85-24.61c2.74-7.51,8.62-14.42,7.64-22.89c-2.46-14.83-14.68-26.16-16.37-41.2   c1.04-9.5,10.52-14.05,15.66-21.11c9.03-12.234-6.218-13.14-8.17-29.93c22.326-19.736,4.121-20.122,7.51-30.68   c1.91-4.22,5.03-7.74,7.47-11.66c5.38-7.63,5.25-18.11,11.98-24.93c9.624-10.943,14.472-8.427,13.28-15.92   c-12.566,1.549-13.026,5.154-20.87,11.27c-2.3,1.8-5.13,2.78-7.38,4.63c-1.63,4.97,0.57,10.75-2.62,15.3   c-10.795,22.735-7.011-1.362-15.6,43.73c-4.82,0.92-7.9-4.62-12.8-3.92c0.66,4.24,4.55,7.04,5.4,11.16   c-0.609,4.84-10.24,13.847-14.32,24.72c-6.262,12.523-39.696,9.056-50.48,7.95c-7.649-4.578,0.725-14.048,0.55-25.66   c-0.714-61.854,2.532-7.95,20.28-75.86c5.812-25.171-1.756-26.35,2.91-41.05c13.14-43.026,5.237-22.187,17.38-38.6   c4.2-5.45,10.03-9.47,13.85-15.2c6.04-11.64,3.83-25.65,9.55-37.42c4.328-8.215,48.723-57.822,32.86-71.75   c-1.16-0.14-2.31-0.23-3.44-0.27c-9.04,14.552-11.687,34.544-19.16,36.51c-4.58-11.68-7.45-23.97-11.85-35.7   c-8.561-14.903-13.192-14.363-15.88-28.16c-2.13-9.6,0.11-20.44-6.06-28.85c-2.17-2.83-5.8,0.02-8.43,0.57   c-1.51,6.54,3.43,12.21,3.14,18.69c0.47,7.63-1.02,16.45,4.19,22.84c43.613,58.042,16.763,56.942,4.01,94.41   c-15.748,45.263-34.4,45.585-35.43,78.65c-4.06,0.6-8.13,1.09-12.19,1.65c-2.276,7.996,0.877,44.176-35.41,67.77   c-2.92,2.03-6.31,3.16-9.82,3.58c-4.651-19.401,10.542-36.275,10.34-49.36c-7.71-5.96-16.26-10.77-24.47-16.01   c-1.493-4.863,4.094-7.9,3.8-17.38c-1.55-0.38-3.09-0.72-4.62-1.03c-4.08,6.96-9.03,13.39-13.01,20.4   c-0.66,3.22,1.25,6.41,2.01,9.52c4.69,0.32,10.75-3.25,14.13,1.48c8.16,9.75,6.109,7.154,1.76,28.79   c-2.49,10.63-0.19,21.73-2.64,32.36c-4.94,8.88-16.9,11.29-21.07,20.79c-5.286,25.502,6.25-0.186-11.95,49.19   c-1.102,3.015,0.723,24.96,0.87,25.96c4.826,35.041-3.606,34.353-1.06,86.33c-5.737,0.807-28.351-19.405-33.18-24.24   c-10.717-10.999-11.906-13.715-9.28-37.64c0.64-8.39-6.72-15.68-4.09-24.03c2.788-15.045-5.852-17.611-6.82-30.84   c2.7-8.47,10.25-14.45,13.04-22.87c2.23-12.7-0.82-25.9,2.72-38.45c2.09-5.57,5.16-10.81,6.24-16.73   c-2.67,0.17-5.29,0.67-7.94,0.94c-8.186-22.315-15.304-53.637-19.77-59.45c-30.237-40.194-9.556-43.748-21.64-62.47   c-1.55-0.11-3.09-0.16-4.61-0.1c-2.06,7.77-0.69,15.86-1.35,23.77c-4.82,0.47-9.68-0.11-14.47,0.47c-1.73,0.85-1.15,2.86-1.36,4.41   c38.693,20.11,67.061,128.162,41.28,150.54c-3.54-3.71-5.85-8.34-7.22-13.23c4.228-5.836,13.779-14.982,6.74-30.85   c-1.51-0.1-3.02-0.11-4.51-0.02c-3.671,9.273,2.288,15.162-8.22,25.67c-38.965-26.006-39.293-46.04-41.29-53.55   c-9.427-40.428-2.224-43.1-10.36-43.27c-8.704,13.891,0.701,33.423,4.39,48.32c1.22,3.97-4.63,5.16-4.82,8.79   c-0.6,3.52,4.67,3.84,4.92,7.06c3.995,27.531,4.706,16.763,10.29,36.06c-24.114-14.031-23.984-24.97-25.37-49.17   c-1.25-0.05-2.48-0.06-3.71-0.02c-6.339,9.357,3.593,16.335-3.8,20.34c-7.249-10.102-2.742-19.836-12.09-20.52   c-10.437,16.304,12.735,25.717,16.42,31.57c15.975,25.082,39.169,33.93,35.31,39.2c-20.616,3.048-44.985-9.522-61.21-22.3   c-28.816-22.541-19.428-60.597-31.1-68.11c-1.39-0.16-2.76,0.06-4.11,0.21c-2.248,17.563-1.164,16.881,1.72,21.5   c9.11,11.57,6.63,28,14.97,39.98c44.279,45.316,77.539,34.837,91.69,34.78c5.16,2.14,9.7,5.69,15.12,7.35   c3.14,1.37,7.39,1.55,9.08,5.01c13.267,23.123,14.162,70.553,13.86,75.25c-8.683,0-16.774-16.898-32.47-24.68   c-8.26-3.68-17.72-1.79-26.14-4.86c-6.28-2.8-11.29-7.99-17.93-10.06c-14.08-4.212-14.91-3.496-17.09-5.98   c-40.616-46.754-31.774-27.167-69.53-55.44c-2.7-1.95-5.07-4.33-7.91-6.05c-1.39-0.17-2.64,0.71-3.93,1.04   c-1.208,12.321,25.945,27.844,35.15,33.62c38.874,24.401,25.389,23.31,41.08,35.98c4.957,4.106,20.476,4.7,27.36,8.7   c51.114,28.663,9.258-11.322,81.48,48.77c0.646,3.898-10.793,4.212-15.51,8.22c-4.06,5.06-5.92,11.68-10.81,16.09   c-3.9,3.42-9.03,5.81-11.31,10.73c-1.35,2.39-1.71,5.41-3.69,7.4c-4.814,1.385-18.562-0.943-12.3,9.82   c5.781,8.279,23.063,18.145-2.71,44.34c-4.77,0.937-11.333-11.169-23.69-5.86c-16.7,6.793-17.157,7.108-36.57-9.38   c-9.032-9.214,5.475-13.299-2.43-29.24c-4.724,4.918-2.836,20.227-9.68,22.65c-5.84-5.75-6.86-14.34-11.64-20.74   c-4.24-4.22-10.08-6.4-14.4-10.55c-14.077-13.491-16.717-17.502-20.97-18.94c-45.503-13.785-25.073-5.784-49.32-20.78   c-27.591-19.516-14.025-12.444-26.47-24.47c-7.02-5.34-16.98-5.39-23.27-11.9c-8.01-8.68-11.7-20.18-17.83-30.09   c-14.448-23.727-22.941-11.127-36.66-20.34c-9.23-6.9-10.73-19.5-18.4-27.66c-26.182-23.159-20.643,25.67-52.82-82.21   c-0.31,0.01-0.95,0.02-1.27,0.03c-2.82,9.43-0.25,19.37,0.38,28.96c1.637,38.022,11.285,34.939,18.46,45.75   c0.439,3.131-27.884,21.617-31.38,28.57c1.96,1.13,3.94,2.25,5.99,3.26c54.811-49.5,68.124,3.475,69.53,5.8   c5.902,10.235,33.167,15.27,44.44,31.62c9.007,11.778-2.557,38.981-12.89,47.39c-6.191,5.724-16.919-10.339-32.96-9.68   c1.612,5.24,9.976,4.5,16.18,7.87c3.48,2.58,5.47,6.59,8.52,9.6c25.814,6.588,28.289-25.869,28.55-26.87   c7.26,1.74,12.13,9.03,19.91,9.32c6.383-0.145,5.752,5.925,50.66,37.29c9.8,6.97,22.92,4.86,33.17,10.87   c10.104,6.071,29.366,23.522,37.28,34.85c2.637,3.572,1.88,7.899,5.66,34.26c0.777,13.099,10.095,1.263,1.11,35.99   c-4.89-0.26-8.85-3.48-13.49-4.65c-4.13-1.43-8.54-1.39-12.78-2.19c-3.13-4.4-1.93-10.5-5-14.98c-2.43-3.62-5.25-6.95-7.64-10.59   c1.05-4.17,4.57-8.64,2.19-12.93c-3.6-7.3-12.78-9.41-16.51-16.56c-9.674-27.344-0.891-29.501-26.73-46.2   c-7.96-4.3-16.57-9.03-25.93-8.13c-0.02,1.25,0,2.52,0.07,3.8c13.257,7.417,39.14,14.853,41.16,37.1   c4.895,26.229,3.619,10.86,18.85,31.18c-1.21,4.91-5.3,8.7-6.05,13.67c2.6,4.88,8.51,7.08,11.31,11.89   c2.7,5.97,3.33,12.78,6.47,18.56c8.061,7.653,26.07,4.042,32.71,12.18c0.411,1.01,8.581,24.26,7.07,28.07   c-7.242,3.979-27.26,5.459-36.82,3.85c-13.851-2.226-67.761,6.634-79.92,15.91c0.42,1.18,0.79,2.4,1.34,3.56   c17.505,1.467,23.993-4.785,33.1-4.04c19.585,1.039,23.064,0.632,26.75-0.81c21.869-8.029,24.764-1.122,43.82-5.11   c25.777-5.018,22.379,7.762,36.45,16.78c59.609,38.197,44.836,41.048,72.95,62.04c2.29,1.78,5.21,3.19,6.17,6.17   c-32.441,1.953-28.674-0.175-36.07-9.42c-5.77-0.72-11.51,1.92-17.35,1.88c0.01,0.64,0.04,1.92,0.06,2.56   c7.975,5.594,14.5,1.162,16.21,8.88c-5.92,0.84-11.9,1.42-17.71,2.81c-1.97,1.42-2.46,4.23-4.49,5.59   c-3.62,1.48-7.71,1.77-11.1,3.8c-3.82,2.92-6.71,7.79-11.98,8.17c-10.46,0.733-47.438-16.55-48.08,4.18   c3.09-0.81,5.4-3.13,8.25-4.43c1.455-0.169,23.97,1.529,26.77,2.27c0.59,1.99-1.48,2.98-2.72,4.09   c-30.742,21.097-19.904,13.906-45.89,37.07c-14.905,12.567-58.55-21.156-65.64-5.59c14.644,4.149,47.682,12.945,63.29,12.38   c0.03,48.45,0.19,96.9-0.08,145.35c-1.25-5.04-3.36-9.76-5.53-14.44c-2.82,0.09-3.69,3.13-5.76,4.5c-1.85,1.46-4.31,1.44-6.51,1.89   c-0.01,0.67-0.03,2.01-0.04,2.68c4.03,0.56,7.33-1.78,10.8-3.35c1.44,6.15,4.34,12.03,4.14,18.48c-0.63-0.07-1.9-0.22-2.53-0.29   c-1.06-3.19-2.31-6.36-4.58-8.88c-20.296,3.563-14.688,1.718-19.86,5.97c-2.48,2.34-6.6,2.36-8.43,5.47   c-2.82,4.63-4.64,9.87-7.91,14.24c-2.82,2.78-8.14,3.22-8.98,7.69c5.215-0.13,11.971-6.992,16.08-14.59   c0.11,0.8,0.33,2.39,0.44,3.19c0.95-0.71,1.88-1.47,2.8-2.22c-0.65-1.08-1.43-2.07-2.09-3.1c1.89-1.58,3.8-3.13,5.67-4.73   c0.24,0.84,0.72,2.53,0.97,3.37c3.09-1.84,3.76-6.47,7.58-7.16c3.65-1.01,7.39-1.72,10.9-3.19c0.81,1.58,1.88,3.13,2.13,4.96   c-2.77,5.692-18.627,9.676-12.03,30.04c2.3-0.38,4.6-0.78,6.93-1.05c-5.05,8.82-7.07,19.02-8.15,29.03   c-0.48,5.51-7.49,8.05-6.92,13.94c0.66-0.05,1.99-0.15,2.65-0.2c11.584-20.723,5.266-13.663,9.08-22.96   c10.703-26.719,8.232-21.273,16.79-24.38c3.62-1.01,5.61-5.22,9.65-5.2c6.21-0.17,12.4-2.24,18.6-1.21   c5.81,3.47,7.56,10.62,9.86,16.54c0.62,0.19,1.85,0.57,2.47,0.76c-1.96-8.1-5.51-15.78-11.16-21.96   c20.872-5.653,36.481,11.575,39.21,13.04c-1.634-7.248-16.723-20.332-44.28-17.88c3.005-5.692,5.081-19.966,31.24-15.46   c-0.28-1.15-0.54-2.27-0.77-3.39c-4.74-1.44-9.52,0.63-14.31,0.41c-5.673,0.074-11.897-1.521-20.14,14.71   c-1.03-3.85-3.32-7.16-6.9-9c3.4-6.35,5.29-13.88,11.31-18.4c2.45-1.83,6.63-2.52,6.82-6.19   c-13.555-0.166-18.296,19.51-23.76,24.21c0.262-162.651-3.268-148.482,6.19-159.81c14.044-15.385,39.408-31.569,47.5-33.56   c7.41,0.75,14.36,4,21.75,4.84c7.97-4.9,11.56-14.53,19.56-19.44c12.132-7.713,18.515,4.233,25.56,3.6   c8.59-1.15,17.19-2.62,25.86-2.99c8.645,11.73,12.817,27.777,26.33,32.8c1.4,0.02,1.89-1.63,2.78-2.44   c-4.23-5.95-8.78-11.65-13.04-17.56c13.014-0.11,27.636,22.677,40.2,32.11c31.688,25.284,11.316,3.119,54.57,80.54   c4.03,9.3,15.36,12.89,18.72,22.6c-1.88,0.16-3.75,0.28-5.6,0.45c2.28,10.19,8.95,18.79,12.07,28.71   c0.73,6.53-0.33,13.15,0.39,19.7c3.447,13.171,9.29,3.484,8.75,34.09c-3.47,0.14-6.93,0.16-10.37-0.13c1.3-2.59,3.42-4.67,4.46-7.4   c-10.099-4.418-9.297-8.609-23.59-9.33c-0.58,1.18-1.06,2.42-1.41,3.71c5.04,3.77,11.48,3.51,17.27,5.22   c-1.51,2.64-2.86,5.55-5.35,7.42c-30.238-0.04-38.26-26.976-39.35-29.22c-1.21-0.13-2.4-0.23-3.59-0.29   c-1.298,14.356,8.829,15.331,8.03,23.22c-22.34,2.326-31.071-19.148-43.95-18.09c-1.4,5.02,3.52,7.63,5.98,11.17   c-24.688-7.208-16.226-22.971-25.85-29.5c-1.89-1.51-7-1.22-6.06,2.13c17.37,39.625,30.176,32.544,38.56,32.71   c1.001,0.47,17.252,10.83,31.01,8.18c20.715-2.756,10.276-0.271,29.66,4.82c2.65,0.96,6.22,1.22,7.25,4.37   c-2.51,1.32-4.87,3.17-7.68,3.76c-24.383-2.14-27.346-7.863-32.93-9.59c-3.71,0.44-3.79,4.83-4.16,7.69   c9.371,5.436,14.65,2.482,35.37,10.97c4.07,1.839,9.304-9.394,16-6.07c31.337,11.99,28.354,9.905,27.35,20.91   c-1.93,9.71,1.11,19.42,1.17,29.13c-9.166,60.243,7.618,35.031-0.26,108.75c-7.379,46.268-11.518,101.943-19.17,107.97   c2.69-4.78,1.54-10.86,5.08-15.15c0.9-1.6,0.46-3.58,0.66-5.3c-1.58-0.07-3.13-0.03-4.67,0.1c-1.78,5.52-3.7,11.64-8.39,15.38   c0.33-8.2,6.77-14.07,8.89-21.62c0.81-2.54-2.52-3.66-4.33-2.57c-2.23,3.28-4.29,6.69-6.53,9.97c0.17-4.99-1.1-10.36,1.28-14.99   c0.8-1.64,0.66-3.51,0.8-5.25c-1.39-0.05-2.76-0.05-4.12-0.01c0.2,1.78,0.3,3.62,0.56,5.43c-1.65,1.33-3.5,2.6-4.39,4.6   c-0.92,1.55-1.41,3.57-3.24,4.32c-0.98-8.85,6.8-14.63,9.38-22.28c-1.72-0.12-3.41-0.14-5.1-0.09c-1.15,1.04-2.27,2.11-3.38,3.2   c0.227-13.624,7.055-11.383,9.38-24.15c-10.795-5.497-13.734,17.502-18.94,22.22c-3.94,3.79-6.7,8.54-9.25,13.33   c-1.96-0.33-3.93-0.47-5.88-0.67c0.43,6.6-1.06,13.62-5.92,18.42c-4.353-9.22,4.372-8.119-5-14.7c0.48-6.6-3.33-12.14-6.53-17.54   c-1.63-0.11-3.26-0.18-4.86-0.1c-0.34,3.134,11.042,19.502,8.78,27.6c-0.83,3.43-1.6,6.88-1.9,10.41   c-0.63-0.02-1.89-0.06-2.52-0.08c-0.282-1-2.752-16.127-3.3-27.21c-6.651,1.02-3.36,3.26-7.17,14.19c-0.34-0.03-1.01-0.1-1.35-0.13   c-7.209-16.014-8.44-21.68-8.44-21.68c-1.87-1.52-4.28-2.43-5.67-4.46c-0.44-2.88-0.27-5.79-0.37-8.66   c-1.57-0.08-3.12-0.01-4.65,0.09c-2.38,2.78-4,6.09-6.11,9.07c-2.96,3.29-6.32,6.25-8.94,9.84c-0.71-3-1.46-5.98-2.41-8.89   c-1.66-0.11-3.32-0.14-4.95-0.07c0.56,5,2.88,9.7,3.04,14.76c-3.72,5.56-5.85,11.98-8.34,18.15c-0.75-0.48-1.5-0.91-2.25-1.29   c-2.67-7.17-0.32-14.6-0.27-21.92c-2.1,0.33-4.05,1.15-5.85,2.25c-3.417-10.863-6.975-9.866-6.13-13.87   c4.3-21.498,12.29-15.207,11.92-32.29c-9.352,1.434-1.292,0.261-17.38,23.42c-0.66-2.1-2.12-4.36-0.92-6.52   c1.99-3.84,0.9-8.8,3.96-12.12c1.33-1.3,1.44-3.12,1.52-4.85c-5.25,1.16-9.03,5.39-13.27,8.41c1.23-2.57,2.22-5.27,2.17-8.16   c-0.03-4.87,3.6-8.65,4.6-13.26c2.799-15.579,10.572-15.63,9.48-23.84c-14.044-0.613-17.438,24.13-18.88,27.28   c-5.006,4.418-4.065,0.685-8.97,10.11c-2.04,0.6-4.05,1.26-6.05,1.93c0.39,7.59-4.31,14.74-10.27,19.06   c0.09-3.79,0.76-7.51,1.16-11.26c-0.67,0-2.03,0.01-2.71,0.02c-0.21,4.16-3.25,7.28-4.22,11.23c-0.53,0.28-1.57,0.83-2.09,1.1   c-2.769-7.378,1.515-7.314-4.15-15.58c0.25-2.31,0.73-4.57,1.12-6.82c-1.49-0.66-3.05-1.02-4.64-1.14   c-0.321,2.132-6.557,24.697-6.87,25.44c-2.23-1.69-4.85-2.53-7.59-1.78c0.694-30.149,2.523-11.059,1.95-30.48   c-1.63-0.07-3.24-0.06-4.84,0.02c-1.09,4.25-0.84,8.66-1.03,13.01c-0.13,6.28-5.71,11.05-5.15,17.48   c-1.87-0.27-3.76-0.64-5.63-0.43c-2.6,1.38-4.92,3.68-8.12,3.22c0.13,4.48-0.87,8.92-0.76,13.4c0.92,5.31,0.62,11.47-3.11,15.7   c-2.014-18.613-11.621-41.868-31.48-88.57c-11.983,1.317-35.934,50.241-37.52,52.62c0.097-1.193,3.148-28.072,2.69-31.72   c-1.64,0.41-3.25,0.88-4.85,1.4c-0.724,17.517,0.133,0.339-5.53,29.17c-5.69-7.28-5.32-17.12-9.77-25.02   c-1.11-5.68-2.1-11.44-5.05-16.53c-2.62,0.44-5.13,1.44-7.37,2.87c-2.183,6.096,11.926,43.81,12.3,44.81   c2.154,4.681,7.06,9.589-2.31,25.93c-1.521-3.711-7.279-25.231-9.64-31c-1.12-0.26-2.23-0.52-3.33-0.77   c-0.27-1.2-0.53-2.38-0.78-3.54c-1.5-0.11-3-0.12-4.47-0.03c-2.03,4.92-0.85,10.78-3.7,15.34c-0.75-4.04-1.49-8.08-2.68-12.01   c-1.26-0.25-2.51-0.48-3.75-0.71c-0.89-8.98,4.06-17.04,7.82-24.8c0.42-2.62,0.15-5.29,0.1-7.9c-0.7,0.02-2.11,0.06-2.81,0.08   c-7.079,12.288-3.183,12.018-11.86,21.49c-0.67,3.13,1.46,6.45-0.13,9.5c-3.984,9.336-6.347,27.168-8.68,31.3   c-1.76-9.68-4.38-19.23-4.85-29.06c-2.735-6.178-1.583-33.568-6.8-51.22c-1.6-0.09-3.18-0.1-4.75-0.02   c-0.056,0.998,5.345,55.462,8.19,71.59c-4.881-6.316-19.465-63.389-22.4-68.71c-1.52,0.05-3.02,0.2-4.5,0.46   c-1.63,4.76,1.6,8.82,3.16,13.05c1.03,4.37,1.01,8.91,1.08,13.38c4.209,14.032,3.37,25.545,3.53,28.19   c0.063,1.082,7.309,32.971,5.6,36.27c-4.36-10.12-8.47-20.42-10.75-31.23c-2.25-6.01-2.68-12.68-6.18-18.16   c-9.589,1.37-2.903,2.037,0.12,23.88c-1.01,0.4-1.99,0.84-2.95,1.33c-2.39-4.99-3.26-10.52-4.15-15.92   c-0.043-2.334-10.345-11.335-17.05-11.31c0.81,5.07,4.26,9.14,7.29,13.1c8.25,5.866,0.676,7.375,18.49,60.51   c0.66,3.19,1.49,7.39-1.23,9.89c-2.54-5.52-5.32-10.96-6.76-16.9c-5.04-5.22-7.56-12.1-10.39-18.63   c-0.12-3.91,2.42-7.56,1.71-11.49c-3.141-5.736-7.949,4.864-15.6,6.18c-1.324,13.513-5.92,11-9.87,18.84   c-1.5,2.88-2.76,6.04-5.52,8c0.2-6.68,5.36-11.83,6.33-18.31c-1.27-0.09-2.52-0.02-3.75,0.2c-2.39,4.38-5.15,8.58-8.52,12.28   c-0.44-0.47-1.32-1.42-1.76-1.9c-0.26-5,1.39-9.91,1.81-14.88c-6.595,0.288-7.017,8.915-9.95,10.74   c0.277-1,7.505-40.299,13.84-47.57c1.16-1.82,3.66-3.31,3.14-5.74c0-1.91-2.19-2.62-3.72-2.07   c-7.072,7.14-8.478,19.992-14.74,30.48c-1.64,0.31-3.26,0.68-4.87,1.06c-1.63,2.66-3.46,5.2-5.71,7.38   c-2.62,2.61-2.61,7.06-5.77,9.17c-3.81,1.33-7.76,2.31-11.44,4.01c0.65,2.93,1.99,5.67,2.64,8.61c-0.49,2.42-1.66,4.68-3.24,6.59   c-1.06-2.68-0.86-5.5-0.24-8.23c-3.64-3.63-2.46-9.06-4.76-13.31c-1.74-3.37-1.13-7.26-1.32-10.88c-1.2,0.01-2.38,0.04-3.56,0.11   c-1.481,3.83-4.311,24.658-12.74,30.24c-2.252-11.175-2.738-2.22-3.73-16.48c-1.49,0.35-3.9-0.35-4.57,1.49   c-0.82,4.68,0.4,9.54-0.64,14.2c-1.29,2.1-2.96,3.94-4.6,5.78c2.57-9.7-1.37-19.3-2.32-28.9c-2.77-2.24-6.18-2.83-9.65-2.45   c-0.481,19.665,7.001,10.908-0.52,31.62c-0.34,0.18-1.03,0.54-1.37,0.72c-2.803-13.827-7.19-32.225-15.7-29.07   c-6.663,5.671-2.47,7.723-0.37,10.1c-0.35,2.96-0.93,5.9-1.39,8.87c-3.06-1.06-6.5-3.49-9.61-1.17c-3.29,1.11-3.98,5.19-7.21,6.42   c1.73-4.23,5.51-7.08,7.61-11.09c1.5,0.18,3,0.37,4.52,0.6c0-2.05-0.01-4.09-0.04-6.11c-3.1,1.26-6.37,1.85-9.69,1.25   c-2.96,5.97-7.41,11.65-13.34,14.88c-0.88,2.93-1.14,6.25-3.33,8.6c-1.84,1.83-5.01,2.65-5.35,5.61c-1.03,4.72-3,9.17-5.98,12.99   c-1.71-2.71,0.38-6.09-1.37-8.87c-1.35-0.24-2.69-0.47-4.02-0.68c0.27-4.32,1.72-8.43,2.29-12.68c-2.94-0.24-5.84,0.29-8.38,1.83   c0.938-4.231,4.986-20.085,9.23-22.95c0.01-1.29-0.01-2.55-0.04-3.79c-1.33-0.1-2.64-0.13-3.95-0.09   c-0.84,4.62-2.57,9.03-5.96,12.41c-1.37-7.1,3.16-13.54,1.86-20.63c-8.491,1.71-4.032,11.836-8.23,19.45   c-8.834-15.902-6.537-20.752-11.82-28.48c0.37-4.82-0.17-9.7-3.22-13.63c-2.26-0.06-4.51-0.08-6.76-0.08   c1.685,13.537,13.11,43.267,15.85,48.26c0.49,3.4,0.23,6.85,0.37,10.29c1.31,0.65,2.64,1.3,3.97,1.99   c-1.76,6.73-2.78,14.13-7.11,19.8c0.37-3.47,0.96-6.9,1.1-10.37c-0.73,0.02-2.2,0.06-2.93,0.08c-4.11,5.42-3.78,12.79-7.83,18.27   c-0.23-1.55-0.44-3.07-0.65-4.57c-1.84,0.71-3.66,1.46-5.45,2.29c-0.21-3.05-0.67-6.06-1.4-9.01c-0.68-0.01-2.04-0.03-2.72-0.04   c-1.66,4.31-0.91,8.97-1.31,13.47c-1.37-1.64-1.89-3.7-2.33-5.72c-3.67-1.29-2.29-5.58-2.46-8.52c1.7-0.17,3.41-0.32,5.12-0.44   c0-3.16-0.74-6.21-1.63-9.19c-1.18-4.26,0.29-8.85-1.07-13.02c-1.36-0.65-2.9-0.57-4.34-0.73c-1.415,32.693,0.633,0.844-4.57,31.52   c-10.14,3.514-2.691-0.002-5.73,16.4c-1.94,0.35-3.87,0.8-5.78,1.26c-0.23-5.35,0.8-10.91-1.13-16.04   c-0.65,0.01-1.96,0.05-2.62,0.06c-1.34,2.69-0.82,7.41-4.31,8.24c1.877-18.592,1.018-9.521-1.76-21.47   c-0.59-1.35,0.85-2.2,1.49-3.12c2.01,4.5,2.36,9.45,3.58,14.18c1.49,0.11,2.99,0.16,4.5,0.15c0.32-4.53,1.28-9,1.27-13.54   c-1.73-0.43-3.39-1.02-5.09-1.49c0.4-1.9,0.62-3.82,1.01-5.7c-7.01-8.07-4.33-19.68-7.02-29.26c-0.71-0.01-2.13-0.03-2.83-0.04   c0,23.932,4.632,21.643,2.63,30.56c-0.37,0.46-1.12,1.38-1.49,1.84c-0.001-0.002-18.34-62.36-18.34-62.36   c-0.73-0.01-2.17-0.04-2.9-0.05c-0.11,3.769,3.698,32.483,4.1,34.01c0.66,0.02,1.96,0.04,2.62,0.06c0.19-1.48,0.38-2.93,0.59-4.36   c1.298,3.676,9.361,34.532,9.61,35.54c-1.52,0.55-3.12,0.78-4.69,1.04c-0.13-2.1-0.33-4.18-0.42-6.26   c-1.27-0.03-2.52-0.03-3.77-0.01c-1.208,21.573,5.611,1.93-6.29,23.02c-0.58-0.03-1.76-0.08-2.34-0.1c-1.59-2.7-2.7-5.63-2.69-8.79   c-1.34-0.45-2.7-0.81-4.02-1.25c-0.65,1.11-1.3,2.24-1.94,3.39c0.17-3.38,3.48-6.38,1.79-9.78   c-12.179-27.506-6.691-35.341-20.71-36.55c-0.62,5.16,4.03,7.93,6.94,11.29c0.761,1.988,12.251,52.52,12.33,53.52   c-5.97,4.49-6.21,12.63-9.93,18.65c-1.14-10.92,1.54-21.69,1.87-32.55c-1.5,0.13-3.06,0.1-4.47,0.68   c-0.86,3.28-0.19,6.94-2.11,9.94c-1.8,3.14-1.11,7.02-2.81,10.21c-1.75,3.41-3.39,6.89-4.26,10.66   c-3.266-2.877-10.404-27.003-13.75-34.49c-3.75-0.1-5.45,3.91-8.32,5.7c-1.09,3.1,0.25,6.39,1.27,9.35   c-2.26,3.92-4.63,7.79-7.54,11.29c0,1.06-0.39,3.2-1.94,2.68c-0.92-1.24,0.74-2.67,1.94-2.68c0.5-5.02,6.12-8.04,5.01-13.36   c-2.83-0.14-5.27,1.13-7.23,3.09c0.89-3.24,1.28-6.59,1.23-9.93c-1.35,0.23-2.69,0.51-4.02,0.82   c7.203-16.845,9.96-13.692,9.96-24.85c-1.19-0.03-2.37,0.06-3.53,0.28c-7.94,12.72-15.1,26.11-25.49,37.07   c-0.747-13.581,4.807-12.787,12.25-31.53c-4.58,0.49-6.62,5.24-9.14,8.5c5.095-38.686,15.82-40.289,15.91-53.47   c-13.547,0.879-17.362,26.469-17.71,27.47c-0.99,1.21-2.73,1.34-4.07,2.02c-3.34,0.96-3.96,4.9-5.52,7.55   c-1.95-0.47-3.62-1.68-5.59-2.04c-0.12,3.28,0.09,6.6-0.39,9.87c-1.02,2.5-4.52,3.1-4.82,6.03c-1.07,4.8-3.55,9.13-7.08,12.53   c-0.814-2.302,3.287-16.279,6.21-18.52c-0.31-1.28-0.76-2.51-1.29-3.67c-1.12-0.05-2.23-0.06-3.34-0.02   c-1.26,5.27-1.68,11.76-6.42,15.24c-5.261-14.359-3.812-18.244-4.06-23.26c-1.3-0.07-2.59-0.07-3.89-0.01   c0,0-8.272,32.759-11.86,41.31c-3.637,6.903-6.775-20.597-0.8-42.9c0.45-2.24,1.21-4.72,0.08-6.86c-1.07-0.32-2.15-0.58-3.23-0.78   c-8.262,14.285-0.235,16.208-6.09,28.28c-1.419,2.667-0.708,19.88-8.29,22.2c1.41-3.76,3.31-7.38,4.1-11.32   c-3.757-11.291,2.588-15.087,3.2-22.18c-5.57,0.9-7.76,6.89-10.12,11.29c-1.62,3.85-6.04,5.86-6.77,10.2   c-1.38,4.26-3.2,9.88-8.06,11.07c-1.284-13.387,4-12.331,4-18.28c-0.75-0.01-2.26-0.04-3.01-0.05c-1.43,1.4-2.67,3-4.24,4.28   c-1.57-4.46,0.2-9.29,0.56-13.83c2.15-4.67,3.98-9.47,4.74-14.58c6.328,10.658,4.303,7.143,4.83,22.16   c1.28,0.02,2.57,0.03,3.86,0.02c2.05-3.81,3.29-8.78,0.63-12.61c-2.626-3.882-4.469-17.513-3.41-19.19   c1.83-3.22,2.19-6.88,1.8-10.5c-3.82,0.56-7.1,2.82-10.08,5.14c-6.25,16.035-6.403,15.23-7.11,22.14   c-5.431-2.904-1.921,1.278-9.31-13.5c-6.693-12.784-6.779-3.104-8.57-20.62c-1.51,0.07-3.03,0.07-4.51,0.34   c-2.73,2.06-4.05,5.36-6.22,7.93c-1.97,2.68-5.14,4.25-6.88,7.14c-1.117,1.64-18.97,34.19-18.97,34.19   c0.064-1.001,2.807-34.704,2.75-37.59c-1.53,0.07-3.05,0.23-4.56,0.49c-0.865,9.162-6.089,29.057-6.86,40.05   c-5.726-10.347-10.729-34.137-14.86-43.7c-3.24,0.77-7.67,1.82-8.72,5.42c0.46,3.15,2.08,6.07,2.06,9.33   c-0.75,0.25-2.25,0.74-3,0.98c-0.486,13.199,0.587,9.079,5.63,21.76c0.38,4.59,0.58,9.22,1.51,13.78c0.67,0.01,2.01,0.02,2.68,0.03   c5.691-11.977-3.933-11.681-1.85-21.44c0.847,1.689,9.913,22.418,6.76,30.61c-1.99-0.62-3.72-1.83-5.71-2.4   c-2.985,8.001,1.669,5.898-4.32,18.02c0.97,0.79,1.93,1.62,2.85,2.5c-0.29,1.24-0.61,2.47-0.95,3.73   c-1.16-2.24-2.73-4.21-5.34-4.63c-8.664-20.714-3.386-26.435-3.47-39.66c-1.6,0.39-3.19,0.85-4.77,1.37   c-0.08,2.43-0.19,4.87-0.42,7.32c-14.973-23.544,0.548-20.537-0.76-37.73c-1.59,0.42-3.15,0.91-4.72,1.42   c-1.1,3.88-2.39,7.73-4.48,11.22c-6.66-4.03-8.12-12.22-8.99-19.33c-1.51-0.1-3.01-0.06-4.5,0.05c-2.34,2.96-4.59,6.12-5.54,9.84   c1.75-0.15,3.51-0.33,5.27-0.36c1.45,0.84,0.84,2.69,1.13,4.08c-2.44,1.27-4.8,2.69-7.05,4.29c-0.09-1.55-0.2-3.07-0.3-4.57   c-1.21-0.93-2.43-1.85-3.64-2.75c-0.14-7.58,0.11-15.29-2.28-22.6c-1.53-0.08-3.05-0.07-4.57,0.03c-0.57,1.79-1.26,3.55-1.76,5.4   c-3.52,0.77-6.52,2.98-8.08,6.26c-0.51,0.1-1.53,0.28-2.04,0.38c-0.33-3.33-1.13-6.68-3.58-9.09c-0.68-0.02-2.03-0.06-2.7-0.07   c-0.7,1.35-1.58,2.66-1.93,4.19c0.71,3.8,3.15,7.06,3.82,10.88c-1.12,4.55-3.57,8.83-6.86,12.19c-2.69,2.96-3.92,6.9-6.37,10.05   c-3.92-5.97-6.17-12.88-8.46-19.58c-1.5-0.41-3-0.78-4.5-1.1c0.67-6.46,7-10.25,8.25-16.46c-1.403-12.57-24.327,20.624-29.09,34.44   c-1.46-0.9-3.08-1.45-4.75-1.78c-1.17,3.8-0.86,7.86-1.72,11.7c-2.56,2.69-3.22,6.98-6.44,8.96c-1.807-6.934,3.95-8.107,3.95-21.41   c-1.59-0.06-3.17-0.03-4.75,0.08c-1.04,3.8-1.79,7.67-2.7,11.51c-1.67,4.6-4.39,8.82-5.21,13.73c-1.47-2.92-1.43-6.19-1.39-9.36   c0.17-4.77-2.41-9.14-2.03-13.93c-0.81-13.657,2.652-1.18-3.38-24.93c-1.5-0.14-3-0.18-4.5-0.11   c-0.737,18.436,6.39,9.258-2.72,37.17c-8.902-13.315-3.462-22.891-11.55-34.09c-1.59-0.11-3.19-0.14-4.78-0.08   c-0.78,4.69,0.98,9.02,2.78,13.24c1.02,6.66-2.32,13.15-1.32,19.85c0.53,3.04-3.27,3.29-4.42,5.3c-0.03,4.03,1.39,7.97,0.89,12.04   c-1.11-4.02-2.16-9.95-7.57-9.64c-0.27,1.53-0.56,3.08-0.85,4.65c-2.25-2.87-1.27-6.7-1.92-10.03   c-0.977-10.318-5.209-10.51-1.69-19.53c1.48,1.5,3.08,2.99,5.25,3.42c-0.23-2.87-1.38-5.51-2-8.28c0.86-3.44,1.67-6.9,2.64-10.3   c2.11-3.83,5.72-7.18,5.35-11.94c-10.452,1.418-4.099,9.337-18.17,17.49c0.04-1.26,0.1-2.5,0.17-3.72c1.31-0.6,2.63-1.18,3.91-1.83   c0.18-2.82,0.45-7.82-3.86-6.75c-6.32,3.99-9.48,10.94-14.29,16.37c5.217-34.252,17.17-37.268,16.05-51.48   c-9.069-1.101-16.595,18.026-19.66,25.44c-3.27,3.9-6.14,8.1-9.26,12.13c-2.03-3.67-0.29-7.76,0.02-11.59   c-8.072-0.924-17.621,19.243-23.7,24.52c-3.02-5.7-2.33-12.19-2.43-18.38c-1.24,0-2.48,0.03-3.71,0.1   c-2.27,5.72-2.73,12.3-6.98,17.09c1.94,6.58-0.69,13.2-3.14,19.26c-1.56-6.24,3.27-11.83,1.54-17.99c-1.13-0.34-2.27-0.5-3.44-0.46   c-1.9,4.59-2.17,9.54-2.49,14.44c-2.879-9.298,1.342-8.84,1.2-38.45c-1.22,0-2.44,0.04-3.66,0.12c-3.57,5.68-1.38,12.58-3.34,18.73   c-0.89,5.93-3.43,11.44-4.29,17.38c-2.64-3.98-3.63-8.63-4.7-13.2c-6.069-14.308-7.434-7.856-9.87-18.06   c-0.89-4.77-2.6-9.66-6.15-13.1c-5.578-0.418-1.591,7.251,0.79,18.58c4.377,10.475,4.462,42.169,4.74,43.17   c1.14,4.41,1.13,10.19-3.2,12.89c-0.445-7.518,0.806-6.751-6.66-30.02c-1.57-4.79,0.65-9.64,0.52-14.47   c0.33-4.28-3.76-7.27-3.44-11.61c-0.66-0.2-1.99-0.6-2.65-0.8v6.47c1.6,0.74,1.6,1.34,0,1.79v30.37   c6.075,13.388,1.579,14.72,0,16.75v252.675v14.965v2.41h1.83h11.295H1920c0-21.808,0-333.315,0-346.26   C1916.145,1564.555,1909.739,1538.994,1906.59,1532.82z M1641.05,1351.51c-11.77,2.8-23.09,7.4-34.98,9.67   c-2.68-9.64-4.99-19.43-6.15-29.37C1613.249,1335.694,1640.248,1347.726,1641.05,1351.51z M1715.73,1378.13   c1.69-5.36,2.99-10.83,4.51-16.23c2.85,1.05,5.58,2.47,8.55,3.24c0.1-6.22,1.5-12.32,1.25-18.55c1.59,0.66,3.18,1.42,4.79,2.13   c1.12-7.03,1.46-14.44,4.06-21.08c0,0-0.97,36.728-0.97,36.73c-1.67-1.49-3.22-3.08-4.88-4.54c-1.93,6.65-1.81,13.73-4.17,20.28   c-1.48-1.2-2.94-2.44-4.59-3.34c-2,6-2.87,12.29-4.58,18.38c-3.75-0.77-6.47-4.12-10.38-4.28c-2.08,5.68-3.94,11.46-5.67,17.26   c-4.52-0.85-7.84-4.7-12.47-5.34c-2.89,5.93-3.95,12.6-7.22,18.36c-5.19-0.68-9.19-3.96-13.63-6.32c-1.84,3.71-3.52,7.5-5.39,11.2   c-5.21-2.31-9.79-6.41-15.57-7.12c-1.81,4.44-3.9,8.77-5.75,13.2c-7.68-1.78-14.66-6.57-18.68-13.39   c-3.15,3.9-5.02,8.62-7.89,12.71c-6.05-3.25-6.65-10.76-9.16-16.44c-1.71,1.59-2.75,4.17-4.91,5.08c-3.39-2.9-3.93-8.13-7.48-11   c-1.65,2.68-2.89,5.63-4.97,8.02c-3.24-5.65-5.99-11.69-9.69-17.01c-2.99,0.33-2,4.93-3.17,7.1   c-0.554-1.002-11.509-30.794-12.54-36.76c0.701,0.572,8.633,17.717,9.71,19.86c1.32-1.18,2.65-2.35,4.03-3.46   c2.92,5.2,4,11.42,7.78,16.11c3.29-3.23,5.66-7.2,8.04-11.1c2.22,5.1,3.32,10.73,6.28,15.51c2.6-2.06,3.64-5.34,5.92-7.67   c3.69,4.89,5.81,10.83,9.88,15.45c2.53-4.15,4.2-8.75,6.58-12.98c0.34,0.01,1.03,0.03,1.38,0.05   c9.578,11.62,10.747,15.347,14.01,15.97c2.56-5.37,4.68-11,7.86-16.05c10.052,9.564,9.735,11.023,12.86,10.71   c2.36-6.2,4.09-12.73,7.3-18.56c0.841,1,10.231,12.153,13.02,12.93c2.63-5.39,4.65-11.05,7.41-16.37   c4.93,0.49,8.41,4.42,12.73,6.44c3.56-7.2,3.89-15.62,7.71-22.71C1710.2,1375.97,1712.7,1377.78,1715.73,1378.13z M1696.94,1305.62   c4.57,7.25,10.18,14.03,13.02,22.23c-11.23,4.13-22.82,7.15-34.06,11.23C1682.83,1327.88,1689.59,1316.54,1696.94,1305.62z    M1677.55,1375.23c-6.62-0.36-12.53-4.26-19.2-4.2c-2.95,4.56-5.33,9.67-9.32,13.45c0.11-9.79,3.33-20.16,10.19-27.34   C1665.024,1359.074,1675.357,1369.814,1677.55,1375.23z M1693.22,852.04c-3.32,0.89-6.11-0.74-8.19-3.18   c-0.01-0.73-0.03-2.19-0.04-2.92C1689.02,845.03,1692.22,848.43,1693.22,852.04z M1292.19,577.21   c3.435-2.475,1.859,15.654-2.1,16.12C1285.547,591.741,1289.152,580.5,1292.19,577.21z M1126.86,693.13   c-27.771-2.961-46.062-48.176-47.08-61.34c5.601,0.824,9.126,11.176,14.12,17.27C1105.473,662.076,1136.782,680.275,1126.86,693.13   z M1049.92,1110.06c-0.69-3.19,1.76-5.44,3.82-7.42c0.9-1.3,2.44-0.27,3.43,0.31C1056.61,1106.81,1053.5,1109.13,1049.92,1110.06z    M867.08,1577.33c0.35-2.14-1.6-6.85,1.92-6.48C868.42,1573.01,868.47,1575.46,867.08,1577.33z M44.95,1665.3   c1.93-11.31,5.18-22.63,10.91-32.61C60.651,1641.192,48.155,1662.396,44.95,1665.3z M74.9,1605.15c0.18-2.28-0.05-6.47,3.19-6.29   C77.93,1601.13,78.16,1605.31,74.9,1605.15z M78.84,1641.58c-1.33-0.24-1.56-0.96-0.68-2.16   C79.49,1639.62,79.72,1640.34,78.84,1641.58z M85.13,1631.35c-0.27-5.55-0.41-11.13-0.01-16.67   C88.86,1619.58,88.37,1626.3,85.13,1631.35z M89.41,1608.85c-0.85-1.12-0.07-2.89,0.99-3.53   C92.15,1605.63,91.26,1609.71,89.41,1608.85z M110.92,1635.9c1.24-1.34,0.98-3.29,1.31-4.92l0.97,0.13   c-0.38,2.55-0.96,5.1-1.31,7.68c0.73,1.15,1.46,2.32,2.16,3.53c-1.74-0.72-3.61-1.29-5.01-2.6   C108.42,1638.02,110.09,1637.07,110.92,1635.9z M100.06,1673.26c1.04-4.06,0.99-8.26,0.99-12.4c0.43,0.07,1.29,0.21,1.72,0.28   C103.1,1665.04,105.47,1671.94,100.06,1673.26z M99.79,1629.01c-2.02,0.52-2.15-1.86-2.95-3.08c2.4-3.1,4.09-6.88,7.35-9.19   C104.19,1616.741,99.791,1629.009,99.79,1629.01z M105.1,1612.26c0.87-0.84,1.76-1.64,2.67-2.41c0.29,1.74,0.59,3.52,1.03,5.27   c-1.28-0.06-2.56-0.14-3.84-0.22C104.99,1614.24,105.06,1612.92,105.1,1612.26z M106.23,1644.81c3.33,0.46,3.98,4.19,5.34,6.66   c1.27,1.44,2.61,2.84,3.67,4.48c-1.68,2.87-3.71,5.52-5.79,8.12C107.06,1658.08,103.03,1651.25,106.23,1644.81z M111.98,1675.29   c-0.38-3.98,1.89-7.46,3.99-10.6C116.51,1668.59,115.06,1672.77,111.98,1675.29z M140.99,1655.98l-0.94,0.03   c0.45-5.85-1.68-11.53-0.94-17.37C141.656,1642.277,140.956,1641.083,140.99,1655.98z M155.91,1655.34   c-1.36-1.91-1.38-4.35-1.93-6.53C157.53,1648.45,155.56,1653.18,155.91,1655.34z M184.98,1641.28c0-2.34-0.13-6.65,3.2-6.42   C187.36,1637.1,186.31,1639.28,184.98,1641.28z M196.84,1633.15c1.51-3.9,2.97-7.89,3.17-12.11c-0.15-1.49,0.75-2.54,1.86-3.34   c0.72,1.31,1.4,2.72,1.21,4.31c0.44,2.56-2.57,3.75-2.87,6.16C199.42,1630.03,199.73,1633.52,196.84,1633.15z M207.91,1642.82   c-1.9,3.1-4.34,5.84-6.05,9.08c-0.98-0.38-1.95-0.79-2.9-1.21c-0.33-5.27,5.49-8.51,5.39-13.86   C206.88,1637.2,208.43,1640.5,207.91,1642.82z M208.85,1669.21c0.17-2.54,1.8-4.58,2.4-6.97c0.79-2.46,0.66-5.07,0.95-7.58   C216.063,1663.498,213.057,1666.032,208.85,1669.21z M223.8,1647.3c-1.95-2.9-3.76-6.44-2.51-9.98c1.37-3.18,3.18-6.25,5.74-8.6   C226.6,1635.04,223.99,1640.96,223.8,1647.3z M235.3,1625.69c3.72,4.98,0.55,11.19-0.62,16.51   C230.966,1638.799,233.963,1639.333,235.3,1625.69z M234.69,1669.79c1.07-2.35,2.22-4.66,3.42-6.93c-0.66-1.57-1.85-2.98-2.01-4.69   c0.26-1.64,0.95-3.14,1.76-4.54c0.35,2.73,2.02,12.83,2.11,15.15C238.19,1669.03,236.44,1669.39,234.69,1669.79z M240.39,1606.31   c1.11-4.69,4.37-8.93,8.31-11.59c1.51,6.94,1.62,14.09,1.18,21.16c-1.04,3-2.31,6.16-4.71,8.37   C242.27,1618.74,240.49,1612.53,240.39,1606.31z M246.98,1660.3c-0.9-1.38-1.71-3.4-0.72-4.87   C247.645,1655.4,248.831,1662.215,246.98,1660.3z M248.75,1630.86c0.63-1.68,1-4.13,3.26-4.08c-0.07,3.85,0.24,8.56-2.73,11.48   C248.93,1635.81,247.76,1633.28,248.75,1630.86z M252.84,1646.58c-1.34-0.23-1.57-0.95-0.69-2.16   C253.49,1644.61,253.71,1645.33,252.84,1646.58z M271.09,1671.35c-0.27-3.02-0.49-6.38,1.82-8.7   C273.16,1665.63,273.39,1669.02,271.09,1671.35z M270.71,1638.75c-1.28,0.14-2.56,0.31-3.83,0.5c0.03,3.57,2.47,7.06,1.03,10.59   c-1.49,4.46-0.04,9.74-3.71,13.41c-2.348-7.009-7.477-29.914-1.58-34.7c0.36-4.5,1.38-9.1,4.67-12.42   c3.85-0.22,6.34,5.08,5.31,8.46c-1.01,2.58,0.59,5.02,1.42,7.42C272.96,1634.26,271.83,1636.49,270.71,1638.75z M274.81,1647.95   c0.17-1.96,0.81-3.82,2.09-5.31c0.1,1.77,0.09,3.57,0.11,5.38C276.46,1648,275.36,1647.96,274.81,1647.95z M287.68,1684.75   c-0.42,0.11-1.26,0.33-1.68,0.44c-0.18-2.79-0.09-5.61,1.21-8.12c0.65-0.06,1.97-0.18,2.62-0.24   C289.09,1679.45,288.67,1682.18,287.68,1684.75z M355.27,1598.47c2.23-1.24,4.02-3.38,6.67-3.69c0.05,2,0.08,4.03,0.07,6.06   c-1.55,0.07-3.08,0.23-4.62,0.36c-0.85,1.85-1.81,3.7-3.3,5.16C354.51,1603.72,354.96,1601.1,355.27,1598.47z M340.29,1683.3   c-2.199-17.995-0.244-9.086,0.72-22.28c0.13-2.41,0.75-4.79,2.04-6.83C346.977,1660.024,342.314,1676.745,340.29,1683.3z    M347.03,1635c-0.02-3.36-0.04-6.71-0.09-10.04c-0.69,0.02-2.06,0.07-2.74,0.1c-5.41,5.811-4.565,27.077-13.21,38.29   c-1.04-0.82-1.97-1.74-2.86-2.69c-0.35-3.43,0.67-6.87,1.36-10.19c5.52-10.32,9.24-21.47,15.66-31.31   c1.22-0.13,2.45-0.24,3.68-0.34c-0.2-3.69,1.01-7.17,3.18-10.11c-0.1,4.38-1.18,8.68-1.22,13.1c-2.13,4.1-1.91,8.69-1.82,13.19   C348.48,1635,347.51,1635,347.03,1635z M365.09,1662.27C368.38,1662.43,363.55,1665.27,365.09,1662.27L365.09,1662.27z    M366.1,1658.26C369.39,1658.42,364.56,1661.27,366.1,1658.26L366.1,1658.26z M372.57,1628.68c-1.86-0.31-3.73-0.44-5.59-0.1   c-0.56-1.83-0.91-3.71-1.29-5.55c-1.57-0.04-3.14-0.07-4.7-0.04c-0.04,1.59-0.07,3.21,0.07,4.84   c1.014,2.528,12.464,11.223-6.01,30.49c-0.43-2.45,0.09-4.75,1.63-6.67c0.13-3.08,1.82-5.67,2.52-8.58   c-1.29-0.09-2.59-0.1-3.88-0.04c-0.15,2.91-2.51,5.02-2.64,7.96c-0.69,0-2.09-0.01-2.78-0.01c-0.32-3.18,2.09-5.56,2.54-8.56   c0.93-3.43-0.06-7.18,1.55-10.43c1.68-3.33,0.61-7.14,1.24-10.66c1.04-1.67,2.49-3.01,3.52-4.66   c1.276-7.813-1.821-5.605,4.48-12.64c4.91,1.66,6.04,7.3,8.37,11.35c0.43,3.89,1.26,7.75,3.12,11.26   C374.02,1627.32,373.3,1628,372.57,1628.68z M382.99,1667.21c-0.43-3.99,0.75-7.81,2.31-11.41   C389.43,1659.06,385.95,1664.41,382.99,1667.21z M396.98,1673.3c0.54-4.27,0.61-9.6,4.06-12.59   C400.83,1665.11,399.91,1669.82,396.98,1673.3z M407.06,1671.35c-0.4-4.84,1.45-9.51,0.99-14.36l0.94,0.02   C408.55,1661.74,410.47,1667.39,407.06,1671.35z M436.64,1672.28c-2.92-6.81-1.91-14.71-0.12-21.7c0.57-2.78,0.97-5.65,2.36-8.16   C444.775,1652.268,438.144,1663.992,436.64,1672.28z M459.83,1664.97c-0.72,0.02-2.15,0.06-2.87,0.08c1.1-4.2,1.82-8.57,3.91-12.41   C461.07,1656.75,461.59,1661.09,459.83,1664.97z M474,1635.95c0.391,5.233-1.029,13.483-4.96,17.37   c-0.43-4.82,0.04-9.68-0.74-14.47c-0.13-6.23,3.25-11.95,7.71-16.08C477.01,1627.44,473.56,1631.35,474,1635.95z M479.61,1676.26   c-1.17-1.96-2.51-4.49-1.01-6.62c2.12-3.11,4.74-5.86,6.58-9.17C483.898,1669.111,481.576,1665.111,479.61,1676.26z    M486.08,1658.29C489.37,1658.51,484.49,1661.27,486.08,1658.29L486.08,1658.29z M512.14,1665.69c1.92,1.64,3.57,4.33,2.66,6.94   c-1.21,1.63-2.76,3.17-4.83,3.61C509.84,1672.6,510.63,1668.99,512.14,1665.69z M513.1,1681.26   C516.38,1681.42,511.56,1684.27,513.1,1681.26L513.1,1681.26z M515.85,1703.76c-0.4,0.15-1.19,0.46-1.58,0.61   c0.33-1.7,0.81-3.38,0.77-5.1c-1.2-1.24-2.18-2.66-2.22-4.42C516.2,1696.62,516.6,1700.33,515.85,1703.76z M558.02,1648.74   c-0.43,0.35-1.3,1.04-1.73,1.39c-0.09-4.5-4.5-7.63-3.31-12.33C556.71,1639.57,558.29,1644.73,558.02,1648.74z M566.31,1682.46   c0.66-4.59,1.66-9.12,1.88-13.75C569.916,1672.33,575.443,1676.795,566.31,1682.46z M578.05,1667.24   c-4.11-2.54-8.01-7.27-7.08-12.47C574.482,1655.036,578.343,1664.022,578.05,1667.24z M578.16,1633.42   c1.33,0.2,1.55,0.92,0.68,2.16C577.5,1635.34,577.27,1634.62,578.16,1633.42z M578.87,1638.74c2.36,1.27,3.21,3.96,3.19,6.52   C580.36,1643.43,578.63,1641.4,578.87,1638.74z M670.1,1641.27C673.38,1641.43,668.55,1644.27,670.1,1641.27L670.1,1641.27z    M691.02,1699.32c0.4-2.19,0.85-4.36,1.26-6.52C697.06,1693.21,693.89,1698.56,691.02,1699.32z M705.96,1620.28   c0.5-4.1,0.87-8.53,4.01-11.56C710.57,1612.91,709.42,1617.58,705.96,1620.28z M714.75,1633.8c-1.51-0.34-1.21-2.7-0.38-3.55   C716.62,1629.03,716.71,1633.5,714.75,1633.8z M765.24,1593.42c1.43-0.12,1.28,2.39,0.52,3.16   C764.31,1596.66,764.44,1594.13,765.24,1593.42z M764.08,1629.36c-0.61-3.98,1.36-7.87,0.27-11.79c2.14-1.47,2.57-4.01,2.98-6.36   c0.41-0.1,1.24-0.28,1.65-0.37C769.96,1617.48,767.21,1623.71,764.08,1629.36z M785.03,1626.98c0.51,1.4,0.05,4.35-1.91,4.18   c0.64,1.3,0.32,2.07-0.94,2.31c-0.74-1.31-0.42-2.09,0.94-2.31C782.74,1629.71,783.59,1627.38,785.03,1626.98   c-0.76-1.34-0.51-2.15,0.77-2.46C786.56,1625.73,786.31,1626.55,785.03,1626.98z M801.2,1592.21c-0.19,6.61-0.6,14.61-6.18,19.1   c1.953-11.479,0.327-5.145-1.9-14.42c1.08-7.9,5.63-15.21,11.87-20.12c-0.01,2.37,0.57,5.08-1.41,6.88   C802.78,1586.47,802.47,1589.47,801.2,1592.21z M839.36,1594.11c2.18-0.88,1.92,2.38,0.08,2.5   C837.28,1597.56,837.73,1594.3,839.36,1594.11z M831.13,1609.75c-0.19,2.79-1.68,5.22-3.15,7.52   C827.72,1614.42,828.42,1611.21,831.13,1609.75z M822.63,1632.51c1.02-3.07,2.8-6.02,5.6-7.75   C827.28,1627.86,825,1630.38,822.63,1632.51z M841.31,1618.38c-0.866,7.371-7.366,31.613-9.99,33.85   c-0.45-2.24-1.82-4.55-1.09-6.83c1.38-1.74,3.06-3.19,4.65-4.71c1.256-21.095,4.705-11.013,2.45-21.67   c1.48-1.09,3.61-1.56,4.58-3.17c0.24-3.88-0.01-7.76,0.14-11.62c1.1-1,2.16-2.16,3.7-2.39c0.94,2.28,1.76,4.62,2.4,7.02   C846.21,1612.28,843.66,1615.25,841.31,1618.38z M892.93,1587.37c-2.36-2.28-2.02-5.63-1.94-8.59c0.5,0.36,1.5,1.1,2,1.47   C893.1,1582.61,893.14,1584.98,892.93,1587.37z M894.84,1596.59c-1.35-0.24-1.58-0.96-0.69-2.16   C895.48,1594.63,895.71,1595.35,894.84,1596.59z M899.93,1583.35c-1.49-3.39-3.49-6.84-2.91-10.67   C899.68,1575.58,900.55,1579.5,899.93,1583.35z M901.84,1588.58c-1.34-0.24-1.57-0.96-0.68-2.16   C902.48,1586.61,902.71,1587.33,901.84,1588.58z M918.92,1551.63c3.307,6.929-0.917,6.567-3.07,8.5   C916.78,1557.26,917.26,1554.18,918.92,1551.63z M910.29,1629.21c-1.772-3.605-0.045-29.865,0.88-36.47   c1.19,2.35,2.96,4.7,2.3,7.51C912.43,1605.298,922.007,1607.708,910.29,1629.21z M921.56,1583.47c-1.31,4.38,0.63,9.34-1.8,13.47   c-2.96,0.61-2.8-3.8-4.03-5.62c-0.67-0.16-2.03-0.47-2.71-0.62c-0.86-11.549,6.637-18.511,8.27-28.97   C925.435,1565.743,923.734,1577.745,921.56,1583.47z M939.77,1609.79c-4.1,2.22-9.04,1.56-12.64-1.26   c-0.81-5.52,0.86-10.91,1.05-16.38c0.15-2.71,2.58-4.18,4.44-5.71c0.648-1.638-0.883-18.067-1.65-21.17   c0.43-0.35,1.3-1.04,1.74-1.39c0.3,4.38,3.41,7.77,4.6,11.88C947.367,1602.655,941.715,1597.938,939.77,1609.79z M998.36,1507.3   c1.2-0.42,2.42-0.81,3.63-1.22c1.33,2.02,2.25,4.29,2.12,6.78c-1.91,0.07-3.8,0.17-5.68,0.29c-0.76,1.4-1.47,2.84-2.41,4.16   C995.42,1513.72,997.15,1510.53,998.36,1507.3z M996.99,1567.87c0.149,3.241-7.248,4.005-2.8-7.07   C996.78,1562.3,997.59,1565,996.99,1567.87z M984.35,1534.33c3.15-4.9,5.03-10.94,9.78-14.58c-0.118,1-3.97,25.08-8.4,31.97   c-10.591,12.453-12.415,21.035-16.78,21.49C969.317,1561.322,982.625,1537.056,984.35,1534.33z M969.13,1617.34   c-0.26-3.19-0.2-6.39-0.04-9.56c1.97,0,2.78,1.88,3.68,3.35C971.64,1613.24,970.86,1615.6,969.13,1617.34z M973.03,1629.27   c-0.06-2.19-0.06-4.35,0.01-6.51c1.14,0.32,3.12,0.74,2.98,2.34C976.42,1627.13,974.17,1628.02,973.03,1629.27z M979.46,1596.61   c-0.89-0.88-2.43-2.24-1.91-3.56C979.59,1591.69,981.37,1595.8,979.46,1596.61z M981.85,1588.35   c-3.502-4.342,1.236-5.706-2.81-14.4c1.62-3.29,2.86-6.99,5.92-9.28C983.68,1572.53,981.7,1580.33,981.85,1588.35z M985,1609.26   c-0.564-13.822,5.26-21.347,7.24-33.47C1003.812,1592.549,986.362,1608.928,985,1609.26z M991.97,1627.18   c0.86-2.68,1.07-5.48,0.06-8.13c2.89-4.6,4.35-9.98,7.78-14.25C1002.353,1611.538,1002.292,1615.107,991.97,1627.18z M1005.29,1575   c-0.29-3.24-2.08-6.07-2.44-9.27c3.19,1.81,2.59,6.07,3.35,9.18L1005.29,1575z M1010.37,1565.64c-0.92-0.84-1.45-2.47-0.89-3.58   C1011.04,1561.82,1012.11,1565.39,1010.37,1565.64z M1011.35,1546.95c-0.67-2.55-2.08-4.77-3.55-6.9   c-0.71-0.02-2.13-0.06-2.84-0.08c-0.57,4.2,2.44,7.7,2.18,11.9c-0.13,1.99,2.37,1.9,3.72,2.33c-1.77,1.93-1.99,4.49-2,7.01   c-2.47-4.45-6.8-7.69-8.52-12.56c-0.94-2.99,0.65-6.74-1.84-9.12c-0.83-1.16-2.2-2.07-2.43-3.51c0.63-2.73,2.36-4.95,3.59-7.39   c0.55-2.41,0.14-4.91,0.62-7.31c0.83-2.38,2.79-4.04,4.67-5.59c6.794,2.042,7.256,17.192,13.13,25.14   c2.01,5.32,5.2,10.52,3.8,16.49c-3.34-3.8-0.64-9.51-4-13.39C1015.14,1543.36,1013.1,1545.13,1011.35,1546.95z M1024.94,1598.56   c0.02-3.92,2.99-7.21,2.06-11.26c-0.66-0.16-1.99-0.47-2.65-0.63c-1.934-11.852-6.7-0.663-2.1-28.9c0.95,1,2.41,1.84,2.56,3.39   c0.69,5.24,4.03,9.65,4.95,14.85c-0.48,2.05-1.39,3.98-1.76,6.07c-0.72,2.9,3.46,4.04,3.05,6.99c0.68,2.67-1.67,4.57-2.1,7.01   c-0.61,2.96,2.91,4.36,3.26,7.12C1029.3,1602.36,1028.39,1598.54,1024.94,1598.56z M1048.09,1581.27   C1051.37,1581.42,1046.55,1584.28,1048.09,1581.27L1048.09,1581.27z M1059.76,1578.58c-1.45,0.08-1.32-2.45-0.52-3.16   C1060.66,1575.3,1060.52,1577.81,1059.76,1578.58z M1079.69,1583.24c-5.89-9.49-0.15-20.46,0.55-30.53   C1087.254,1563.766,1079.974,1582.24,1079.69,1583.24z M1093.1,1553.27C1096.38,1553.43,1091.55,1556.28,1093.1,1553.27   L1093.1,1553.27z M1101.06,1571.28c0.78-4.75,1.87-9.47,2.11-14.29c0.45,0,1.34,0.01,1.78,0.01c0.05,4.6,0.86,9.8-2.25,13.69   C1102.29,1570.84,1101.47,1571.13,1101.06,1571.28z M1102.86,1596.25c0.17-2.82,1.1-5.63,3.18-7.6   C1106.62,1591.69,1104.98,1594.24,1102.86,1596.25z M1110.14,1559.26c0.08-4.96-1.57-10.03,0.3-14.83   c1.91-4.25,5.09-7.71,7.52-11.65C1114.29,1552.036,1113.717,1558.672,1110.14,1559.26z M1126.06,1556.85   c0.25,2.37-0.03,5.54-3.22,5.31C1123.23,1560.14,1123.17,1556.6,1126.06,1556.85z M1124.3,1616.71c-0.49-1.48-1.29-2.79-2.38-3.84   c1.59,0.02,3.2,0.16,4.81,0.23c0.42,0.89,0.81,1.8,1.19,2.76C1126.69,1616.11,1125.49,1616.4,1124.3,1616.71z M1131.13,1578.8   c0.43-2.36,0.81-4.74,1.17-7.09c2.95,2.34,3.35,6.24,1.54,9.44C1132.89,1580.38,1132,1579.58,1131.13,1578.8z M1137.31,1594.21   c-0.74,0.93-1.47,1.88-2.17,2.85c-0.46-1.34-0.89-2.65-1.29-3.96c1.32-0.52,2.63-1.07,4-1.48c0.04-1.67,0.18-3.32,0.31-4.94   c1.15,2.28,2.09,4.68,2.95,7.11C1139.83,1593.91,1138.56,1594.05,1137.31,1594.21z M1175.35,1565.22c1.44-0.74,2.98-1.21,4.6-1.41   c0.05,2.33,0.07,4.69,0.05,7.05c-1.61,0.04-3.18,0.21-4.76,0.3c-1.13,1.33-2.25,2.68-3.38,4.03   C1171.69,1571.41,1174.8,1568.78,1175.35,1565.22z M1183.3,1591.3c-3.13,2.98-3.77,7.43-6.48,10.66c-1.24,0.04-2.47,0.05-3.69,0.05   c-0.42-2.3,0.68-5.3-1.41-6.91c-1.51-0.17-3.02-0.17-4.51-0.13c-0.16,1.25-0.29,2.51-0.41,3.79c-1.28,0.79-2.47,1.7-3.72,2.52   c-0.27,4.55-2.05,18.88-2.42,21.67c-1.2,0.06-2.38,0.09-3.55,0.09c-3.853-7.32-4.656-20.733,4.85-32.75   c1.27,0.27,2.56,0.53,3.86,0.8c2.28-2.2,0.44-5.22,0.57-7.83c0.79-1.99,1.62-4.1,3.38-5.41c0.22,0.59,0.68,1.76,0.9,2.35   c-1.58,3.07-2,6.5-1.64,9.93c2.8-0.09,5.54-0.82,7.97-2.23c-0.036-10.615-0.713-8.476,4.28-14.99c0.72,0.5,1.42,1.07,2.11,1.69   C1185.47,1579.95,1184.67,1585.94,1183.3,1591.3z M1189.07,1605.25c-0.37-4.09,0.7-8.44-1.06-12.29c-1.35-2.58,0.14-5.45,0.22-8.13   c0.36,0.1,1.06,0.31,1.41,0.42c1.24,5.96,4.86,11.26,5.46,17.39C1192.8,1602.79,1190.88,1603.94,1189.07,1605.25z M1201.84,1628.58   c-1.35-0.24-1.58-0.96-0.68-2.16C1202.48,1626.61,1202.7,1627.34,1201.84,1628.58z M1233.11,1601.36   c-1.23-5.46,1.44-10.61,4.91-14.62C1237.77,1591.87,1235.55,1596.88,1233.11,1601.36z M1246.05,1614.26c0-3.58-0.9-7.59,1.59-10.58   c2.87-4.12,3.59-9.58,7.47-12.92C1252.32,1598.64,1251.73,1607.66,1246.05,1614.26z M1449.89,1100.84   c-1.73,10.951-23.073,36.401-27.45,37.74c-19.56,10.109-28.029,27.145-35.79,33.12c-5.95,2.1-12.44,2.31-18.33,4.58   c-8.332,7.58-3.684,23.393-20.13,22.71c-21.618-24.458,37.404-48.983,41.66-57.06c4.9-8.87,8.83-18.28,14.07-26.97   c6.73-8.85,16.37-15.07,22.86-24.15c3.644-5.902,1.577-1.917,2.24-22.82c-0.091-2.384-1.166-2.176,19.45-17.63   c1.01-0.82,2.99-0.64,3.36,0.85C1454.853,1058.629,1454.679,1065.402,1449.89,1100.84z M1335.95,890.23l0.91-0.52   c0.22,3.23,0.24,6.49,0.05,9.73C1334.77,897.2,1335.86,893.16,1335.95,890.23z M1336.05,924.02c-5.14,0.57-10.74-1.05-13.9-5.34   c-1.25-4.94,3.22-8.68,5.17-12.78C1333.81,909.05,1336.29,917.25,1336.05,924.02z M1330.59,871.79   c-4.361,1.964-11.689-5.581-15.33-20.17c-4.069-16.77,1.948-24.239,4.87-33.52c2.038-4.814-6.424-13.568-5.36-25.09   c0.524-5.288,7.471-14.955-0.88-19.89c-2.85,3.75-3.61,8.53-4.8,12.97c-5.314,21.078,6.314,24.904,0.01,38.05   c-10.011,23.594-1.147,19.835,1.06,36.13c-19.352-3.982-5.835-35.354-7.49-48.17c-3.831-24.322-12.755-34.849-9.52-52.1   c20.758-2.887,30.246,21.58,34.12,29.87c4.87,0.31,9.78,0.37,14.65-0.07c2.01-0.18,4.29-1.42,6.1,0.14   c2.85,2.19,6.13,4.65,7.4,8.09c-2.41,11.86-6.33,23.37-9.22,35.11C1343.163,859.032,1349.856,855.444,1330.59,871.79z    M1315.01,889.97c-4.6-3.37-3.05-9.62-2.73-14.47c0.65-2.51-0.13-6.99,3.62-6.81C1324.645,887.09,1317.587,893.358,1315.01,889.97z    M1299.17,860.82c12.993,3.29,5.263,16.399,6.04,25c1.96,4.41,5.79,7.61,8.34,11.66c1.02,6.91-4.69,13.05-11.24,14.37   c-2.07-2-4.49-3.7-6.07-6.13C1295.504,900.268,1295.911,869.194,1299.17,860.82z M1311.26,929.1   c41.967-1.207,23.353,28.427,30.72,55.92c13.167,46.194,21.434,69.318-20.4,56.46c-7.994-2.347-5.234-12.701-7.37-25.81   C1312.513,1002.069,1284.653,982.729,1311.26,929.1z M1407.9,1051.14c0.52,6.62-1.15,13.2-0.87,19.85   c-0.709,10.754,6.829,2.311-36.31,56.59c-2.44,2.71-4.43,5.95-7.65,7.81c-2.632-16.273,14.606-31.52,16.92-46.4   c0.2-6.9-4.56-12.65-5.64-19.29c-0.47-5.66,3.82-10.08,4.7-15.41c-3.22-2.31-6.82-4-10.1-6.18   c-6.904-3.956,1.547-24.943-1.97-38.02c-6.174-24.926-11.531-42.674-7.94-47.28c10.525,3.123,8.206,5.917,13.91,12.27   c15.656,13.797,29.216,12.601,26.95,56.97C1399.365,1036.501,1405.503,1044.51,1407.9,1051.14z M1460.03,1015.3   c-3.335-4.158-2.776-24.072,0.02-28.53C1474.919,988.344,1465.265,1012.476,1460.03,1015.3z M1488.39,991.55   c-1.39,1.54-3.63-0.79-2.17-2.17C1487.47,988.03,1489.83,990.27,1488.39,991.55z M1517.65,975.6c-9.45,1.83-19.16,1.54-28.58,3.5   c-10.023-15.888,37.228-72.073,39.28-73.86c3.34-1.4,7.03-1.12,10.57-1.46c12.57-1.39,24.66-5.26,37-7.84   c6.95-1.4,13.76-4.21,20.94-3.95C1613.14,907.652,1571.254,956.409,1517.65,975.6z M1552.3,774.05c-2.38,1.81-4.98,3.36-7.8,4.37   C1546.08,776.03,1549.09,771.7,1552.3,774.05z M1522.09,775.48C1525.41,775.6,1520.54,778.42,1522.09,775.48L1522.09,775.48z    M1511.59,773.85c3.14,1.53,6.46,2.69,9.48,4.52c-2.26,4.25-6.33,7.12-10.11,9.92   C1514.006,779.239,1513.142,784.289,1511.59,773.85z M1388.4,850.37c25.507-18.538,31.314-29.925,60.51-32.6   c42.092-5.655,49.84-9.92,49.84-9.92c1.57,0.89,3.04,2.15,4.96,2.25c0.1-1.67,0.31-3.32,0.41-4.97   c7.91-3.55,14.85-9.27,23.23-11.69c22.005,1.608,8.817,5.068,24.51,0.18c1.507-3.442-4.589-2.415-12.01-2.66   c-2.026-4.974,9.619-3.133,17.47-14.85c43.918,15.96,35.081,19.522,54.14,27.29c17.166,5.629,12.469,0.845,24.47-0.82   c0.418,28.517,0.398,12.567-12.73,33.61c-12.144,24.665-0.457,44.169-93.83,56.23c-25.606,3.674-57.38,79.55-57.38,79.55   c-6.542,0.423-25.468-3.195-28.51,16.43c-3.546,24.883,7.692,33.282-1.65,43.43c-6.89,6.52-16.17,11.2-25.77,11.25   c-8.574-12.964,5.685-45.993-33.07-78.97c-9.087-8.099-32.37-18.012,6.78-14.38c6.738-11.309,34.837-24.338,24.02-31.73   c-1.19-0.05-2.37-0.03-3.53,0.05c-3.83,4.05-6.18,9.24-9.98,13.31c-2.84,2.43-6.56,3.38-9.69,5.31c-1.82,1.15-3.28,2.75-4.97,4.06   c-4.31,0.7-8.73,0.26-13.06,0.15c2.85-3.29,7.74-3.44,10.71-6.62c4.05-4.32,7.18-9.42,11.18-13.79c4.88-2.05,10.2-2.79,15.01-5.02   c15.803-8.743,17.738-17.959,19.78-20.23c2.48-0.47,5.23-0.06,7.5-1.4c8.351-6.514,18.185-33.45,11.17-46.99   c-1.9,0.5-3.78,1.01-5.66,1.53c-1.273,17.367,3.993,14.644-3.8,31.04c-1.67,2.73-2.37,6.36-5.5,7.85   c-1.44-4.22,4.44-8.56,0.86-12.45c-12.293,1.041-13.996,38.166-32.68,35.19c-3.366-9.661,3.598-15.672-1.28-22.94   c-1.26-0.07-2.52-0.08-3.75-0.04c-0.9,8.84,1.84,18.62-3.54,26.49c-7.76,10.3-19.98,16.12-27.46,26.71   c-0.04-3.72-0.55-7.39-1.17-11.04c6.284-6.566,13.995-9.459,14.11-14.92c-5.089-0.8-0.805-4.092-14.95,9.69   c-7.848-27.8-7.881-29.756-7.61-31.55c3.37-3.93,7.76-6.93,10.71-11.24c-2.91-4.3-6.85-8.18-7.99-13.4   C1356.419,862.491,1380.757,856.409,1388.4,850.37z M1356.22,879.26c1.49-1.17,2.87,1.55,1.59,2.55   C1356.26,882.99,1354.92,880.25,1356.22,879.26z M1329.95,710.63c18.984-2.116,19.758-8.966,32.31-35.67   c4.86,1.02,7.44,6.27,8.21,10.78c0.874,7.205,4.077,3.941-15.24,23.53c-17.204,17.331,31.132,56.318-4.22,43.81   c-5.142-1.321-3.98-13.283-13.08-13.21c1.181,21.665,15.981,16.543,29.14,26.33c-3.365,18.313-33.198,18.57-36.24,14.99   c-5.47-6.45-7.59-15.3-13.91-21.07c-9.402-8.563-29.481,9.506-29.91-42.14C1286.083,706.78,1323.371,711.068,1329.95,710.63z    M1219.18,663.17c1.5-2.72,2.91-5.78,5.76-7.35c1.96,4.99,0.64,10.62,2.02,15.81c-3.17,2.7-6.23,5.59-9.95,7.51   C1214.74,673.8,1216.87,668.08,1219.18,663.17z M1216.57,707.64c5.26-10.07,16.92-14.67,22.52-24.51c2.99-5.2,1.44-11.4,2.43-17.05   c0.34-8.87,3.63-17.2,6.07-25.62c6.91-5.39,14.88-9.52,21.36-15.55c5.91-4.91,10.35-11.21,15.15-17.13   c-0.72,11.56-14.98,17.22-14.12,29.18c0.056,1.002-1.221,35.37-2.83,40.17c-8.049,27.49-5.663,17.172-1.32,30.03   c4.347,23.759-10.986,2.722,7.87,61.17c6.235,17.49,8.113,58.203,2.32,75.77c-0.17,3.1,1.55,5.91,1.97,8.95   c1.595,9.319-3.532,39.07-3.9,40.07c-13.431-5.428-12.066-12.307-38.73-33.41c-4.36-2.89-3.81-8.81-6.04-13.03   c-4.09-5.02-11.42-6.79-14.18-12.96C1215,832.781,1215.875,708.953,1216.57,707.64z M1027.03,890.3   c2.81-4.691,22.998,5.816,31.38,13.36c6.808,1.817,20.091-4.337,28.22,2.82c0.73,1.96-0.38,4.11-0.23,6.17   c1.77,3.44,6.09,4.97,7.62,8.5c-1.672,17.939-21.321,10.081-36.21,4.96c-8.423-3.867-16.551,10.66-24.69,14.01   c-0.418-5.542-1.94-30.3-1.94-30.3C1030.25,903.22,1027.46,896.97,1027.03,890.3z M1114.98,1049.25   c-5.06-2.348-13.82-14.769-22.43-21.81c-94.159-67.502-60.152-70.099-39.47-87.17c11.23,2.11,22.54,3.78,33.79,5.86   c6.705,1.89,2.949,15.32,9.62,26.28c13.734,25.288,8.308,12.164,9.63,57.51c2.63,6.02,7.47,10.94,9.94,17.09   C1115.79,1047.57,1115.25,1048.69,1114.98,1049.25z M1131.66,1085.07c3.09,0.9,7.82,2.13,7.7,6.15   C1135.96,1090.56,1133.03,1088.23,1131.66,1085.07z M1131.78,1043.97c-22.063,2.726-8.517-43.72-18.96-63.93   c-4.35-8.661-14.768-23.592-10.85-32.18c14.103-0.311,30.475,14.566,41.83,22.48c-0.1,7.59,2.21,14.89,2.64,22.43   C1149.745,1009.697,1132.49,1042.967,1131.78,1043.97z M1104.99,922.93c16.75,2.13,30.81,13.87,38.94,28.22   c0.03,0.67,0.09,2.01,0.12,2.69c-4.894,2.586-8.133,0.223-23.67-15.23c-4.06-3.88-10.48-1.77-14.8-5.25   C1103.97,930.28,1103,926.02,1104.99,922.93z M1171.45,1081.42c-3.22,0.96-6.72,2.17-10.09,1.34   c-14.627-12.058-11.533-42.55-5.14-60.72c1.18-0.07,2.36-0.07,3.56,0c1.43,6.23,1.82,12.8,4.56,18.65   C1168.987,1050.174,1182,1073.904,1171.45,1081.42z M1167.3,901.33c-6.215,12.849-3.795,30.463-7.46,54.87   c-5.178-0.804-12.389-23.512-25.18-34.86c-8.7-7.04-20.89-6.72-29.99-13.04c-10.318-8.254,3.633-14.685,7.57-21.97   c2.62-8.21,0.96-16.98,2.66-25.34c0.94-4.81-7.13-3.49-7.14-7.88c2.57-0.88,5.16-1.71,7.73-2.61c1.88-4.25,2.4-9.05,4.98-12.99   c3.38-5.21,9.59-7.76,12.75-13.16c2.48-3.7,3.44-8.34,6.45-11.66c3.91-1.47,7.85-3.97,12.16-3.63   c7.731,4.299,9.754,14.964,17.78,16.03c0.42-1.71,0.97-3.38,1.53-5.05c7.3,3.69,13.75,8.85,20.67,13.18   C1201.566,848.056,1178.127,879.904,1167.3,901.33z M1202.01,1081.76c7.75,3.36,9.97,12.81,11.11,20.39   C1209.189,1103.032,1200.333,1090.063,1202.01,1081.76z M1267.46,1102.34c-8.369,12.601-0.273,22.32-13.78,33.51   c-3.57,0.31-7.1-1.36-10.73-0.87c0.03,0.7,0.1,2.1,0.13,2.8c13.514,11.008,11.79,4.995,14.22,15.12   c3.276,23.097,1.555,22.169-0.37,25.33c-5.79-3.81-10.45-9.07-15.19-14.06c-26.097-30.041-18.413-36.514-14.63-47.04   c9.827-22.662-5.22-33.186-11.01-45.28c-1.961-3.605-0.955-5.364-16.92-6.04c-1.66-4-1.64-8.41-2.42-12.61   c-3.692-17.241,3.813,0.521-16.91-35.12c-7.836-17.747,2.013-43.178,3.87-60.2c0.248-22.857-9.038-24.516,3.42-47.61   c19.268-35.244,14.629-26.774,25.1-54.38c1.29,0.14,2.8,0.06,3.42,1.5c15.009,21.309,29.255,41.837,53.52,57.47   c5.719,2.982,6.95,36.321,6.85,39.15c1.205,32.212-7.836,33.982,4.74,67.31C1295.99,1062.365,1283.663,1074.473,1267.46,1102.34z    M1293.12,1333.77c-6.07-5.54-4.53-14.46-7.4-21.48c-1.611-4.868-9.232-14.776-4.52-24.39   C1287.897,1292.346,1298.951,1325.561,1293.12,1333.77z M1306.63,1217.78c-14.941,5.387-26.68-37.125-11.46-37.52   C1297.6,1181.157,1326.983,1197.427,1306.63,1217.78z M1317.82,1186.16c-5.424-0.863-10.159-7.897-12.13-11.83   c-4.391-7.778-7.865-3.398-18.53-2.22c-2.15-5.064-5.872-30.731-0.61-42.52c4.09-10.62,13.28-18.32,17-29.14   c2.4-4.8,1.01-10.24,1.58-15.35c4.344-16.913,5.734-2.026,9.06-37.32c3.48,0.66,6.35,2.79,9.29,4.65   c6.06,1.41,12.35,1.71,18.58,1.54c9.73-1.76,10.39,24.314,8.61,34.5c-1.85,19.18-11.46,36.31-18.03,54.13   C1327.6,1157.08,1323.05,1171.74,1317.82,1186.16z M1408.97,1683.31c0.55-3.42,1.18-6.84,1.13-10.3l0.92-0.02   C1410.86,1676.45,1411.91,1680.68,1408.97,1683.31z M1428.76,1687.2c-0.97-0.37-1.9-0.78-2.78-1.23c1.01-2.23,2.12-4.43,3.7-6.3   C1429.3,1682.16,1429.01,1684.66,1428.76,1687.2z M1474,1694l-1-0.01c-0.05-2.67-0.05-5.33,0-7.97l1-0.02   C1474.02,1688.65,1474.02,1691.32,1474,1694z M1470.97,1668.16c-0.27,5.21,1.22,10.28,2.04,15.39c-1.37,0.45-2.7,0.95-4,1.54   c-0.03,2.28,0.01,4.59-0.06,6.9l-0.93,0.02c0-33.332,0.747-29.678,3.29-41.12c2.27-0.09,1.97,2.74,2.53,4.32   c0.26,4.21,0.01,8.49,1.24,12.61C1473.69,1667.91,1472.32,1668.02,1470.97,1668.16z M1483.15,1646.28   c-1.006,8.868,1.691,4.582-2.89,13.9c-0.76-4.62-1.79-9.98-6.15-12.55c-0.55-6.52,1.02-13.77,5.49-18.71   c0.015,0.035,4.279,7.66,8.29,16C1486.24,1645.15,1484.18,1644.64,1483.15,1646.28z M1494.93,1679.3c-2.18-1.51-3.09-4.01-4.11-6.3   c-1.24-0.06-2.47-0.05-3.67,0.02c-0.69,2.09-0.93,4.35-2,6.31c-0.27-4.11-0.5-8.21-1.05-12.28c-0.46-1.78,2.14-2.4,1.85-4.13   c-0.52-5.69,1.39-11.13,3.68-16.23C1489.892,1647.69,1495.146,1674.044,1494.93,1679.3z M1525.09,1667.27   C1528.37,1667.41,1523.55,1670.28,1525.09,1667.27L1525.09,1667.27z M1532.81,1661.5c-1.28-0.34-1.54-1.15-0.79-2.43   c-3.26-0.5,1.43-3.09,0,0C1533.3,1659.42,1533.57,1660.23,1532.81,1661.5z M1553.36,1606.04c0.41,0.27,1.23,0.82,1.64,1.09   c-1.65,2.96-3.22,6.17-6.12,8.11C1549.03,1611.67,1551.49,1608.88,1553.36,1606.04z M1534.98,1641.01   c0.68-3.58,2.21-6.97,3.92-10.16c2.42-3.35,3.85-7.43,7.18-10.05c-1.06,13.04-5.46,25.53-6.34,38.62   C1536.53,1653.7,1537.56,1646.91,1534.98,1641.01z M1554.17,1657.46c-0.2,6.38-1.06,14.35-7.18,17.84   c0.54,2.58,1.02,5.18,1.11,7.85c-8.016,0.779,1.333-35.24,2-40.04c0.68-3.14,0.97-6.46,2.55-9.3   c0.351,1.002,4.394,13.218,4.3,21.91C1556.01,1656.29,1555.09,1656.87,1554.17,1657.46z M1563.94,1639.06   c-0.66-0.04-1.99-0.11-2.65-0.14c-1.41-3.27-2.76-6.56-4.61-9.59c-3.03-3.96-1.34-10.03,2.36-12.96c2.99,1.91,4.34,5.58,5.84,8.68   C1563.75,1629.63,1563.99,1634.36,1563.94,1639.06z M1567.03,1643.68c-0.08-2.31-0.06-4.62,0.01-6.9c4.2,0.83,4.02,6.44,5.91,9.55   C1571.18,1644.97,1569.3,1643.82,1567.03,1643.68z M1575.77,1678.93c-0.68,0.03-2.02,0.09-2.7,0.12   c-0.14-5.09-0.15-10.18,0.01-15.26C1577.189,1664.036,1580.702,1675.373,1575.77,1678.93z M1612.61,1642.66   c-3.601,9.568-2.036,0.206-2.65,14.61l-0.68-0.56c-1.05-6.69-2.06-13.62-0.88-20.32c2.51-4.09,2.95-9.33,6.5-12.74   C1613.95,1629.95,1613.48,1636.34,1612.61,1642.66z M1617.03,1683.33c-0.25-5.01,0.96-10.11,2.85-14.68   C1620.72,1673.73,1619.23,1678.81,1617.03,1683.33z M1654.24,1631.42c1.42-0.11,1.27,2.39,0.52,3.16   C1653.3,1634.65,1653.43,1632.13,1654.24,1631.42z M1656.27,1669.79c-1.53-0.73-1.84-3.02-1.1-4.36   C1656.69,1665.32,1657.99,1669.17,1656.27,1669.79z M1666.75,1646.78c-0.43,0.1-1.3,0.32-1.73,0.43   c-1.27-5.75,2.41-10.49,6.06-14.42C1670.12,1637.51,1670.01,1642.95,1666.75,1646.78z M1691.84,1674.58   c-1.36-0.24-1.58-0.96-0.68-2.16C1692.47,1672.61,1692.7,1673.34,1691.84,1674.58z M1713.33,1639.33c1.45,0.05,0.97,2.53-0.22,2.74   C1711.55,1642.01,1712.25,1639.61,1713.33,1639.33z M1711.3,1663.33c-0.38,2.11-0.31,4.27-0.41,6.43   c-0.41,0.35-1.25,1.06-1.66,1.42c-0.3-2.41-0.79-4.75-1.08-7.12c1.04-3.01,3.27-5.71,2.84-9.07c-0.27-3.31,1.56-7.35,4.95-8.24   C1716.828,1658.965,1712.878,1660.493,1711.3,1663.33z M1734.28,1660.95c-0.98-2.87-2.17-6.21-0.27-8.97   c1.76-2.94,1.85-6.58,3.89-9.35c0.27,2.59,0.05,5.22-0.44,7.79C1737.244,1651.42,1738.978,1662.472,1734.28,1660.95z    M1748.73,1626.8c-1.26,0.09-2.5,0.2-3.72,0.34c-1.11,4,2.25,7,2.09,10.86c-0.72-0.01-2.16-0.03-2.89-0.04   c-2.66-5.65,0.39-11.58,3.35-16.41c0.83-1.54,2.12-2.73,3.43-3.84C1751.45,1620.97,1750.31,1624.01,1748.73,1626.8z    M1761.26,1637.29c-2.58,1.9-2.78,6.55-6.31,6.89c-0.05-4.61,0.9-10.57,5.57-12.67c0.41-1.33,0.73-2.79,2.45-2.71   C1762.86,1631.66,1763.89,1635.23,1761.26,1637.29z M1767.94,1663.2c-3.99-0.32-3.98-8.09,0.01-8.4   C1768.03,1657.58,1768.03,1660.39,1767.94,1663.2z M1787.08,1614.65c2.4,2.23,2.95,5.63,4.06,8.59   C1787.07,1622.39,1786.32,1618.15,1787.08,1614.65z M1785.77,1670.58c-1.46,0.08-1.34-2.45-0.53-3.16   C1786.65,1667.31,1786.52,1669.81,1785.77,1670.58z M1792.17,1646.24c-0.68,2.29-1.02,4.66-1.48,7.01   c-2.22-2.63-1.61-6.23-1.82-9.38c-7.443,0.098-1.337,4.541-5.11,18.35c-11.545-32.68-5.239-26.753-4.9-31.33   c0.41-3.99,1.92-7.81,3.97-11.23c0.15,2.02,0.21,4.07,0.28,6.13c6.07,3.53,9.34,10.01,11.81,16.33   C1795.57,1644.18,1792.66,1644.57,1792.17,1646.24z M1794.79,1664.84c3.3-0.15,2.36,4.21,3.22,6.41   C1796.35,1669.43,1795.48,1667.12,1794.79,1664.84z M1844.29,1582.63c-0.78-1.25-0.78-3.06-0.01-4.27   C1845.67,1578.59,1845.67,1582.36,1844.29,1582.63z M1850,1645.03c-1.42-0.45-1.61-2.54-0.84-3.58   C1850.73,1640.93,1851.88,1644.77,1850,1645.03z M1852.86,1617.36c-2.61-2.81-1.22-6.98-3.24-10.03   c-2.772-4.001-4.014-21.698-4.32-22.7c3.31,0.84,0.65,5.46,2.23,7.84c1.94,3.05,1.15,6.88,2.87,10.04   C1852.55,1607.16,1853.73,1612.21,1852.86,1617.36z M1854.85,1625.58c-1.36-0.23-1.59-0.95-0.69-2.16   C1855.47,1623.62,1855.7,1624.34,1854.85,1625.58z M1880.69,1613.73c-0.84,1.96-1.18,4.89-3.54,5.53   c-0.11-1.78-0.23-3.52-0.27-5.25c-1.32-0.06-2.62-0.06-3.9,0.01c-0.49,3.98,1.54,8.04-0.2,11.89c-2.11,0.81-2.2-1.73-2.67-3.07   c-1.57-6.69,3.83-12,4.35-18.45c2.49-5.18,0.64-10.82,1.71-16.24c0.54-3.42,1.17-6.88,2.76-9.98c2.79,2.85,1.52,6.92,2.58,10.32   C1886.06,1594.535,1880.775,1612.73,1880.69,1613.73z M1889.67,1670.51c-0.91,0.91-1.88,1.76-2.79,2.66   c0.23-3.01,0.43-6.53,3.05-8.5C1889.88,1666.57,1890.37,1668.65,1889.67,1670.51z"
   id="path1347" />
	<path
   d="M108.74,352.38c8.46,2.56,16.62,5.98,24.94,8.94c7.42,2.68,15.47,1.42,23.11,2.9c1.28,0.8,1.68,2.33,2.31,3.61   c-2.25,2.28-6.11,3.03-7.38,6.11c2.95,0.16,5.91,0.05,8.85-0.32c2.95-0.54,5.29,2.34,8.18,2.12c2.76-1.08,4.91-3.37,7.78-4.2   c2.74-0.87,5.82-0.28,8.42-1.63c-0.05-0.36-0.15-1.06-0.19-1.42c-2.86-0.58-6.05-0.9-8-3.35c6.934-1.734,29.593,4.623,63.13-13.51   c-0.01-0.53-0.03-1.6-0.03-2.14c-1.89-0.33-3.59-1.2-5.02-2.46c-2.334,1.547-7.284,8.557-15.82,8.93   c-2.996,0.234-57.975,4.612-60.39,3.4c-12.847-5.807-41.085-3.72-53.05-16.03c-1.85-0.56-3.84-0.22-5.74-0.26   C100.29,347.71,104.35,351.32,108.74,352.38z"
   id="path1349" />
	<path
   d="M650.6,445.86c5.489-13.534,21.132-9.152,24.24-8.86c3.74-2.03,7.33-4.36,11.71-4.81   c-12.029-11.05-36.969-9.258-53.13-6.93c-0.682,2.743-7.236,15.897-21.41,18.64c-1.39-0.58-2.47-1.67-3.68-2.51   c-2.44,2.71-6,3.58-9.33,4.64c0.22,0.96,0.45,1.92,0.68,2.88c-2.14,0.41-4.27,1.44-6.47,1.03c-4.82-2.31-9.18-5.44-13.95-7.83   c-10.192,9.756-25.219,32.281-21.25,49.06c3.45-3.12,6.68-7.02,11.62-7.64c2.39-5.18,3.36-11.34,7.67-15.39   c3.37-1.16,6.9,0.28,9.86,1.91c0.85-1.23,1.37-2.64,2.16-3.9c9.11-0.79,18.51,0.06,26.89,3.91c-0.67,1.64-1.53,3.2-2.25,4.82   c1.86,0.19,3.72,0.42,5.58,0.67c0.26-1.55,0.53-3.09,0.78-4.63c4.97,0.99,10.11,1.08,14.81,3.2c-0.66-1.39-1.34-2.77-2.09-4.1   c1.13-3.42,2.64-6.69,4.21-9.92c1.96-0.07,3.92-0.17,5.9-0.25c-0.08-1.27-0.2-2.52-0.36-3.76c-2.99-0.25-5.92,0.31-8.82,0.92   C632.375,444.32,647.937,446.074,650.6,445.86z"
   id="path1351" />
	<path
   d="M1669.89,497.9c3.45-2.14,7.38,0.11,11.07,0.08c10.21,0.11,20.61,0.93,30.65-1.47c8.15-3.28,17.34-1.17,25.53-4.3   c4.95-0.49,8.72-4.43,13.77-4.34c3.15-0.16,5.52-2.5,8.4-3.47c2.09-0.36,4.24-0.23,6.38-0.38c0.23-1.22,0.5-2.43,0.79-3.63   c3.03-0.34,6.02-0.96,8.98-1.77c0.4-3.36,3.69-4.23,6.46-4.98c-0.47-2.27-0.87-4.55-1.22-6.82c-3.37,0.39-5.78,3-8.72,4.4   c0.99-1.99,1.97-4.01,2.16-6.26c-0.7,0.09-2.09,0.27-2.79,0.36c-19.365,28.505-59.911,13.489-103.46,23.93   c-4.35,1.2-8.53-1.23-12.85-1.29c-7-0.57-14.2,3.01-20.97-0.05c-19.268-9.795-75.659-4.004-97.52-33.48   c-0.69-0.15-2.05-0.43-2.74-0.58c0.93,2.56,2.34,4.9,3.54,7.35c-3.96-1.44-6.35-5.48-10.54-6.39c0,0,8.728,13.861,10.09,16.34   c6.521,3.907,45.219,16.51,52.83,20.01c21.76,9.049,45.033-2.835,46.36,12.68c-3.8,3.29-8.28,5.66-12.9,7.54   c-0.05,0.64-0.15,1.94-0.21,2.58c5.05,0.4,10.17,0.26,15.13-0.9c10.446-2.473,6.967,11.419,26.29-2.64   c4.83-2.43,10.5-0.81,15.55-2.62c0.04-1.17,0.04-2.33,0-3.49c-4.09-0.63-8.12-1.79-11.85-3.58   C1667.01,499.27,1668.8,498.42,1669.89,497.9z"
   id="path1353" />
	<path
   d="M829.84,538.94c0.32,3.2,1.91,6.75,5.18,7.85c1,0.416,29.669,10.908,31.77,11.43c6.97,1.96,14.74-0.85,21.31,2.87   c-0.04,1.2-0.12,2.4-0.25,3.61c-2.16,1.53-5.75,2.17-6.09,5.27c3.09,0.07,6.18-0.22,9.27-0.35c2.47-0.18,4.47,1.69,6.84,1.98   c5.985-2.075-2.583-0.612,15.85-5.77c0.09-0.38,0.27-1.12,0.36-1.5c-2.93-0.56-5.99-1.17-8.33-3.13   c4.087-1.085,38.875,1.876,60.55-11.93c2.83-0.8,3.18-3.92,3.86-6.32c-19.088,8.388-15.514,8.136-21.19,8.9   c-33.005,2.166-62.527,8.763-104.43-6.38C839.41,543.66,835.77,538.26,829.84,538.94z"
   id="path1355" />
	<path
   d="M143.99,665c1.31-0.35,2.62-0.69,3.93-1c1.56,0.96,3.15,2.01,5.07,1.98c5.37,0.1,9.03,4.82,14.1,5.9   c2.19-0.24,4.36-0.73,6.48-1.34c4.11-2.59,5.97-7.32,9.22-10.74c10.997-11.747,12.027-9.284,15.6-12.35   c3.77-7.04,10.7-11.52,17.05-16.01c4.34-6.69,10.26-12.14,17.32-15.87c0.09-0.68,0.25-2.02,0.33-2.69   c-15.358,2.564-39.178,26.901-49.68,38.39c-1.3-0.03-2.6,0.09-3.9,0.1c-1.49,1.64-3.35,2.83-5.36,3.72   c-2.16-1.64-3.94-4.22-6.91-4.24c-0.19,1.39-0.38,2.78-0.57,4.18c-4.77-5.26-8.92-11.15-12.36-17.36   c-8.7-8.303-17.332-27.226-41.46-32.7c0.12,0.66,0.37,2,0.49,2.66c4.16,1.87,7.8,5.08,9.14,9.58   c0.798,3.146,10.263,12.301,8.04,21.36c9.445,5.804,16.592,8.921,17.74,22.88c-1.42-0.04-2.83-0.09-4.25-0.15   C143.97,662.52,143.96,663.76,143.99,665z"
   id="path1357" />
	<path
   d="M392.93,749.24c0.14,1.5,0.46,2.98,0.94,4.43c1.26-0.51,2.56-0.86,3.85-1.28c2.81,2.01,6.34,2.17,9.52,3.28   c8.078,2.132,4.03,5.929,16.34,2.89c3.11-1.89,4.6-5.38,6.83-8.09c3.172-3.944,53.79-49.59,53.79-49.59   c-4.046,0.399-25.977,9.562-49.92,37.44c-1.11,1.63-3.15,0.83-4.73,1.34c-1.91,1.13-3.68,2.48-5.61,3.6   c-2.05-1.4-3.98-2.95-5.94-4.46c-1.13,0.99-1.98,2.23-2.99,3.33c-11.703-17.383-10.349-10.797-10.3-16.76   c-8.819-3.769-17.634-29.079-43.83-32.47c-0.25,2.78,2.96,3.26,4.8,4.43c4.18,1.62,5.72,6.27,6.82,10.23   c0.651,1,10.692,11.191,7.64,19.26c3.53,2.162,18.638,9.712,17.94,23.22C396.36,749.77,394.64,749.52,392.93,749.24z"
   id="path1359" />
	<path
   d="M243.58,873.76c19.138-10.686,24.149,1.01,31.77,4.82c4.95,0.16,9.96,0.31,14.52,2.51   c-3.319-18.56-33.668-32.032-51.27-39.04c-0.3,0.35-0.9,1.04-1.2,1.39c-9.767,3.868-22.107,10.371-34.13,4.36   c-0.17-1.27-0.33-2.54-0.48-3.79c-4.58,0.14-9.33,0.75-13.69-1.05c0.23,0.57,0.68,1.7,0.91,2.26   c-5.217,2.608-9.821,0.912-18.58-18.17c-22.942,6.727-40.454,18.44-52.5,39.08c4.17,0.02,7.88-2.69,12.08-2.11   c16.768,1.269,16.365-20.307,31.58-4.32c2.22,1.17,4.06-1.72,6.27-1.63c6.639,4.067,23.872,14.095,24.21,21.48   c-1.62,0.8-3.73,1.25-4.47,3.12c3.11-1.08,3.65,3.56,6.77,3.33c0.95-1.45,1.55-3.09,2.48-4.54c4.62,4.22,9.67,7.94,13.62,12.85   c-0.25-1.7-0.59-3.36-1-5.01c3.39-3.47,6.54-7.7,11.51-8.89c1.97,0.7,3.42,2.36,5.09,3.57c1.94-1.04,3.34-3.7,1.55-5.53   c-2.53-1.39-5.23-2.4-7.85-3.6C222.009,867.555,234.919,863.995,243.58,873.76z"
   id="path1361" />
</g>
</svg>
