<svg xmlns="http://www.w3.org/2000/svg" xmlns:xlink="http://www.w3.org/1999/xlink" version="1.1" x="0px" y="0px" viewBox="0 0 100 100" enable-background="new 0 0 100 100" xml:space="preserve"><g><path fill="#000000" d="M80.3,30.7C74.9,27.3,68.9,27,66,28.3c0,0-0.1,0-0.1,0c-2.6-0.8-5.1-0.8-7.2-0.5c-0.8-2-0.8-3.8-0.1-5.2   c1.4-2.8,5.1-3.8,5.2-3.8c1-0.3,1.7-1.3,1.5-2.3l-0.9-4.4c-0.2-0.9-1-1.6-1.9-1.6c-7.2-0.2-12.8,1.7-16.5,5.7   c-3.7,3.9-4.7,8.8-4.9,11.6c-2-0.2-4.4-0.2-6.8,0.6c0,0,0,0-0.1,0c-3-1.4-9-1-14.3,2.4C14.5,34.1,8.2,41.5,8.3,57.5   c0.2,20.2,7,29.8,21.6,30.2c0.6,0.3,1.1,0.6,1.8,0.8c1.9,0.6,4.1,0.8,6.1,0.8c2.9,0,5.6-0.4,6.7-0.6c1.3,0.4,2.7,0.7,4.5,0.8   c0,0,0.1,0,0.1,0c0.2,0,0.3,0,0.4-0.1c0.1,0,0.3,0.1,0.4,0.1c0,0,0.1,0,0.1,0c1.7-0.1,3.2-0.4,4.5-0.8c1.1,0.2,3.8,0.6,6.7,0.6   c2,0,4.2-0.2,6.1-0.8c0.7-0.2,1.3-0.5,1.8-0.8c0.1,0,0.2,0,0.3,0c0,0,0,0,0,0c15-0.2,22-9.8,22.2-30.2   C91.8,41.5,85.5,34.1,80.3,30.7z M48.7,18.9c2.7-2.8,6.7-4.3,11.9-4.4l0.2,1.1c-1.8,0.8-4.5,2.4-6,5.3c-1.1,2.3-1.2,5-0.2,7.9   c-0.6,0.2-1,0.4-1.1,0.4c-0.1,0.1-0.2,0.1-0.3,0.2c-1.8-0.3-3.1-0.4-3.2-0.4c0,0,0,0-0.1,0c0,0,0,0-0.1,0c-0.1,0-1.5,0-3.2,0.4   c-0.1-0.1-0.2-0.1-0.4-0.2c-0.1,0-0.6-0.3-1.5-0.5C45,26.5,45.6,22.2,48.7,18.9z M73.1,83.4c1.5-2.7,2.2-5.7,2.5-7.4l0.1-0.4   c0.2-1.1-0.4-2.1-1.5-2.4c-1.1-0.2-2.1,0.4-2.4,1.5l-0.1,0.4c-0.5,2.5-1.8,8.4-5.6,9.6c-2,0.6-4.5,0.7-6.6,0.6   c1.6-2,2.1-4.2,2.1-5.7c0-1.1-0.9-2-2-2c0,0,0,0,0,0c-1.1,0-2,0.9-2,2c0,0.2,0,5.5-7.8,5.9c-0.1,0-0.2,0-0.3,0.1   c-0.1,0-0.2,0-0.3-0.1c-7.5-0.4-7.8-5.4-7.8-5.9c0-1.1-0.9-2-2-2c0,0,0,0,0,0c-1.1,0-2,0.9-2,2c0,1.5,0.5,3.8,2.1,5.7   c-2.1,0.1-4.5,0.1-6.6-0.6c-0.4-0.1-0.8-0.3-1.2-0.6c-0.1-0.1-0.1-0.1-0.2-0.1c-2.7-2-3.8-6.7-4.2-8.9l-0.1-0.4   c-0.2-1.1-1.3-1.8-2.4-1.5c-1.1,0.2-1.8,1.3-1.5,2.4l0.1,0.4c0.4,1.7,1,4.6,2.4,7.2c-9.3-2-13.4-10-13.5-25.8   c-0.1-14.2,5.1-20.5,9.6-23.4c2.3-1.5,4.6-2.2,6.5-2.4c-2.2,2.1-3.9,4.9-5.1,8.4c-0.3,1,0.2,2.2,1.3,2.5c0.2,0.1,0.4,0.1,0.6,0.1   c0.8,0,1.6-0.5,1.9-1.4c1.5-4.4,3.8-7.3,6.9-8.7c2.3-1,4.7-1.1,6.7-0.8c-1.7,1.2-3.3,2.9-4.1,5.3c-0.4,1,0.2,2.2,1.2,2.6   c0.2,0.1,0.5,0.1,0.7,0.1c0.8,0,1.6-0.5,1.9-1.3c1.9-5.4,9.5-5.5,9.6-5.5c0,0,0,0,0.1,0c0,0,0,0,0.1,0c0.1,0,7.6,0.1,9.6,5.5   c0.3,0.8,1.1,1.3,1.9,1.3c0.2,0,0.5,0,0.7-0.1c1-0.4,1.6-1.5,1.2-2.6c-0.9-2.4-2.4-4.1-4.1-5.3c2-0.2,4.4-0.2,6.6,0.8   c3.1,1.4,5.4,4.3,6.9,8.7c0.3,0.8,1.1,1.4,1.9,1.4c0.2,0,0.4,0,0.6-0.1c1-0.3,1.6-1.5,1.3-2.5c-1.2-3.6-2.9-6.4-5.1-8.4   c1.9,0.2,4.2,0.9,6.5,2.4c4.4,2.8,9.7,9.2,9.6,23.4C87.5,73.9,83.1,81.9,73.1,83.4z"></path><path fill="#000000" d="M70.7,55.9c-0.6-0.4-1.4-0.4-2,0c-3.2,1.9-6.6,3.3-10.1,4.2c-0.9,0.2-1.5,1-1.5,1.9l0,3.8   c-0.7,0.1-1.6,0.2-2.4,0.4l0-3.1c0-0.6-0.2-1.1-0.7-1.5c-0.4-0.4-1-0.6-1.5-0.5c-1.3,0.1-1.8,0.1-3.1,0.1l0,0c0,0,0,0,0,0   c0,0,0,0,0,0c0,0,0,0,0,0c0,0,0,0,0,0C42.5,61.3,36,59.5,30,55.9c-0.6-0.4-1.4-0.4-2,0c-0.6,0.4-1,1-1,1.7   c0,0.2,0.3,19.5,22.4,19.5c0,0,0,0,0,0c0,0,0,0,0,0c22.1,0,22.4-19.3,22.4-19.5C71.7,57,71.3,56.3,70.7,55.9z M49.3,73.2   C49.3,73.2,49.3,73.2,49.3,73.2C49.3,73.2,49.3,73.2,49.3,73.2c-12.7,0-16.6-7.3-17.8-11.9c5.7,2.7,11.6,4,17.8,4c0,0,0,0,0,0   c0,0,0,0,0,0c0.5,0,0.9,0,1.4,0l0,3.3c0,0.6,0.3,1.1,0.7,1.5c0.4,0.4,1,0.5,1.6,0.4c0.1,0,0.9-0.1,1.9-0.3c3-0.5,4.3-0.7,4.5-0.7   c0.9-0.2,1.6-1,1.6-2l0-4c2.1-0.6,4.1-1.4,6.1-2.3C66,65.9,62.1,73.2,49.3,73.2z"></path><path fill="#000000" d="M31.4,54.6l12.4,2.8c0.1,0,0.3,0,0.4,0c0,0,0,0,0,0c1.1,0,2-0.9,2-2c0-0.3-0.1-0.6-0.2-0.8l-3.5-12.2   c-0.2-0.7-0.8-1.2-1.5-1.4c-0.7-0.2-1.4,0.1-1.9,0.6l-8.9,9.8c-0.5,0.5-0.6,1.3-0.4,2S30.7,54.4,31.4,54.6z M39.8,46.9l1.6,5.8   l-5.8-1.3L39.8,46.9z"></path><path fill="#000000" d="M54.4,57.4c0.1,0,0.3,0,0.4,0l12.4-2.8c0.7-0.2,1.3-0.7,1.5-1.3s0.1-1.4-0.4-2l-8.9-9.8   c-0.5-0.5-1.2-0.8-1.9-0.6c-0.7,0.2-1.3,0.7-1.5,1.4l-3.5,12.5c-0.2,0.7,0,1.4,0.5,1.9C53.3,57.1,53.8,57.4,54.4,57.4z M58.8,46.9   l4.1,4.5l-5.8,1.3L58.8,46.9z"></path></g></svg>