M48
; DRILL file {KiCad (6.0.9)} date Tue Dec 27 14:16:08 2022
; FORMAT={-:-/ absolute / inch / decimal}
; #@! TF.CreationDate,2022-12-27T14:16:08-08:00
; #@! TF.GenerationSoftware,Kicad,Pcbnew,(6.0.9)
; #@! TF.FileFunction,Plated,1,2,PTH
FMAT,2
INCH
; #@! TA.AperFunction,Plated,PTH,ViaDrill
T1C0.0118
; #@! TA.AperFunction,Plated,PTH,ViaDrill
T2C0.0197
; #@! TA.AperFunction,Plated,PTH,ComponentDrill
T3C0.0315
; #@! TA.AperFunction,Plated,PTH,ComponentDrill
T4C0.0394
; #@! TA.AperFunction,Plated,PTH,ComponentDrill
T5C0.0402
; #@! TA.AperFunction,Plated,PTH,ComponentDrill
T6C0.0433
; #@! TA.AperFunction,Plated,PTH,ComponentDrill
T7C0.0508
; #@! TA.AperFunction,Plated,PTH,ComponentDrill
T8C0.0512
; #@! TA.AperFunction,Plated,PTH,ComponentDrill
T9C0.0520
%
G90
G05
T1
X1.09Y-2.87
X1.12Y-3.58
X1.19Y-1.01
X1.19Y-1.705
X1.1909Y-1.9759
X1.34Y-2.35
X1.34Y-2.64
X1.34Y-3.52
X1.34Y-3.7
X1.37Y-2.35
X1.37Y-2.64
X1.49Y-1.01
X1.49Y-1.705
X1.495Y-2.03
X1.52Y-3.58
X1.55Y-2.1
X1.55Y-2.35
X1.55Y-2.64
X1.6415Y-1.7485
X1.67Y-1.72
X1.69Y-1.69
X1.72Y-1.66
X1.74Y-2.07
X1.75Y-2.35
X1.75Y-2.64
X1.84Y-2.1
X1.86Y-2.35
X1.9Y-3.58
X1.94Y-2.35
X1.94Y-2.64
X2.02Y-2.03
X2.05Y-2.06
X2.05Y-2.55
X2.16Y-1.98
X2.17Y-2.71
X2.28Y-2.23
X2.32Y-3.58
X2.35Y-1.95
X2.465Y-2.52
X2.48Y-2.34
X2.49Y-2.17
X2.49Y-2.46
X2.66Y-2.03
X2.66Y-2.34
X2.66Y-3.68
X2.69Y-1.98
X2.69Y-2.46
X2.69Y-3.64
X2.745Y-2.18
X2.745Y-3.6
X2.77Y-1.75
X2.77Y-2.04
X2.79Y-1.72
X2.8Y-2.01
X2.82Y-1.69
X2.83Y-1.98
X2.85Y-1.66
X2.86Y-1.95
X3.12Y-1.53
X3.19Y-1.19
X3.21Y-1.53
X3.22Y-3.68
X3.28Y-3.6
X3.35Y-1.53
X3.36Y-3.64
X3.4Y-1.53
X3.51Y-3.87
X3.55Y-2.04
X3.56Y-4.24
X3.58Y-4.09
X3.62Y-4.02
X3.72Y-4.14
X3.81Y-3.68
X3.84Y-3.64
X3.86Y-1.36
X3.88Y-4.01
X3.92Y-1.53
X3.96Y-3.6
X4.11Y-3.85
X4.12Y-4.16
X4.14Y-3.91
X4.14Y-4.08
X4.2676Y-4.0676
X4.29Y-2.01
X4.36Y-1.47
X4.48Y-4.26
X4.5Y-4.11
X4.58Y-1.31
X4.59Y-3.64
X4.61Y-3.68
X4.64Y-1.53
X4.67Y-3.6
X4.69Y-1.44
X4.72Y-4.03
X4.8Y-3.64
X4.82Y-1.53
X4.859Y-3.751
X4.86Y-4.04
X4.88Y-4.26
X4.95Y-3.68
X5.02Y-1.98
X5.12Y-1.44
X5.38Y-1.53
X5.76Y-1.98
T2
X3.06Y-3.08
X3.96Y-3.08
X4.46Y-3.08
X5.08Y-3.14
T3
X1.1082Y-3.9976
X1.1082Y-4.2976
X1.1098Y-3.1296
X1.1098Y-3.4296
X1.2082Y-3.9976
X1.2082Y-4.2976
X1.2098Y-3.1296
X1.2098Y-3.4296
X1.4982Y-3.9976
X1.4982Y-4.2976
X1.52Y-3.1296
X1.52Y-3.4296
X1.5982Y-3.9976
X1.5982Y-4.2976
X1.62Y-3.1296
X1.62Y-3.4296
X1.8882Y-4.0076
X1.8882Y-4.3076
X1.9Y-3.1296
X1.9Y-3.4296
X1.9882Y-4.0076
X1.9882Y-4.3076
X2.0Y-3.1296
X2.0Y-3.4296
X2.2882Y-4.0076
X2.2882Y-4.3076
X2.32Y-3.1296
X2.32Y-3.4296
X2.3882Y-4.0076
X2.3882Y-4.3076
X2.42Y-3.1296
X2.42Y-3.4296
X3.1262Y-1.6598
X3.1262Y-1.7598
X3.4262Y-1.6598
X3.4262Y-1.7598
X3.8596Y-1.6602
X3.8596Y-1.7602
X4.1596Y-1.6602
X4.1596Y-1.7602
X4.5896Y-1.6613
X4.5896Y-1.7613
X4.8896Y-1.6613
X4.8896Y-1.7613
X5.3296Y-1.6602
X5.3296Y-1.7602
X5.6296Y-1.6602
X5.6296Y-1.7602
T5
X1.0415Y-0.8583
X1.0415Y-1.8583
X1.1415Y-0.8583
X1.1415Y-1.8583
X1.2415Y-0.8583
X1.2415Y-1.8583
X1.3415Y-0.8583
X1.3415Y-1.8583
X1.4415Y-0.8583
X1.4415Y-1.8583
X1.5415Y-0.8583
X1.5415Y-1.8583
X1.6415Y-0.8583
X1.6415Y-1.8583
X1.7415Y-0.8583
X1.7415Y-1.8583
X1.8415Y-0.8583
X1.8415Y-1.8583
X1.9415Y-0.8583
X1.9415Y-1.8583
X2.0415Y-0.8583
X2.0415Y-1.8583
X2.1415Y-0.8583
X2.1415Y-1.8583
X2.2415Y-0.8583
X2.2415Y-1.8583
X2.3415Y-0.8583
X2.3415Y-1.8583
X2.4415Y-0.8583
X2.4415Y-1.8583
T6
X3.0262Y-2.1498
X3.26Y-3.45
X3.36Y-3.45
X3.4262Y-2.1498
X3.46Y-3.45
X3.72Y-0.95
X3.76Y-2.15
X3.76Y-3.45
X3.86Y-3.45
X3.96Y-3.45
X4.12Y-0.95
X4.16Y-2.15
X4.25Y-3.45
X4.35Y-3.45
X4.45Y-3.45
X4.49Y-2.16
X4.75Y-3.45
X4.85Y-3.45
X4.89Y-2.16
X4.95Y-3.45
X5.23Y-2.1611
X5.63Y-2.1611
T7
X3.23Y-2.3311
X3.97Y-2.3311
X4.7Y-2.3311
X5.44Y-2.3311
T8
X1.1094Y-4.92
X1.3063Y-4.92
X1.5031Y-4.92
X1.7Y-4.92
X1.8969Y-4.92
X2.0937Y-4.92
X2.2906Y-4.92
X2.4874Y-4.92
X3.481Y-4.932
X3.6779Y-4.932
X3.8747Y-4.932
X4.0716Y-4.932
X4.2684Y-4.932
X4.4653Y-4.932
X4.6621Y-4.932
X4.859Y-4.932
T9
X2.9938Y-2.4098
X2.9938Y-2.8902
X3.4662Y-2.4098
X3.4662Y-2.8902
X3.7338Y-2.4098
X3.7338Y-2.8902
X4.2062Y-2.4098
X4.2062Y-2.8902
X4.4638Y-2.4098
X4.4638Y-2.8902
X4.9362Y-2.4098
X4.9362Y-2.8902
X5.2038Y-2.4098
X5.2038Y-2.8902
X5.6762Y-2.4098
X5.6762Y-2.8902
T4
G00X5.435Y-1.2087
M15
G01X5.435Y-1.2875
M16
G05
G00X5.6594Y-1.13
M15
G01X5.5806Y-1.13
M16
G05
G00X5.6594Y-1.3662
M15
G01X5.5806Y-1.3662
M16
G05
T0
M30
