%TF.GenerationSoftware,KiCad,Pcbnew,(6.0.9)*%
%TF.CreationDate,2022-12-27T14:16:08-08:00*%
%TF.ProjectId,halloween vending machine,68616c6c-6f77-4656-956e-2076656e6469,rev?*%
%TF.SameCoordinates,Original*%
%TF.FileFunction,Soldermask,Top*%
%TF.FilePolarity,Negative*%
%FSLAX46Y46*%
G04 Gerber Fmt 4.6, Leading zero omitted, Abs format (unit mm)*
G04 Created by KiCad (PCBNEW (6.0.9)) date 2022-12-27 14:16:08*
%MOMM*%
%LPD*%
G01*
G04 APERTURE LIST*
G04 Aperture macros list*
%AMRoundRect*
0 Rectangle with rounded corners*
0 $1 Rounding radius*
0 $2 $3 $4 $5 $6 $7 $8 $9 X,Y pos of 4 corners*
0 Add a 4 corners polygon primitive as box body*
4,1,4,$2,$3,$4,$5,$6,$7,$8,$9,$2,$3,0*
0 Add four circle primitives for the rounded corners*
1,1,$1+$1,$2,$3*
1,1,$1+$1,$4,$5*
1,1,$1+$1,$6,$7*
1,1,$1+$1,$8,$9*
0 Add four rect primitives between the rounded corners*
20,1,$1+$1,$2,$3,$4,$5,0*
20,1,$1+$1,$4,$5,$6,$7,0*
20,1,$1+$1,$6,$7,$8,$9,0*
20,1,$1+$1,$8,$9,$2,$3,0*%
G04 Aperture macros list end*
%ADD10R,1.980000X1.980000*%
%ADD11C,1.935000*%
%ADD12C,1.980000*%
%ADD13R,2.600000X2.600000*%
%ADD14C,2.600000*%
%ADD15RoundRect,0.250000X-0.625000X0.312500X-0.625000X-0.312500X0.625000X-0.312500X0.625000X0.312500X0*%
%ADD16RoundRect,0.218750X-0.218750X-0.256250X0.218750X-0.256250X0.218750X0.256250X-0.218750X0.256250X0*%
%ADD17RoundRect,0.250000X-0.312500X-0.625000X0.312500X-0.625000X0.312500X0.625000X-0.312500X0.625000X0*%
%ADD18RoundRect,0.218750X0.256250X-0.218750X0.256250X0.218750X-0.256250X0.218750X-0.256250X-0.218750X0*%
%ADD19RoundRect,0.250000X0.650000X-0.325000X0.650000X0.325000X-0.650000X0.325000X-0.650000X-0.325000X0*%
%ADD20R,1.600000X1.600000*%
%ADD21O,1.600000X1.600000*%
%ADD22RoundRect,0.250000X0.625000X-0.312500X0.625000X0.312500X-0.625000X0.312500X-0.625000X-0.312500X0*%
%ADD23RoundRect,0.075000X0.075000X-0.650000X0.075000X0.650000X-0.075000X0.650000X-0.075000X-0.650000X0*%
%ADD24RoundRect,0.218750X0.218750X0.256250X-0.218750X0.256250X-0.218750X-0.256250X0.218750X-0.256250X0*%
%ADD25RoundRect,0.150000X-0.150000X0.587500X-0.150000X-0.587500X0.150000X-0.587500X0.150000X0.587500X0*%
%ADD26RoundRect,0.087500X0.425000X0.087500X-0.425000X0.087500X-0.425000X-0.087500X0.425000X-0.087500X0*%
%ADD27RoundRect,0.087500X0.087500X0.425000X-0.087500X0.425000X-0.087500X-0.425000X0.087500X-0.425000X0*%
%ADD28R,2.100000X2.100000*%
%ADD29R,2.200000X2.200000*%
%ADD30O,2.200000X2.200000*%
%ADD31RoundRect,0.218750X-0.256250X0.218750X-0.256250X-0.218750X0.256250X-0.218750X0.256250X0.218750X0*%
%ADD32RoundRect,0.150000X-0.825000X-0.150000X0.825000X-0.150000X0.825000X0.150000X-0.825000X0.150000X0*%
%ADD33RoundRect,0.250001X0.799999X-1.999999X0.799999X1.999999X-0.799999X1.999999X-0.799999X-1.999999X0*%
%ADD34RoundRect,0.250000X0.325000X0.650000X-0.325000X0.650000X-0.325000X-0.650000X0.325000X-0.650000X0*%
%ADD35RoundRect,0.250000X0.312500X0.625000X-0.312500X0.625000X-0.312500X-0.625000X0.312500X-0.625000X0*%
%ADD36R,2.000000X2.000000*%
%ADD37C,2.000000*%
%ADD38R,1.905000X2.000000*%
%ADD39O,1.905000X2.000000*%
%ADD40RoundRect,0.250000X-0.312500X-1.450000X0.312500X-1.450000X0.312500X1.450000X-0.312500X1.450000X0*%
%ADD41R,3.500000X3.500000*%
%ADD42RoundRect,0.750000X-1.000000X0.750000X-1.000000X-0.750000X1.000000X-0.750000X1.000000X0.750000X0*%
%ADD43RoundRect,0.875000X-0.875000X0.875000X-0.875000X-0.875000X0.875000X-0.875000X0.875000X0.875000X0*%
%ADD44RoundRect,0.075000X-0.075000X0.650000X-0.075000X-0.650000X0.075000X-0.650000X0.075000X0.650000X0*%
G04 APERTURE END LIST*
D10*
%TO.C,K4*%
X144176000Y-61210000D03*
D11*
X138176000Y-59210000D03*
D12*
X132176000Y-61210000D03*
X132176000Y-73410000D03*
X144176000Y-73410000D03*
%TD*%
D10*
%TO.C,K3*%
X125380000Y-61210000D03*
D11*
X119380000Y-59210000D03*
D12*
X113380000Y-61210000D03*
X113380000Y-73410000D03*
X125380000Y-73410000D03*
%TD*%
D10*
%TO.C,K2*%
X106838000Y-61210000D03*
D11*
X100838000Y-59210000D03*
D12*
X94838000Y-61210000D03*
X94838000Y-73410000D03*
X106838000Y-73410000D03*
%TD*%
D10*
%TO.C,K1*%
X88042000Y-61210000D03*
D11*
X82042000Y-59210000D03*
D12*
X76042000Y-61210000D03*
X76042000Y-73410000D03*
X88042000Y-73410000D03*
%TD*%
D13*
%TO.C,J2*%
X28180000Y-124968000D03*
D14*
X33180000Y-124968000D03*
X38180000Y-124968000D03*
X43180000Y-124968000D03*
X48180000Y-124968000D03*
X53180000Y-124968000D03*
X58180000Y-124968000D03*
X63180000Y-124968000D03*
%TD*%
D15*
%TO.C,R24*%
X87026000Y-48063500D03*
X87026000Y-50988500D03*
%TD*%
D16*
%TO.C,D19*%
X106451500Y-113792000D03*
X104876500Y-113792000D03*
%TD*%
D17*
%TO.C,R21*%
X40915500Y-92151000D03*
X43840500Y-92151000D03*
%TD*%
D18*
%TO.C,D13*%
X127508000Y-49047500D03*
X127508000Y-47472500D03*
%TD*%
D19*
%TO.C,C4*%
X113030000Y-102313000D03*
X113030000Y-99363000D03*
%TD*%
D20*
%TO.C,U5*%
X28149000Y-109159000D03*
D21*
X30689000Y-109159000D03*
X30689000Y-101539000D03*
X28149000Y-101539000D03*
%TD*%
D22*
%TO.C,R50*%
X47458000Y-74055500D03*
X47458000Y-71130500D03*
%TD*%
D23*
%TO.C,U17*%
X60976000Y-60874000D03*
X61476000Y-60874000D03*
X61976000Y-60874000D03*
X62476000Y-60874000D03*
X62976000Y-60874000D03*
X62976000Y-56474000D03*
X62476000Y-56474000D03*
X61976000Y-56474000D03*
X61476000Y-56474000D03*
X60976000Y-56474000D03*
%TD*%
D13*
%TO.C,J3*%
X88418000Y-125273000D03*
D14*
X93418000Y-125273000D03*
X98418000Y-125273000D03*
X103418000Y-125273000D03*
X108418000Y-125273000D03*
X113418000Y-125273000D03*
X118418000Y-125273000D03*
X123418000Y-125273000D03*
%TD*%
D24*
%TO.C,D18*%
X92227500Y-112522000D03*
X90652500Y-112522000D03*
%TD*%
D17*
%TO.C,R17*%
X40661500Y-97231000D03*
X43586500Y-97231000D03*
%TD*%
D20*
%TO.C,U12*%
X142992000Y-44709000D03*
D21*
X142992000Y-42169000D03*
X135372000Y-42169000D03*
X135372000Y-44709000D03*
%TD*%
D25*
%TO.C,Q1*%
X77816000Y-48159000D03*
X75916000Y-48159000D03*
X76866000Y-50034000D03*
%TD*%
D15*
%TO.C,R27*%
X124206000Y-48095500D03*
X124206000Y-51020500D03*
%TD*%
D17*
%TO.C,R18*%
X50567500Y-97231000D03*
X53492500Y-97231000D03*
%TD*%
D18*
%TO.C,D10*%
X90170000Y-49047500D03*
X90170000Y-47472500D03*
%TD*%
D15*
%TO.C,R31*%
X131572000Y-42225500D03*
X131572000Y-45150500D03*
%TD*%
D17*
%TO.C,R20*%
X30755500Y-92151000D03*
X33680500Y-92151000D03*
%TD*%
D26*
%TO.C,U3*%
X99144500Y-99527000D03*
X99144500Y-98877000D03*
X99144500Y-98227000D03*
X99144500Y-97577000D03*
D27*
X98257000Y-96689500D03*
X97607000Y-96689500D03*
X96957000Y-96689500D03*
X96307000Y-96689500D03*
D26*
X95419500Y-97577000D03*
X95419500Y-98227000D03*
X95419500Y-98877000D03*
X95419500Y-99527000D03*
D27*
X96307000Y-100414500D03*
X96957000Y-100414500D03*
X97607000Y-100414500D03*
X98257000Y-100414500D03*
D28*
X97282000Y-98552000D03*
%TD*%
D29*
%TO.C,D15*%
X105664000Y-54610000D03*
D30*
X95504000Y-54610000D03*
%TD*%
D31*
%TO.C,D6*%
X27646000Y-95732500D03*
X27646000Y-97307500D03*
%TD*%
D32*
%TO.C,U2*%
X109539000Y-30861000D03*
X109539000Y-32131000D03*
X109539000Y-33401000D03*
X109539000Y-34671000D03*
X114489000Y-34671000D03*
X114489000Y-33401000D03*
X114489000Y-32131000D03*
X114489000Y-30861000D03*
%TD*%
D17*
%TO.C,R44*%
X110805500Y-109982000D03*
X113730500Y-109982000D03*
%TD*%
D33*
%TO.C,C3*%
X86360000Y-32092000D03*
X86360000Y-24892000D03*
%TD*%
D22*
%TO.C,R51*%
X57872000Y-74055500D03*
X57872000Y-71130500D03*
%TD*%
D31*
%TO.C,D8*%
X47458000Y-95732500D03*
X47458000Y-97307500D03*
%TD*%
D24*
%TO.C,D23*%
X40919500Y-76657000D03*
X39344500Y-76657000D03*
%TD*%
D22*
%TO.C,R8*%
X28154000Y-117489500D03*
X28154000Y-114564500D03*
%TD*%
%TO.C,R5*%
X91948000Y-100715000D03*
X91948000Y-97790000D03*
%TD*%
%TO.C,R13*%
X53046000Y-117489500D03*
X53046000Y-114564500D03*
%TD*%
D15*
%TO.C,R26*%
X105664000Y-48067500D03*
X105664000Y-50992500D03*
%TD*%
D22*
%TO.C,R59*%
X51308000Y-57404000D03*
X51308000Y-54479000D03*
%TD*%
D15*
%TO.C,R30*%
X112776000Y-42253500D03*
X112776000Y-45178500D03*
%TD*%
D20*
%TO.C,U13*%
X28189000Y-87112000D03*
D21*
X30729000Y-87112000D03*
X30729000Y-79492000D03*
X28189000Y-79492000D03*
%TD*%
D31*
%TO.C,D4*%
X53046000Y-111266500D03*
X53046000Y-112841500D03*
%TD*%
D22*
%TO.C,R12*%
X47966000Y-117489500D03*
X47966000Y-114564500D03*
%TD*%
D17*
%TO.C,R23*%
X60727500Y-92151000D03*
X63652500Y-92151000D03*
%TD*%
D31*
%TO.C,D7*%
X37552000Y-95732500D03*
X37552000Y-97307500D03*
%TD*%
D15*
%TO.C,R35*%
X100584000Y-82996500D03*
X100584000Y-80071500D03*
%TD*%
D17*
%TO.C,R42*%
X106110500Y-109982000D03*
X103185500Y-109982000D03*
%TD*%
D15*
%TO.C,R33*%
X125730000Y-80071500D03*
X125730000Y-82996500D03*
%TD*%
D18*
%TO.C,D14*%
X146304000Y-49047500D03*
X146304000Y-47472500D03*
%TD*%
D22*
%TO.C,R60*%
X125730000Y-100776500D03*
X125730000Y-97851500D03*
%TD*%
D17*
%TO.C,R46*%
X120965500Y-109982000D03*
X123890500Y-109982000D03*
%TD*%
D31*
%TO.C,D2*%
X32980000Y-110921500D03*
X32980000Y-112496500D03*
%TD*%
D15*
%TO.C,R2*%
X79248000Y-22921500D03*
X79248000Y-25846500D03*
%TD*%
D31*
%TO.C,D9*%
X57618000Y-95732500D03*
X57618000Y-97307500D03*
%TD*%
D24*
%TO.C,D25*%
X61239500Y-76657000D03*
X59664500Y-76657000D03*
%TD*%
D34*
%TO.C,C5*%
X61419000Y-64008000D03*
X58469000Y-64008000D03*
%TD*%
D22*
%TO.C,R39*%
X95504000Y-80071500D03*
X95504000Y-82996500D03*
%TD*%
%TO.C,R49*%
X37552000Y-74055500D03*
X37552000Y-71130500D03*
%TD*%
D35*
%TO.C,R57*%
X118302500Y-106172000D03*
X115377500Y-106172000D03*
%TD*%
D22*
%TO.C,R11*%
X42886000Y-117489500D03*
X42886000Y-114564500D03*
%TD*%
D31*
%TO.C,D3*%
X42886000Y-111175500D03*
X42886000Y-112750500D03*
%TD*%
D36*
%TO.C,U1*%
X62015000Y-21800000D03*
D37*
X59475000Y-21800000D03*
X56935000Y-21800000D03*
X54395000Y-21800000D03*
X51855000Y-21800000D03*
X49315000Y-21800000D03*
X46775000Y-21800000D03*
X44235000Y-21800000D03*
X41695000Y-21800000D03*
X39155000Y-21800000D03*
X36615000Y-21800000D03*
X34075000Y-21800000D03*
X31535000Y-21800000D03*
X28995000Y-21800000D03*
X26455000Y-21800000D03*
X26455000Y-47200000D03*
X28995000Y-47200000D03*
X31535000Y-47200000D03*
X34075000Y-47200000D03*
X36615000Y-47200000D03*
X39155000Y-47200000D03*
X41695000Y-47200000D03*
X44235000Y-47200000D03*
X46775000Y-47200000D03*
X49315000Y-47200000D03*
X51855000Y-47200000D03*
X54395000Y-47200000D03*
X56935000Y-47200000D03*
X59475000Y-47200000D03*
X62015000Y-47200000D03*
%TD*%
D17*
%TO.C,R43*%
X106110500Y-117094000D03*
X103185500Y-117094000D03*
%TD*%
%TO.C,R19*%
X60727500Y-97231000D03*
X63652500Y-97231000D03*
%TD*%
D22*
%TO.C,R62*%
X54864000Y-57404000D03*
X54864000Y-54479000D03*
%TD*%
D15*
%TO.C,R25*%
X75596000Y-42221500D03*
X75596000Y-45146500D03*
%TD*%
D16*
%TO.C,D26*%
X95057500Y-34500000D03*
X96632500Y-34500000D03*
%TD*%
D29*
%TO.C,D17*%
X143002000Y-54892000D03*
D30*
X132842000Y-54892000D03*
%TD*%
D35*
%TO.C,R40*%
X93918500Y-109728000D03*
X90993500Y-109728000D03*
%TD*%
D22*
%TO.C,R6*%
X85598000Y-100715000D03*
X85598000Y-97790000D03*
%TD*%
D31*
%TO.C,D5*%
X63206000Y-111266500D03*
X63206000Y-112841500D03*
%TD*%
D20*
%TO.C,U7*%
X47961000Y-109413000D03*
D21*
X50501000Y-109413000D03*
X50501000Y-101793000D03*
X47961000Y-101793000D03*
%TD*%
D20*
%TO.C,U11*%
X124196000Y-44737000D03*
D21*
X124196000Y-42197000D03*
X116576000Y-42197000D03*
X116576000Y-44737000D03*
%TD*%
D24*
%TO.C,D22*%
X31267500Y-76667000D03*
X29692500Y-76667000D03*
%TD*%
D35*
%TO.C,R41*%
X93918500Y-116840000D03*
X90993500Y-116840000D03*
%TD*%
D17*
%TO.C,R63*%
X94382500Y-31480000D03*
X97307500Y-31480000D03*
%TD*%
%TO.C,R56*%
X95565500Y-105156000D03*
X98490500Y-105156000D03*
%TD*%
D25*
%TO.C,Q3*%
X114996000Y-48163000D03*
X113096000Y-48163000D03*
X114046000Y-50038000D03*
%TD*%
D24*
%TO.C,D24*%
X51079500Y-76657000D03*
X49504500Y-76657000D03*
%TD*%
D38*
%TO.C,Q5*%
X113030000Y-87630000D03*
D39*
X110490000Y-87630000D03*
X107950000Y-87630000D03*
%TD*%
D15*
%TO.C,R32*%
X113030000Y-80071500D03*
X113030000Y-82996500D03*
%TD*%
D25*
%TO.C,Q4*%
X133792000Y-48699000D03*
X131892000Y-48699000D03*
X132842000Y-50574000D03*
%TD*%
D15*
%TO.C,R29*%
X94234000Y-42225500D03*
X94234000Y-45150500D03*
%TD*%
%TO.C,R34*%
X77724000Y-82996500D03*
X77724000Y-80071500D03*
%TD*%
D40*
%TO.C,L1*%
X109728000Y-24130000D03*
X114003000Y-24130000D03*
%TD*%
D20*
%TO.C,U10*%
X105654000Y-44709000D03*
D21*
X105654000Y-42169000D03*
X98034000Y-42169000D03*
X98034000Y-44709000D03*
%TD*%
D18*
%TO.C,D12*%
X108966000Y-49047500D03*
X108966000Y-47472500D03*
%TD*%
D15*
%TO.C,R7*%
X102616000Y-97790000D03*
X102616000Y-100715000D03*
%TD*%
D22*
%TO.C,R48*%
X27646000Y-74117000D03*
X27646000Y-71192000D03*
%TD*%
D20*
%TO.C,U6*%
X38055000Y-109159000D03*
D21*
X40595000Y-109159000D03*
X40595000Y-101539000D03*
X38055000Y-101539000D03*
%TD*%
D29*
%TO.C,D1*%
X104648000Y-24130000D03*
D30*
X94488000Y-24130000D03*
%TD*%
D34*
%TO.C,C2*%
X105107000Y-33528000D03*
X102157000Y-33528000D03*
%TD*%
D20*
%TO.C,U9*%
X87026000Y-44700000D03*
D21*
X87026000Y-42160000D03*
X79406000Y-42160000D03*
X79406000Y-44700000D03*
%TD*%
D22*
%TO.C,R38*%
X82804000Y-80071500D03*
X82804000Y-82996500D03*
%TD*%
D15*
%TO.C,R28*%
X143002000Y-48067500D03*
X143002000Y-50992500D03*
%TD*%
D24*
%TO.C,D21*%
X125247500Y-113792000D03*
X123672500Y-113792000D03*
%TD*%
D22*
%TO.C,R52*%
X31202000Y-74117000D03*
X31202000Y-71192000D03*
%TD*%
D17*
%TO.C,R45*%
X110805500Y-117094000D03*
X113730500Y-117094000D03*
%TD*%
D20*
%TO.C,U8*%
X58121000Y-109413000D03*
D21*
X60661000Y-109413000D03*
X60661000Y-101793000D03*
X58121000Y-101793000D03*
%TD*%
D16*
%TO.C,D20*%
X112496500Y-113792000D03*
X114071500Y-113792000D03*
%TD*%
D29*
%TO.C,D11*%
X87026000Y-54606000D03*
D30*
X76866000Y-54606000D03*
%TD*%
D22*
%TO.C,R54*%
X51014000Y-74117000D03*
X51014000Y-71192000D03*
%TD*%
D41*
%TO.C,J1*%
X142748000Y-34702000D03*
D42*
X142748000Y-28702000D03*
D43*
X138048000Y-31702000D03*
%TD*%
D22*
%TO.C,R61*%
X121920000Y-100776500D03*
X121920000Y-97851500D03*
%TD*%
%TO.C,R36*%
X107950000Y-82996500D03*
X107950000Y-80071500D03*
%TD*%
D20*
%TO.C,U15*%
X48260000Y-87112000D03*
D21*
X50800000Y-87112000D03*
X50800000Y-79492000D03*
X48260000Y-79492000D03*
%TD*%
D22*
%TO.C,R37*%
X120650000Y-82996500D03*
X120650000Y-80071500D03*
%TD*%
D35*
%TO.C,R58*%
X62676500Y-52578000D03*
X59751500Y-52578000D03*
%TD*%
D38*
%TO.C,Q7*%
X87884000Y-87630000D03*
D39*
X85344000Y-87630000D03*
X82804000Y-87630000D03*
%TD*%
D33*
%TO.C,C1*%
X127762000Y-34842000D03*
X127762000Y-27642000D03*
%TD*%
D22*
%TO.C,R55*%
X61428000Y-74055500D03*
X61428000Y-71130500D03*
%TD*%
%TO.C,R9*%
X32980000Y-117489500D03*
X32980000Y-114564500D03*
%TD*%
D25*
%TO.C,Q2*%
X96454000Y-48163000D03*
X94554000Y-48163000D03*
X95504000Y-50038000D03*
%TD*%
D22*
%TO.C,R15*%
X63206000Y-117489500D03*
X63206000Y-114564500D03*
%TD*%
%TO.C,R1*%
X119126000Y-34736500D03*
X119126000Y-31811500D03*
%TD*%
D38*
%TO.C,Q8*%
X100584000Y-87630000D03*
D39*
X98044000Y-87630000D03*
X95504000Y-87630000D03*
%TD*%
D20*
%TO.C,U14*%
X38608000Y-87112000D03*
D21*
X41148000Y-87112000D03*
X41148000Y-79492000D03*
X38608000Y-79492000D03*
%TD*%
D44*
%TO.C,U4*%
X118602000Y-97876000D03*
X118102000Y-97876000D03*
X117602000Y-97876000D03*
X117102000Y-97876000D03*
X116602000Y-97876000D03*
X116602000Y-102276000D03*
X117102000Y-102276000D03*
X117602000Y-102276000D03*
X118102000Y-102276000D03*
X118602000Y-102276000D03*
%TD*%
D17*
%TO.C,R16*%
X30755500Y-97231000D03*
X33680500Y-97231000D03*
%TD*%
D15*
%TO.C,R3*%
X79248000Y-29271500D03*
X79248000Y-32196500D03*
%TD*%
D22*
%TO.C,R4*%
X81788000Y-100715000D03*
X81788000Y-97790000D03*
%TD*%
D17*
%TO.C,R22*%
X50567500Y-92151000D03*
X53492500Y-92151000D03*
%TD*%
%TO.C,R47*%
X120965500Y-116840000D03*
X123890500Y-116840000D03*
%TD*%
D22*
%TO.C,R10*%
X38060000Y-117489500D03*
X38060000Y-114564500D03*
%TD*%
%TO.C,R53*%
X41108000Y-74055500D03*
X41108000Y-71130500D03*
%TD*%
%TO.C,R14*%
X58126000Y-117489500D03*
X58126000Y-114564500D03*
%TD*%
D29*
%TO.C,D16*%
X124206000Y-54864000D03*
D30*
X114046000Y-54864000D03*
%TD*%
D20*
%TO.C,U16*%
X58928000Y-87112000D03*
D21*
X61468000Y-87112000D03*
X61468000Y-79492000D03*
X58928000Y-79492000D03*
%TD*%
D38*
%TO.C,Q6*%
X125730000Y-87630000D03*
D39*
X123190000Y-87630000D03*
X120650000Y-87630000D03*
%TD*%
M02*
