%TF.GenerationSoftware,KiCad,Pcbnew,7.0.5*%
%TF.CreationDate,2023-06-06T14:49:00-07:00*%
%TF.ProjectId,halloween vending machine,68616c6c-6f77-4656-956e-2076656e6469,rev?*%
%TF.SameCoordinates,Original*%
%TF.FileFunction,Legend,Bot*%
%TF.FilePolarity,Positive*%
%FSLAX46Y46*%
G04 Gerber Fmt 4.6, Leading zero omitted, Abs format (unit mm)*
G04 Created by KiCad (PCBNEW 7.0.5) date 2023-06-06 14:49:00*
%MOMM*%
%LPD*%
G01*
G04 APERTURE LIST*
G04 Aperture macros list*
%AMRoundRect*
0 Rectangle with rounded corners*
0 $1 Rounding radius*
0 $2 $3 $4 $5 $6 $7 $8 $9 X,Y pos of 4 corners*
0 Add a 4 corners polygon primitive as box body*
4,1,4,$2,$3,$4,$5,$6,$7,$8,$9,$2,$3,0*
0 Add four circle primitives for the rounded corners*
1,1,$1+$1,$2,$3*
1,1,$1+$1,$4,$5*
1,1,$1+$1,$6,$7*
1,1,$1+$1,$8,$9*
0 Add four rect primitives between the rounded corners*
20,1,$1+$1,$2,$3,$4,$5,0*
20,1,$1+$1,$4,$5,$6,$7,0*
20,1,$1+$1,$6,$7,$8,$9,0*
20,1,$1+$1,$8,$9,$2,$3,0*%
G04 Aperture macros list end*
%ADD10C,0.150000*%
%ADD11C,0.120000*%
%ADD12R,1.980000X1.980000*%
%ADD13C,1.935000*%
%ADD14C,1.980000*%
%ADD15R,2.600000X2.600000*%
%ADD16C,2.600000*%
%ADD17R,1.600000X1.600000*%
%ADD18O,1.600000X1.600000*%
%ADD19R,2.200000X2.200000*%
%ADD20O,2.200000X2.200000*%
%ADD21R,2.000000X2.000000*%
%ADD22C,2.000000*%
%ADD23R,1.905000X2.000000*%
%ADD24O,1.905000X2.000000*%
%ADD25R,3.500000X3.500000*%
%ADD26RoundRect,0.750000X-1.000000X0.750000X-1.000000X-0.750000X1.000000X-0.750000X1.000000X0.750000X0*%
%ADD27RoundRect,0.875000X-0.875000X0.875000X-0.875000X-0.875000X0.875000X-0.875000X0.875000X0.875000X0*%
%ADD28R,1.000000X1.500000*%
G04 APERTURE END LIST*
D10*
%TO.C,JP3*%
X120213333Y-74914819D02*
X120213333Y-75629104D01*
X120213333Y-75629104D02*
X120260952Y-75771961D01*
X120260952Y-75771961D02*
X120356190Y-75867200D01*
X120356190Y-75867200D02*
X120499047Y-75914819D01*
X120499047Y-75914819D02*
X120594285Y-75914819D01*
X119737142Y-75914819D02*
X119737142Y-74914819D01*
X119737142Y-74914819D02*
X119356190Y-74914819D01*
X119356190Y-74914819D02*
X119260952Y-74962438D01*
X119260952Y-74962438D02*
X119213333Y-75010057D01*
X119213333Y-75010057D02*
X119165714Y-75105295D01*
X119165714Y-75105295D02*
X119165714Y-75248152D01*
X119165714Y-75248152D02*
X119213333Y-75343390D01*
X119213333Y-75343390D02*
X119260952Y-75391009D01*
X119260952Y-75391009D02*
X119356190Y-75438628D01*
X119356190Y-75438628D02*
X119737142Y-75438628D01*
X118832380Y-74914819D02*
X118213333Y-74914819D01*
X118213333Y-74914819D02*
X118546666Y-75295771D01*
X118546666Y-75295771D02*
X118403809Y-75295771D01*
X118403809Y-75295771D02*
X118308571Y-75343390D01*
X118308571Y-75343390D02*
X118260952Y-75391009D01*
X118260952Y-75391009D02*
X118213333Y-75486247D01*
X118213333Y-75486247D02*
X118213333Y-75724342D01*
X118213333Y-75724342D02*
X118260952Y-75819580D01*
X118260952Y-75819580D02*
X118308571Y-75867200D01*
X118308571Y-75867200D02*
X118403809Y-75914819D01*
X118403809Y-75914819D02*
X118689523Y-75914819D01*
X118689523Y-75914819D02*
X118784761Y-75867200D01*
X118784761Y-75867200D02*
X118832380Y-75819580D01*
X122313332Y-73114819D02*
X121694285Y-73114819D01*
X121694285Y-73114819D02*
X122027618Y-73495771D01*
X122027618Y-73495771D02*
X121884761Y-73495771D01*
X121884761Y-73495771D02*
X121789523Y-73543390D01*
X121789523Y-73543390D02*
X121741904Y-73591009D01*
X121741904Y-73591009D02*
X121694285Y-73686247D01*
X121694285Y-73686247D02*
X121694285Y-73924342D01*
X121694285Y-73924342D02*
X121741904Y-74019580D01*
X121741904Y-74019580D02*
X121789523Y-74067200D01*
X121789523Y-74067200D02*
X121884761Y-74114819D01*
X121884761Y-74114819D02*
X122170475Y-74114819D01*
X122170475Y-74114819D02*
X122265713Y-74067200D01*
X122265713Y-74067200D02*
X122313332Y-74019580D01*
X116494285Y-74114819D02*
X117065713Y-74114819D01*
X116779999Y-74114819D02*
X116779999Y-73114819D01*
X116779999Y-73114819D02*
X116875237Y-73257676D01*
X116875237Y-73257676D02*
X116970475Y-73352914D01*
X116970475Y-73352914D02*
X117065713Y-73400533D01*
%TO.C,JP1*%
X82621333Y-74914819D02*
X82621333Y-75629104D01*
X82621333Y-75629104D02*
X82668952Y-75771961D01*
X82668952Y-75771961D02*
X82764190Y-75867200D01*
X82764190Y-75867200D02*
X82907047Y-75914819D01*
X82907047Y-75914819D02*
X83002285Y-75914819D01*
X82145142Y-75914819D02*
X82145142Y-74914819D01*
X82145142Y-74914819D02*
X81764190Y-74914819D01*
X81764190Y-74914819D02*
X81668952Y-74962438D01*
X81668952Y-74962438D02*
X81621333Y-75010057D01*
X81621333Y-75010057D02*
X81573714Y-75105295D01*
X81573714Y-75105295D02*
X81573714Y-75248152D01*
X81573714Y-75248152D02*
X81621333Y-75343390D01*
X81621333Y-75343390D02*
X81668952Y-75391009D01*
X81668952Y-75391009D02*
X81764190Y-75438628D01*
X81764190Y-75438628D02*
X82145142Y-75438628D01*
X80621333Y-75914819D02*
X81192761Y-75914819D01*
X80907047Y-75914819D02*
X80907047Y-74914819D01*
X80907047Y-74914819D02*
X81002285Y-75057676D01*
X81002285Y-75057676D02*
X81097523Y-75152914D01*
X81097523Y-75152914D02*
X81192761Y-75200533D01*
X84721332Y-73114819D02*
X84102285Y-73114819D01*
X84102285Y-73114819D02*
X84435618Y-73495771D01*
X84435618Y-73495771D02*
X84292761Y-73495771D01*
X84292761Y-73495771D02*
X84197523Y-73543390D01*
X84197523Y-73543390D02*
X84149904Y-73591009D01*
X84149904Y-73591009D02*
X84102285Y-73686247D01*
X84102285Y-73686247D02*
X84102285Y-73924342D01*
X84102285Y-73924342D02*
X84149904Y-74019580D01*
X84149904Y-74019580D02*
X84197523Y-74067200D01*
X84197523Y-74067200D02*
X84292761Y-74114819D01*
X84292761Y-74114819D02*
X84578475Y-74114819D01*
X84578475Y-74114819D02*
X84673713Y-74067200D01*
X84673713Y-74067200D02*
X84721332Y-74019580D01*
X78902285Y-74114819D02*
X79473713Y-74114819D01*
X79187999Y-74114819D02*
X79187999Y-73114819D01*
X79187999Y-73114819D02*
X79283237Y-73257676D01*
X79283237Y-73257676D02*
X79378475Y-73352914D01*
X79378475Y-73352914D02*
X79473713Y-73400533D01*
%TO.C,JP4*%
X139009333Y-74914819D02*
X139009333Y-75629104D01*
X139009333Y-75629104D02*
X139056952Y-75771961D01*
X139056952Y-75771961D02*
X139152190Y-75867200D01*
X139152190Y-75867200D02*
X139295047Y-75914819D01*
X139295047Y-75914819D02*
X139390285Y-75914819D01*
X138533142Y-75914819D02*
X138533142Y-74914819D01*
X138533142Y-74914819D02*
X138152190Y-74914819D01*
X138152190Y-74914819D02*
X138056952Y-74962438D01*
X138056952Y-74962438D02*
X138009333Y-75010057D01*
X138009333Y-75010057D02*
X137961714Y-75105295D01*
X137961714Y-75105295D02*
X137961714Y-75248152D01*
X137961714Y-75248152D02*
X138009333Y-75343390D01*
X138009333Y-75343390D02*
X138056952Y-75391009D01*
X138056952Y-75391009D02*
X138152190Y-75438628D01*
X138152190Y-75438628D02*
X138533142Y-75438628D01*
X137104571Y-75248152D02*
X137104571Y-75914819D01*
X137342666Y-74867200D02*
X137580761Y-75581485D01*
X137580761Y-75581485D02*
X136961714Y-75581485D01*
X141109332Y-73114819D02*
X140490285Y-73114819D01*
X140490285Y-73114819D02*
X140823618Y-73495771D01*
X140823618Y-73495771D02*
X140680761Y-73495771D01*
X140680761Y-73495771D02*
X140585523Y-73543390D01*
X140585523Y-73543390D02*
X140537904Y-73591009D01*
X140537904Y-73591009D02*
X140490285Y-73686247D01*
X140490285Y-73686247D02*
X140490285Y-73924342D01*
X140490285Y-73924342D02*
X140537904Y-74019580D01*
X140537904Y-74019580D02*
X140585523Y-74067200D01*
X140585523Y-74067200D02*
X140680761Y-74114819D01*
X140680761Y-74114819D02*
X140966475Y-74114819D01*
X140966475Y-74114819D02*
X141061713Y-74067200D01*
X141061713Y-74067200D02*
X141109332Y-74019580D01*
X135290285Y-74114819D02*
X135861713Y-74114819D01*
X135575999Y-74114819D02*
X135575999Y-73114819D01*
X135575999Y-73114819D02*
X135671237Y-73257676D01*
X135671237Y-73257676D02*
X135766475Y-73352914D01*
X135766475Y-73352914D02*
X135861713Y-73400533D01*
%TO.C,JP2*%
X101417333Y-74914819D02*
X101417333Y-75629104D01*
X101417333Y-75629104D02*
X101464952Y-75771961D01*
X101464952Y-75771961D02*
X101560190Y-75867200D01*
X101560190Y-75867200D02*
X101703047Y-75914819D01*
X101703047Y-75914819D02*
X101798285Y-75914819D01*
X100941142Y-75914819D02*
X100941142Y-74914819D01*
X100941142Y-74914819D02*
X100560190Y-74914819D01*
X100560190Y-74914819D02*
X100464952Y-74962438D01*
X100464952Y-74962438D02*
X100417333Y-75010057D01*
X100417333Y-75010057D02*
X100369714Y-75105295D01*
X100369714Y-75105295D02*
X100369714Y-75248152D01*
X100369714Y-75248152D02*
X100417333Y-75343390D01*
X100417333Y-75343390D02*
X100464952Y-75391009D01*
X100464952Y-75391009D02*
X100560190Y-75438628D01*
X100560190Y-75438628D02*
X100941142Y-75438628D01*
X99988761Y-75010057D02*
X99941142Y-74962438D01*
X99941142Y-74962438D02*
X99845904Y-74914819D01*
X99845904Y-74914819D02*
X99607809Y-74914819D01*
X99607809Y-74914819D02*
X99512571Y-74962438D01*
X99512571Y-74962438D02*
X99464952Y-75010057D01*
X99464952Y-75010057D02*
X99417333Y-75105295D01*
X99417333Y-75105295D02*
X99417333Y-75200533D01*
X99417333Y-75200533D02*
X99464952Y-75343390D01*
X99464952Y-75343390D02*
X100036380Y-75914819D01*
X100036380Y-75914819D02*
X99417333Y-75914819D01*
X103517332Y-73114819D02*
X102898285Y-73114819D01*
X102898285Y-73114819D02*
X103231618Y-73495771D01*
X103231618Y-73495771D02*
X103088761Y-73495771D01*
X103088761Y-73495771D02*
X102993523Y-73543390D01*
X102993523Y-73543390D02*
X102945904Y-73591009D01*
X102945904Y-73591009D02*
X102898285Y-73686247D01*
X102898285Y-73686247D02*
X102898285Y-73924342D01*
X102898285Y-73924342D02*
X102945904Y-74019580D01*
X102945904Y-74019580D02*
X102993523Y-74067200D01*
X102993523Y-74067200D02*
X103088761Y-74114819D01*
X103088761Y-74114819D02*
X103374475Y-74114819D01*
X103374475Y-74114819D02*
X103469713Y-74067200D01*
X103469713Y-74067200D02*
X103517332Y-74019580D01*
X97698285Y-74114819D02*
X98269713Y-74114819D01*
X97983999Y-74114819D02*
X97983999Y-73114819D01*
X97983999Y-73114819D02*
X98079237Y-73257676D01*
X98079237Y-73257676D02*
X98174475Y-73352914D01*
X98174475Y-73352914D02*
X98269713Y-73400533D01*
D11*
%TO.C,JP3*%
X121430000Y-74660000D02*
X121430000Y-72660000D01*
X121430000Y-72660000D02*
X117330000Y-72660000D01*
X117330000Y-72660000D02*
X117330000Y-74660000D01*
X117330000Y-74660000D02*
X121430000Y-74660000D01*
%TO.C,JP1*%
X83838000Y-72660000D02*
X79738000Y-72660000D01*
X79738000Y-72660000D02*
X79738000Y-74660000D01*
X83838000Y-74660000D02*
X83838000Y-72660000D01*
X79738000Y-74660000D02*
X83838000Y-74660000D01*
%TO.C,JP4*%
X136126000Y-72660000D02*
X136126000Y-74660000D01*
X140226000Y-74660000D02*
X140226000Y-72660000D01*
X140226000Y-72660000D02*
X136126000Y-72660000D01*
X136126000Y-74660000D02*
X140226000Y-74660000D01*
%TO.C,JP2*%
X98534000Y-74660000D02*
X102634000Y-74660000D01*
X98534000Y-72660000D02*
X98534000Y-74660000D01*
X102634000Y-74660000D02*
X102634000Y-72660000D01*
X102634000Y-72660000D02*
X98534000Y-72660000D01*
%TD*%
%LPC*%
D12*
%TO.C,K4*%
X144176000Y-61210000D03*
D13*
X138176000Y-59210000D03*
D14*
X132176000Y-61210000D03*
X132176000Y-73410000D03*
X144176000Y-73410000D03*
%TD*%
D12*
%TO.C,K3*%
X125380000Y-61210000D03*
D13*
X119380000Y-59210000D03*
D14*
X113380000Y-61210000D03*
X113380000Y-73410000D03*
X125380000Y-73410000D03*
%TD*%
D12*
%TO.C,K2*%
X106838000Y-61210000D03*
D13*
X100838000Y-59210000D03*
D14*
X94838000Y-61210000D03*
X94838000Y-73410000D03*
X106838000Y-73410000D03*
%TD*%
D12*
%TO.C,K1*%
X88042000Y-61210000D03*
D13*
X82042000Y-59210000D03*
D14*
X76042000Y-61210000D03*
X76042000Y-73410000D03*
X88042000Y-73410000D03*
%TD*%
D15*
%TO.C,J2*%
X28180000Y-124968000D03*
D16*
X33180000Y-124968000D03*
X38180000Y-124968000D03*
X43180000Y-124968000D03*
X48180000Y-124968000D03*
X53180000Y-124968000D03*
X58180000Y-124968000D03*
X63180000Y-124968000D03*
%TD*%
D17*
%TO.C,U5*%
X28149000Y-109159000D03*
D18*
X30689000Y-109159000D03*
X30689000Y-101539000D03*
X28149000Y-101539000D03*
%TD*%
D15*
%TO.C,J3*%
X88418000Y-125273000D03*
D16*
X93418000Y-125273000D03*
X98418000Y-125273000D03*
X103418000Y-125273000D03*
X108418000Y-125273000D03*
X113418000Y-125273000D03*
X118418000Y-125273000D03*
X123418000Y-125273000D03*
%TD*%
D17*
%TO.C,U12*%
X142992000Y-44709000D03*
D18*
X142992000Y-42169000D03*
X135372000Y-42169000D03*
X135372000Y-44709000D03*
%TD*%
D19*
%TO.C,D15*%
X105664000Y-54610000D03*
D20*
X95504000Y-54610000D03*
%TD*%
D17*
%TO.C,U13*%
X28189000Y-87112000D03*
D18*
X30729000Y-87112000D03*
X30729000Y-79492000D03*
X28189000Y-79492000D03*
%TD*%
D21*
%TO.C,U1*%
X62015000Y-21800000D03*
D22*
X59475000Y-21800000D03*
X56935000Y-21800000D03*
X54395000Y-21800000D03*
X51855000Y-21800000D03*
X49315000Y-21800000D03*
X46775000Y-21800000D03*
X44235000Y-21800000D03*
X41695000Y-21800000D03*
X39155000Y-21800000D03*
X36615000Y-21800000D03*
X34075000Y-21800000D03*
X31535000Y-21800000D03*
X28995000Y-21800000D03*
X26455000Y-21800000D03*
X26455000Y-47200000D03*
X28995000Y-47200000D03*
X31535000Y-47200000D03*
X34075000Y-47200000D03*
X36615000Y-47200000D03*
X39155000Y-47200000D03*
X41695000Y-47200000D03*
X44235000Y-47200000D03*
X46775000Y-47200000D03*
X49315000Y-47200000D03*
X51855000Y-47200000D03*
X54395000Y-47200000D03*
X56935000Y-47200000D03*
X59475000Y-47200000D03*
X62015000Y-47200000D03*
%TD*%
D19*
%TO.C,D17*%
X143002000Y-54892000D03*
D20*
X132842000Y-54892000D03*
%TD*%
D17*
%TO.C,U7*%
X47961000Y-109413000D03*
D18*
X50501000Y-109413000D03*
X50501000Y-101793000D03*
X47961000Y-101793000D03*
%TD*%
D17*
%TO.C,U11*%
X124196000Y-44737000D03*
D18*
X124196000Y-42197000D03*
X116576000Y-42197000D03*
X116576000Y-44737000D03*
%TD*%
D23*
%TO.C,Q5*%
X113030000Y-87630000D03*
D24*
X110490000Y-87630000D03*
X107950000Y-87630000D03*
%TD*%
D17*
%TO.C,U10*%
X105654000Y-44709000D03*
D18*
X105654000Y-42169000D03*
X98034000Y-42169000D03*
X98034000Y-44709000D03*
%TD*%
D17*
%TO.C,U6*%
X38055000Y-109159000D03*
D18*
X40595000Y-109159000D03*
X40595000Y-101539000D03*
X38055000Y-101539000D03*
%TD*%
D19*
%TO.C,D1*%
X104648000Y-24130000D03*
D20*
X94488000Y-24130000D03*
%TD*%
D17*
%TO.C,U9*%
X87026000Y-44700000D03*
D18*
X87026000Y-42160000D03*
X79406000Y-42160000D03*
X79406000Y-44700000D03*
%TD*%
D17*
%TO.C,U8*%
X58121000Y-109413000D03*
D18*
X60661000Y-109413000D03*
X60661000Y-101793000D03*
X58121000Y-101793000D03*
%TD*%
D19*
%TO.C,D11*%
X87026000Y-54606000D03*
D20*
X76866000Y-54606000D03*
%TD*%
D25*
%TO.C,J1*%
X142748000Y-34702000D03*
D26*
X142748000Y-28702000D03*
D27*
X138048000Y-31702000D03*
%TD*%
D17*
%TO.C,U15*%
X48260000Y-87112000D03*
D18*
X50800000Y-87112000D03*
X50800000Y-79492000D03*
X48260000Y-79492000D03*
%TD*%
D23*
%TO.C,Q7*%
X87884000Y-87630000D03*
D24*
X85344000Y-87630000D03*
X82804000Y-87630000D03*
%TD*%
D23*
%TO.C,Q8*%
X100584000Y-87630000D03*
D24*
X98044000Y-87630000D03*
X95504000Y-87630000D03*
%TD*%
D17*
%TO.C,U14*%
X38608000Y-87112000D03*
D18*
X41148000Y-87112000D03*
X41148000Y-79492000D03*
X38608000Y-79492000D03*
%TD*%
D19*
%TO.C,D16*%
X124206000Y-54864000D03*
D20*
X114046000Y-54864000D03*
%TD*%
D17*
%TO.C,U16*%
X58928000Y-87112000D03*
D18*
X61468000Y-87112000D03*
X61468000Y-79492000D03*
X58928000Y-79492000D03*
%TD*%
D23*
%TO.C,Q6*%
X125730000Y-87630000D03*
D24*
X123190000Y-87630000D03*
X120650000Y-87630000D03*
%TD*%
D28*
%TO.C,JP3*%
X118080000Y-73660000D03*
X119380000Y-73660000D03*
X120680000Y-73660000D03*
%TD*%
%TO.C,JP1*%
X80488000Y-73660000D03*
X81788000Y-73660000D03*
X83088000Y-73660000D03*
%TD*%
%TO.C,JP4*%
X136876000Y-73660000D03*
X138176000Y-73660000D03*
X139476000Y-73660000D03*
%TD*%
%TO.C,JP2*%
X99284000Y-73660000D03*
X100584000Y-73660000D03*
X101884000Y-73660000D03*
%TD*%
%LPD*%
M02*
